<?xml version="1.0" encoding="utf-8" standalone="no"?>
<!DOCTYPE svg PUBLIC "-//W3C//DTD SVG 1.1//EN"
  "http://www.w3.org/Graphics/SVG/1.1/DTD/svg11.dtd">
<!-- Created with matplotlib (https://matplotlib.org/) -->
<svg height="298.8pt" version="1.1" viewBox="0 0 720 298.8" width="720pt" xmlns="http://www.w3.org/2000/svg" xmlns:xlink="http://www.w3.org/1999/xlink">
 <defs>
  <style type="text/css">
*{stroke-linecap:butt;stroke-linejoin:round;white-space:pre;}
  </style>
 </defs>
 <g id="figure_1">
  <g id="patch_1">
   <path d="M 0 298.8 
L 720 298.8 
L 720 0 
L 0 0 
z
" style="fill:#ffffff;"/>
  </g>
  <g id="axes_1">
   <g id="patch_2">
    <path d="M 90 140.436 
L 648 140.436 
L 648 35.856 
L 90 35.856 
z
" style="fill:#ffffff;"/>
   </g>
   <g id="matplotlib.axis_1">
    <g id="xtick_1">
     <g id="line2d_1">
      <path clip-path="url(#p90e1482725)" d="M 166.951075 140.436 
L 166.951075 35.856 
" style="fill:none;stroke:#b0b0b0;stroke-linecap:square;stroke-width:0.8;"/>
     </g>
     <g id="line2d_2">
      <defs>
       <path d="M 0 0 
L 0 3.5 
" id="m4a2f2e2566" style="stroke:#000000;stroke-width:0.8;"/>
      </defs>
      <g>
       <use style="stroke:#000000;stroke-width:0.8;" x="166.951075" xlink:href="#m4a2f2e2566" y="140.436"/>
      </g>
     </g>
     <g id="text_1">
      <!-- $\mathdefault{10^{0}}$ -->
      <defs>
       <path d="M 12.40625 8.296875 
L 28.515625 8.296875 
L 28.515625 63.921875 
L 10.984375 60.40625 
L 10.984375 69.390625 
L 28.421875 72.90625 
L 38.28125 72.90625 
L 38.28125 8.296875 
L 54.390625 8.296875 
L 54.390625 0 
L 12.40625 0 
z
" id="DejaVuSans-49"/>
       <path d="M 31.78125 66.40625 
Q 24.171875 66.40625 20.328125 58.90625 
Q 16.5 51.421875 16.5 36.375 
Q 16.5 21.390625 20.328125 13.890625 
Q 24.171875 6.390625 31.78125 6.390625 
Q 39.453125 6.390625 43.28125 13.890625 
Q 47.125 21.390625 47.125 36.375 
Q 47.125 51.421875 43.28125 58.90625 
Q 39.453125 66.40625 31.78125 66.40625 
z
M 31.78125 74.21875 
Q 44.046875 74.21875 50.515625 64.515625 
Q 56.984375 54.828125 56.984375 36.375 
Q 56.984375 17.96875 50.515625 8.265625 
Q 44.046875 -1.421875 31.78125 -1.421875 
Q 19.53125 -1.421875 13.0625 8.265625 
Q 6.59375 17.96875 6.59375 36.375 
Q 6.59375 54.828125 13.0625 64.515625 
Q 19.53125 74.21875 31.78125 74.21875 
z
" id="DejaVuSans-48"/>
      </defs>
      <g transform="translate(158.151075 155.034437)scale(0.1 -0.1)">
       <use transform="translate(0 0.765625)" xlink:href="#DejaVuSans-49"/>
       <use transform="translate(63.623047 0.765625)" xlink:href="#DejaVuSans-48"/>
       <use transform="translate(128.203125 39.046875)scale(0.7)" xlink:href="#DejaVuSans-48"/>
      </g>
     </g>
    </g>
    <g id="xtick_2">
     <g id="line2d_3">
      <path clip-path="url(#p90e1482725)" d="M 358.718932 140.436 
L 358.718932 35.856 
" style="fill:none;stroke:#b0b0b0;stroke-linecap:square;stroke-width:0.8;"/>
     </g>
     <g id="line2d_4">
      <g>
       <use style="stroke:#000000;stroke-width:0.8;" x="358.718932" xlink:href="#m4a2f2e2566" y="140.436"/>
      </g>
     </g>
     <g id="text_2">
      <!-- $\mathdefault{10^{1}}$ -->
      <g transform="translate(349.918932 155.034437)scale(0.1 -0.1)">
       <use transform="translate(0 0.684375)" xlink:href="#DejaVuSans-49"/>
       <use transform="translate(63.623047 0.684375)" xlink:href="#DejaVuSans-48"/>
       <use transform="translate(128.203125 38.965625)scale(0.7)" xlink:href="#DejaVuSans-49"/>
      </g>
     </g>
    </g>
    <g id="xtick_3">
     <g id="line2d_5">
      <path clip-path="url(#p90e1482725)" d="M 550.486789 140.436 
L 550.486789 35.856 
" style="fill:none;stroke:#b0b0b0;stroke-linecap:square;stroke-width:0.8;"/>
     </g>
     <g id="line2d_6">
      <g>
       <use style="stroke:#000000;stroke-width:0.8;" x="550.486789" xlink:href="#m4a2f2e2566" y="140.436"/>
      </g>
     </g>
     <g id="text_3">
      <!-- $\mathdefault{10^{2}}$ -->
      <defs>
       <path d="M 19.1875 8.296875 
L 53.609375 8.296875 
L 53.609375 0 
L 7.328125 0 
L 7.328125 8.296875 
Q 12.9375 14.109375 22.625 23.890625 
Q 32.328125 33.6875 34.8125 36.53125 
Q 39.546875 41.84375 41.421875 45.53125 
Q 43.3125 49.21875 43.3125 52.78125 
Q 43.3125 58.59375 39.234375 62.25 
Q 35.15625 65.921875 28.609375 65.921875 
Q 23.96875 65.921875 18.8125 64.3125 
Q 13.671875 62.703125 7.8125 59.421875 
L 7.8125 69.390625 
Q 13.765625 71.78125 18.9375 73 
Q 24.125 74.21875 28.421875 74.21875 
Q 39.75 74.21875 46.484375 68.546875 
Q 53.21875 62.890625 53.21875 53.421875 
Q 53.21875 48.921875 51.53125 44.890625 
Q 49.859375 40.875 45.40625 35.40625 
Q 44.1875 33.984375 37.640625 27.21875 
Q 31.109375 20.453125 19.1875 8.296875 
z
" id="DejaVuSans-50"/>
      </defs>
      <g transform="translate(541.686789 155.034437)scale(0.1 -0.1)">
       <use transform="translate(0 0.765625)" xlink:href="#DejaVuSans-49"/>
       <use transform="translate(63.623047 0.765625)" xlink:href="#DejaVuSans-48"/>
       <use transform="translate(128.203125 39.046875)scale(0.7)" xlink:href="#DejaVuSans-50"/>
      </g>
     </g>
    </g>
    <g id="xtick_4">
     <g id="line2d_7">
      <defs>
       <path d="M 0 0 
L 0 2 
" id="m8fd1d195b0" style="stroke:#000000;stroke-width:0.6;"/>
      </defs>
      <g>
       <use style="stroke:#000000;stroke-width:0.6;" x="90.638972" xlink:href="#m8fd1d195b0" y="140.436"/>
      </g>
     </g>
    </g>
    <g id="xtick_5">
     <g id="line2d_8">
      <g>
       <use style="stroke:#000000;stroke-width:0.6;" x="109.223198" xlink:href="#m8fd1d195b0" y="140.436"/>
      </g>
     </g>
    </g>
    <g id="xtick_6">
     <g id="line2d_9">
      <g>
       <use style="stroke:#000000;stroke-width:0.6;" x="124.407616" xlink:href="#m8fd1d195b0" y="140.436"/>
      </g>
     </g>
    </g>
    <g id="xtick_7">
     <g id="line2d_10">
      <g>
       <use style="stroke:#000000;stroke-width:0.6;" x="137.245858" xlink:href="#m8fd1d195b0" y="140.436"/>
      </g>
     </g>
    </g>
    <g id="xtick_8">
     <g id="line2d_11">
      <g>
       <use style="stroke:#000000;stroke-width:0.6;" x="148.36685" xlink:href="#m8fd1d195b0" y="140.436"/>
      </g>
     </g>
    </g>
    <g id="xtick_9">
     <g id="line2d_12">
      <g>
       <use style="stroke:#000000;stroke-width:0.6;" x="158.176259" xlink:href="#m8fd1d195b0" y="140.436"/>
      </g>
     </g>
    </g>
    <g id="xtick_10">
     <g id="line2d_13">
      <g>
       <use style="stroke:#000000;stroke-width:0.6;" x="224.678952" xlink:href="#m8fd1d195b0" y="140.436"/>
      </g>
     </g>
    </g>
    <g id="xtick_11">
     <g id="line2d_14">
      <g>
       <use style="stroke:#000000;stroke-width:0.6;" x="258.447596" xlink:href="#m8fd1d195b0" y="140.436"/>
      </g>
     </g>
    </g>
    <g id="xtick_12">
     <g id="line2d_15">
      <g>
       <use style="stroke:#000000;stroke-width:0.6;" x="282.406829" xlink:href="#m8fd1d195b0" y="140.436"/>
      </g>
     </g>
    </g>
    <g id="xtick_13">
     <g id="line2d_16">
      <g>
       <use style="stroke:#000000;stroke-width:0.6;" x="300.991055" xlink:href="#m8fd1d195b0" y="140.436"/>
      </g>
     </g>
    </g>
    <g id="xtick_14">
     <g id="line2d_17">
      <g>
       <use style="stroke:#000000;stroke-width:0.6;" x="316.175473" xlink:href="#m8fd1d195b0" y="140.436"/>
      </g>
     </g>
    </g>
    <g id="xtick_15">
     <g id="line2d_18">
      <g>
       <use style="stroke:#000000;stroke-width:0.6;" x="329.013715" xlink:href="#m8fd1d195b0" y="140.436"/>
      </g>
     </g>
    </g>
    <g id="xtick_16">
     <g id="line2d_19">
      <g>
       <use style="stroke:#000000;stroke-width:0.6;" x="340.134707" xlink:href="#m8fd1d195b0" y="140.436"/>
      </g>
     </g>
    </g>
    <g id="xtick_17">
     <g id="line2d_20">
      <g>
       <use style="stroke:#000000;stroke-width:0.6;" x="349.944116" xlink:href="#m8fd1d195b0" y="140.436"/>
      </g>
     </g>
    </g>
    <g id="xtick_18">
     <g id="line2d_21">
      <g>
       <use style="stroke:#000000;stroke-width:0.6;" x="416.446809" xlink:href="#m8fd1d195b0" y="140.436"/>
      </g>
     </g>
    </g>
    <g id="xtick_19">
     <g id="line2d_22">
      <g>
       <use style="stroke:#000000;stroke-width:0.6;" x="450.215453" xlink:href="#m8fd1d195b0" y="140.436"/>
      </g>
     </g>
    </g>
    <g id="xtick_20">
     <g id="line2d_23">
      <g>
       <use style="stroke:#000000;stroke-width:0.6;" x="474.174687" xlink:href="#m8fd1d195b0" y="140.436"/>
      </g>
     </g>
    </g>
    <g id="xtick_21">
     <g id="line2d_24">
      <g>
       <use style="stroke:#000000;stroke-width:0.6;" x="492.758912" xlink:href="#m8fd1d195b0" y="140.436"/>
      </g>
     </g>
    </g>
    <g id="xtick_22">
     <g id="line2d_25">
      <g>
       <use style="stroke:#000000;stroke-width:0.6;" x="507.94333" xlink:href="#m8fd1d195b0" y="140.436"/>
      </g>
     </g>
    </g>
    <g id="xtick_23">
     <g id="line2d_26">
      <g>
       <use style="stroke:#000000;stroke-width:0.6;" x="520.781572" xlink:href="#m8fd1d195b0" y="140.436"/>
      </g>
     </g>
    </g>
    <g id="xtick_24">
     <g id="line2d_27">
      <g>
       <use style="stroke:#000000;stroke-width:0.6;" x="531.902564" xlink:href="#m8fd1d195b0" y="140.436"/>
      </g>
     </g>
    </g>
    <g id="xtick_25">
     <g id="line2d_28">
      <g>
       <use style="stroke:#000000;stroke-width:0.6;" x="541.711973" xlink:href="#m8fd1d195b0" y="140.436"/>
      </g>
     </g>
    </g>
    <g id="xtick_26">
     <g id="line2d_29">
      <g>
       <use style="stroke:#000000;stroke-width:0.6;" x="608.214667" xlink:href="#m8fd1d195b0" y="140.436"/>
      </g>
     </g>
    </g>
    <g id="xtick_27">
     <g id="line2d_30">
      <g>
       <use style="stroke:#000000;stroke-width:0.6;" x="641.98331" xlink:href="#m8fd1d195b0" y="140.436"/>
      </g>
     </g>
    </g>
    <g id="text_4">
     <!-- JSON size (MB) -->
     <defs>
      <path d="M 9.8125 72.90625 
L 19.671875 72.90625 
L 19.671875 5.078125 
Q 19.671875 -8.109375 14.671875 -14.0625 
Q 9.671875 -20.015625 -1.421875 -20.015625 
L -5.171875 -20.015625 
L -5.171875 -11.71875 
L -2.09375 -11.71875 
Q 4.4375 -11.71875 7.125 -8.046875 
Q 9.8125 -4.390625 9.8125 5.078125 
z
" id="DejaVuSans-74"/>
      <path d="M 53.515625 70.515625 
L 53.515625 60.890625 
Q 47.90625 63.578125 42.921875 64.890625 
Q 37.9375 66.21875 33.296875 66.21875 
Q 25.25 66.21875 20.875 63.09375 
Q 16.5 59.96875 16.5 54.203125 
Q 16.5 49.359375 19.40625 46.890625 
Q 22.3125 44.4375 30.421875 42.921875 
L 36.375 41.703125 
Q 47.40625 39.59375 52.65625 34.296875 
Q 57.90625 29 57.90625 20.125 
Q 57.90625 9.515625 50.796875 4.046875 
Q 43.703125 -1.421875 29.984375 -1.421875 
Q 24.8125 -1.421875 18.96875 -0.25 
Q 13.140625 0.921875 6.890625 3.21875 
L 6.890625 13.375 
Q 12.890625 10.015625 18.65625 8.296875 
Q 24.421875 6.59375 29.984375 6.59375 
Q 38.421875 6.59375 43.015625 9.90625 
Q 47.609375 13.234375 47.609375 19.390625 
Q 47.609375 24.75 44.3125 27.78125 
Q 41.015625 30.8125 33.5 32.328125 
L 27.484375 33.5 
Q 16.453125 35.6875 11.515625 40.375 
Q 6.59375 45.0625 6.59375 53.421875 
Q 6.59375 63.09375 13.40625 68.65625 
Q 20.21875 74.21875 32.171875 74.21875 
Q 37.3125 74.21875 42.625 73.28125 
Q 47.953125 72.359375 53.515625 70.515625 
z
" id="DejaVuSans-83"/>
      <path d="M 39.40625 66.21875 
Q 28.65625 66.21875 22.328125 58.203125 
Q 16.015625 50.203125 16.015625 36.375 
Q 16.015625 22.609375 22.328125 14.59375 
Q 28.65625 6.59375 39.40625 6.59375 
Q 50.140625 6.59375 56.421875 14.59375 
Q 62.703125 22.609375 62.703125 36.375 
Q 62.703125 50.203125 56.421875 58.203125 
Q 50.140625 66.21875 39.40625 66.21875 
z
M 39.40625 74.21875 
Q 54.734375 74.21875 63.90625 63.9375 
Q 73.09375 53.65625 73.09375 36.375 
Q 73.09375 19.140625 63.90625 8.859375 
Q 54.734375 -1.421875 39.40625 -1.421875 
Q 24.03125 -1.421875 14.8125 8.828125 
Q 5.609375 19.09375 5.609375 36.375 
Q 5.609375 53.65625 14.8125 63.9375 
Q 24.03125 74.21875 39.40625 74.21875 
z
" id="DejaVuSans-79"/>
      <path d="M 9.8125 72.90625 
L 23.09375 72.90625 
L 55.421875 11.921875 
L 55.421875 72.90625 
L 64.984375 72.90625 
L 64.984375 0 
L 51.703125 0 
L 19.390625 60.984375 
L 19.390625 0 
L 9.8125 0 
z
" id="DejaVuSans-78"/>
      <path id="DejaVuSans-32"/>
      <path d="M 44.28125 53.078125 
L 44.28125 44.578125 
Q 40.484375 46.53125 36.375 47.5 
Q 32.28125 48.484375 27.875 48.484375 
Q 21.1875 48.484375 17.84375 46.4375 
Q 14.5 44.390625 14.5 40.28125 
Q 14.5 37.15625 16.890625 35.375 
Q 19.28125 33.59375 26.515625 31.984375 
L 29.59375 31.296875 
Q 39.15625 29.25 43.1875 25.515625 
Q 47.21875 21.78125 47.21875 15.09375 
Q 47.21875 7.46875 41.1875 3.015625 
Q 35.15625 -1.421875 24.609375 -1.421875 
Q 20.21875 -1.421875 15.453125 -0.5625 
Q 10.6875 0.296875 5.421875 2 
L 5.421875 11.28125 
Q 10.40625 8.6875 15.234375 7.390625 
Q 20.0625 6.109375 24.8125 6.109375 
Q 31.15625 6.109375 34.5625 8.28125 
Q 37.984375 10.453125 37.984375 14.40625 
Q 37.984375 18.0625 35.515625 20.015625 
Q 33.0625 21.96875 24.703125 23.78125 
L 21.578125 24.515625 
Q 13.234375 26.265625 9.515625 29.90625 
Q 5.8125 33.546875 5.8125 39.890625 
Q 5.8125 47.609375 11.28125 51.796875 
Q 16.75 56 26.8125 56 
Q 31.78125 56 36.171875 55.265625 
Q 40.578125 54.546875 44.28125 53.078125 
z
" id="DejaVuSans-115"/>
      <path d="M 9.421875 54.6875 
L 18.40625 54.6875 
L 18.40625 0 
L 9.421875 0 
z
M 9.421875 75.984375 
L 18.40625 75.984375 
L 18.40625 64.59375 
L 9.421875 64.59375 
z
" id="DejaVuSans-105"/>
      <path d="M 5.515625 54.6875 
L 48.1875 54.6875 
L 48.1875 46.484375 
L 14.40625 7.171875 
L 48.1875 7.171875 
L 48.1875 0 
L 4.296875 0 
L 4.296875 8.203125 
L 38.09375 47.515625 
L 5.515625 47.515625 
z
" id="DejaVuSans-122"/>
      <path d="M 56.203125 29.59375 
L 56.203125 25.203125 
L 14.890625 25.203125 
Q 15.484375 15.921875 20.484375 11.0625 
Q 25.484375 6.203125 34.421875 6.203125 
Q 39.59375 6.203125 44.453125 7.46875 
Q 49.3125 8.734375 54.109375 11.28125 
L 54.109375 2.78125 
Q 49.265625 0.734375 44.1875 -0.34375 
Q 39.109375 -1.421875 33.890625 -1.421875 
Q 20.796875 -1.421875 13.15625 6.1875 
Q 5.515625 13.8125 5.515625 26.8125 
Q 5.515625 40.234375 12.765625 48.109375 
Q 20.015625 56 32.328125 56 
Q 43.359375 56 49.78125 48.890625 
Q 56.203125 41.796875 56.203125 29.59375 
z
M 47.21875 32.234375 
Q 47.125 39.59375 43.09375 43.984375 
Q 39.0625 48.390625 32.421875 48.390625 
Q 24.90625 48.390625 20.390625 44.140625 
Q 15.875 39.890625 15.1875 32.171875 
z
" id="DejaVuSans-101"/>
      <path d="M 31 75.875 
Q 24.46875 64.65625 21.28125 53.65625 
Q 18.109375 42.671875 18.109375 31.390625 
Q 18.109375 20.125 21.3125 9.0625 
Q 24.515625 -2 31 -13.1875 
L 23.1875 -13.1875 
Q 15.875 -1.703125 12.234375 9.375 
Q 8.59375 20.453125 8.59375 31.390625 
Q 8.59375 42.28125 12.203125 53.3125 
Q 15.828125 64.359375 23.1875 75.875 
z
" id="DejaVuSans-40"/>
      <path d="M 9.8125 72.90625 
L 24.515625 72.90625 
L 43.109375 23.296875 
L 61.8125 72.90625 
L 76.515625 72.90625 
L 76.515625 0 
L 66.890625 0 
L 66.890625 64.015625 
L 48.09375 14.015625 
L 38.1875 14.015625 
L 19.390625 64.015625 
L 19.390625 0 
L 9.8125 0 
z
" id="DejaVuSans-77"/>
      <path d="M 19.671875 34.8125 
L 19.671875 8.109375 
L 35.5 8.109375 
Q 43.453125 8.109375 47.28125 11.40625 
Q 51.125 14.703125 51.125 21.484375 
Q 51.125 28.328125 47.28125 31.5625 
Q 43.453125 34.8125 35.5 34.8125 
z
M 19.671875 64.796875 
L 19.671875 42.828125 
L 34.28125 42.828125 
Q 41.5 42.828125 45.03125 45.53125 
Q 48.578125 48.25 48.578125 53.8125 
Q 48.578125 59.328125 45.03125 62.0625 
Q 41.5 64.796875 34.28125 64.796875 
z
M 9.8125 72.90625 
L 35.015625 72.90625 
Q 46.296875 72.90625 52.390625 68.21875 
Q 58.5 63.53125 58.5 54.890625 
Q 58.5 48.1875 55.375 44.234375 
Q 52.25 40.28125 46.1875 39.3125 
Q 53.46875 37.75 57.5 32.78125 
Q 61.53125 27.828125 61.53125 20.40625 
Q 61.53125 10.640625 54.890625 5.3125 
Q 48.25 0 35.984375 0 
L 9.8125 0 
z
" id="DejaVuSans-66"/>
      <path d="M 8.015625 75.875 
L 15.828125 75.875 
Q 23.140625 64.359375 26.78125 53.3125 
Q 30.421875 42.28125 30.421875 31.390625 
Q 30.421875 20.453125 26.78125 9.375 
Q 23.140625 -1.703125 15.828125 -13.1875 
L 8.015625 -13.1875 
Q 14.5 -2 17.703125 9.0625 
Q 20.90625 20.125 20.90625 31.390625 
Q 20.90625 42.671875 17.703125 53.65625 
Q 14.5 64.65625 8.015625 75.875 
z
" id="DejaVuSans-41"/>
     </defs>
     <g transform="translate(332.155469 168.712562)scale(0.1 -0.1)">
      <use xlink:href="#DejaVuSans-74"/>
      <use x="29.492188" xlink:href="#DejaVuSans-83"/>
      <use x="92.96875" xlink:href="#DejaVuSans-79"/>
      <use x="171.679688" xlink:href="#DejaVuSans-78"/>
      <use x="246.484375" xlink:href="#DejaVuSans-32"/>
      <use x="278.271484" xlink:href="#DejaVuSans-115"/>
      <use x="330.371094" xlink:href="#DejaVuSans-105"/>
      <use x="358.154297" xlink:href="#DejaVuSans-122"/>
      <use x="410.644531" xlink:href="#DejaVuSans-101"/>
      <use x="472.167969" xlink:href="#DejaVuSans-32"/>
      <use x="503.955078" xlink:href="#DejaVuSans-40"/>
      <use x="542.96875" xlink:href="#DejaVuSans-77"/>
      <use x="629.248047" xlink:href="#DejaVuSans-66"/>
      <use x="697.851562" xlink:href="#DejaVuSans-41"/>
     </g>
    </g>
   </g>
   <g id="matplotlib.axis_2">
    <g id="ytick_1">
     <g id="line2d_31">
      <path clip-path="url(#p90e1482725)" d="M 90 115.511172 
L 648 115.511172 
" style="fill:none;stroke:#b0b0b0;stroke-linecap:square;stroke-width:0.8;"/>
     </g>
     <g id="line2d_32">
      <defs>
       <path d="M 0 0 
L -3.5 0 
" id="mf70b0234a1" style="stroke:#000000;stroke-width:0.8;"/>
      </defs>
      <g>
       <use style="stroke:#000000;stroke-width:0.8;" x="90" xlink:href="#mf70b0234a1" y="115.511172"/>
      </g>
     </g>
     <g id="text_5">
      <!-- 0.25 -->
      <defs>
       <path d="M 10.6875 12.40625 
L 21 12.40625 
L 21 0 
L 10.6875 0 
z
" id="DejaVuSans-46"/>
       <path d="M 10.796875 72.90625 
L 49.515625 72.90625 
L 49.515625 64.59375 
L 19.828125 64.59375 
L 19.828125 46.734375 
Q 21.96875 47.46875 24.109375 47.828125 
Q 26.265625 48.1875 28.421875 48.1875 
Q 40.625 48.1875 47.75 41.5 
Q 54.890625 34.8125 54.890625 23.390625 
Q 54.890625 11.625 47.5625 5.09375 
Q 40.234375 -1.421875 26.90625 -1.421875 
Q 22.3125 -1.421875 17.546875 -0.640625 
Q 12.796875 0.140625 7.71875 1.703125 
L 7.71875 11.625 
Q 12.109375 9.234375 16.796875 8.0625 
Q 21.484375 6.890625 26.703125 6.890625 
Q 35.15625 6.890625 40.078125 11.328125 
Q 45.015625 15.765625 45.015625 23.390625 
Q 45.015625 31 40.078125 35.4375 
Q 35.15625 39.890625 26.703125 39.890625 
Q 22.75 39.890625 18.8125 39.015625 
Q 14.890625 38.140625 10.796875 36.28125 
z
" id="DejaVuSans-53"/>
      </defs>
      <g transform="translate(60.734375 119.310391)scale(0.1 -0.1)">
       <use xlink:href="#DejaVuSans-48"/>
       <use x="63.623047" xlink:href="#DejaVuSans-46"/>
       <use x="95.410156" xlink:href="#DejaVuSans-50"/>
       <use x="159.033203" xlink:href="#DejaVuSans-53"/>
      </g>
     </g>
    </g>
    <g id="ytick_2">
     <g id="line2d_33">
      <path clip-path="url(#p90e1482725)" d="M 90 90.543993 
L 648 90.543993 
" style="fill:none;stroke:#b0b0b0;stroke-linecap:square;stroke-width:0.8;"/>
     </g>
     <g id="line2d_34">
      <g>
       <use style="stroke:#000000;stroke-width:0.8;" x="90" xlink:href="#mf70b0234a1" y="90.543993"/>
      </g>
     </g>
     <g id="text_6">
      <!-- 0.50 -->
      <g transform="translate(60.734375 94.343212)scale(0.1 -0.1)">
       <use xlink:href="#DejaVuSans-48"/>
       <use x="63.623047" xlink:href="#DejaVuSans-46"/>
       <use x="95.410156" xlink:href="#DejaVuSans-53"/>
       <use x="159.033203" xlink:href="#DejaVuSans-48"/>
      </g>
     </g>
    </g>
    <g id="ytick_3">
     <g id="line2d_35">
      <path clip-path="url(#p90e1482725)" d="M 90 65.576815 
L 648 65.576815 
" style="fill:none;stroke:#b0b0b0;stroke-linecap:square;stroke-width:0.8;"/>
     </g>
     <g id="line2d_36">
      <g>
       <use style="stroke:#000000;stroke-width:0.8;" x="90" xlink:href="#mf70b0234a1" y="65.576815"/>
      </g>
     </g>
     <g id="text_7">
      <!-- 0.75 -->
      <defs>
       <path d="M 8.203125 72.90625 
L 55.078125 72.90625 
L 55.078125 68.703125 
L 28.609375 0 
L 18.3125 0 
L 43.21875 64.59375 
L 8.203125 64.59375 
z
" id="DejaVuSans-55"/>
      </defs>
      <g transform="translate(60.734375 69.376034)scale(0.1 -0.1)">
       <use xlink:href="#DejaVuSans-48"/>
       <use x="63.623047" xlink:href="#DejaVuSans-46"/>
       <use x="95.410156" xlink:href="#DejaVuSans-55"/>
       <use x="159.033203" xlink:href="#DejaVuSans-53"/>
      </g>
     </g>
    </g>
    <g id="ytick_4">
     <g id="line2d_37">
      <path clip-path="url(#p90e1482725)" d="M 90 40.609636 
L 648 40.609636 
" style="fill:none;stroke:#b0b0b0;stroke-linecap:square;stroke-width:0.8;"/>
     </g>
     <g id="line2d_38">
      <g>
       <use style="stroke:#000000;stroke-width:0.8;" x="90" xlink:href="#mf70b0234a1" y="40.609636"/>
      </g>
     </g>
     <g id="text_8">
      <!-- 1.00 -->
      <g transform="translate(60.734375 44.408855)scale(0.1 -0.1)">
       <use xlink:href="#DejaVuSans-49"/>
       <use x="63.623047" xlink:href="#DejaVuSans-46"/>
       <use x="95.410156" xlink:href="#DejaVuSans-48"/>
       <use x="159.033203" xlink:href="#DejaVuSans-48"/>
      </g>
     </g>
    </g>
    <g id="text_9">
     <!-- Encode time (ratio) -->
     <defs>
      <path d="M 9.8125 72.90625 
L 55.90625 72.90625 
L 55.90625 64.59375 
L 19.671875 64.59375 
L 19.671875 43.015625 
L 54.390625 43.015625 
L 54.390625 34.71875 
L 19.671875 34.71875 
L 19.671875 8.296875 
L 56.78125 8.296875 
L 56.78125 0 
L 9.8125 0 
z
" id="DejaVuSans-69"/>
      <path d="M 54.890625 33.015625 
L 54.890625 0 
L 45.90625 0 
L 45.90625 32.71875 
Q 45.90625 40.484375 42.875 44.328125 
Q 39.84375 48.1875 33.796875 48.1875 
Q 26.515625 48.1875 22.3125 43.546875 
Q 18.109375 38.921875 18.109375 30.90625 
L 18.109375 0 
L 9.078125 0 
L 9.078125 54.6875 
L 18.109375 54.6875 
L 18.109375 46.1875 
Q 21.34375 51.125 25.703125 53.5625 
Q 30.078125 56 35.796875 56 
Q 45.21875 56 50.046875 50.171875 
Q 54.890625 44.34375 54.890625 33.015625 
z
" id="DejaVuSans-110"/>
      <path d="M 48.78125 52.59375 
L 48.78125 44.1875 
Q 44.96875 46.296875 41.140625 47.34375 
Q 37.3125 48.390625 33.40625 48.390625 
Q 24.65625 48.390625 19.8125 42.84375 
Q 14.984375 37.3125 14.984375 27.296875 
Q 14.984375 17.28125 19.8125 11.734375 
Q 24.65625 6.203125 33.40625 6.203125 
Q 37.3125 6.203125 41.140625 7.25 
Q 44.96875 8.296875 48.78125 10.40625 
L 48.78125 2.09375 
Q 45.015625 0.34375 40.984375 -0.53125 
Q 36.96875 -1.421875 32.421875 -1.421875 
Q 20.0625 -1.421875 12.78125 6.34375 
Q 5.515625 14.109375 5.515625 27.296875 
Q 5.515625 40.671875 12.859375 48.328125 
Q 20.21875 56 33.015625 56 
Q 37.15625 56 41.109375 55.140625 
Q 45.0625 54.296875 48.78125 52.59375 
z
" id="DejaVuSans-99"/>
      <path d="M 30.609375 48.390625 
Q 23.390625 48.390625 19.1875 42.75 
Q 14.984375 37.109375 14.984375 27.296875 
Q 14.984375 17.484375 19.15625 11.84375 
Q 23.34375 6.203125 30.609375 6.203125 
Q 37.796875 6.203125 41.984375 11.859375 
Q 46.1875 17.53125 46.1875 27.296875 
Q 46.1875 37.015625 41.984375 42.703125 
Q 37.796875 48.390625 30.609375 48.390625 
z
M 30.609375 56 
Q 42.328125 56 49.015625 48.375 
Q 55.71875 40.765625 55.71875 27.296875 
Q 55.71875 13.875 49.015625 6.21875 
Q 42.328125 -1.421875 30.609375 -1.421875 
Q 18.84375 -1.421875 12.171875 6.21875 
Q 5.515625 13.875 5.515625 27.296875 
Q 5.515625 40.765625 12.171875 48.375 
Q 18.84375 56 30.609375 56 
z
" id="DejaVuSans-111"/>
      <path d="M 45.40625 46.390625 
L 45.40625 75.984375 
L 54.390625 75.984375 
L 54.390625 0 
L 45.40625 0 
L 45.40625 8.203125 
Q 42.578125 3.328125 38.25 0.953125 
Q 33.9375 -1.421875 27.875 -1.421875 
Q 17.96875 -1.421875 11.734375 6.484375 
Q 5.515625 14.40625 5.515625 27.296875 
Q 5.515625 40.1875 11.734375 48.09375 
Q 17.96875 56 27.875 56 
Q 33.9375 56 38.25 53.625 
Q 42.578125 51.265625 45.40625 46.390625 
z
M 14.796875 27.296875 
Q 14.796875 17.390625 18.875 11.75 
Q 22.953125 6.109375 30.078125 6.109375 
Q 37.203125 6.109375 41.296875 11.75 
Q 45.40625 17.390625 45.40625 27.296875 
Q 45.40625 37.203125 41.296875 42.84375 
Q 37.203125 48.484375 30.078125 48.484375 
Q 22.953125 48.484375 18.875 42.84375 
Q 14.796875 37.203125 14.796875 27.296875 
z
" id="DejaVuSans-100"/>
      <path d="M 18.3125 70.21875 
L 18.3125 54.6875 
L 36.8125 54.6875 
L 36.8125 47.703125 
L 18.3125 47.703125 
L 18.3125 18.015625 
Q 18.3125 11.328125 20.140625 9.421875 
Q 21.96875 7.515625 27.59375 7.515625 
L 36.8125 7.515625 
L 36.8125 0 
L 27.59375 0 
Q 17.1875 0 13.234375 3.875 
Q 9.28125 7.765625 9.28125 18.015625 
L 9.28125 47.703125 
L 2.6875 47.703125 
L 2.6875 54.6875 
L 9.28125 54.6875 
L 9.28125 70.21875 
z
" id="DejaVuSans-116"/>
      <path d="M 52 44.1875 
Q 55.375 50.25 60.0625 53.125 
Q 64.75 56 71.09375 56 
Q 79.640625 56 84.28125 50.015625 
Q 88.921875 44.046875 88.921875 33.015625 
L 88.921875 0 
L 79.890625 0 
L 79.890625 32.71875 
Q 79.890625 40.578125 77.09375 44.375 
Q 74.3125 48.1875 68.609375 48.1875 
Q 61.625 48.1875 57.5625 43.546875 
Q 53.515625 38.921875 53.515625 30.90625 
L 53.515625 0 
L 44.484375 0 
L 44.484375 32.71875 
Q 44.484375 40.625 41.703125 44.40625 
Q 38.921875 48.1875 33.109375 48.1875 
Q 26.21875 48.1875 22.15625 43.53125 
Q 18.109375 38.875 18.109375 30.90625 
L 18.109375 0 
L 9.078125 0 
L 9.078125 54.6875 
L 18.109375 54.6875 
L 18.109375 46.1875 
Q 21.1875 51.21875 25.484375 53.609375 
Q 29.78125 56 35.6875 56 
Q 41.65625 56 45.828125 52.96875 
Q 50 49.953125 52 44.1875 
z
" id="DejaVuSans-109"/>
      <path d="M 41.109375 46.296875 
Q 39.59375 47.171875 37.8125 47.578125 
Q 36.03125 48 33.890625 48 
Q 26.265625 48 22.1875 43.046875 
Q 18.109375 38.09375 18.109375 28.8125 
L 18.109375 0 
L 9.078125 0 
L 9.078125 54.6875 
L 18.109375 54.6875 
L 18.109375 46.1875 
Q 20.953125 51.171875 25.484375 53.578125 
Q 30.03125 56 36.53125 56 
Q 37.453125 56 38.578125 55.875 
Q 39.703125 55.765625 41.0625 55.515625 
z
" id="DejaVuSans-114"/>
      <path d="M 34.28125 27.484375 
Q 23.390625 27.484375 19.1875 25 
Q 14.984375 22.515625 14.984375 16.5 
Q 14.984375 11.71875 18.140625 8.90625 
Q 21.296875 6.109375 26.703125 6.109375 
Q 34.1875 6.109375 38.703125 11.40625 
Q 43.21875 16.703125 43.21875 25.484375 
L 43.21875 27.484375 
z
M 52.203125 31.203125 
L 52.203125 0 
L 43.21875 0 
L 43.21875 8.296875 
Q 40.140625 3.328125 35.546875 0.953125 
Q 30.953125 -1.421875 24.3125 -1.421875 
Q 15.921875 -1.421875 10.953125 3.296875 
Q 6 8.015625 6 15.921875 
Q 6 25.140625 12.171875 29.828125 
Q 18.359375 34.515625 30.609375 34.515625 
L 43.21875 34.515625 
L 43.21875 35.40625 
Q 43.21875 41.609375 39.140625 45 
Q 35.0625 48.390625 27.6875 48.390625 
Q 23 48.390625 18.546875 47.265625 
Q 14.109375 46.140625 10.015625 43.890625 
L 10.015625 52.203125 
Q 14.9375 54.109375 19.578125 55.046875 
Q 24.21875 56 28.609375 56 
Q 40.484375 56 46.34375 49.84375 
Q 52.203125 43.703125 52.203125 31.203125 
z
" id="DejaVuSans-97"/>
     </defs>
     <g transform="translate(54.654687 136.437406)rotate(-90)scale(0.1 -0.1)">
      <use xlink:href="#DejaVuSans-69"/>
      <use x="63.183594" xlink:href="#DejaVuSans-110"/>
      <use x="126.5625" xlink:href="#DejaVuSans-99"/>
      <use x="181.542969" xlink:href="#DejaVuSans-111"/>
      <use x="242.724609" xlink:href="#DejaVuSans-100"/>
      <use x="306.201172" xlink:href="#DejaVuSans-101"/>
      <use x="367.724609" xlink:href="#DejaVuSans-32"/>
      <use x="399.511719" xlink:href="#DejaVuSans-116"/>
      <use x="438.720703" xlink:href="#DejaVuSans-105"/>
      <use x="466.503906" xlink:href="#DejaVuSans-109"/>
      <use x="563.916016" xlink:href="#DejaVuSans-101"/>
      <use x="625.439453" xlink:href="#DejaVuSans-32"/>
      <use x="657.226562" xlink:href="#DejaVuSans-40"/>
      <use x="696.240234" xlink:href="#DejaVuSans-114"/>
      <use x="737.353516" xlink:href="#DejaVuSans-97"/>
      <use x="798.632812" xlink:href="#DejaVuSans-116"/>
      <use x="837.841797" xlink:href="#DejaVuSans-105"/>
      <use x="865.625" xlink:href="#DejaVuSans-111"/>
      <use x="926.806641" xlink:href="#DejaVuSans-41"/>
     </g>
    </g>
   </g>
   <g id="line2d_39">
    <path clip-path="url(#p90e1482725)" d="M 115.363636 40.609636 
L 125.293172 40.609636 
L 135.224169 40.609636 
L 145.15264 40.609636 
L 155.077552 40.609636 
L 164.998156 40.609636 
L 174.916324 40.609636 
L 184.830331 40.609636 
L 194.741239 40.609636 
L 204.647421 40.609636 
L 214.54926 40.609636 
L 224.446666 40.609636 
L 234.339827 40.609636 
L 244.229245 40.609636 
L 254.114098 40.609636 
L 263.994106 40.609636 
L 273.869057 40.609636 
L 283.739435 40.609636 
L 293.60461 40.609636 
L 303.465292 40.609636 
L 313.32069 40.609636 
L 323.17107 40.609636 
L 333.016436 40.609636 
L 342.856771 40.609636 
L 352.692013 40.609636 
L 362.522702 40.609636 
L 381.088042 40.609636 
L 399.625657 40.609636 
L 418.209883 40.609636 
L 436.794108 40.609636 
L 455.378334 40.609636 
L 473.962559 40.609636 
L 492.546785 40.609636 
L 511.13101 40.609636 
L 529.715236 40.609636 
L 548.299462 40.609636 
L 566.883687 40.609636 
L 585.467913 40.609636 
L 604.052138 40.609636 
L 622.636364 40.609636 
" style="fill:none;stroke:#1f77b4;stroke-linecap:square;stroke-width:1.5;"/>
   </g>
   <g id="line2d_40">
    <path clip-path="url(#p90e1482725)" d="M 115.363636 66.271828 
L 125.293172 73.894634 
L 135.224169 75.990159 
L 145.15264 49.473198 
L 155.077552 60.834817 
L 164.998156 56.487678 
L 174.916324 66.771733 
L 184.830331 50.982078 
L 194.741239 54.310575 
L 204.647421 65.136842 
L 214.54926 80.90059 
L 224.446666 64.85158 
L 234.339827 60.927292 
L 244.229245 42.356965 
L 254.114098 49.608088 
L 263.994106 64.956148 
L 273.869057 66.096956 
L 283.739435 62.435529 
L 293.60461 59.594822 
L 303.465292 64.640475 
L 313.32069 66.537347 
L 323.17107 59.6167 
L 333.016436 59.21255 
L 342.856771 65.604773 
L 352.692013 64.349425 
L 362.522702 63.426781 
L 381.088042 74.221868 
L 399.625657 67.599285 
L 418.209883 70.901412 
L 436.794108 63.582689 
L 455.378334 68.909389 
L 473.962559 59.135442 
L 492.546785 64.064826 
L 511.13101 63.409902 
L 529.715236 64.752306 
L 548.299462 62.380975 
L 566.883687 61.449146 
L 585.467913 55.279092 
L 604.052138 63.772622 
L 622.636364 60.558411 
" style="fill:none;stroke:#ff7f0e;stroke-linecap:square;stroke-width:1.5;"/>
   </g>
   <g id="line2d_41">
    <path clip-path="url(#p90e1482725)" d="M 115.363636 134.821634 
L 125.293172 133.289856 
L 135.224169 135.345503 
L 145.15264 135.205055 
L 155.077552 134.626078 
L 164.998156 135.08065 
L 174.916324 134.512767 
L 184.830331 133.722697 
L 194.741239 133.378676 
L 204.647421 134.325221 
L 214.54926 133.290025 
L 224.446666 134.761451 
L 234.339827 134.901068 
L 244.229245 135.619002 
L 254.114098 135.314885 
L 263.994106 134.9994 
L 273.869057 134.828467 
L 283.739435 134.950112 
L 293.60461 135.196356 
L 303.465292 135.305027 
L 313.32069 133.169255 
L 323.17107 134.999042 
L 333.016436 134.752988 
L 342.856771 133.66257 
L 352.692013 134.104689 
L 362.522702 134.452626 
L 381.088042 134.618411 
L 399.625657 134.936165 
L 418.209883 135.564122 
L 436.794108 135.593568 
L 455.378334 135.446639 
L 473.962559 135.293999 
L 492.546785 135.484832 
L 511.13101 135.430673 
L 529.715236 135.272465 
L 548.299462 135.05019 
L 566.883687 135.591085 
L 585.467913 135.141063 
L 604.052138 135.092073 
L 622.636364 135.682364 
" style="fill:none;stroke:#2ca02c;stroke-linecap:square;stroke-width:1.5;"/>
   </g>
   <g id="line2d_42">
    <path clip-path="url(#p90e1482725)" d="M 115.363636 113.398443 
L 125.293172 115.783805 
L 135.224169 115.945664 
L 145.15264 114.219825 
L 155.077552 111.860211 
L 164.998156 114.751001 
L 174.916324 108.898013 
L 184.830331 112.782093 
L 194.741239 110.174631 
L 204.647421 114.103786 
L 214.54926 114.290146 
L 224.446666 52.26422 
L 234.339827 84.44746 
L 244.229245 115.330968 
L 254.114098 111.430512 
L 263.994106 110.421281 
L 273.869057 113.435049 
L 283.739435 112.023736 
L 293.60461 116.127641 
L 303.465292 115.171987 
L 313.32069 112.037978 
L 323.17107 114.376249 
L 333.016436 112.934409 
L 342.856771 110.906803 
L 352.692013 113.390028 
L 362.522702 113.676316 
L 381.088042 116.151341 
L 399.625657 115.02894 
L 418.209883 117.051294 
L 436.794108 115.544027 
L 455.378334 115.531915 
L 473.962559 113.596449 
L 492.546785 113.961957 
L 511.13101 116.206376 
L 529.715236 113.90766 
L 548.299462 115.836854 
L 566.883687 115.444102 
L 585.467913 116.283422 
L 604.052138 116.828389 
L 622.636364 117.629585 
" style="fill:none;stroke:#d62728;stroke-linecap:square;stroke-width:1.5;"/>
   </g>
   <g id="line2d_43">
    <path clip-path="url(#p90e1482725)" d="M 115.363636 121.530666 
L 125.293172 123.206188 
L 135.224169 124.179139 
L 145.15264 118.257564 
L 155.077552 118.612009 
L 164.998156 120.739405 
L 174.916324 119.970603 
L 184.830331 116.579488 
L 194.741239 119.613628 
L 204.647421 119.218768 
L 214.54926 112.049647 
L 224.446666 119.456448 
L 234.339827 118.43549 
L 244.229245 122.057424 
L 254.114098 117.450893 
L 263.994106 118.200876 
L 273.869057 119.553074 
L 283.739435 118.592848 
L 293.60461 121.600007 
L 303.465292 122.590609 
L 313.32069 119.800604 
L 323.17107 120.832628 
L 333.016436 109.761949 
L 342.856771 97.76797 
L 352.692013 113.325592 
L 362.522702 118.929694 
L 381.088042 120.668495 
L 399.625657 120.055046 
L 418.209883 122.256384 
L 436.794108 118.287423 
L 455.378334 118.619763 
L 473.962559 119.698955 
L 492.546785 120.076943 
L 511.13101 116.237412 
L 529.715236 117.575348 
L 548.299462 119.117859 
L 566.883687 119.525846 
L 585.467913 119.190082 
" style="fill:none;stroke:#9467bd;stroke-linecap:square;stroke-width:1.5;"/>
   </g>
   <g id="patch_3">
    <path d="M 90 140.436 
L 90 35.856 
" style="fill:none;stroke:#000000;stroke-linecap:square;stroke-linejoin:miter;stroke-width:0.8;"/>
   </g>
   <g id="patch_4">
    <path d="M 648 140.436 
L 648 35.856 
" style="fill:none;stroke:#000000;stroke-linecap:square;stroke-linejoin:miter;stroke-width:0.8;"/>
   </g>
   <g id="patch_5">
    <path d="M 90 140.436 
L 648 140.436 
" style="fill:none;stroke:#000000;stroke-linecap:square;stroke-linejoin:miter;stroke-width:0.8;"/>
   </g>
   <g id="patch_6">
    <path d="M 90 35.856 
L 648 35.856 
" style="fill:none;stroke:#000000;stroke-linecap:square;stroke-linejoin:miter;stroke-width:0.8;"/>
   </g>
   <g id="legend_1">
    <g id="patch_7">
     <path d="M 147.066406 33.47185 
L 590.933594 33.47185 
Q 592.933594 33.47185 592.933594 31.47185 
L 592.933594 3.1156 
Q 592.933594 1.1156 590.933594 1.1156 
L 147.066406 1.1156 
Q 145.066406 1.1156 145.066406 3.1156 
L 145.066406 31.47185 
Q 145.066406 33.47185 147.066406 33.47185 
z
" style="fill:#ffffff;opacity:0.8;stroke:#cccccc;stroke-linejoin:miter;"/>
    </g>
    <g id="line2d_44">
     <path d="M 149.066406 9.214038 
L 169.066406 9.214038 
" style="fill:none;stroke:#1f77b4;stroke-linecap:square;stroke-width:1.5;"/>
    </g>
    <g id="line2d_45"/>
    <g id="text_10">
     <!-- JSON -->
     <g transform="translate(177.066406 12.714038)scale(0.1 -0.1)">
      <use xlink:href="#DejaVuSans-74"/>
      <use x="29.492188" xlink:href="#DejaVuSans-83"/>
      <use x="92.96875" xlink:href="#DejaVuSans-79"/>
      <use x="171.679688" xlink:href="#DejaVuSans-78"/>
     </g>
    </g>
    <g id="line2d_46">
     <path d="M 149.066406 23.892163 
L 169.066406 23.892163 
" style="fill:none;stroke:#ff7f0e;stroke-linecap:square;stroke-width:1.5;"/>
    </g>
    <g id="line2d_47"/>
    <g id="text_11">
     <!-- JSON (unmapped) -->
     <defs>
      <path d="M 8.5 21.578125 
L 8.5 54.6875 
L 17.484375 54.6875 
L 17.484375 21.921875 
Q 17.484375 14.15625 20.5 10.265625 
Q 23.53125 6.390625 29.59375 6.390625 
Q 36.859375 6.390625 41.078125 11.03125 
Q 45.3125 15.671875 45.3125 23.6875 
L 45.3125 54.6875 
L 54.296875 54.6875 
L 54.296875 0 
L 45.3125 0 
L 45.3125 8.40625 
Q 42.046875 3.421875 37.71875 1 
Q 33.40625 -1.421875 27.6875 -1.421875 
Q 18.265625 -1.421875 13.375 4.4375 
Q 8.5 10.296875 8.5 21.578125 
z
M 31.109375 56 
z
" id="DejaVuSans-117"/>
      <path d="M 18.109375 8.203125 
L 18.109375 -20.796875 
L 9.078125 -20.796875 
L 9.078125 54.6875 
L 18.109375 54.6875 
L 18.109375 46.390625 
Q 20.953125 51.265625 25.265625 53.625 
Q 29.59375 56 35.59375 56 
Q 45.5625 56 51.78125 48.09375 
Q 58.015625 40.1875 58.015625 27.296875 
Q 58.015625 14.40625 51.78125 6.484375 
Q 45.5625 -1.421875 35.59375 -1.421875 
Q 29.59375 -1.421875 25.265625 0.953125 
Q 20.953125 3.328125 18.109375 8.203125 
z
M 48.6875 27.296875 
Q 48.6875 37.203125 44.609375 42.84375 
Q 40.53125 48.484375 33.40625 48.484375 
Q 26.265625 48.484375 22.1875 42.84375 
Q 18.109375 37.203125 18.109375 27.296875 
Q 18.109375 17.390625 22.1875 11.75 
Q 26.265625 6.109375 33.40625 6.109375 
Q 40.53125 6.109375 44.609375 11.75 
Q 48.6875 17.390625 48.6875 27.296875 
z
" id="DejaVuSans-112"/>
     </defs>
     <g transform="translate(177.066406 27.392163)scale(0.1 -0.1)">
      <use xlink:href="#DejaVuSans-74"/>
      <use x="29.492188" xlink:href="#DejaVuSans-83"/>
      <use x="92.96875" xlink:href="#DejaVuSans-79"/>
      <use x="171.679688" xlink:href="#DejaVuSans-78"/>
      <use x="246.484375" xlink:href="#DejaVuSans-32"/>
      <use x="278.271484" xlink:href="#DejaVuSans-40"/>
      <use x="317.285156" xlink:href="#DejaVuSans-117"/>
      <use x="380.664062" xlink:href="#DejaVuSans-110"/>
      <use x="444.042969" xlink:href="#DejaVuSans-109"/>
      <use x="541.455078" xlink:href="#DejaVuSans-97"/>
      <use x="602.734375" xlink:href="#DejaVuSans-112"/>
      <use x="666.210938" xlink:href="#DejaVuSans-112"/>
      <use x="729.6875" xlink:href="#DejaVuSans-101"/>
      <use x="791.210938" xlink:href="#DejaVuSans-100"/>
      <use x="854.6875" xlink:href="#DejaVuSans-41"/>
     </g>
    </g>
    <g id="line2d_48">
     <path d="M 286.441406 9.214038 
L 306.441406 9.214038 
" style="fill:none;stroke:#2ca02c;stroke-linecap:square;stroke-width:1.5;"/>
    </g>
    <g id="line2d_49"/>
    <g id="text_12">
     <!-- AVRO Avsc -->
     <defs>
      <path d="M 34.1875 63.1875 
L 20.796875 26.90625 
L 47.609375 26.90625 
z
M 28.609375 72.90625 
L 39.796875 72.90625 
L 67.578125 0 
L 57.328125 0 
L 50.6875 18.703125 
L 17.828125 18.703125 
L 11.1875 0 
L 0.78125 0 
z
" id="DejaVuSans-65"/>
      <path d="M 28.609375 0 
L 0.78125 72.90625 
L 11.078125 72.90625 
L 34.1875 11.53125 
L 57.328125 72.90625 
L 67.578125 72.90625 
L 39.796875 0 
z
" id="DejaVuSans-86"/>
      <path d="M 44.390625 34.1875 
Q 47.5625 33.109375 50.5625 29.59375 
Q 53.5625 26.078125 56.59375 19.921875 
L 66.609375 0 
L 56 0 
L 46.6875 18.703125 
Q 43.0625 26.03125 39.671875 28.421875 
Q 36.28125 30.8125 30.421875 30.8125 
L 19.671875 30.8125 
L 19.671875 0 
L 9.8125 0 
L 9.8125 72.90625 
L 32.078125 72.90625 
Q 44.578125 72.90625 50.734375 67.671875 
Q 56.890625 62.453125 56.890625 51.90625 
Q 56.890625 45.015625 53.6875 40.46875 
Q 50.484375 35.9375 44.390625 34.1875 
z
M 19.671875 64.796875 
L 19.671875 38.921875 
L 32.078125 38.921875 
Q 39.203125 38.921875 42.84375 42.21875 
Q 46.484375 45.515625 46.484375 51.90625 
Q 46.484375 58.296875 42.84375 61.546875 
Q 39.203125 64.796875 32.078125 64.796875 
z
" id="DejaVuSans-82"/>
      <path d="M 2.984375 54.6875 
L 12.5 54.6875 
L 29.59375 8.796875 
L 46.6875 54.6875 
L 56.203125 54.6875 
L 35.6875 0 
L 23.484375 0 
z
" id="DejaVuSans-118"/>
     </defs>
     <g transform="translate(314.441406 12.714038)scale(0.1 -0.1)">
      <use xlink:href="#DejaVuSans-65"/>
      <use x="68.314453" xlink:href="#DejaVuSans-86"/>
      <use x="136.722656" xlink:href="#DejaVuSans-82"/>
      <use x="206.205078" xlink:href="#DejaVuSans-79"/>
      <use x="284.916016" xlink:href="#DejaVuSans-32"/>
      <use x="316.703125" xlink:href="#DejaVuSans-65"/>
      <use x="385.033203" xlink:href="#DejaVuSans-118"/>
      <use x="444.212891" xlink:href="#DejaVuSans-115"/>
      <use x="496.3125" xlink:href="#DejaVuSans-99"/>
     </g>
    </g>
    <g id="line2d_50">
     <path d="M 286.441406 23.892163 
L 306.441406 23.892163 
" style="fill:none;stroke:#d62728;stroke-linecap:square;stroke-width:1.5;"/>
    </g>
    <g id="line2d_51"/>
    <g id="text_13">
     <!-- AVRO Avsc (optional) -->
     <defs>
      <path d="M 9.421875 75.984375 
L 18.40625 75.984375 
L 18.40625 0 
L 9.421875 0 
z
" id="DejaVuSans-108"/>
     </defs>
     <g transform="translate(314.441406 27.392163)scale(0.1 -0.1)">
      <use xlink:href="#DejaVuSans-65"/>
      <use x="68.314453" xlink:href="#DejaVuSans-86"/>
      <use x="136.722656" xlink:href="#DejaVuSans-82"/>
      <use x="206.205078" xlink:href="#DejaVuSans-79"/>
      <use x="284.916016" xlink:href="#DejaVuSans-32"/>
      <use x="316.703125" xlink:href="#DejaVuSans-65"/>
      <use x="385.033203" xlink:href="#DejaVuSans-118"/>
      <use x="444.212891" xlink:href="#DejaVuSans-115"/>
      <use x="496.3125" xlink:href="#DejaVuSans-99"/>
      <use x="551.292969" xlink:href="#DejaVuSans-32"/>
      <use x="583.080078" xlink:href="#DejaVuSans-40"/>
      <use x="622.09375" xlink:href="#DejaVuSans-111"/>
      <use x="683.275391" xlink:href="#DejaVuSans-112"/>
      <use x="746.751953" xlink:href="#DejaVuSans-116"/>
      <use x="785.960938" xlink:href="#DejaVuSans-105"/>
      <use x="813.744141" xlink:href="#DejaVuSans-111"/>
      <use x="874.925781" xlink:href="#DejaVuSans-110"/>
      <use x="938.304688" xlink:href="#DejaVuSans-97"/>
      <use x="999.583984" xlink:href="#DejaVuSans-108"/>
      <use x="1027.367188" xlink:href="#DejaVuSans-41"/>
     </g>
    </g>
    <g id="line2d_52">
     <path d="M 441.080469 9.214038 
L 461.080469 9.214038 
" style="fill:none;stroke:#9467bd;stroke-linecap:square;stroke-width:1.5;"/>
    </g>
    <g id="line2d_53"/>
    <g id="text_14">
     <!-- AVRO Avsc (unmapped) -->
     <g transform="translate(469.080469 12.714038)scale(0.1 -0.1)">
      <use xlink:href="#DejaVuSans-65"/>
      <use x="68.314453" xlink:href="#DejaVuSans-86"/>
      <use x="136.722656" xlink:href="#DejaVuSans-82"/>
      <use x="206.205078" xlink:href="#DejaVuSans-79"/>
      <use x="284.916016" xlink:href="#DejaVuSans-32"/>
      <use x="316.703125" xlink:href="#DejaVuSans-65"/>
      <use x="385.033203" xlink:href="#DejaVuSans-118"/>
      <use x="444.212891" xlink:href="#DejaVuSans-115"/>
      <use x="496.3125" xlink:href="#DejaVuSans-99"/>
      <use x="551.292969" xlink:href="#DejaVuSans-32"/>
      <use x="583.080078" xlink:href="#DejaVuSans-40"/>
      <use x="622.09375" xlink:href="#DejaVuSans-117"/>
      <use x="685.472656" xlink:href="#DejaVuSans-110"/>
      <use x="748.851562" xlink:href="#DejaVuSans-109"/>
      <use x="846.263672" xlink:href="#DejaVuSans-97"/>
      <use x="907.542969" xlink:href="#DejaVuSans-112"/>
      <use x="971.019531" xlink:href="#DejaVuSans-112"/>
      <use x="1034.496094" xlink:href="#DejaVuSans-101"/>
      <use x="1096.019531" xlink:href="#DejaVuSans-100"/>
      <use x="1159.496094" xlink:href="#DejaVuSans-41"/>
     </g>
    </g>
   </g>
  </g>
  <g id="axes_2">
   <g id="patch_8">
    <path d="M 90 265.932 
L 648 265.932 
L 648 161.352 
L 90 161.352 
z
" style="fill:#ffffff;"/>
   </g>
   <g id="matplotlib.axis_3">
    <g id="xtick_28">
     <g id="line2d_54">
      <path clip-path="url(#p8830688f98)" d="M 166.951075 265.932 
L 166.951075 161.352 
" style="fill:none;stroke:#b0b0b0;stroke-linecap:square;stroke-width:0.8;"/>
     </g>
     <g id="line2d_55">
      <g>
       <use style="stroke:#000000;stroke-width:0.8;" x="166.951075" xlink:href="#m4a2f2e2566" y="265.932"/>
      </g>
     </g>
     <g id="text_15">
      <!-- $\mathdefault{10^{0}}$ -->
      <g transform="translate(158.151075 280.530438)scale(0.1 -0.1)">
       <use transform="translate(0 0.765625)" xlink:href="#DejaVuSans-49"/>
       <use transform="translate(63.623047 0.765625)" xlink:href="#DejaVuSans-48"/>
       <use transform="translate(128.203125 39.046875)scale(0.7)" xlink:href="#DejaVuSans-48"/>
      </g>
     </g>
    </g>
    <g id="xtick_29">
     <g id="line2d_56">
      <path clip-path="url(#p8830688f98)" d="M 358.718932 265.932 
L 358.718932 161.352 
" style="fill:none;stroke:#b0b0b0;stroke-linecap:square;stroke-width:0.8;"/>
     </g>
     <g id="line2d_57">
      <g>
       <use style="stroke:#000000;stroke-width:0.8;" x="358.718932" xlink:href="#m4a2f2e2566" y="265.932"/>
      </g>
     </g>
     <g id="text_16">
      <!-- $\mathdefault{10^{1}}$ -->
      <g transform="translate(349.918932 280.530438)scale(0.1 -0.1)">
       <use transform="translate(0 0.684375)" xlink:href="#DejaVuSans-49"/>
       <use transform="translate(63.623047 0.684375)" xlink:href="#DejaVuSans-48"/>
       <use transform="translate(128.203125 38.965625)scale(0.7)" xlink:href="#DejaVuSans-49"/>
      </g>
     </g>
    </g>
    <g id="xtick_30">
     <g id="line2d_58">
      <path clip-path="url(#p8830688f98)" d="M 550.486789 265.932 
L 550.486789 161.352 
" style="fill:none;stroke:#b0b0b0;stroke-linecap:square;stroke-width:0.8;"/>
     </g>
     <g id="line2d_59">
      <g>
       <use style="stroke:#000000;stroke-width:0.8;" x="550.486789" xlink:href="#m4a2f2e2566" y="265.932"/>
      </g>
     </g>
     <g id="text_17">
      <!-- $\mathdefault{10^{2}}$ -->
      <g transform="translate(541.686789 280.530438)scale(0.1 -0.1)">
       <use transform="translate(0 0.765625)" xlink:href="#DejaVuSans-49"/>
       <use transform="translate(63.623047 0.765625)" xlink:href="#DejaVuSans-48"/>
       <use transform="translate(128.203125 39.046875)scale(0.7)" xlink:href="#DejaVuSans-50"/>
      </g>
     </g>
    </g>
    <g id="xtick_31">
     <g id="line2d_60">
      <g>
       <use style="stroke:#000000;stroke-width:0.6;" x="90.638972" xlink:href="#m8fd1d195b0" y="265.932"/>
      </g>
     </g>
    </g>
    <g id="xtick_32">
     <g id="line2d_61">
      <g>
       <use style="stroke:#000000;stroke-width:0.6;" x="109.223198" xlink:href="#m8fd1d195b0" y="265.932"/>
      </g>
     </g>
    </g>
    <g id="xtick_33">
     <g id="line2d_62">
      <g>
       <use style="stroke:#000000;stroke-width:0.6;" x="124.407616" xlink:href="#m8fd1d195b0" y="265.932"/>
      </g>
     </g>
    </g>
    <g id="xtick_34">
     <g id="line2d_63">
      <g>
       <use style="stroke:#000000;stroke-width:0.6;" x="137.245858" xlink:href="#m8fd1d195b0" y="265.932"/>
      </g>
     </g>
    </g>
    <g id="xtick_35">
     <g id="line2d_64">
      <g>
       <use style="stroke:#000000;stroke-width:0.6;" x="148.36685" xlink:href="#m8fd1d195b0" y="265.932"/>
      </g>
     </g>
    </g>
    <g id="xtick_36">
     <g id="line2d_65">
      <g>
       <use style="stroke:#000000;stroke-width:0.6;" x="158.176259" xlink:href="#m8fd1d195b0" y="265.932"/>
      </g>
     </g>
    </g>
    <g id="xtick_37">
     <g id="line2d_66">
      <g>
       <use style="stroke:#000000;stroke-width:0.6;" x="224.678952" xlink:href="#m8fd1d195b0" y="265.932"/>
      </g>
     </g>
    </g>
    <g id="xtick_38">
     <g id="line2d_67">
      <g>
       <use style="stroke:#000000;stroke-width:0.6;" x="258.447596" xlink:href="#m8fd1d195b0" y="265.932"/>
      </g>
     </g>
    </g>
    <g id="xtick_39">
     <g id="line2d_68">
      <g>
       <use style="stroke:#000000;stroke-width:0.6;" x="282.406829" xlink:href="#m8fd1d195b0" y="265.932"/>
      </g>
     </g>
    </g>
    <g id="xtick_40">
     <g id="line2d_69">
      <g>
       <use style="stroke:#000000;stroke-width:0.6;" x="300.991055" xlink:href="#m8fd1d195b0" y="265.932"/>
      </g>
     </g>
    </g>
    <g id="xtick_41">
     <g id="line2d_70">
      <g>
       <use style="stroke:#000000;stroke-width:0.6;" x="316.175473" xlink:href="#m8fd1d195b0" y="265.932"/>
      </g>
     </g>
    </g>
    <g id="xtick_42">
     <g id="line2d_71">
      <g>
       <use style="stroke:#000000;stroke-width:0.6;" x="329.013715" xlink:href="#m8fd1d195b0" y="265.932"/>
      </g>
     </g>
    </g>
    <g id="xtick_43">
     <g id="line2d_72">
      <g>
       <use style="stroke:#000000;stroke-width:0.6;" x="340.134707" xlink:href="#m8fd1d195b0" y="265.932"/>
      </g>
     </g>
    </g>
    <g id="xtick_44">
     <g id="line2d_73">
      <g>
       <use style="stroke:#000000;stroke-width:0.6;" x="349.944116" xlink:href="#m8fd1d195b0" y="265.932"/>
      </g>
     </g>
    </g>
    <g id="xtick_45">
     <g id="line2d_74">
      <g>
       <use style="stroke:#000000;stroke-width:0.6;" x="416.446809" xlink:href="#m8fd1d195b0" y="265.932"/>
      </g>
     </g>
    </g>
    <g id="xtick_46">
     <g id="line2d_75">
      <g>
       <use style="stroke:#000000;stroke-width:0.6;" x="450.215453" xlink:href="#m8fd1d195b0" y="265.932"/>
      </g>
     </g>
    </g>
    <g id="xtick_47">
     <g id="line2d_76">
      <g>
       <use style="stroke:#000000;stroke-width:0.6;" x="474.174687" xlink:href="#m8fd1d195b0" y="265.932"/>
      </g>
     </g>
    </g>
    <g id="xtick_48">
     <g id="line2d_77">
      <g>
       <use style="stroke:#000000;stroke-width:0.6;" x="492.758912" xlink:href="#m8fd1d195b0" y="265.932"/>
      </g>
     </g>
    </g>
    <g id="xtick_49">
     <g id="line2d_78">
      <g>
       <use style="stroke:#000000;stroke-width:0.6;" x="507.94333" xlink:href="#m8fd1d195b0" y="265.932"/>
      </g>
     </g>
    </g>
    <g id="xtick_50">
     <g id="line2d_79">
      <g>
       <use style="stroke:#000000;stroke-width:0.6;" x="520.781572" xlink:href="#m8fd1d195b0" y="265.932"/>
      </g>
     </g>
    </g>
    <g id="xtick_51">
     <g id="line2d_80">
      <g>
       <use style="stroke:#000000;stroke-width:0.6;" x="531.902564" xlink:href="#m8fd1d195b0" y="265.932"/>
      </g>
     </g>
    </g>
    <g id="xtick_52">
     <g id="line2d_81">
      <g>
       <use style="stroke:#000000;stroke-width:0.6;" x="541.711973" xlink:href="#m8fd1d195b0" y="265.932"/>
      </g>
     </g>
    </g>
    <g id="xtick_53">
     <g id="line2d_82">
      <g>
       <use style="stroke:#000000;stroke-width:0.6;" x="608.214667" xlink:href="#m8fd1d195b0" y="265.932"/>
      </g>
     </g>
    </g>
    <g id="xtick_54">
     <g id="line2d_83">
      <g>
       <use style="stroke:#000000;stroke-width:0.6;" x="641.98331" xlink:href="#m8fd1d195b0" y="265.932"/>
      </g>
     </g>
    </g>
    <g id="text_18">
     <!-- JSON size (MB) -->
     <g transform="translate(332.155469 294.208563)scale(0.1 -0.1)">
      <use xlink:href="#DejaVuSans-74"/>
      <use x="29.492188" xlink:href="#DejaVuSans-83"/>
      <use x="92.96875" xlink:href="#DejaVuSans-79"/>
      <use x="171.679688" xlink:href="#DejaVuSans-78"/>
      <use x="246.484375" xlink:href="#DejaVuSans-32"/>
      <use x="278.271484" xlink:href="#DejaVuSans-115"/>
      <use x="330.371094" xlink:href="#DejaVuSans-105"/>
      <use x="358.154297" xlink:href="#DejaVuSans-122"/>
      <use x="410.644531" xlink:href="#DejaVuSans-101"/>
      <use x="472.167969" xlink:href="#DejaVuSans-32"/>
      <use x="503.955078" xlink:href="#DejaVuSans-40"/>
      <use x="542.96875" xlink:href="#DejaVuSans-77"/>
      <use x="629.248047" xlink:href="#DejaVuSans-66"/>
      <use x="697.851562" xlink:href="#DejaVuSans-41"/>
     </g>
    </g>
   </g>
   <g id="matplotlib.axis_4">
    <g id="ytick_5">
     <g id="line2d_84">
      <path clip-path="url(#p8830688f98)" d="M 90 263.448106 
L 648 263.448106 
" style="fill:none;stroke:#b0b0b0;stroke-linecap:square;stroke-width:0.8;"/>
     </g>
     <g id="line2d_85">
      <g>
       <use style="stroke:#000000;stroke-width:0.8;" x="90" xlink:href="#mf70b0234a1" y="263.448106"/>
      </g>
     </g>
     <g id="text_19">
      <!-- 0.0 -->
      <g transform="translate(67.096875 267.247325)scale(0.1 -0.1)">
       <use xlink:href="#DejaVuSans-48"/>
       <use x="63.623047" xlink:href="#DejaVuSans-46"/>
       <use x="95.410156" xlink:href="#DejaVuSans-48"/>
      </g>
     </g>
    </g>
    <g id="ytick_6">
     <g id="line2d_86">
      <path clip-path="url(#p8830688f98)" d="M 90 221.61631 
L 648 221.61631 
" style="fill:none;stroke:#b0b0b0;stroke-linecap:square;stroke-width:0.8;"/>
     </g>
     <g id="line2d_87">
      <g>
       <use style="stroke:#000000;stroke-width:0.8;" x="90" xlink:href="#mf70b0234a1" y="221.61631"/>
      </g>
     </g>
     <g id="text_20">
      <!-- 0.5 -->
      <g transform="translate(67.096875 225.415529)scale(0.1 -0.1)">
       <use xlink:href="#DejaVuSans-48"/>
       <use x="63.623047" xlink:href="#DejaVuSans-46"/>
       <use x="95.410156" xlink:href="#DejaVuSans-53"/>
      </g>
     </g>
    </g>
    <g id="ytick_7">
     <g id="line2d_88">
      <path clip-path="url(#p8830688f98)" d="M 90 179.784514 
L 648 179.784514 
" style="fill:none;stroke:#b0b0b0;stroke-linecap:square;stroke-width:0.8;"/>
     </g>
     <g id="line2d_89">
      <g>
       <use style="stroke:#000000;stroke-width:0.8;" x="90" xlink:href="#mf70b0234a1" y="179.784514"/>
      </g>
     </g>
     <g id="text_21">
      <!-- 1.0 -->
      <g transform="translate(67.096875 183.583733)scale(0.1 -0.1)">
       <use xlink:href="#DejaVuSans-49"/>
       <use x="63.623047" xlink:href="#DejaVuSans-46"/>
       <use x="95.410156" xlink:href="#DejaVuSans-48"/>
      </g>
     </g>
    </g>
    <g id="text_22">
     <!-- Decode time (ratio) -->
     <defs>
      <path d="M 19.671875 64.796875 
L 19.671875 8.109375 
L 31.59375 8.109375 
Q 46.6875 8.109375 53.6875 14.9375 
Q 60.6875 21.78125 60.6875 36.53125 
Q 60.6875 51.171875 53.6875 57.984375 
Q 46.6875 64.796875 31.59375 64.796875 
z
M 9.8125 72.90625 
L 30.078125 72.90625 
Q 51.265625 72.90625 61.171875 64.09375 
Q 71.09375 55.28125 71.09375 36.53125 
Q 71.09375 17.671875 61.125 8.828125 
Q 51.171875 0 30.078125 0 
L 9.8125 0 
z
" id="DejaVuSans-68"/>
     </defs>
     <g transform="translate(61.017187 262.531844)rotate(-90)scale(0.1 -0.1)">
      <use xlink:href="#DejaVuSans-68"/>
      <use x="77.001953" xlink:href="#DejaVuSans-101"/>
      <use x="138.525391" xlink:href="#DejaVuSans-99"/>
      <use x="193.505859" xlink:href="#DejaVuSans-111"/>
      <use x="254.6875" xlink:href="#DejaVuSans-100"/>
      <use x="318.164062" xlink:href="#DejaVuSans-101"/>
      <use x="379.6875" xlink:href="#DejaVuSans-32"/>
      <use x="411.474609" xlink:href="#DejaVuSans-116"/>
      <use x="450.683594" xlink:href="#DejaVuSans-105"/>
      <use x="478.466797" xlink:href="#DejaVuSans-109"/>
      <use x="575.878906" xlink:href="#DejaVuSans-101"/>
      <use x="637.402344" xlink:href="#DejaVuSans-32"/>
      <use x="669.189453" xlink:href="#DejaVuSans-40"/>
      <use x="708.203125" xlink:href="#DejaVuSans-114"/>
      <use x="749.316406" xlink:href="#DejaVuSans-97"/>
      <use x="810.595703" xlink:href="#DejaVuSans-116"/>
      <use x="849.804688" xlink:href="#DejaVuSans-105"/>
      <use x="877.587891" xlink:href="#DejaVuSans-111"/>
      <use x="938.769531" xlink:href="#DejaVuSans-41"/>
     </g>
    </g>
   </g>
   <g id="line2d_90">
    <path clip-path="url(#p8830688f98)" d="M 115.363636 179.784514 
L 125.293172 179.784514 
L 135.224169 179.784514 
L 145.15264 179.784514 
L 155.077552 179.784514 
L 164.998156 179.784514 
L 174.916324 179.784514 
L 184.830331 179.784514 
L 194.741239 179.784514 
L 204.647421 179.784514 
L 214.54926 179.784514 
L 224.446666 179.784514 
L 234.339827 179.784514 
L 244.229245 179.784514 
L 254.114098 179.784514 
L 263.994106 179.784514 
L 273.869057 179.784514 
L 283.739435 179.784514 
L 293.60461 179.784514 
L 303.465292 179.784514 
L 313.32069 179.784514 
L 323.17107 179.784514 
L 333.016436 179.784514 
L 342.856771 179.784514 
L 352.692013 179.784514 
L 362.522702 179.784514 
L 381.088042 179.784514 
L 399.625657 179.784514 
L 418.209883 179.784514 
L 436.794108 179.784514 
L 455.378334 179.784514 
L 473.962559 179.784514 
L 492.546785 179.784514 
L 511.13101 179.784514 
L 529.715236 179.784514 
L 548.299462 179.784514 
L 566.883687 179.784514 
L 585.467913 179.784514 
L 604.052138 179.784514 
L 622.636364 179.784514 
" style="fill:none;stroke:#1f77b4;stroke-linecap:square;stroke-width:1.5;"/>
   </g>
   <g id="line2d_91">
    <path clip-path="url(#p8830688f98)" d="M 115.363636 197.847398 
L 125.293172 191.067783 
L 135.224169 227.955093 
L 145.15264 198.652377 
L 155.077552 203.03131 
L 164.998156 204.541274 
L 174.916324 193.647591 
L 184.830331 201.246292 
L 194.741239 218.361985 
L 204.647421 173.382604 
L 214.54926 173.253595 
L 224.446666 191.832286 
L 234.339827 197.068452 
L 244.229245 193.141304 
L 254.114098 201.94173 
L 263.994106 194.501296 
L 273.869057 201.695871 
L 283.739435 191.207025 
L 293.60461 197.996378 
L 303.465292 194.620831 
L 313.32069 201.488427 
L 323.17107 199.065365 
L 333.016436 194.960771 
L 342.856771 198.397392 
L 352.692013 188.414149 
L 362.522702 197.376724 
L 381.088042 214.241559 
L 399.625657 201.206567 
L 418.209883 198.819249 
L 436.794108 197.661639 
L 455.378334 205.25471 
L 473.962559 195.246548 
L 492.546785 196.734674 
L 511.13101 205.404557 
L 529.715236 195.205381 
L 548.299462 209.639708 
L 566.883687 195.024564 
L 585.467913 194.134165 
L 604.052138 208.977545 
L 622.636364 193.864287 
" style="fill:none;stroke:#ff7f0e;stroke-linecap:square;stroke-width:1.5;"/>
   </g>
   <g id="line2d_92">
    <path clip-path="url(#p8830688f98)" d="M 115.363636 259.110609 
L 125.293172 256.360963 
L 135.224169 261.178364 
L 145.15264 258.371507 
L 155.077552 258.770828 
L 164.998156 259.19143 
L 174.916324 258.690717 
L 184.830331 231.34962 
L 194.741239 260.049616 
L 204.647421 234.689434 
L 214.54926 232.9357 
L 224.446666 258.957708 
L 234.339827 259.419382 
L 244.229245 257.805721 
L 254.114098 258.443931 
L 263.994106 259.274184 
L 273.869057 249.293824 
L 283.739435 244.124588 
L 293.60461 246.051293 
L 303.465292 248.809006 
L 313.32069 258.132331 
L 323.17107 251.697737 
L 333.016436 250.033346 
L 342.856771 253.70508 
L 352.692013 247.268104 
L 362.522702 256.58885 
L 381.088042 258.996139 
L 399.625657 248.603441 
L 418.209883 251.730324 
L 436.794108 237.325336 
L 455.378334 242.924742 
L 473.962559 237.93428 
L 492.546785 240.294416 
L 511.13101 237.181589 
L 529.715236 231.407497 
L 548.299462 234.957726 
L 566.883687 220.944226 
L 585.467913 201.69688 
L 604.052138 198.003985 
L 622.636364 197.789388 
" style="fill:none;stroke:#2ca02c;stroke-linecap:square;stroke-width:1.5;"/>
   </g>
   <g id="line2d_93">
    <path clip-path="url(#p8830688f98)" d="M 115.363636 243.551463 
L 125.293172 243.611026 
L 135.224169 251.538805 
L 145.15264 242.393252 
L 155.077552 243.676576 
L 164.998156 242.018591 
L 174.916324 198.203061 
L 184.830331 243.554361 
L 194.741239 231.172545 
L 204.647421 243.351691 
L 214.54926 184.753496 
L 224.446666 246.45666 
L 234.339827 233.399879 
L 244.229245 242.357102 
L 254.114098 244.16901 
L 263.994106 245.965583 
L 273.869057 236.150163 
L 283.739435 226.707213 
L 293.60461 226.145493 
L 303.465292 234.508108 
L 313.32069 235.473816 
L 323.17107 236.025881 
L 333.016436 239.854285 
L 342.856771 235.64709 
L 352.692013 241.074629 
L 362.522702 244.586509 
L 381.088042 239.522595 
L 399.625657 233.713201 
L 418.209883 232.198795 
L 436.794108 230.915975 
L 455.378334 237.55813 
L 473.962559 219.03174 
L 492.546785 224.096181 
L 511.13101 227.007725 
L 529.715236 206.864941 
L 548.299462 221.519648 
L 566.883687 193.380644 
L 585.467913 188.08261 
L 604.052138 193.395686 
L 622.636364 179.006798 
" style="fill:none;stroke:#d62728;stroke-linecap:square;stroke-width:1.5;"/>
   </g>
   <g id="line2d_94">
    <path clip-path="url(#p8830688f98)" d="M 115.363636 249.118605 
L 125.293172 248.429322 
L 135.224169 241.552097 
L 145.15264 247.45736 
L 155.077552 246.645794 
L 164.998156 218.265479 
L 174.916324 225.628236 
L 184.830331 214.76646 
L 194.741239 236.932537 
L 204.647421 244.985142 
L 214.54926 178.736773 
L 224.446666 235.786664 
L 234.339827 237.70193 
L 244.229245 235.140824 
L 254.114098 236.886049 
L 263.994106 232.12643 
L 273.869057 241.492206 
L 283.739435 228.320806 
L 293.60461 210.908622 
L 303.465292 234.203537 
L 313.32069 226.834107 
L 323.17107 228.136272 
L 333.016436 221.696268 
L 342.856771 176.614518 
L 352.692013 220.698739 
L 362.522702 228.761247 
L 381.088042 237.047947 
L 399.625657 224.673492 
L 418.209883 230.530716 
L 436.794108 227.331667 
L 455.378334 231.302774 
L 473.962559 230.048051 
L 492.546785 222.66578 
L 511.13101 224.797776 
L 529.715236 212.793495 
L 548.299462 217.704753 
L 566.883687 179.155197 
L 585.467913 166.105636 
" style="fill:none;stroke:#9467bd;stroke-linecap:square;stroke-width:1.5;"/>
   </g>
   <g id="patch_9">
    <path d="M 90 265.932 
L 90 161.352 
" style="fill:none;stroke:#000000;stroke-linecap:square;stroke-linejoin:miter;stroke-width:0.8;"/>
   </g>
   <g id="patch_10">
    <path d="M 648 265.932 
L 648 161.352 
" style="fill:none;stroke:#000000;stroke-linecap:square;stroke-linejoin:miter;stroke-width:0.8;"/>
   </g>
   <g id="patch_11">
    <path d="M 90 265.932 
L 648 265.932 
" style="fill:none;stroke:#000000;stroke-linecap:square;stroke-linejoin:miter;stroke-width:0.8;"/>
   </g>
   <g id="patch_12">
    <path d="M 90 161.352 
L 648 161.352 
" style="fill:none;stroke:#000000;stroke-linecap:square;stroke-linejoin:miter;stroke-width:0.8;"/>
   </g>
  </g>
 </g>
 <defs>
  <clipPath id="p90e1482725">
   <rect height="104.58" width="558" x="90" y="35.856"/>
  </clipPath>
  <clipPath id="p8830688f98">
   <rect height="104.58" width="558" x="90" y="161.352"/>
  </clipPath>
 </defs>
</svg>
