<?xml version="1.0" encoding="utf-8" standalone="no"?>
<!DOCTYPE svg PUBLIC "-//W3C//DTD SVG 1.1//EN"
  "http://www.w3.org/Graphics/SVG/1.1/DTD/svg11.dtd">
<!-- Created with matplotlib (https://matplotlib.org/) -->
<svg height="298.8pt" version="1.1" viewBox="0 0 720 298.8" width="720pt" xmlns="http://www.w3.org/2000/svg" xmlns:xlink="http://www.w3.org/1999/xlink">
 <metadata>
  <rdf:RDF xmlns:cc="http://creativecommons.org/ns#" xmlns:dc="http://purl.org/dc/elements/1.1/" xmlns:rdf="http://www.w3.org/1999/02/22-rdf-syntax-ns#">
   <cc:Work>
    <dc:type rdf:resource="http://purl.org/dc/dcmitype/StillImage"/>
    <dc:date>2020-10-05T09:50:13.553199</dc:date>
    <dc:format>image/svg+xml</dc:format>
    <dc:creator>
     <cc:Agent>
      <dc:title>Matplotlib v3.3.2, https://matplotlib.org/</dc:title>
     </cc:Agent>
    </dc:creator>
   </cc:Work>
  </rdf:RDF>
 </metadata>
 <defs>
  <style type="text/css">*{stroke-linecap:butt;stroke-linejoin:round;}</style>
 </defs>
 <g id="figure_1">
  <g id="patch_1">
   <path d="M 0 298.8 
L 720 298.8 
L 720 0 
L 0 0 
z
" style="fill:#ffffff;"/>
  </g>
  <g id="axes_1">
   <g id="patch_2">
    <path d="M 90 140.436 
L 648 140.436 
L 648 35.856 
L 90 35.856 
z
" style="fill:#ffffff;"/>
   </g>
   <g id="matplotlib.axis_1">
    <g id="xtick_1">
     <g id="line2d_1">
      <path clip-path="url(#p3f371551a0)" d="M 166.951075 140.436 
L 166.951075 35.856 
" style="fill:none;stroke:#b0b0b0;stroke-linecap:square;stroke-width:0.8;"/>
     </g>
     <g id="line2d_2">
      <defs>
       <path d="M 0 0 
L 0 3.5 
" id="md3d4c18191" style="stroke:#000000;stroke-width:0.8;"/>
      </defs>
      <g>
       <use style="stroke:#000000;stroke-width:0.8;" x="166.951075" xlink:href="#md3d4c18191" y="140.436"/>
      </g>
     </g>
     <g id="text_1">
      <!-- $\mathdefault{10^{0}}$ -->
      <g transform="translate(158.151075 155.034437)scale(0.1 -0.1)">
       <defs>
        <path d="M 12.40625 8.296875 
L 28.515625 8.296875 
L 28.515625 63.921875 
L 10.984375 60.40625 
L 10.984375 69.390625 
L 28.421875 72.90625 
L 38.28125 72.90625 
L 38.28125 8.296875 
L 54.390625 8.296875 
L 54.390625 0 
L 12.40625 0 
z
" id="DejaVuSans-49"/>
        <path d="M 31.78125 66.40625 
Q 24.171875 66.40625 20.328125 58.90625 
Q 16.5 51.421875 16.5 36.375 
Q 16.5 21.390625 20.328125 13.890625 
Q 24.171875 6.390625 31.78125 6.390625 
Q 39.453125 6.390625 43.28125 13.890625 
Q 47.125 21.390625 47.125 36.375 
Q 47.125 51.421875 43.28125 58.90625 
Q 39.453125 66.40625 31.78125 66.40625 
z
M 31.78125 74.21875 
Q 44.046875 74.21875 50.515625 64.515625 
Q 56.984375 54.828125 56.984375 36.375 
Q 56.984375 17.96875 50.515625 8.265625 
Q 44.046875 -1.421875 31.78125 -1.421875 
Q 19.53125 -1.421875 13.0625 8.265625 
Q 6.59375 17.96875 6.59375 36.375 
Q 6.59375 54.828125 13.0625 64.515625 
Q 19.53125 74.21875 31.78125 74.21875 
z
" id="DejaVuSans-48"/>
       </defs>
       <use transform="translate(0 0.765625)" xlink:href="#DejaVuSans-49"/>
       <use transform="translate(63.623047 0.765625)" xlink:href="#DejaVuSans-48"/>
       <use transform="translate(128.203125 39.046875)scale(0.7)" xlink:href="#DejaVuSans-48"/>
      </g>
     </g>
    </g>
    <g id="xtick_2">
     <g id="line2d_3">
      <path clip-path="url(#p3f371551a0)" d="M 358.718932 140.436 
L 358.718932 35.856 
" style="fill:none;stroke:#b0b0b0;stroke-linecap:square;stroke-width:0.8;"/>
     </g>
     <g id="line2d_4">
      <g>
       <use style="stroke:#000000;stroke-width:0.8;" x="358.718932" xlink:href="#md3d4c18191" y="140.436"/>
      </g>
     </g>
     <g id="text_2">
      <!-- $\mathdefault{10^{1}}$ -->
      <g transform="translate(349.918932 155.034437)scale(0.1 -0.1)">
       <use transform="translate(0 0.684375)" xlink:href="#DejaVuSans-49"/>
       <use transform="translate(63.623047 0.684375)" xlink:href="#DejaVuSans-48"/>
       <use transform="translate(128.203125 38.965625)scale(0.7)" xlink:href="#DejaVuSans-49"/>
      </g>
     </g>
    </g>
    <g id="xtick_3">
     <g id="line2d_5">
      <path clip-path="url(#p3f371551a0)" d="M 550.486789 140.436 
L 550.486789 35.856 
" style="fill:none;stroke:#b0b0b0;stroke-linecap:square;stroke-width:0.8;"/>
     </g>
     <g id="line2d_6">
      <g>
       <use style="stroke:#000000;stroke-width:0.8;" x="550.486789" xlink:href="#md3d4c18191" y="140.436"/>
      </g>
     </g>
     <g id="text_3">
      <!-- $\mathdefault{10^{2}}$ -->
      <g transform="translate(541.686789 155.034437)scale(0.1 -0.1)">
       <defs>
        <path d="M 19.1875 8.296875 
L 53.609375 8.296875 
L 53.609375 0 
L 7.328125 0 
L 7.328125 8.296875 
Q 12.9375 14.109375 22.625 23.890625 
Q 32.328125 33.6875 34.8125 36.53125 
Q 39.546875 41.84375 41.421875 45.53125 
Q 43.3125 49.21875 43.3125 52.78125 
Q 43.3125 58.59375 39.234375 62.25 
Q 35.15625 65.921875 28.609375 65.921875 
Q 23.96875 65.921875 18.8125 64.3125 
Q 13.671875 62.703125 7.8125 59.421875 
L 7.8125 69.390625 
Q 13.765625 71.78125 18.9375 73 
Q 24.125 74.21875 28.421875 74.21875 
Q 39.75 74.21875 46.484375 68.546875 
Q 53.21875 62.890625 53.21875 53.421875 
Q 53.21875 48.921875 51.53125 44.890625 
Q 49.859375 40.875 45.40625 35.40625 
Q 44.1875 33.984375 37.640625 27.21875 
Q 31.109375 20.453125 19.1875 8.296875 
z
" id="DejaVuSans-50"/>
       </defs>
       <use transform="translate(0 0.765625)" xlink:href="#DejaVuSans-49"/>
       <use transform="translate(63.623047 0.765625)" xlink:href="#DejaVuSans-48"/>
       <use transform="translate(128.203125 39.046875)scale(0.7)" xlink:href="#DejaVuSans-50"/>
      </g>
     </g>
    </g>
    <g id="xtick_4">
     <g id="line2d_7">
      <defs>
       <path d="M 0 0 
L 0 2 
" id="m0166766a5a" style="stroke:#000000;stroke-width:0.6;"/>
      </defs>
      <g>
       <use style="stroke:#000000;stroke-width:0.6;" x="90.638972" xlink:href="#m0166766a5a" y="140.436"/>
      </g>
     </g>
    </g>
    <g id="xtick_5">
     <g id="line2d_8">
      <g>
       <use style="stroke:#000000;stroke-width:0.6;" x="109.223198" xlink:href="#m0166766a5a" y="140.436"/>
      </g>
     </g>
    </g>
    <g id="xtick_6">
     <g id="line2d_9">
      <g>
       <use style="stroke:#000000;stroke-width:0.6;" x="124.407616" xlink:href="#m0166766a5a" y="140.436"/>
      </g>
     </g>
    </g>
    <g id="xtick_7">
     <g id="line2d_10">
      <g>
       <use style="stroke:#000000;stroke-width:0.6;" x="137.245858" xlink:href="#m0166766a5a" y="140.436"/>
      </g>
     </g>
    </g>
    <g id="xtick_8">
     <g id="line2d_11">
      <g>
       <use style="stroke:#000000;stroke-width:0.6;" x="148.36685" xlink:href="#m0166766a5a" y="140.436"/>
      </g>
     </g>
    </g>
    <g id="xtick_9">
     <g id="line2d_12">
      <g>
       <use style="stroke:#000000;stroke-width:0.6;" x="158.176259" xlink:href="#m0166766a5a" y="140.436"/>
      </g>
     </g>
    </g>
    <g id="xtick_10">
     <g id="line2d_13">
      <g>
       <use style="stroke:#000000;stroke-width:0.6;" x="224.678952" xlink:href="#m0166766a5a" y="140.436"/>
      </g>
     </g>
    </g>
    <g id="xtick_11">
     <g id="line2d_14">
      <g>
       <use style="stroke:#000000;stroke-width:0.6;" x="258.447596" xlink:href="#m0166766a5a" y="140.436"/>
      </g>
     </g>
    </g>
    <g id="xtick_12">
     <g id="line2d_15">
      <g>
       <use style="stroke:#000000;stroke-width:0.6;" x="282.406829" xlink:href="#m0166766a5a" y="140.436"/>
      </g>
     </g>
    </g>
    <g id="xtick_13">
     <g id="line2d_16">
      <g>
       <use style="stroke:#000000;stroke-width:0.6;" x="300.991055" xlink:href="#m0166766a5a" y="140.436"/>
      </g>
     </g>
    </g>
    <g id="xtick_14">
     <g id="line2d_17">
      <g>
       <use style="stroke:#000000;stroke-width:0.6;" x="316.175473" xlink:href="#m0166766a5a" y="140.436"/>
      </g>
     </g>
    </g>
    <g id="xtick_15">
     <g id="line2d_18">
      <g>
       <use style="stroke:#000000;stroke-width:0.6;" x="329.013715" xlink:href="#m0166766a5a" y="140.436"/>
      </g>
     </g>
    </g>
    <g id="xtick_16">
     <g id="line2d_19">
      <g>
       <use style="stroke:#000000;stroke-width:0.6;" x="340.134707" xlink:href="#m0166766a5a" y="140.436"/>
      </g>
     </g>
    </g>
    <g id="xtick_17">
     <g id="line2d_20">
      <g>
       <use style="stroke:#000000;stroke-width:0.6;" x="349.944116" xlink:href="#m0166766a5a" y="140.436"/>
      </g>
     </g>
    </g>
    <g id="xtick_18">
     <g id="line2d_21">
      <g>
       <use style="stroke:#000000;stroke-width:0.6;" x="416.446809" xlink:href="#m0166766a5a" y="140.436"/>
      </g>
     </g>
    </g>
    <g id="xtick_19">
     <g id="line2d_22">
      <g>
       <use style="stroke:#000000;stroke-width:0.6;" x="450.215453" xlink:href="#m0166766a5a" y="140.436"/>
      </g>
     </g>
    </g>
    <g id="xtick_20">
     <g id="line2d_23">
      <g>
       <use style="stroke:#000000;stroke-width:0.6;" x="474.174687" xlink:href="#m0166766a5a" y="140.436"/>
      </g>
     </g>
    </g>
    <g id="xtick_21">
     <g id="line2d_24">
      <g>
       <use style="stroke:#000000;stroke-width:0.6;" x="492.758912" xlink:href="#m0166766a5a" y="140.436"/>
      </g>
     </g>
    </g>
    <g id="xtick_22">
     <g id="line2d_25">
      <g>
       <use style="stroke:#000000;stroke-width:0.6;" x="507.94333" xlink:href="#m0166766a5a" y="140.436"/>
      </g>
     </g>
    </g>
    <g id="xtick_23">
     <g id="line2d_26">
      <g>
       <use style="stroke:#000000;stroke-width:0.6;" x="520.781572" xlink:href="#m0166766a5a" y="140.436"/>
      </g>
     </g>
    </g>
    <g id="xtick_24">
     <g id="line2d_27">
      <g>
       <use style="stroke:#000000;stroke-width:0.6;" x="531.902564" xlink:href="#m0166766a5a" y="140.436"/>
      </g>
     </g>
    </g>
    <g id="xtick_25">
     <g id="line2d_28">
      <g>
       <use style="stroke:#000000;stroke-width:0.6;" x="541.711973" xlink:href="#m0166766a5a" y="140.436"/>
      </g>
     </g>
    </g>
    <g id="xtick_26">
     <g id="line2d_29">
      <g>
       <use style="stroke:#000000;stroke-width:0.6;" x="608.214667" xlink:href="#m0166766a5a" y="140.436"/>
      </g>
     </g>
    </g>
    <g id="xtick_27">
     <g id="line2d_30">
      <g>
       <use style="stroke:#000000;stroke-width:0.6;" x="641.98331" xlink:href="#m0166766a5a" y="140.436"/>
      </g>
     </g>
    </g>
    <g id="text_4">
     <!-- JSON size (MB) -->
     <g transform="translate(332.155469 168.712562)scale(0.1 -0.1)">
      <defs>
       <path d="M 9.8125 72.90625 
L 19.671875 72.90625 
L 19.671875 5.078125 
Q 19.671875 -8.109375 14.671875 -14.0625 
Q 9.671875 -20.015625 -1.421875 -20.015625 
L -5.171875 -20.015625 
L -5.171875 -11.71875 
L -2.09375 -11.71875 
Q 4.4375 -11.71875 7.125 -8.046875 
Q 9.8125 -4.390625 9.8125 5.078125 
z
" id="DejaVuSans-74"/>
       <path d="M 53.515625 70.515625 
L 53.515625 60.890625 
Q 47.90625 63.578125 42.921875 64.890625 
Q 37.9375 66.21875 33.296875 66.21875 
Q 25.25 66.21875 20.875 63.09375 
Q 16.5 59.96875 16.5 54.203125 
Q 16.5 49.359375 19.40625 46.890625 
Q 22.3125 44.4375 30.421875 42.921875 
L 36.375 41.703125 
Q 47.40625 39.59375 52.65625 34.296875 
Q 57.90625 29 57.90625 20.125 
Q 57.90625 9.515625 50.796875 4.046875 
Q 43.703125 -1.421875 29.984375 -1.421875 
Q 24.8125 -1.421875 18.96875 -0.25 
Q 13.140625 0.921875 6.890625 3.21875 
L 6.890625 13.375 
Q 12.890625 10.015625 18.65625 8.296875 
Q 24.421875 6.59375 29.984375 6.59375 
Q 38.421875 6.59375 43.015625 9.90625 
Q 47.609375 13.234375 47.609375 19.390625 
Q 47.609375 24.75 44.3125 27.78125 
Q 41.015625 30.8125 33.5 32.328125 
L 27.484375 33.5 
Q 16.453125 35.6875 11.515625 40.375 
Q 6.59375 45.0625 6.59375 53.421875 
Q 6.59375 63.09375 13.40625 68.65625 
Q 20.21875 74.21875 32.171875 74.21875 
Q 37.3125 74.21875 42.625 73.28125 
Q 47.953125 72.359375 53.515625 70.515625 
z
" id="DejaVuSans-83"/>
       <path d="M 39.40625 66.21875 
Q 28.65625 66.21875 22.328125 58.203125 
Q 16.015625 50.203125 16.015625 36.375 
Q 16.015625 22.609375 22.328125 14.59375 
Q 28.65625 6.59375 39.40625 6.59375 
Q 50.140625 6.59375 56.421875 14.59375 
Q 62.703125 22.609375 62.703125 36.375 
Q 62.703125 50.203125 56.421875 58.203125 
Q 50.140625 66.21875 39.40625 66.21875 
z
M 39.40625 74.21875 
Q 54.734375 74.21875 63.90625 63.9375 
Q 73.09375 53.65625 73.09375 36.375 
Q 73.09375 19.140625 63.90625 8.859375 
Q 54.734375 -1.421875 39.40625 -1.421875 
Q 24.03125 -1.421875 14.8125 8.828125 
Q 5.609375 19.09375 5.609375 36.375 
Q 5.609375 53.65625 14.8125 63.9375 
Q 24.03125 74.21875 39.40625 74.21875 
z
" id="DejaVuSans-79"/>
       <path d="M 9.8125 72.90625 
L 23.09375 72.90625 
L 55.421875 11.921875 
L 55.421875 72.90625 
L 64.984375 72.90625 
L 64.984375 0 
L 51.703125 0 
L 19.390625 60.984375 
L 19.390625 0 
L 9.8125 0 
z
" id="DejaVuSans-78"/>
       <path id="DejaVuSans-32"/>
       <path d="M 44.28125 53.078125 
L 44.28125 44.578125 
Q 40.484375 46.53125 36.375 47.5 
Q 32.28125 48.484375 27.875 48.484375 
Q 21.1875 48.484375 17.84375 46.4375 
Q 14.5 44.390625 14.5 40.28125 
Q 14.5 37.15625 16.890625 35.375 
Q 19.28125 33.59375 26.515625 31.984375 
L 29.59375 31.296875 
Q 39.15625 29.25 43.1875 25.515625 
Q 47.21875 21.78125 47.21875 15.09375 
Q 47.21875 7.46875 41.1875 3.015625 
Q 35.15625 -1.421875 24.609375 -1.421875 
Q 20.21875 -1.421875 15.453125 -0.5625 
Q 10.6875 0.296875 5.421875 2 
L 5.421875 11.28125 
Q 10.40625 8.6875 15.234375 7.390625 
Q 20.0625 6.109375 24.8125 6.109375 
Q 31.15625 6.109375 34.5625 8.28125 
Q 37.984375 10.453125 37.984375 14.40625 
Q 37.984375 18.0625 35.515625 20.015625 
Q 33.0625 21.96875 24.703125 23.78125 
L 21.578125 24.515625 
Q 13.234375 26.265625 9.515625 29.90625 
Q 5.8125 33.546875 5.8125 39.890625 
Q 5.8125 47.609375 11.28125 51.796875 
Q 16.75 56 26.8125 56 
Q 31.78125 56 36.171875 55.265625 
Q 40.578125 54.546875 44.28125 53.078125 
z
" id="DejaVuSans-115"/>
       <path d="M 9.421875 54.6875 
L 18.40625 54.6875 
L 18.40625 0 
L 9.421875 0 
z
M 9.421875 75.984375 
L 18.40625 75.984375 
L 18.40625 64.59375 
L 9.421875 64.59375 
z
" id="DejaVuSans-105"/>
       <path d="M 5.515625 54.6875 
L 48.1875 54.6875 
L 48.1875 46.484375 
L 14.40625 7.171875 
L 48.1875 7.171875 
L 48.1875 0 
L 4.296875 0 
L 4.296875 8.203125 
L 38.09375 47.515625 
L 5.515625 47.515625 
z
" id="DejaVuSans-122"/>
       <path d="M 56.203125 29.59375 
L 56.203125 25.203125 
L 14.890625 25.203125 
Q 15.484375 15.921875 20.484375 11.0625 
Q 25.484375 6.203125 34.421875 6.203125 
Q 39.59375 6.203125 44.453125 7.46875 
Q 49.3125 8.734375 54.109375 11.28125 
L 54.109375 2.78125 
Q 49.265625 0.734375 44.1875 -0.34375 
Q 39.109375 -1.421875 33.890625 -1.421875 
Q 20.796875 -1.421875 13.15625 6.1875 
Q 5.515625 13.8125 5.515625 26.8125 
Q 5.515625 40.234375 12.765625 48.109375 
Q 20.015625 56 32.328125 56 
Q 43.359375 56 49.78125 48.890625 
Q 56.203125 41.796875 56.203125 29.59375 
z
M 47.21875 32.234375 
Q 47.125 39.59375 43.09375 43.984375 
Q 39.0625 48.390625 32.421875 48.390625 
Q 24.90625 48.390625 20.390625 44.140625 
Q 15.875 39.890625 15.1875 32.171875 
z
" id="DejaVuSans-101"/>
       <path d="M 31 75.875 
Q 24.46875 64.65625 21.28125 53.65625 
Q 18.109375 42.671875 18.109375 31.390625 
Q 18.109375 20.125 21.3125 9.0625 
Q 24.515625 -2 31 -13.1875 
L 23.1875 -13.1875 
Q 15.875 -1.703125 12.234375 9.375 
Q 8.59375 20.453125 8.59375 31.390625 
Q 8.59375 42.28125 12.203125 53.3125 
Q 15.828125 64.359375 23.1875 75.875 
z
" id="DejaVuSans-40"/>
       <path d="M 9.8125 72.90625 
L 24.515625 72.90625 
L 43.109375 23.296875 
L 61.8125 72.90625 
L 76.515625 72.90625 
L 76.515625 0 
L 66.890625 0 
L 66.890625 64.015625 
L 48.09375 14.015625 
L 38.1875 14.015625 
L 19.390625 64.015625 
L 19.390625 0 
L 9.8125 0 
z
" id="DejaVuSans-77"/>
       <path d="M 19.671875 34.8125 
L 19.671875 8.109375 
L 35.5 8.109375 
Q 43.453125 8.109375 47.28125 11.40625 
Q 51.125 14.703125 51.125 21.484375 
Q 51.125 28.328125 47.28125 31.5625 
Q 43.453125 34.8125 35.5 34.8125 
z
M 19.671875 64.796875 
L 19.671875 42.828125 
L 34.28125 42.828125 
Q 41.5 42.828125 45.03125 45.53125 
Q 48.578125 48.25 48.578125 53.8125 
Q 48.578125 59.328125 45.03125 62.0625 
Q 41.5 64.796875 34.28125 64.796875 
z
M 9.8125 72.90625 
L 35.015625 72.90625 
Q 46.296875 72.90625 52.390625 68.21875 
Q 58.5 63.53125 58.5 54.890625 
Q 58.5 48.1875 55.375 44.234375 
Q 52.25 40.28125 46.1875 39.3125 
Q 53.46875 37.75 57.5 32.78125 
Q 61.53125 27.828125 61.53125 20.40625 
Q 61.53125 10.640625 54.890625 5.3125 
Q 48.25 0 35.984375 0 
L 9.8125 0 
z
" id="DejaVuSans-66"/>
       <path d="M 8.015625 75.875 
L 15.828125 75.875 
Q 23.140625 64.359375 26.78125 53.3125 
Q 30.421875 42.28125 30.421875 31.390625 
Q 30.421875 20.453125 26.78125 9.375 
Q 23.140625 -1.703125 15.828125 -13.1875 
L 8.015625 -13.1875 
Q 14.5 -2 17.703125 9.0625 
Q 20.90625 20.125 20.90625 31.390625 
Q 20.90625 42.671875 17.703125 53.65625 
Q 14.5 64.65625 8.015625 75.875 
z
" id="DejaVuSans-41"/>
      </defs>
      <use xlink:href="#DejaVuSans-74"/>
      <use x="29.492188" xlink:href="#DejaVuSans-83"/>
      <use x="92.96875" xlink:href="#DejaVuSans-79"/>
      <use x="171.679688" xlink:href="#DejaVuSans-78"/>
      <use x="246.484375" xlink:href="#DejaVuSans-32"/>
      <use x="278.271484" xlink:href="#DejaVuSans-115"/>
      <use x="330.371094" xlink:href="#DejaVuSans-105"/>
      <use x="358.154297" xlink:href="#DejaVuSans-122"/>
      <use x="410.644531" xlink:href="#DejaVuSans-101"/>
      <use x="472.167969" xlink:href="#DejaVuSans-32"/>
      <use x="503.955078" xlink:href="#DejaVuSans-40"/>
      <use x="542.96875" xlink:href="#DejaVuSans-77"/>
      <use x="629.248047" xlink:href="#DejaVuSans-66"/>
      <use x="697.851562" xlink:href="#DejaVuSans-41"/>
     </g>
    </g>
   </g>
   <g id="matplotlib.axis_2">
    <g id="ytick_1">
     <g id="line2d_31">
      <path clip-path="url(#p3f371551a0)" d="M 90 121.898039 
L 648 121.898039 
" style="fill:none;stroke:#b0b0b0;stroke-linecap:square;stroke-width:0.8;"/>
     </g>
     <g id="line2d_32">
      <defs>
       <path d="M 0 0 
L -3.5 0 
" id="m71a14be17e" style="stroke:#000000;stroke-width:0.8;"/>
      </defs>
      <g>
       <use style="stroke:#000000;stroke-width:0.8;" x="90" xlink:href="#m71a14be17e" y="121.898039"/>
      </g>
     </g>
     <g id="text_5">
      <!-- 1 -->
      <g transform="translate(76.6375 125.697258)scale(0.1 -0.1)">
       <use xlink:href="#DejaVuSans-49"/>
      </g>
     </g>
    </g>
    <g id="ytick_2">
     <g id="line2d_33">
      <path clip-path="url(#p3f371551a0)" d="M 90 100.900485 
L 648 100.900485 
" style="fill:none;stroke:#b0b0b0;stroke-linecap:square;stroke-width:0.8;"/>
     </g>
     <g id="line2d_34">
      <g>
       <use style="stroke:#000000;stroke-width:0.8;" x="90" xlink:href="#m71a14be17e" y="100.900485"/>
      </g>
     </g>
     <g id="text_6">
      <!-- 2 -->
      <g transform="translate(76.6375 104.699703)scale(0.1 -0.1)">
       <use xlink:href="#DejaVuSans-50"/>
      </g>
     </g>
    </g>
    <g id="ytick_3">
     <g id="line2d_35">
      <path clip-path="url(#p3f371551a0)" d="M 90 79.90293 
L 648 79.90293 
" style="fill:none;stroke:#b0b0b0;stroke-linecap:square;stroke-width:0.8;"/>
     </g>
     <g id="line2d_36">
      <g>
       <use style="stroke:#000000;stroke-width:0.8;" x="90" xlink:href="#m71a14be17e" y="79.90293"/>
      </g>
     </g>
     <g id="text_7">
      <!-- 3 -->
      <g transform="translate(76.6375 83.702149)scale(0.1 -0.1)">
       <defs>
        <path d="M 40.578125 39.3125 
Q 47.65625 37.796875 51.625 33 
Q 55.609375 28.21875 55.609375 21.1875 
Q 55.609375 10.40625 48.1875 4.484375 
Q 40.765625 -1.421875 27.09375 -1.421875 
Q 22.515625 -1.421875 17.65625 -0.515625 
Q 12.796875 0.390625 7.625 2.203125 
L 7.625 11.71875 
Q 11.71875 9.328125 16.59375 8.109375 
Q 21.484375 6.890625 26.8125 6.890625 
Q 36.078125 6.890625 40.9375 10.546875 
Q 45.796875 14.203125 45.796875 21.1875 
Q 45.796875 27.640625 41.28125 31.265625 
Q 36.765625 34.90625 28.71875 34.90625 
L 20.21875 34.90625 
L 20.21875 43.015625 
L 29.109375 43.015625 
Q 36.375 43.015625 40.234375 45.921875 
Q 44.09375 48.828125 44.09375 54.296875 
Q 44.09375 59.90625 40.109375 62.90625 
Q 36.140625 65.921875 28.71875 65.921875 
Q 24.65625 65.921875 20.015625 65.03125 
Q 15.375 64.15625 9.8125 62.3125 
L 9.8125 71.09375 
Q 15.4375 72.65625 20.34375 73.4375 
Q 25.25 74.21875 29.59375 74.21875 
Q 40.828125 74.21875 47.359375 69.109375 
Q 53.90625 64.015625 53.90625 55.328125 
Q 53.90625 49.265625 50.4375 45.09375 
Q 46.96875 40.921875 40.578125 39.3125 
z
" id="DejaVuSans-51"/>
       </defs>
       <use xlink:href="#DejaVuSans-51"/>
      </g>
     </g>
    </g>
    <g id="ytick_4">
     <g id="line2d_37">
      <path clip-path="url(#p3f371551a0)" d="M 90 58.905375 
L 648 58.905375 
" style="fill:none;stroke:#b0b0b0;stroke-linecap:square;stroke-width:0.8;"/>
     </g>
     <g id="line2d_38">
      <g>
       <use style="stroke:#000000;stroke-width:0.8;" x="90" xlink:href="#m71a14be17e" y="58.905375"/>
      </g>
     </g>
     <g id="text_8">
      <!-- 4 -->
      <g transform="translate(76.6375 62.704594)scale(0.1 -0.1)">
       <defs>
        <path d="M 37.796875 64.3125 
L 12.890625 25.390625 
L 37.796875 25.390625 
z
M 35.203125 72.90625 
L 47.609375 72.90625 
L 47.609375 25.390625 
L 58.015625 25.390625 
L 58.015625 17.1875 
L 47.609375 17.1875 
L 47.609375 0 
L 37.796875 0 
L 37.796875 17.1875 
L 4.890625 17.1875 
L 4.890625 26.703125 
z
" id="DejaVuSans-52"/>
       </defs>
       <use xlink:href="#DejaVuSans-52"/>
      </g>
     </g>
    </g>
    <g id="ytick_5">
     <g id="line2d_39">
      <path clip-path="url(#p3f371551a0)" d="M 90 37.907821 
L 648 37.907821 
" style="fill:none;stroke:#b0b0b0;stroke-linecap:square;stroke-width:0.8;"/>
     </g>
     <g id="line2d_40">
      <g>
       <use style="stroke:#000000;stroke-width:0.8;" x="90" xlink:href="#m71a14be17e" y="37.907821"/>
      </g>
     </g>
     <g id="text_9">
      <!-- 5 -->
      <g transform="translate(76.6375 41.707039)scale(0.1 -0.1)">
       <defs>
        <path d="M 10.796875 72.90625 
L 49.515625 72.90625 
L 49.515625 64.59375 
L 19.828125 64.59375 
L 19.828125 46.734375 
Q 21.96875 47.46875 24.109375 47.828125 
Q 26.265625 48.1875 28.421875 48.1875 
Q 40.625 48.1875 47.75 41.5 
Q 54.890625 34.8125 54.890625 23.390625 
Q 54.890625 11.625 47.5625 5.09375 
Q 40.234375 -1.421875 26.90625 -1.421875 
Q 22.3125 -1.421875 17.546875 -0.640625 
Q 12.796875 0.140625 7.71875 1.703125 
L 7.71875 11.625 
Q 12.109375 9.234375 16.796875 8.0625 
Q 21.484375 6.890625 26.703125 6.890625 
Q 35.15625 6.890625 40.078125 11.328125 
Q 45.015625 15.765625 45.015625 23.390625 
Q 45.015625 31 40.078125 35.4375 
Q 35.15625 39.890625 26.703125 39.890625 
Q 22.75 39.890625 18.8125 39.015625 
Q 14.890625 38.140625 10.796875 36.28125 
z
" id="DejaVuSans-53"/>
       </defs>
       <use xlink:href="#DejaVuSans-53"/>
      </g>
     </g>
    </g>
    <g id="text_10">
     <!-- Encode time (ratio) -->
     <g transform="translate(70.557812 136.437406)rotate(-90)scale(0.1 -0.1)">
      <defs>
       <path d="M 9.8125 72.90625 
L 55.90625 72.90625 
L 55.90625 64.59375 
L 19.671875 64.59375 
L 19.671875 43.015625 
L 54.390625 43.015625 
L 54.390625 34.71875 
L 19.671875 34.71875 
L 19.671875 8.296875 
L 56.78125 8.296875 
L 56.78125 0 
L 9.8125 0 
z
" id="DejaVuSans-69"/>
       <path d="M 54.890625 33.015625 
L 54.890625 0 
L 45.90625 0 
L 45.90625 32.71875 
Q 45.90625 40.484375 42.875 44.328125 
Q 39.84375 48.1875 33.796875 48.1875 
Q 26.515625 48.1875 22.3125 43.546875 
Q 18.109375 38.921875 18.109375 30.90625 
L 18.109375 0 
L 9.078125 0 
L 9.078125 54.6875 
L 18.109375 54.6875 
L 18.109375 46.1875 
Q 21.34375 51.125 25.703125 53.5625 
Q 30.078125 56 35.796875 56 
Q 45.21875 56 50.046875 50.171875 
Q 54.890625 44.34375 54.890625 33.015625 
z
" id="DejaVuSans-110"/>
       <path d="M 48.78125 52.59375 
L 48.78125 44.1875 
Q 44.96875 46.296875 41.140625 47.34375 
Q 37.3125 48.390625 33.40625 48.390625 
Q 24.65625 48.390625 19.8125 42.84375 
Q 14.984375 37.3125 14.984375 27.296875 
Q 14.984375 17.28125 19.8125 11.734375 
Q 24.65625 6.203125 33.40625 6.203125 
Q 37.3125 6.203125 41.140625 7.25 
Q 44.96875 8.296875 48.78125 10.40625 
L 48.78125 2.09375 
Q 45.015625 0.34375 40.984375 -0.53125 
Q 36.96875 -1.421875 32.421875 -1.421875 
Q 20.0625 -1.421875 12.78125 6.34375 
Q 5.515625 14.109375 5.515625 27.296875 
Q 5.515625 40.671875 12.859375 48.328125 
Q 20.21875 56 33.015625 56 
Q 37.15625 56 41.109375 55.140625 
Q 45.0625 54.296875 48.78125 52.59375 
z
" id="DejaVuSans-99"/>
       <path d="M 30.609375 48.390625 
Q 23.390625 48.390625 19.1875 42.75 
Q 14.984375 37.109375 14.984375 27.296875 
Q 14.984375 17.484375 19.15625 11.84375 
Q 23.34375 6.203125 30.609375 6.203125 
Q 37.796875 6.203125 41.984375 11.859375 
Q 46.1875 17.53125 46.1875 27.296875 
Q 46.1875 37.015625 41.984375 42.703125 
Q 37.796875 48.390625 30.609375 48.390625 
z
M 30.609375 56 
Q 42.328125 56 49.015625 48.375 
Q 55.71875 40.765625 55.71875 27.296875 
Q 55.71875 13.875 49.015625 6.21875 
Q 42.328125 -1.421875 30.609375 -1.421875 
Q 18.84375 -1.421875 12.171875 6.21875 
Q 5.515625 13.875 5.515625 27.296875 
Q 5.515625 40.765625 12.171875 48.375 
Q 18.84375 56 30.609375 56 
z
" id="DejaVuSans-111"/>
       <path d="M 45.40625 46.390625 
L 45.40625 75.984375 
L 54.390625 75.984375 
L 54.390625 0 
L 45.40625 0 
L 45.40625 8.203125 
Q 42.578125 3.328125 38.25 0.953125 
Q 33.9375 -1.421875 27.875 -1.421875 
Q 17.96875 -1.421875 11.734375 6.484375 
Q 5.515625 14.40625 5.515625 27.296875 
Q 5.515625 40.1875 11.734375 48.09375 
Q 17.96875 56 27.875 56 
Q 33.9375 56 38.25 53.625 
Q 42.578125 51.265625 45.40625 46.390625 
z
M 14.796875 27.296875 
Q 14.796875 17.390625 18.875 11.75 
Q 22.953125 6.109375 30.078125 6.109375 
Q 37.203125 6.109375 41.296875 11.75 
Q 45.40625 17.390625 45.40625 27.296875 
Q 45.40625 37.203125 41.296875 42.84375 
Q 37.203125 48.484375 30.078125 48.484375 
Q 22.953125 48.484375 18.875 42.84375 
Q 14.796875 37.203125 14.796875 27.296875 
z
" id="DejaVuSans-100"/>
       <path d="M 18.3125 70.21875 
L 18.3125 54.6875 
L 36.8125 54.6875 
L 36.8125 47.703125 
L 18.3125 47.703125 
L 18.3125 18.015625 
Q 18.3125 11.328125 20.140625 9.421875 
Q 21.96875 7.515625 27.59375 7.515625 
L 36.8125 7.515625 
L 36.8125 0 
L 27.59375 0 
Q 17.1875 0 13.234375 3.875 
Q 9.28125 7.765625 9.28125 18.015625 
L 9.28125 47.703125 
L 2.6875 47.703125 
L 2.6875 54.6875 
L 9.28125 54.6875 
L 9.28125 70.21875 
z
" id="DejaVuSans-116"/>
       <path d="M 52 44.1875 
Q 55.375 50.25 60.0625 53.125 
Q 64.75 56 71.09375 56 
Q 79.640625 56 84.28125 50.015625 
Q 88.921875 44.046875 88.921875 33.015625 
L 88.921875 0 
L 79.890625 0 
L 79.890625 32.71875 
Q 79.890625 40.578125 77.09375 44.375 
Q 74.3125 48.1875 68.609375 48.1875 
Q 61.625 48.1875 57.5625 43.546875 
Q 53.515625 38.921875 53.515625 30.90625 
L 53.515625 0 
L 44.484375 0 
L 44.484375 32.71875 
Q 44.484375 40.625 41.703125 44.40625 
Q 38.921875 48.1875 33.109375 48.1875 
Q 26.21875 48.1875 22.15625 43.53125 
Q 18.109375 38.875 18.109375 30.90625 
L 18.109375 0 
L 9.078125 0 
L 9.078125 54.6875 
L 18.109375 54.6875 
L 18.109375 46.1875 
Q 21.1875 51.21875 25.484375 53.609375 
Q 29.78125 56 35.6875 56 
Q 41.65625 56 45.828125 52.96875 
Q 50 49.953125 52 44.1875 
z
" id="DejaVuSans-109"/>
       <path d="M 41.109375 46.296875 
Q 39.59375 47.171875 37.8125 47.578125 
Q 36.03125 48 33.890625 48 
Q 26.265625 48 22.1875 43.046875 
Q 18.109375 38.09375 18.109375 28.8125 
L 18.109375 0 
L 9.078125 0 
L 9.078125 54.6875 
L 18.109375 54.6875 
L 18.109375 46.1875 
Q 20.953125 51.171875 25.484375 53.578125 
Q 30.03125 56 36.53125 56 
Q 37.453125 56 38.578125 55.875 
Q 39.703125 55.765625 41.0625 55.515625 
z
" id="DejaVuSans-114"/>
       <path d="M 34.28125 27.484375 
Q 23.390625 27.484375 19.1875 25 
Q 14.984375 22.515625 14.984375 16.5 
Q 14.984375 11.71875 18.140625 8.90625 
Q 21.296875 6.109375 26.703125 6.109375 
Q 34.1875 6.109375 38.703125 11.40625 
Q 43.21875 16.703125 43.21875 25.484375 
L 43.21875 27.484375 
z
M 52.203125 31.203125 
L 52.203125 0 
L 43.21875 0 
L 43.21875 8.296875 
Q 40.140625 3.328125 35.546875 0.953125 
Q 30.953125 -1.421875 24.3125 -1.421875 
Q 15.921875 -1.421875 10.953125 3.296875 
Q 6 8.015625 6 15.921875 
Q 6 25.140625 12.171875 29.828125 
Q 18.359375 34.515625 30.609375 34.515625 
L 43.21875 34.515625 
L 43.21875 35.40625 
Q 43.21875 41.609375 39.140625 45 
Q 35.0625 48.390625 27.6875 48.390625 
Q 23 48.390625 18.546875 47.265625 
Q 14.109375 46.140625 10.015625 43.890625 
L 10.015625 52.203125 
Q 14.9375 54.109375 19.578125 55.046875 
Q 24.21875 56 28.609375 56 
Q 40.484375 56 46.34375 49.84375 
Q 52.203125 43.703125 52.203125 31.203125 
z
" id="DejaVuSans-97"/>
      </defs>
      <use xlink:href="#DejaVuSans-69"/>
      <use x="63.183594" xlink:href="#DejaVuSans-110"/>
      <use x="126.5625" xlink:href="#DejaVuSans-99"/>
      <use x="181.542969" xlink:href="#DejaVuSans-111"/>
      <use x="242.724609" xlink:href="#DejaVuSans-100"/>
      <use x="306.201172" xlink:href="#DejaVuSans-101"/>
      <use x="367.724609" xlink:href="#DejaVuSans-32"/>
      <use x="399.511719" xlink:href="#DejaVuSans-116"/>
      <use x="438.720703" xlink:href="#DejaVuSans-105"/>
      <use x="466.503906" xlink:href="#DejaVuSans-109"/>
      <use x="563.916016" xlink:href="#DejaVuSans-101"/>
      <use x="625.439453" xlink:href="#DejaVuSans-32"/>
      <use x="657.226562" xlink:href="#DejaVuSans-40"/>
      <use x="696.240234" xlink:href="#DejaVuSans-114"/>
      <use x="737.353516" xlink:href="#DejaVuSans-97"/>
      <use x="798.632812" xlink:href="#DejaVuSans-116"/>
      <use x="837.841797" xlink:href="#DejaVuSans-105"/>
      <use x="865.625" xlink:href="#DejaVuSans-111"/>
      <use x="926.806641" xlink:href="#DejaVuSans-41"/>
     </g>
    </g>
   </g>
   <g id="line2d_41">
    <path clip-path="url(#p3f371551a0)" d="M 115.363636 127.723172 
L 125.293172 127.359461 
L 135.224169 130.191086 
L 145.15264 129.50154 
L 155.077552 125.799059 
L 164.998156 129.21509 
L 174.916324 127.760468 
L 184.830331 129.201522 
L 194.741239 127.11805 
L 204.647421 126.82599 
L 214.54926 133.74326 
L 224.446666 130.944427 
L 234.339827 127.207107 
L 244.229245 127.414595 
L 254.114098 128.006699 
L 263.994106 126.856045 
L 273.869057 125.232657 
L 283.739435 122.526925 
L 293.60461 127.410858 
L 303.465292 126.151099 
L 313.32069 120.630101 
L 323.17107 123.650095 
L 333.016436 119.463717 
L 342.856771 121.693716 
L 352.692013 120.678384 
L 362.522702 124.317502 
L 381.088042 119.63599 
L 399.625657 121.147855 
L 418.209883 120.649394 
L 436.794108 122.57146 
L 455.378334 115.07581 
L 473.962559 114.748166 
L 492.546785 118.655547 
L 511.13101 107.916478 
L 529.715236 114.053506 
L 548.299462 113.409576 
L 566.883687 95.350597 
L 585.467913 105.700422 
L 604.052138 107.052725 
L 622.636364 79.316383 
" style="fill:none;stroke:#1f77b4;stroke-linecap:square;stroke-width:1.5;"/>
   </g>
   <g id="line2d_42">
    <path clip-path="url(#p3f371551a0)" d="M 115.363636 133.481576 
L 125.293172 133.305414 
L 135.224169 133.386051 
L 145.15264 133.95342 
L 155.077552 133.729324 
L 164.998156 134.512901 
L 174.916324 133.759091 
L 184.830331 134.822009 
L 194.741239 133.893204 
L 204.647421 128.939424 
L 214.54926 135.682364 
L 224.446666 133.763905 
L 234.339827 133.8183 
L 244.229245 133.625663 
L 254.114098 134.324117 
L 263.994106 133.424919 
L 273.869057 133.200447 
L 283.739435 130.679072 
L 293.60461 134.189279 
L 303.465292 133.895077 
L 313.32069 130.996915 
L 323.17107 133.331326 
L 333.016436 131.801642 
L 342.856771 134.360271 
L 352.692013 133.715747 
L 362.522702 133.713499 
L 381.088042 131.269028 
L 399.625657 130.537317 
L 418.209883 133.849753 
L 436.794108 128.631271 
L 455.378334 133.571646 
L 473.962559 129.879112 
L 492.546785 133.796952 
L 511.13101 130.944033 
L 529.715236 129.123374 
L 548.299462 130.867317 
L 566.883687 131.567924 
L 585.467913 130.238044 
L 604.052138 127.666085 
L 622.636364 129.160869 
" style="fill:none;stroke:#ff7f0e;stroke-linecap:square;stroke-width:1.5;"/>
   </g>
   <g id="line2d_43">
    <path clip-path="url(#p3f371551a0)" d="M 115.363636 121.898039 
L 125.293172 121.898039 
L 135.224169 121.898039 
L 145.15264 121.898039 
L 155.077552 121.898039 
L 164.998156 121.898039 
L 174.916324 121.898039 
L 184.830331 121.898039 
L 194.741239 121.898039 
L 204.647421 121.898039 
L 214.54926 121.898039 
L 224.446666 121.898039 
L 234.339827 121.898039 
L 244.229245 121.898039 
L 254.114098 121.898039 
L 263.994106 121.898039 
L 273.869057 121.898039 
L 283.739435 121.898039 
L 293.60461 121.898039 
L 303.465292 121.898039 
L 313.32069 121.898039 
L 323.17107 121.898039 
L 333.016436 121.898039 
L 342.856771 121.898039 
L 352.692013 121.898039 
L 362.522702 121.898039 
L 381.088042 121.898039 
L 399.625657 121.898039 
L 418.209883 121.898039 
L 436.794108 121.898039 
L 455.378334 121.898039 
L 473.962559 121.898039 
L 492.546785 121.898039 
L 511.13101 121.898039 
L 529.715236 121.898039 
L 548.299462 121.898039 
L 566.883687 121.898039 
L 585.467913 121.898039 
L 604.052138 121.898039 
L 622.636364 121.898039 
" style="fill:none;stroke:#2ca02c;stroke-linecap:square;stroke-width:1.5;"/>
   </g>
   <g id="line2d_44">
    <path clip-path="url(#p3f371551a0)" d="M 115.363636 125.168187 
L 125.293172 126.417737 
L 135.224169 126.485494 
L 145.15264 126.821154 
L 155.077552 125.783199 
L 164.998156 125.790525 
L 174.916324 126.126677 
L 184.830331 128.06938 
L 194.741239 125.378605 
L 204.647421 126.380216 
L 214.54926 133.652642 
L 224.446666 130.619563 
L 234.339827 126.023698 
L 244.229245 126.469126 
L 254.114098 116.457261 
L 263.994106 127.132465 
L 273.869057 126.5136 
L 283.739435 124.970924 
L 293.60461 127.30793 
L 303.465292 126.184633 
L 313.32069 126.009741 
L 323.17107 119.347002 
L 333.016436 125.049398 
L 342.856771 125.183496 
L 352.692013 125.567522 
L 362.522702 125.586429 
L 381.088042 126.329013 
L 399.625657 117.14289 
L 418.209883 122.430945 
L 436.794108 124.320134 
L 455.378334 124.628583 
L 473.962559 123.442243 
L 492.546785 124.461 
L 511.13101 125.960686 
L 529.715236 123.938657 
L 548.299462 124.029864 
L 566.883687 122.641101 
L 585.467913 124.99926 
L 604.052138 125.066706 
L 622.636364 125.76985 
" style="fill:none;stroke:#d62728;stroke-linecap:square;stroke-width:1.5;"/>
   </g>
   <g id="line2d_45">
    <path clip-path="url(#p3f371551a0)" d="M 115.363636 69.495915 
L 125.293172 68.766375 
L 135.224169 68.024465 
L 145.15264 71.637831 
L 155.077552 69.579073 
L 164.998156 74.719156 
L 174.916324 67.703153 
L 184.830331 74.690866 
L 194.741239 40.609636 
L 204.647421 64.626583 
L 214.54926 99.306254 
L 224.446666 84.657072 
L 234.339827 54.378007 
L 244.229245 63.596454 
L 254.114098 66.706259 
L 263.994106 67.672351 
L 273.869057 64.392604 
L 283.739435 63.56119 
L 293.60461 72.668307 
L 303.465292 63.392677 
L 313.32069 62.614322 
L 323.17107 63.297412 
L 333.016436 65.062108 
L 342.856771 71.368387 
L 352.692013 67.392747 
L 362.522702 66.438327 
L 381.088042 65.567745 
L 399.625657 70.571194 
" style="fill:none;stroke:#9467bd;stroke-linecap:square;stroke-width:1.5;"/>
   </g>
   <g id="line2d_46">
    <path clip-path="url(#p3f371551a0)" d="M 115.363636 74.872066 
L 125.293172 76.934082 
L 135.224169 80.042533 
L 145.15264 80.72473 
L 155.077552 81.391132 
L 164.998156 80.717908 
L 174.916324 73.408282 
L 184.830331 81.972626 
L 194.741239 75.685032 
L 204.647421 80.365005 
L 214.54926 91.419197 
L 224.446666 89.265148 
L 234.339827 69.510333 
L 244.229245 72.81001 
L 254.114098 70.380147 
L 263.994106 79.891821 
L 273.869057 74.447698 
L 283.739435 64.870738 
L 293.60461 82.443488 
L 303.465292 75.364193 
L 313.32069 70.359885 
L 323.17107 74.984536 
L 333.016436 69.49107 
L 342.856771 80.727452 
L 352.692013 76.585574 
L 362.522702 72.115223 
L 381.088042 68.802911 
L 399.625657 80.148482 
" style="fill:none;stroke:#8c564b;stroke-linecap:square;stroke-width:1.5;"/>
   </g>
   <g id="patch_3">
    <path d="M 90 140.436 
L 90 35.856 
" style="fill:none;stroke:#000000;stroke-linecap:square;stroke-linejoin:miter;stroke-width:0.8;"/>
   </g>
   <g id="patch_4">
    <path d="M 648 140.436 
L 648 35.856 
" style="fill:none;stroke:#000000;stroke-linecap:square;stroke-linejoin:miter;stroke-width:0.8;"/>
   </g>
   <g id="patch_5">
    <path d="M 90 140.436 
L 648 140.436 
" style="fill:none;stroke:#000000;stroke-linecap:square;stroke-linejoin:miter;stroke-width:0.8;"/>
   </g>
   <g id="patch_6">
    <path d="M 90 35.856 
L 648 35.856 
" style="fill:none;stroke:#000000;stroke-linecap:square;stroke-linejoin:miter;stroke-width:0.8;"/>
   </g>
   <g id="legend_1">
    <g id="patch_7">
     <path d="M 192.165625 33.47185 
L 545.834375 33.47185 
Q 547.834375 33.47185 547.834375 31.47185 
L 547.834375 3.1156 
Q 547.834375 1.1156 545.834375 1.1156 
L 192.165625 1.1156 
Q 190.165625 1.1156 190.165625 3.1156 
L 190.165625 31.47185 
Q 190.165625 33.47185 192.165625 33.47185 
z
" style="fill:#ffffff;opacity:0.8;stroke:#cccccc;stroke-linejoin:miter;"/>
    </g>
    <g id="line2d_47">
     <path d="M 194.165625 9.214038 
L 214.165625 9.214038 
" style="fill:none;stroke:#1f77b4;stroke-linecap:square;stroke-width:1.5;"/>
    </g>
    <g id="line2d_48"/>
    <g id="text_11">
     <!-- V8 -->
     <g transform="translate(222.165625 12.714038)scale(0.1 -0.1)">
      <defs>
       <path d="M 28.609375 0 
L 0.78125 72.90625 
L 11.078125 72.90625 
L 34.1875 11.53125 
L 57.328125 72.90625 
L 67.578125 72.90625 
L 39.796875 0 
z
" id="DejaVuSans-86"/>
       <path d="M 31.78125 34.625 
Q 24.75 34.625 20.71875 30.859375 
Q 16.703125 27.09375 16.703125 20.515625 
Q 16.703125 13.921875 20.71875 10.15625 
Q 24.75 6.390625 31.78125 6.390625 
Q 38.8125 6.390625 42.859375 10.171875 
Q 46.921875 13.96875 46.921875 20.515625 
Q 46.921875 27.09375 42.890625 30.859375 
Q 38.875 34.625 31.78125 34.625 
z
M 21.921875 38.8125 
Q 15.578125 40.375 12.03125 44.71875 
Q 8.5 49.078125 8.5 55.328125 
Q 8.5 64.0625 14.71875 69.140625 
Q 20.953125 74.21875 31.78125 74.21875 
Q 42.671875 74.21875 48.875 69.140625 
Q 55.078125 64.0625 55.078125 55.328125 
Q 55.078125 49.078125 51.53125 44.71875 
Q 48 40.375 41.703125 38.8125 
Q 48.828125 37.15625 52.796875 32.3125 
Q 56.78125 27.484375 56.78125 20.515625 
Q 56.78125 9.90625 50.3125 4.234375 
Q 43.84375 -1.421875 31.78125 -1.421875 
Q 19.734375 -1.421875 13.25 4.234375 
Q 6.78125 9.90625 6.78125 20.515625 
Q 6.78125 27.484375 10.78125 32.3125 
Q 14.796875 37.15625 21.921875 38.8125 
z
M 18.3125 54.390625 
Q 18.3125 48.734375 21.84375 45.5625 
Q 25.390625 42.390625 31.78125 42.390625 
Q 38.140625 42.390625 41.71875 45.5625 
Q 45.3125 48.734375 45.3125 54.390625 
Q 45.3125 60.0625 41.71875 63.234375 
Q 38.140625 66.40625 31.78125 66.40625 
Q 25.390625 66.40625 21.84375 63.234375 
Q 18.3125 60.0625 18.3125 54.390625 
z
" id="DejaVuSans-56"/>
      </defs>
      <use xlink:href="#DejaVuSans-86"/>
      <use x="68.408203" xlink:href="#DejaVuSans-56"/>
     </g>
    </g>
    <g id="line2d_49">
     <path d="M 194.165625 23.892163 
L 214.165625 23.892163 
" style="fill:none;stroke:#ff7f0e;stroke-linecap:square;stroke-width:1.5;"/>
    </g>
    <g id="line2d_50"/>
    <g id="text_12">
     <!-- MsgPack -->
     <g transform="translate(222.165625 27.392163)scale(0.1 -0.1)">
      <defs>
       <path d="M 45.40625 27.984375 
Q 45.40625 37.75 41.375 43.109375 
Q 37.359375 48.484375 30.078125 48.484375 
Q 22.859375 48.484375 18.828125 43.109375 
Q 14.796875 37.75 14.796875 27.984375 
Q 14.796875 18.265625 18.828125 12.890625 
Q 22.859375 7.515625 30.078125 7.515625 
Q 37.359375 7.515625 41.375 12.890625 
Q 45.40625 18.265625 45.40625 27.984375 
z
M 54.390625 6.78125 
Q 54.390625 -7.171875 48.1875 -13.984375 
Q 42 -20.796875 29.203125 -20.796875 
Q 24.46875 -20.796875 20.265625 -20.09375 
Q 16.0625 -19.390625 12.109375 -17.921875 
L 12.109375 -9.1875 
Q 16.0625 -11.328125 19.921875 -12.34375 
Q 23.78125 -13.375 27.78125 -13.375 
Q 36.625 -13.375 41.015625 -8.765625 
Q 45.40625 -4.15625 45.40625 5.171875 
L 45.40625 9.625 
Q 42.625 4.78125 38.28125 2.390625 
Q 33.9375 0 27.875 0 
Q 17.828125 0 11.671875 7.65625 
Q 5.515625 15.328125 5.515625 27.984375 
Q 5.515625 40.671875 11.671875 48.328125 
Q 17.828125 56 27.875 56 
Q 33.9375 56 38.28125 53.609375 
Q 42.625 51.21875 45.40625 46.390625 
L 45.40625 54.6875 
L 54.390625 54.6875 
z
" id="DejaVuSans-103"/>
       <path d="M 19.671875 64.796875 
L 19.671875 37.40625 
L 32.078125 37.40625 
Q 38.96875 37.40625 42.71875 40.96875 
Q 46.484375 44.53125 46.484375 51.125 
Q 46.484375 57.671875 42.71875 61.234375 
Q 38.96875 64.796875 32.078125 64.796875 
z
M 9.8125 72.90625 
L 32.078125 72.90625 
Q 44.34375 72.90625 50.609375 67.359375 
Q 56.890625 61.8125 56.890625 51.125 
Q 56.890625 40.328125 50.609375 34.8125 
Q 44.34375 29.296875 32.078125 29.296875 
L 19.671875 29.296875 
L 19.671875 0 
L 9.8125 0 
z
" id="DejaVuSans-80"/>
       <path d="M 9.078125 75.984375 
L 18.109375 75.984375 
L 18.109375 31.109375 
L 44.921875 54.6875 
L 56.390625 54.6875 
L 27.390625 29.109375 
L 57.625 0 
L 45.90625 0 
L 18.109375 26.703125 
L 18.109375 0 
L 9.078125 0 
z
" id="DejaVuSans-107"/>
      </defs>
      <use xlink:href="#DejaVuSans-77"/>
      <use x="86.279297" xlink:href="#DejaVuSans-115"/>
      <use x="138.378906" xlink:href="#DejaVuSans-103"/>
      <use x="201.855469" xlink:href="#DejaVuSans-80"/>
      <use x="257.658203" xlink:href="#DejaVuSans-97"/>
      <use x="318.9375" xlink:href="#DejaVuSans-99"/>
      <use x="373.917969" xlink:href="#DejaVuSans-107"/>
     </g>
    </g>
    <g id="line2d_51">
     <path d="M 285.348437 9.214038 
L 305.348437 9.214038 
" style="fill:none;stroke:#2ca02c;stroke-linecap:square;stroke-width:1.5;"/>
    </g>
    <g id="line2d_52"/>
    <g id="text_13">
     <!-- JSON -->
     <g transform="translate(313.348437 12.714038)scale(0.1 -0.1)">
      <use xlink:href="#DejaVuSans-74"/>
      <use x="29.492188" xlink:href="#DejaVuSans-83"/>
      <use x="92.96875" xlink:href="#DejaVuSans-79"/>
      <use x="171.679688" xlink:href="#DejaVuSans-78"/>
     </g>
    </g>
    <g id="line2d_53">
     <path d="M 285.348437 23.892163 
L 305.348437 23.892163 
" style="fill:none;stroke:#d62728;stroke-linecap:square;stroke-width:1.5;"/>
    </g>
    <g id="line2d_54"/>
    <g id="text_14">
     <!-- JSON (unmapped) -->
     <g transform="translate(313.348437 27.392163)scale(0.1 -0.1)">
      <defs>
       <path d="M 8.5 21.578125 
L 8.5 54.6875 
L 17.484375 54.6875 
L 17.484375 21.921875 
Q 17.484375 14.15625 20.5 10.265625 
Q 23.53125 6.390625 29.59375 6.390625 
Q 36.859375 6.390625 41.078125 11.03125 
Q 45.3125 15.671875 45.3125 23.6875 
L 45.3125 54.6875 
L 54.296875 54.6875 
L 54.296875 0 
L 45.3125 0 
L 45.3125 8.40625 
Q 42.046875 3.421875 37.71875 1 
Q 33.40625 -1.421875 27.6875 -1.421875 
Q 18.265625 -1.421875 13.375 4.4375 
Q 8.5 10.296875 8.5 21.578125 
z
M 31.109375 56 
z
" id="DejaVuSans-117"/>
       <path d="M 18.109375 8.203125 
L 18.109375 -20.796875 
L 9.078125 -20.796875 
L 9.078125 54.6875 
L 18.109375 54.6875 
L 18.109375 46.390625 
Q 20.953125 51.265625 25.265625 53.625 
Q 29.59375 56 35.59375 56 
Q 45.5625 56 51.78125 48.09375 
Q 58.015625 40.1875 58.015625 27.296875 
Q 58.015625 14.40625 51.78125 6.484375 
Q 45.5625 -1.421875 35.59375 -1.421875 
Q 29.59375 -1.421875 25.265625 0.953125 
Q 20.953125 3.328125 18.109375 8.203125 
z
M 48.6875 27.296875 
Q 48.6875 37.203125 44.609375 42.84375 
Q 40.53125 48.484375 33.40625 48.484375 
Q 26.265625 48.484375 22.1875 42.84375 
Q 18.109375 37.203125 18.109375 27.296875 
Q 18.109375 17.390625 22.1875 11.75 
Q 26.265625 6.109375 33.40625 6.109375 
Q 40.53125 6.109375 44.609375 11.75 
Q 48.6875 17.390625 48.6875 27.296875 
z
" id="DejaVuSans-112"/>
      </defs>
      <use xlink:href="#DejaVuSans-74"/>
      <use x="29.492188" xlink:href="#DejaVuSans-83"/>
      <use x="92.96875" xlink:href="#DejaVuSans-79"/>
      <use x="171.679688" xlink:href="#DejaVuSans-78"/>
      <use x="246.484375" xlink:href="#DejaVuSans-32"/>
      <use x="278.271484" xlink:href="#DejaVuSans-40"/>
      <use x="317.285156" xlink:href="#DejaVuSans-117"/>
      <use x="380.664062" xlink:href="#DejaVuSans-110"/>
      <use x="444.042969" xlink:href="#DejaVuSans-109"/>
      <use x="541.455078" xlink:href="#DejaVuSans-97"/>
      <use x="602.734375" xlink:href="#DejaVuSans-112"/>
      <use x="666.210938" xlink:href="#DejaVuSans-112"/>
      <use x="729.6875" xlink:href="#DejaVuSans-101"/>
      <use x="791.210938" xlink:href="#DejaVuSans-100"/>
      <use x="854.6875" xlink:href="#DejaVuSans-41"/>
     </g>
    </g>
    <g id="line2d_55">
     <path d="M 422.723437 9.214038 
L 442.723437 9.214038 
" style="fill:none;stroke:#9467bd;stroke-linecap:square;stroke-width:1.5;"/>
    </g>
    <g id="line2d_56"/>
    <g id="text_15">
     <!-- BSON -->
     <g transform="translate(450.723437 12.714038)scale(0.1 -0.1)">
      <use xlink:href="#DejaVuSans-66"/>
      <use x="66.853516" xlink:href="#DejaVuSans-83"/>
      <use x="130.330078" xlink:href="#DejaVuSans-79"/>
      <use x="209.041016" xlink:href="#DejaVuSans-78"/>
     </g>
    </g>
    <g id="line2d_57">
     <path d="M 422.723437 23.892163 
L 442.723437 23.892163 
" style="fill:none;stroke:#8c564b;stroke-linecap:square;stroke-width:1.5;"/>
    </g>
    <g id="line2d_58"/>
    <g id="text_16">
     <!-- BSON (unmapped) -->
     <g transform="translate(450.723437 27.392163)scale(0.1 -0.1)">
      <use xlink:href="#DejaVuSans-66"/>
      <use x="66.853516" xlink:href="#DejaVuSans-83"/>
      <use x="130.330078" xlink:href="#DejaVuSans-79"/>
      <use x="209.041016" xlink:href="#DejaVuSans-78"/>
      <use x="283.845703" xlink:href="#DejaVuSans-32"/>
      <use x="315.632812" xlink:href="#DejaVuSans-40"/>
      <use x="354.646484" xlink:href="#DejaVuSans-117"/>
      <use x="418.025391" xlink:href="#DejaVuSans-110"/>
      <use x="481.404297" xlink:href="#DejaVuSans-109"/>
      <use x="578.816406" xlink:href="#DejaVuSans-97"/>
      <use x="640.095703" xlink:href="#DejaVuSans-112"/>
      <use x="703.572266" xlink:href="#DejaVuSans-112"/>
      <use x="767.048828" xlink:href="#DejaVuSans-101"/>
      <use x="828.572266" xlink:href="#DejaVuSans-100"/>
      <use x="892.048828" xlink:href="#DejaVuSans-41"/>
     </g>
    </g>
   </g>
  </g>
  <g id="axes_2">
   <g id="patch_8">
    <path d="M 90 265.932 
L 648 265.932 
L 648 161.352 
L 90 161.352 
z
" style="fill:#ffffff;"/>
   </g>
   <g id="matplotlib.axis_3">
    <g id="xtick_28">
     <g id="line2d_59">
      <path clip-path="url(#pcd9335d29d)" d="M 166.951075 265.932 
L 166.951075 161.352 
" style="fill:none;stroke:#b0b0b0;stroke-linecap:square;stroke-width:0.8;"/>
     </g>
     <g id="line2d_60">
      <g>
       <use style="stroke:#000000;stroke-width:0.8;" x="166.951075" xlink:href="#md3d4c18191" y="265.932"/>
      </g>
     </g>
     <g id="text_17">
      <!-- $\mathdefault{10^{0}}$ -->
      <g transform="translate(158.151075 280.530438)scale(0.1 -0.1)">
       <use transform="translate(0 0.765625)" xlink:href="#DejaVuSans-49"/>
       <use transform="translate(63.623047 0.765625)" xlink:href="#DejaVuSans-48"/>
       <use transform="translate(128.203125 39.046875)scale(0.7)" xlink:href="#DejaVuSans-48"/>
      </g>
     </g>
    </g>
    <g id="xtick_29">
     <g id="line2d_61">
      <path clip-path="url(#pcd9335d29d)" d="M 358.718932 265.932 
L 358.718932 161.352 
" style="fill:none;stroke:#b0b0b0;stroke-linecap:square;stroke-width:0.8;"/>
     </g>
     <g id="line2d_62">
      <g>
       <use style="stroke:#000000;stroke-width:0.8;" x="358.718932" xlink:href="#md3d4c18191" y="265.932"/>
      </g>
     </g>
     <g id="text_18">
      <!-- $\mathdefault{10^{1}}$ -->
      <g transform="translate(349.918932 280.530438)scale(0.1 -0.1)">
       <use transform="translate(0 0.684375)" xlink:href="#DejaVuSans-49"/>
       <use transform="translate(63.623047 0.684375)" xlink:href="#DejaVuSans-48"/>
       <use transform="translate(128.203125 38.965625)scale(0.7)" xlink:href="#DejaVuSans-49"/>
      </g>
     </g>
    </g>
    <g id="xtick_30">
     <g id="line2d_63">
      <path clip-path="url(#pcd9335d29d)" d="M 550.486789 265.932 
L 550.486789 161.352 
" style="fill:none;stroke:#b0b0b0;stroke-linecap:square;stroke-width:0.8;"/>
     </g>
     <g id="line2d_64">
      <g>
       <use style="stroke:#000000;stroke-width:0.8;" x="550.486789" xlink:href="#md3d4c18191" y="265.932"/>
      </g>
     </g>
     <g id="text_19">
      <!-- $\mathdefault{10^{2}}$ -->
      <g transform="translate(541.686789 280.530438)scale(0.1 -0.1)">
       <use transform="translate(0 0.765625)" xlink:href="#DejaVuSans-49"/>
       <use transform="translate(63.623047 0.765625)" xlink:href="#DejaVuSans-48"/>
       <use transform="translate(128.203125 39.046875)scale(0.7)" xlink:href="#DejaVuSans-50"/>
      </g>
     </g>
    </g>
    <g id="xtick_31">
     <g id="line2d_65">
      <g>
       <use style="stroke:#000000;stroke-width:0.6;" x="90.638972" xlink:href="#m0166766a5a" y="265.932"/>
      </g>
     </g>
    </g>
    <g id="xtick_32">
     <g id="line2d_66">
      <g>
       <use style="stroke:#000000;stroke-width:0.6;" x="109.223198" xlink:href="#m0166766a5a" y="265.932"/>
      </g>
     </g>
    </g>
    <g id="xtick_33">
     <g id="line2d_67">
      <g>
       <use style="stroke:#000000;stroke-width:0.6;" x="124.407616" xlink:href="#m0166766a5a" y="265.932"/>
      </g>
     </g>
    </g>
    <g id="xtick_34">
     <g id="line2d_68">
      <g>
       <use style="stroke:#000000;stroke-width:0.6;" x="137.245858" xlink:href="#m0166766a5a" y="265.932"/>
      </g>
     </g>
    </g>
    <g id="xtick_35">
     <g id="line2d_69">
      <g>
       <use style="stroke:#000000;stroke-width:0.6;" x="148.36685" xlink:href="#m0166766a5a" y="265.932"/>
      </g>
     </g>
    </g>
    <g id="xtick_36">
     <g id="line2d_70">
      <g>
       <use style="stroke:#000000;stroke-width:0.6;" x="158.176259" xlink:href="#m0166766a5a" y="265.932"/>
      </g>
     </g>
    </g>
    <g id="xtick_37">
     <g id="line2d_71">
      <g>
       <use style="stroke:#000000;stroke-width:0.6;" x="224.678952" xlink:href="#m0166766a5a" y="265.932"/>
      </g>
     </g>
    </g>
    <g id="xtick_38">
     <g id="line2d_72">
      <g>
       <use style="stroke:#000000;stroke-width:0.6;" x="258.447596" xlink:href="#m0166766a5a" y="265.932"/>
      </g>
     </g>
    </g>
    <g id="xtick_39">
     <g id="line2d_73">
      <g>
       <use style="stroke:#000000;stroke-width:0.6;" x="282.406829" xlink:href="#m0166766a5a" y="265.932"/>
      </g>
     </g>
    </g>
    <g id="xtick_40">
     <g id="line2d_74">
      <g>
       <use style="stroke:#000000;stroke-width:0.6;" x="300.991055" xlink:href="#m0166766a5a" y="265.932"/>
      </g>
     </g>
    </g>
    <g id="xtick_41">
     <g id="line2d_75">
      <g>
       <use style="stroke:#000000;stroke-width:0.6;" x="316.175473" xlink:href="#m0166766a5a" y="265.932"/>
      </g>
     </g>
    </g>
    <g id="xtick_42">
     <g id="line2d_76">
      <g>
       <use style="stroke:#000000;stroke-width:0.6;" x="329.013715" xlink:href="#m0166766a5a" y="265.932"/>
      </g>
     </g>
    </g>
    <g id="xtick_43">
     <g id="line2d_77">
      <g>
       <use style="stroke:#000000;stroke-width:0.6;" x="340.134707" xlink:href="#m0166766a5a" y="265.932"/>
      </g>
     </g>
    </g>
    <g id="xtick_44">
     <g id="line2d_78">
      <g>
       <use style="stroke:#000000;stroke-width:0.6;" x="349.944116" xlink:href="#m0166766a5a" y="265.932"/>
      </g>
     </g>
    </g>
    <g id="xtick_45">
     <g id="line2d_79">
      <g>
       <use style="stroke:#000000;stroke-width:0.6;" x="416.446809" xlink:href="#m0166766a5a" y="265.932"/>
      </g>
     </g>
    </g>
    <g id="xtick_46">
     <g id="line2d_80">
      <g>
       <use style="stroke:#000000;stroke-width:0.6;" x="450.215453" xlink:href="#m0166766a5a" y="265.932"/>
      </g>
     </g>
    </g>
    <g id="xtick_47">
     <g id="line2d_81">
      <g>
       <use style="stroke:#000000;stroke-width:0.6;" x="474.174687" xlink:href="#m0166766a5a" y="265.932"/>
      </g>
     </g>
    </g>
    <g id="xtick_48">
     <g id="line2d_82">
      <g>
       <use style="stroke:#000000;stroke-width:0.6;" x="492.758912" xlink:href="#m0166766a5a" y="265.932"/>
      </g>
     </g>
    </g>
    <g id="xtick_49">
     <g id="line2d_83">
      <g>
       <use style="stroke:#000000;stroke-width:0.6;" x="507.94333" xlink:href="#m0166766a5a" y="265.932"/>
      </g>
     </g>
    </g>
    <g id="xtick_50">
     <g id="line2d_84">
      <g>
       <use style="stroke:#000000;stroke-width:0.6;" x="520.781572" xlink:href="#m0166766a5a" y="265.932"/>
      </g>
     </g>
    </g>
    <g id="xtick_51">
     <g id="line2d_85">
      <g>
       <use style="stroke:#000000;stroke-width:0.6;" x="531.902564" xlink:href="#m0166766a5a" y="265.932"/>
      </g>
     </g>
    </g>
    <g id="xtick_52">
     <g id="line2d_86">
      <g>
       <use style="stroke:#000000;stroke-width:0.6;" x="541.711973" xlink:href="#m0166766a5a" y="265.932"/>
      </g>
     </g>
    </g>
    <g id="xtick_53">
     <g id="line2d_87">
      <g>
       <use style="stroke:#000000;stroke-width:0.6;" x="608.214667" xlink:href="#m0166766a5a" y="265.932"/>
      </g>
     </g>
    </g>
    <g id="xtick_54">
     <g id="line2d_88">
      <g>
       <use style="stroke:#000000;stroke-width:0.6;" x="641.98331" xlink:href="#m0166766a5a" y="265.932"/>
      </g>
     </g>
    </g>
    <g id="text_20">
     <!-- JSON size (MB) -->
     <g transform="translate(332.155469 294.208563)scale(0.1 -0.1)">
      <use xlink:href="#DejaVuSans-74"/>
      <use x="29.492188" xlink:href="#DejaVuSans-83"/>
      <use x="92.96875" xlink:href="#DejaVuSans-79"/>
      <use x="171.679688" xlink:href="#DejaVuSans-78"/>
      <use x="246.484375" xlink:href="#DejaVuSans-32"/>
      <use x="278.271484" xlink:href="#DejaVuSans-115"/>
      <use x="330.371094" xlink:href="#DejaVuSans-105"/>
      <use x="358.154297" xlink:href="#DejaVuSans-122"/>
      <use x="410.644531" xlink:href="#DejaVuSans-101"/>
      <use x="472.167969" xlink:href="#DejaVuSans-32"/>
      <use x="503.955078" xlink:href="#DejaVuSans-40"/>
      <use x="542.96875" xlink:href="#DejaVuSans-77"/>
      <use x="629.248047" xlink:href="#DejaVuSans-66"/>
      <use x="697.851562" xlink:href="#DejaVuSans-41"/>
     </g>
    </g>
   </g>
   <g id="matplotlib.axis_4">
    <g id="ytick_6">
     <g id="line2d_89">
      <path clip-path="url(#pcd9335d29d)" d="M 90 237.397374 
L 648 237.397374 
" style="fill:none;stroke:#b0b0b0;stroke-linecap:square;stroke-width:0.8;"/>
     </g>
     <g id="line2d_90">
      <g>
       <use style="stroke:#000000;stroke-width:0.8;" x="90" xlink:href="#m71a14be17e" y="237.397374"/>
      </g>
     </g>
     <g id="text_21">
      <!-- 1 -->
      <g transform="translate(76.6375 241.196593)scale(0.1 -0.1)">
       <use xlink:href="#DejaVuSans-49"/>
      </g>
     </g>
    </g>
    <g id="ytick_7">
     <g id="line2d_91">
      <path clip-path="url(#pcd9335d29d)" d="M 90 197.406519 
L 648 197.406519 
" style="fill:none;stroke:#b0b0b0;stroke-linecap:square;stroke-width:0.8;"/>
     </g>
     <g id="line2d_92">
      <g>
       <use style="stroke:#000000;stroke-width:0.8;" x="90" xlink:href="#m71a14be17e" y="197.406519"/>
      </g>
     </g>
     <g id="text_22">
      <!-- 2 -->
      <g transform="translate(76.6375 201.205738)scale(0.1 -0.1)">
       <use xlink:href="#DejaVuSans-50"/>
      </g>
     </g>
    </g>
    <g id="text_23">
     <!-- Decode time (ratio) -->
     <g transform="translate(70.557812 262.531844)rotate(-90)scale(0.1 -0.1)">
      <defs>
       <path d="M 19.671875 64.796875 
L 19.671875 8.109375 
L 31.59375 8.109375 
Q 46.6875 8.109375 53.6875 14.9375 
Q 60.6875 21.78125 60.6875 36.53125 
Q 60.6875 51.171875 53.6875 57.984375 
Q 46.6875 64.796875 31.59375 64.796875 
z
M 9.8125 72.90625 
L 30.078125 72.90625 
Q 51.265625 72.90625 61.171875 64.09375 
Q 71.09375 55.28125 71.09375 36.53125 
Q 71.09375 17.671875 61.125 8.828125 
Q 51.171875 0 30.078125 0 
L 9.8125 0 
z
" id="DejaVuSans-68"/>
      </defs>
      <use xlink:href="#DejaVuSans-68"/>
      <use x="77.001953" xlink:href="#DejaVuSans-101"/>
      <use x="138.525391" xlink:href="#DejaVuSans-99"/>
      <use x="193.505859" xlink:href="#DejaVuSans-111"/>
      <use x="254.6875" xlink:href="#DejaVuSans-100"/>
      <use x="318.164062" xlink:href="#DejaVuSans-101"/>
      <use x="379.6875" xlink:href="#DejaVuSans-32"/>
      <use x="411.474609" xlink:href="#DejaVuSans-116"/>
      <use x="450.683594" xlink:href="#DejaVuSans-105"/>
      <use x="478.466797" xlink:href="#DejaVuSans-109"/>
      <use x="575.878906" xlink:href="#DejaVuSans-101"/>
      <use x="637.402344" xlink:href="#DejaVuSans-32"/>
      <use x="669.189453" xlink:href="#DejaVuSans-40"/>
      <use x="708.203125" xlink:href="#DejaVuSans-114"/>
      <use x="749.316406" xlink:href="#DejaVuSans-97"/>
      <use x="810.595703" xlink:href="#DejaVuSans-116"/>
      <use x="849.804688" xlink:href="#DejaVuSans-105"/>
      <use x="877.587891" xlink:href="#DejaVuSans-111"/>
      <use x="938.769531" xlink:href="#DejaVuSans-41"/>
     </g>
    </g>
   </g>
   <g id="line2d_93">
    <path clip-path="url(#pcd9335d29d)" d="M 115.363636 239.448079 
L 125.293172 238.953749 
L 135.224169 243.875797 
L 145.15264 244.913404 
L 155.077552 244.875879 
L 164.998156 244.526485 
L 174.916324 242.017522 
L 184.830331 245.405424 
L 194.741239 215.684064 
L 204.647421 243.101098 
L 214.54926 250.402922 
L 224.446666 243.638564 
L 234.339827 243.384734 
L 244.229245 224.060333 
L 254.114098 243.299008 
L 263.994106 242.735987 
L 273.869057 231.516007 
L 283.739435 229.456061 
L 293.60461 240.968675 
L 303.465292 234.936045 
L 313.32069 225.386242 
L 323.17107 241.219567 
L 333.016436 231.574036 
L 342.856771 235.463716 
L 352.692013 230.609011 
L 362.522702 237.350392 
L 381.088042 239.707679 
L 399.625657 231.448152 
L 418.209883 238.077251 
L 436.794108 232.195403 
L 455.378334 207.975475 
L 473.962559 232.091594 
L 492.546785 231.749837 
L 511.13101 226.275896 
L 529.715236 235.629604 
L 548.299462 208.445351 
L 566.883687 222.949273 
L 585.467913 206.990525 
L 604.052138 225.497053 
L 622.636364 204.721497 
" style="fill:none;stroke:#1f77b4;stroke-linecap:square;stroke-width:1.5;"/>
   </g>
   <g id="line2d_94">
    <path clip-path="url(#pcd9335d29d)" d="M 115.363636 256.624909 
L 125.293172 256.298731 
L 135.224169 256.280552 
L 145.15264 258.348491 
L 155.077552 257.905933 
L 164.998156 257.688601 
L 174.916324 257.101114 
L 184.830331 258.5975 
L 194.741239 238.194657 
L 204.647421 186.327777 
L 214.54926 261.178364 
L 224.446666 257.006382 
L 234.339827 241.321054 
L 244.229245 256.809923 
L 254.114098 246.387466 
L 263.994106 242.779405 
L 273.869057 222.062273 
L 283.739435 242.386139 
L 293.60461 255.946545 
L 303.465292 257.772621 
L 313.32069 241.123826 
L 323.17107 252.453627 
L 333.016436 242.72944 
L 342.856771 253.934887 
L 352.692013 246.013042 
L 362.522702 249.32739 
L 381.088042 251.92852 
L 399.625657 252.639911 
L 418.209883 252.252811 
L 436.794108 253.708005 
L 455.378334 253.225587 
L 473.962559 248.78644 
L 492.546785 251.674529 
L 511.13101 260.323015 
L 529.715236 254.344432 
L 548.299462 254.058971 
L 566.883687 260.069799 
L 585.467913 249.586188 
L 604.052138 252.46294 
L 622.636364 245.673853 
" style="fill:none;stroke:#ff7f0e;stroke-linecap:square;stroke-width:1.5;"/>
   </g>
   <g id="line2d_95">
    <path clip-path="url(#pcd9335d29d)" d="M 115.363636 237.397374 
L 125.293172 237.397374 
L 135.224169 237.397374 
L 145.15264 237.397374 
L 155.077552 237.397374 
L 164.998156 237.397374 
L 174.916324 237.397374 
L 184.830331 237.397374 
L 194.741239 237.397374 
L 204.647421 237.397374 
L 214.54926 237.397374 
L 224.446666 237.397374 
L 234.339827 237.397374 
L 244.229245 237.397374 
L 254.114098 237.397374 
L 263.994106 237.397374 
L 273.869057 237.397374 
L 283.739435 237.397374 
L 293.60461 237.397374 
L 303.465292 237.397374 
L 313.32069 237.397374 
L 323.17107 237.397374 
L 333.016436 237.397374 
L 342.856771 237.397374 
L 352.692013 237.397374 
L 362.522702 237.397374 
L 381.088042 237.397374 
L 399.625657 237.397374 
L 418.209883 237.397374 
L 436.794108 237.397374 
L 455.378334 237.397374 
L 473.962559 237.397374 
L 492.546785 237.397374 
L 511.13101 237.397374 
L 529.715236 237.397374 
L 548.299462 237.397374 
L 566.883687 237.397374 
L 585.467913 237.397374 
L 604.052138 237.397374 
L 622.636364 237.397374 
" style="fill:none;stroke:#2ca02c;stroke-linecap:square;stroke-width:1.5;"/>
   </g>
   <g id="line2d_96">
    <path clip-path="url(#pcd9335d29d)" d="M 115.363636 243.801994 
L 125.293172 246.446651 
L 135.224169 246.142007 
L 145.15264 247.781518 
L 155.077552 247.292348 
L 164.998156 246.327306 
L 174.916324 245.200406 
L 184.830331 247.817575 
L 194.741239 246.643655 
L 204.647421 244.751083 
L 214.54926 252.974458 
L 224.446666 246.674884 
L 234.339827 247.46181 
L 244.229245 247.154459 
L 254.114098 244.260125 
L 263.994106 245.471978 
L 273.869057 239.551469 
L 283.739435 245.843962 
L 293.60461 245.085094 
L 303.465292 245.165546 
L 313.32069 242.294177 
L 323.17107 244.966904 
L 333.016436 245.131154 
L 342.856771 245.784321 
L 352.692013 240.779908 
L 362.522702 245.669805 
L 381.088042 244.171242 
L 399.625657 239.597049 
L 418.209883 239.539402 
L 436.794108 236.552178 
L 455.378334 242.019116 
L 473.962559 231.538826 
L 492.546785 241.411995 
L 511.13101 253.542625 
L 529.715236 243.286325 
L 548.299462 239.778826 
L 566.883687 237.886097 
L 585.467913 243.226945 
L 604.052138 244.563283 
L 622.636364 244.132985 
" style="fill:none;stroke:#d62728;stroke-linecap:square;stroke-width:1.5;"/>
   </g>
   <g id="line2d_97">
    <path clip-path="url(#pcd9335d29d)" d="M 115.363636 193.992305 
L 125.293172 193.955978 
L 135.224169 193.291618 
L 145.15264 196.987303 
L 155.077552 174.319527 
L 164.998156 166.105636 
L 174.916324 169.769536 
L 184.830331 170.260342 
L 194.741239 185.17031 
L 204.647421 190.348622 
L 214.54926 192.867383 
L 224.446666 168.098628 
L 234.339827 172.598234 
L 244.229245 175.691624 
L 254.114098 167.027301 
L 263.994106 166.844786 
L 273.869057 171.739375 
L 283.739435 172.590599 
L 293.60461 192.232442 
L 303.465292 172.397232 
L 313.32069 175.130214 
L 323.17107 186.160541 
L 333.016436 181.87702 
L 342.856771 183.961235 
L 352.692013 177.752309 
L 362.522702 186.294733 
L 381.088042 190.968623 
L 399.625657 187.345176 
" style="fill:none;stroke:#9467bd;stroke-linecap:square;stroke-width:1.5;"/>
   </g>
   <g id="line2d_98">
    <path clip-path="url(#pcd9335d29d)" d="M 115.363636 229.706602 
L 125.293172 229.162764 
L 135.224169 229.851587 
L 145.15264 227.69599 
L 155.077552 210.805769 
L 164.998156 210.673088 
L 174.916324 226.162503 
L 184.830331 221.317502 
L 194.741239 203.898291 
L 204.647421 204.39137 
L 214.54926 232.679098 
L 224.446666 190.253177 
L 234.339827 205.932529 
L 244.229245 210.421288 
L 254.114098 204.3502 
L 263.994106 194.672662 
L 273.869057 200.901041 
L 283.739435 207.880664 
L 293.60461 219.36053 
L 303.465292 208.288015 
L 313.32069 205.565924 
L 323.17107 209.641723 
L 333.016436 203.713131 
L 342.856771 214.21978 
L 352.692013 205.892486 
L 362.522702 220.120235 
L 381.088042 212.749064 
L 399.625657 212.841731 
" style="fill:none;stroke:#8c564b;stroke-linecap:square;stroke-width:1.5;"/>
   </g>
   <g id="patch_9">
    <path d="M 90 265.932 
L 90 161.352 
" style="fill:none;stroke:#000000;stroke-linecap:square;stroke-linejoin:miter;stroke-width:0.8;"/>
   </g>
   <g id="patch_10">
    <path d="M 648 265.932 
L 648 161.352 
" style="fill:none;stroke:#000000;stroke-linecap:square;stroke-linejoin:miter;stroke-width:0.8;"/>
   </g>
   <g id="patch_11">
    <path d="M 90 265.932 
L 648 265.932 
" style="fill:none;stroke:#000000;stroke-linecap:square;stroke-linejoin:miter;stroke-width:0.8;"/>
   </g>
   <g id="patch_12">
    <path d="M 90 161.352 
L 648 161.352 
" style="fill:none;stroke:#000000;stroke-linecap:square;stroke-linejoin:miter;stroke-width:0.8;"/>
   </g>
  </g>
 </g>
 <defs>
  <clipPath id="p3f371551a0">
   <rect height="104.58" width="558" x="90" y="35.856"/>
  </clipPath>
  <clipPath id="pcd9335d29d">
   <rect height="104.58" width="558" x="90" y="161.352"/>
  </clipPath>
 </defs>
</svg>
