<?xml version="1.0" encoding="utf-8" standalone="no"?>
<!DOCTYPE svg PUBLIC "-//W3C//DTD SVG 1.1//EN"
  "http://www.w3.org/Graphics/SVG/1.1/DTD/svg11.dtd">
<svg xmlns:xlink="http://www.w3.org/1999/xlink" width="720pt" height="298.8pt" viewBox="0 0 720 298.8" xmlns="http://www.w3.org/2000/svg" version="1.1">
 <metadata>
  <rdf:RDF xmlns:dc="http://purl.org/dc/elements/1.1/" xmlns:cc="http://creativecommons.org/ns#" xmlns:rdf="http://www.w3.org/1999/02/22-rdf-syntax-ns#">
   <cc:Work>
    <dc:type rdf:resource="http://purl.org/dc/dcmitype/StillImage"/>
    <dc:date>2026-02-08T02:02:31.789438</dc:date>
    <dc:format>image/svg+xml</dc:format>
    <dc:creator>
     <cc:Agent>
      <dc:title>Matplotlib v3.10.7, https://matplotlib.org/</dc:title>
     </cc:Agent>
    </dc:creator>
   </cc:Work>
  </rdf:RDF>
 </metadata>
 <defs>
  <style type="text/css">*{stroke-linejoin: round; stroke-linecap: butt}</style>
 </defs>
 <g id="figure_1">
  <g id="patch_1">
   <path d="M 0 298.8 
L 720 298.8 
L 720 0 
L 0 0 
z
" style="fill: #ffffff"/>
  </g>
  <g id="axes_1">
   <g id="patch_2">
    <path d="M 90 140.436 
L 648 140.436 
L 648 35.856 
L 90 35.856 
z
" style="fill: #ffffff"/>
   </g>
   <g id="matplotlib.axis_1">
    <g id="xtick_1">
     <g id="line2d_1">
      <path d="M 166.951075 140.436 
L 166.951075 35.856 
" clip-path="url(#p9c4452672c)" style="fill: none; stroke: #b0b0b0; stroke-width: 0.8; stroke-linecap: square"/>
     </g>
     <g id="line2d_2">
      <defs>
       <path id="m2370fab9c7" d="M 0 0 
L 0 3.5 
" style="stroke: #000000; stroke-width: 0.8"/>
      </defs>
      <g>
       <use xlink:href="#m2370fab9c7" x="166.951075" y="140.436" style="stroke: #000000; stroke-width: 0.8"/>
      </g>
     </g>
     <g id="text_1">
      <!-- $\mathdefault{10^{0}}$ -->
      <g transform="translate(158.151075 155.034437) scale(0.1 -0.1)">
       <defs>
        <path id="DejaVuSans-31" d="M 794 531 
L 1825 531 
L 1825 4091 
L 703 3866 
L 703 4441 
L 1819 4666 
L 2450 4666 
L 2450 531 
L 3481 531 
L 3481 0 
L 794 0 
L 794 531 
z
" transform="scale(0.015625)"/>
        <path id="DejaVuSans-30" d="M 2034 4250 
Q 1547 4250 1301 3770 
Q 1056 3291 1056 2328 
Q 1056 1369 1301 889 
Q 1547 409 2034 409 
Q 2525 409 2770 889 
Q 3016 1369 3016 2328 
Q 3016 3291 2770 3770 
Q 2525 4250 2034 4250 
z
M 2034 4750 
Q 2819 4750 3233 4129 
Q 3647 3509 3647 2328 
Q 3647 1150 3233 529 
Q 2819 -91 2034 -91 
Q 1250 -91 836 529 
Q 422 1150 422 2328 
Q 422 3509 836 4129 
Q 1250 4750 2034 4750 
z
" transform="scale(0.015625)"/>
       </defs>
       <use xlink:href="#DejaVuSans-31" transform="translate(0 0.765625)"/>
       <use xlink:href="#DejaVuSans-30" transform="translate(63.623047 0.765625)"/>
       <use xlink:href="#DejaVuSans-30" transform="translate(128.203125 39.046875) scale(0.7)"/>
      </g>
     </g>
    </g>
    <g id="xtick_2">
     <g id="line2d_3">
      <path d="M 358.718932 140.436 
L 358.718932 35.856 
" clip-path="url(#p9c4452672c)" style="fill: none; stroke: #b0b0b0; stroke-width: 0.8; stroke-linecap: square"/>
     </g>
     <g id="line2d_4">
      <g>
       <use xlink:href="#m2370fab9c7" x="358.718932" y="140.436" style="stroke: #000000; stroke-width: 0.8"/>
      </g>
     </g>
     <g id="text_2">
      <!-- $\mathdefault{10^{1}}$ -->
      <g transform="translate(349.918932 155.034437) scale(0.1 -0.1)">
       <use xlink:href="#DejaVuSans-31" transform="translate(0 0.684375)"/>
       <use xlink:href="#DejaVuSans-30" transform="translate(63.623047 0.684375)"/>
       <use xlink:href="#DejaVuSans-31" transform="translate(128.203125 38.965625) scale(0.7)"/>
      </g>
     </g>
    </g>
    <g id="xtick_3">
     <g id="line2d_5">
      <path d="M 550.486789 140.436 
L 550.486789 35.856 
" clip-path="url(#p9c4452672c)" style="fill: none; stroke: #b0b0b0; stroke-width: 0.8; stroke-linecap: square"/>
     </g>
     <g id="line2d_6">
      <g>
       <use xlink:href="#m2370fab9c7" x="550.486789" y="140.436" style="stroke: #000000; stroke-width: 0.8"/>
      </g>
     </g>
     <g id="text_3">
      <!-- $\mathdefault{10^{2}}$ -->
      <g transform="translate(541.686789 155.034437) scale(0.1 -0.1)">
       <defs>
        <path id="DejaVuSans-32" d="M 1228 531 
L 3431 531 
L 3431 0 
L 469 0 
L 469 531 
Q 828 903 1448 1529 
Q 2069 2156 2228 2338 
Q 2531 2678 2651 2914 
Q 2772 3150 2772 3378 
Q 2772 3750 2511 3984 
Q 2250 4219 1831 4219 
Q 1534 4219 1204 4116 
Q 875 4013 500 3803 
L 500 4441 
Q 881 4594 1212 4672 
Q 1544 4750 1819 4750 
Q 2544 4750 2975 4387 
Q 3406 4025 3406 3419 
Q 3406 3131 3298 2873 
Q 3191 2616 2906 2266 
Q 2828 2175 2409 1742 
Q 1991 1309 1228 531 
z
" transform="scale(0.015625)"/>
       </defs>
       <use xlink:href="#DejaVuSans-31" transform="translate(0 0.765625)"/>
       <use xlink:href="#DejaVuSans-30" transform="translate(63.623047 0.765625)"/>
       <use xlink:href="#DejaVuSans-32" transform="translate(128.203125 39.046875) scale(0.7)"/>
      </g>
     </g>
    </g>
    <g id="xtick_4">
     <g id="line2d_7">
      <defs>
       <path id="me0eac49cb7" d="M 0 0 
L 0 2 
" style="stroke: #000000; stroke-width: 0.6"/>
      </defs>
      <g>
       <use xlink:href="#me0eac49cb7" x="90.638972" y="140.436" style="stroke: #000000; stroke-width: 0.6"/>
      </g>
     </g>
    </g>
    <g id="xtick_5">
     <g id="line2d_8">
      <g>
       <use xlink:href="#me0eac49cb7" x="109.223198" y="140.436" style="stroke: #000000; stroke-width: 0.6"/>
      </g>
     </g>
    </g>
    <g id="xtick_6">
     <g id="line2d_9">
      <g>
       <use xlink:href="#me0eac49cb7" x="124.407616" y="140.436" style="stroke: #000000; stroke-width: 0.6"/>
      </g>
     </g>
    </g>
    <g id="xtick_7">
     <g id="line2d_10">
      <g>
       <use xlink:href="#me0eac49cb7" x="137.245858" y="140.436" style="stroke: #000000; stroke-width: 0.6"/>
      </g>
     </g>
    </g>
    <g id="xtick_8">
     <g id="line2d_11">
      <g>
       <use xlink:href="#me0eac49cb7" x="148.36685" y="140.436" style="stroke: #000000; stroke-width: 0.6"/>
      </g>
     </g>
    </g>
    <g id="xtick_9">
     <g id="line2d_12">
      <g>
       <use xlink:href="#me0eac49cb7" x="158.176259" y="140.436" style="stroke: #000000; stroke-width: 0.6"/>
      </g>
     </g>
    </g>
    <g id="xtick_10">
     <g id="line2d_13">
      <g>
       <use xlink:href="#me0eac49cb7" x="224.678952" y="140.436" style="stroke: #000000; stroke-width: 0.6"/>
      </g>
     </g>
    </g>
    <g id="xtick_11">
     <g id="line2d_14">
      <g>
       <use xlink:href="#me0eac49cb7" x="258.447596" y="140.436" style="stroke: #000000; stroke-width: 0.6"/>
      </g>
     </g>
    </g>
    <g id="xtick_12">
     <g id="line2d_15">
      <g>
       <use xlink:href="#me0eac49cb7" x="282.406829" y="140.436" style="stroke: #000000; stroke-width: 0.6"/>
      </g>
     </g>
    </g>
    <g id="xtick_13">
     <g id="line2d_16">
      <g>
       <use xlink:href="#me0eac49cb7" x="300.991055" y="140.436" style="stroke: #000000; stroke-width: 0.6"/>
      </g>
     </g>
    </g>
    <g id="xtick_14">
     <g id="line2d_17">
      <g>
       <use xlink:href="#me0eac49cb7" x="316.175473" y="140.436" style="stroke: #000000; stroke-width: 0.6"/>
      </g>
     </g>
    </g>
    <g id="xtick_15">
     <g id="line2d_18">
      <g>
       <use xlink:href="#me0eac49cb7" x="329.013715" y="140.436" style="stroke: #000000; stroke-width: 0.6"/>
      </g>
     </g>
    </g>
    <g id="xtick_16">
     <g id="line2d_19">
      <g>
       <use xlink:href="#me0eac49cb7" x="340.134707" y="140.436" style="stroke: #000000; stroke-width: 0.6"/>
      </g>
     </g>
    </g>
    <g id="xtick_17">
     <g id="line2d_20">
      <g>
       <use xlink:href="#me0eac49cb7" x="349.944116" y="140.436" style="stroke: #000000; stroke-width: 0.6"/>
      </g>
     </g>
    </g>
    <g id="xtick_18">
     <g id="line2d_21">
      <g>
       <use xlink:href="#me0eac49cb7" x="416.446809" y="140.436" style="stroke: #000000; stroke-width: 0.6"/>
      </g>
     </g>
    </g>
    <g id="xtick_19">
     <g id="line2d_22">
      <g>
       <use xlink:href="#me0eac49cb7" x="450.215453" y="140.436" style="stroke: #000000; stroke-width: 0.6"/>
      </g>
     </g>
    </g>
    <g id="xtick_20">
     <g id="line2d_23">
      <g>
       <use xlink:href="#me0eac49cb7" x="474.174687" y="140.436" style="stroke: #000000; stroke-width: 0.6"/>
      </g>
     </g>
    </g>
    <g id="xtick_21">
     <g id="line2d_24">
      <g>
       <use xlink:href="#me0eac49cb7" x="492.758912" y="140.436" style="stroke: #000000; stroke-width: 0.6"/>
      </g>
     </g>
    </g>
    <g id="xtick_22">
     <g id="line2d_25">
      <g>
       <use xlink:href="#me0eac49cb7" x="507.94333" y="140.436" style="stroke: #000000; stroke-width: 0.6"/>
      </g>
     </g>
    </g>
    <g id="xtick_23">
     <g id="line2d_26">
      <g>
       <use xlink:href="#me0eac49cb7" x="520.781572" y="140.436" style="stroke: #000000; stroke-width: 0.6"/>
      </g>
     </g>
    </g>
    <g id="xtick_24">
     <g id="line2d_27">
      <g>
       <use xlink:href="#me0eac49cb7" x="531.902564" y="140.436" style="stroke: #000000; stroke-width: 0.6"/>
      </g>
     </g>
    </g>
    <g id="xtick_25">
     <g id="line2d_28">
      <g>
       <use xlink:href="#me0eac49cb7" x="541.711973" y="140.436" style="stroke: #000000; stroke-width: 0.6"/>
      </g>
     </g>
    </g>
    <g id="xtick_26">
     <g id="line2d_29">
      <g>
       <use xlink:href="#me0eac49cb7" x="608.214667" y="140.436" style="stroke: #000000; stroke-width: 0.6"/>
      </g>
     </g>
    </g>
    <g id="xtick_27">
     <g id="line2d_30">
      <g>
       <use xlink:href="#me0eac49cb7" x="641.98331" y="140.436" style="stroke: #000000; stroke-width: 0.6"/>
      </g>
     </g>
    </g>
    <g id="text_4">
     <!-- JSON size (MB) -->
     <g transform="translate(332.155469 168.712562) scale(0.1 -0.1)">
      <defs>
       <path id="DejaVuSans-4a" d="M 628 4666 
L 1259 4666 
L 1259 325 
Q 1259 -519 939 -900 
Q 619 -1281 -91 -1281 
L -331 -1281 
L -331 -750 
L -134 -750 
Q 284 -750 456 -515 
Q 628 -281 628 325 
L 628 4666 
z
" transform="scale(0.015625)"/>
       <path id="DejaVuSans-53" d="M 3425 4513 
L 3425 3897 
Q 3066 4069 2747 4153 
Q 2428 4238 2131 4238 
Q 1616 4238 1336 4038 
Q 1056 3838 1056 3469 
Q 1056 3159 1242 3001 
Q 1428 2844 1947 2747 
L 2328 2669 
Q 3034 2534 3370 2195 
Q 3706 1856 3706 1288 
Q 3706 609 3251 259 
Q 2797 -91 1919 -91 
Q 1588 -91 1214 -16 
Q 841 59 441 206 
L 441 856 
Q 825 641 1194 531 
Q 1563 422 1919 422 
Q 2459 422 2753 634 
Q 3047 847 3047 1241 
Q 3047 1584 2836 1778 
Q 2625 1972 2144 2069 
L 1759 2144 
Q 1053 2284 737 2584 
Q 422 2884 422 3419 
Q 422 4038 858 4394 
Q 1294 4750 2059 4750 
Q 2388 4750 2728 4690 
Q 3069 4631 3425 4513 
z
" transform="scale(0.015625)"/>
       <path id="DejaVuSans-4f" d="M 2522 4238 
Q 1834 4238 1429 3725 
Q 1025 3213 1025 2328 
Q 1025 1447 1429 934 
Q 1834 422 2522 422 
Q 3209 422 3611 934 
Q 4013 1447 4013 2328 
Q 4013 3213 3611 3725 
Q 3209 4238 2522 4238 
z
M 2522 4750 
Q 3503 4750 4090 4092 
Q 4678 3434 4678 2328 
Q 4678 1225 4090 567 
Q 3503 -91 2522 -91 
Q 1538 -91 948 565 
Q 359 1222 359 2328 
Q 359 3434 948 4092 
Q 1538 4750 2522 4750 
z
" transform="scale(0.015625)"/>
       <path id="DejaVuSans-4e" d="M 628 4666 
L 1478 4666 
L 3547 763 
L 3547 4666 
L 4159 4666 
L 4159 0 
L 3309 0 
L 1241 3903 
L 1241 0 
L 628 0 
L 628 4666 
z
" transform="scale(0.015625)"/>
       <path id="DejaVuSans-20" transform="scale(0.015625)"/>
       <path id="DejaVuSans-73" d="M 2834 3397 
L 2834 2853 
Q 2591 2978 2328 3040 
Q 2066 3103 1784 3103 
Q 1356 3103 1142 2972 
Q 928 2841 928 2578 
Q 928 2378 1081 2264 
Q 1234 2150 1697 2047 
L 1894 2003 
Q 2506 1872 2764 1633 
Q 3022 1394 3022 966 
Q 3022 478 2636 193 
Q 2250 -91 1575 -91 
Q 1294 -91 989 -36 
Q 684 19 347 128 
L 347 722 
Q 666 556 975 473 
Q 1284 391 1588 391 
Q 1994 391 2212 530 
Q 2431 669 2431 922 
Q 2431 1156 2273 1281 
Q 2116 1406 1581 1522 
L 1381 1569 
Q 847 1681 609 1914 
Q 372 2147 372 2553 
Q 372 3047 722 3315 
Q 1072 3584 1716 3584 
Q 2034 3584 2315 3537 
Q 2597 3491 2834 3397 
z
" transform="scale(0.015625)"/>
       <path id="DejaVuSans-69" d="M 603 3500 
L 1178 3500 
L 1178 0 
L 603 0 
L 603 3500 
z
M 603 4863 
L 1178 4863 
L 1178 4134 
L 603 4134 
L 603 4863 
z
" transform="scale(0.015625)"/>
       <path id="DejaVuSans-7a" d="M 353 3500 
L 3084 3500 
L 3084 2975 
L 922 459 
L 3084 459 
L 3084 0 
L 275 0 
L 275 525 
L 2438 3041 
L 353 3041 
L 353 3500 
z
" transform="scale(0.015625)"/>
       <path id="DejaVuSans-65" d="M 3597 1894 
L 3597 1613 
L 953 1613 
Q 991 1019 1311 708 
Q 1631 397 2203 397 
Q 2534 397 2845 478 
Q 3156 559 3463 722 
L 3463 178 
Q 3153 47 2828 -22 
Q 2503 -91 2169 -91 
Q 1331 -91 842 396 
Q 353 884 353 1716 
Q 353 2575 817 3079 
Q 1281 3584 2069 3584 
Q 2775 3584 3186 3129 
Q 3597 2675 3597 1894 
z
M 3022 2063 
Q 3016 2534 2758 2815 
Q 2500 3097 2075 3097 
Q 1594 3097 1305 2825 
Q 1016 2553 972 2059 
L 3022 2063 
z
" transform="scale(0.015625)"/>
       <path id="DejaVuSans-28" d="M 1984 4856 
Q 1566 4138 1362 3434 
Q 1159 2731 1159 2009 
Q 1159 1288 1364 580 
Q 1569 -128 1984 -844 
L 1484 -844 
Q 1016 -109 783 600 
Q 550 1309 550 2009 
Q 550 2706 781 3412 
Q 1013 4119 1484 4856 
L 1984 4856 
z
" transform="scale(0.015625)"/>
       <path id="DejaVuSans-4d" d="M 628 4666 
L 1569 4666 
L 2759 1491 
L 3956 4666 
L 4897 4666 
L 4897 0 
L 4281 0 
L 4281 4097 
L 3078 897 
L 2444 897 
L 1241 4097 
L 1241 0 
L 628 0 
L 628 4666 
z
" transform="scale(0.015625)"/>
       <path id="DejaVuSans-42" d="M 1259 2228 
L 1259 519 
L 2272 519 
Q 2781 519 3026 730 
Q 3272 941 3272 1375 
Q 3272 1813 3026 2020 
Q 2781 2228 2272 2228 
L 1259 2228 
z
M 1259 4147 
L 1259 2741 
L 2194 2741 
Q 2656 2741 2882 2914 
Q 3109 3088 3109 3444 
Q 3109 3797 2882 3972 
Q 2656 4147 2194 4147 
L 1259 4147 
z
M 628 4666 
L 2241 4666 
Q 2963 4666 3353 4366 
Q 3744 4066 3744 3513 
Q 3744 3084 3544 2831 
Q 3344 2578 2956 2516 
Q 3422 2416 3680 2098 
Q 3938 1781 3938 1306 
Q 3938 681 3513 340 
Q 3088 0 2303 0 
L 628 0 
L 628 4666 
z
" transform="scale(0.015625)"/>
       <path id="DejaVuSans-29" d="M 513 4856 
L 1013 4856 
Q 1481 4119 1714 3412 
Q 1947 2706 1947 2009 
Q 1947 1309 1714 600 
Q 1481 -109 1013 -844 
L 513 -844 
Q 928 -128 1133 580 
Q 1338 1288 1338 2009 
Q 1338 2731 1133 3434 
Q 928 4138 513 4856 
z
" transform="scale(0.015625)"/>
      </defs>
      <use xlink:href="#DejaVuSans-4a"/>
      <use xlink:href="#DejaVuSans-53" transform="translate(29.492188 0)"/>
      <use xlink:href="#DejaVuSans-4f" transform="translate(92.96875 0)"/>
      <use xlink:href="#DejaVuSans-4e" transform="translate(171.679688 0)"/>
      <use xlink:href="#DejaVuSans-20" transform="translate(246.484375 0)"/>
      <use xlink:href="#DejaVuSans-73" transform="translate(278.271484 0)"/>
      <use xlink:href="#DejaVuSans-69" transform="translate(330.371094 0)"/>
      <use xlink:href="#DejaVuSans-7a" transform="translate(358.154297 0)"/>
      <use xlink:href="#DejaVuSans-65" transform="translate(410.644531 0)"/>
      <use xlink:href="#DejaVuSans-20" transform="translate(472.167969 0)"/>
      <use xlink:href="#DejaVuSans-28" transform="translate(503.955078 0)"/>
      <use xlink:href="#DejaVuSans-4d" transform="translate(542.96875 0)"/>
      <use xlink:href="#DejaVuSans-42" transform="translate(629.248047 0)"/>
      <use xlink:href="#DejaVuSans-29" transform="translate(697.851562 0)"/>
     </g>
    </g>
   </g>
   <g id="matplotlib.axis_2">
    <g id="ytick_1">
     <g id="line2d_31">
      <path d="M 90 128.210307 
L 648 128.210307 
" clip-path="url(#p9c4452672c)" style="fill: none; stroke: #b0b0b0; stroke-width: 0.8; stroke-linecap: square"/>
     </g>
     <g id="line2d_32">
      <defs>
       <path id="m186fb2860d" d="M 0 0 
L -3.5 0 
" style="stroke: #000000; stroke-width: 0.8"/>
      </defs>
      <g>
       <use xlink:href="#m186fb2860d" x="90" y="128.210307" style="stroke: #000000; stroke-width: 0.8"/>
      </g>
     </g>
     <g id="text_5">
      <!-- 0.50 -->
      <g transform="translate(60.734375 132.009526) scale(0.1 -0.1)">
       <defs>
        <path id="DejaVuSans-2e" d="M 684 794 
L 1344 794 
L 1344 0 
L 684 0 
L 684 794 
z
" transform="scale(0.015625)"/>
        <path id="DejaVuSans-35" d="M 691 4666 
L 3169 4666 
L 3169 4134 
L 1269 4134 
L 1269 2991 
Q 1406 3038 1543 3061 
Q 1681 3084 1819 3084 
Q 2600 3084 3056 2656 
Q 3513 2228 3513 1497 
Q 3513 744 3044 326 
Q 2575 -91 1722 -91 
Q 1428 -91 1123 -41 
Q 819 9 494 109 
L 494 744 
Q 775 591 1075 516 
Q 1375 441 1709 441 
Q 2250 441 2565 725 
Q 2881 1009 2881 1497 
Q 2881 1984 2565 2268 
Q 2250 2553 1709 2553 
Q 1456 2553 1204 2497 
Q 953 2441 691 2322 
L 691 4666 
z
" transform="scale(0.015625)"/>
       </defs>
       <use xlink:href="#DejaVuSans-30"/>
       <use xlink:href="#DejaVuSans-2e" transform="translate(63.623047 0)"/>
       <use xlink:href="#DejaVuSans-35" transform="translate(95.410156 0)"/>
       <use xlink:href="#DejaVuSans-30" transform="translate(159.033203 0)"/>
      </g>
     </g>
    </g>
    <g id="ytick_2">
     <g id="line2d_33">
      <path d="M 90 105.482054 
L 648 105.482054 
" clip-path="url(#p9c4452672c)" style="fill: none; stroke: #b0b0b0; stroke-width: 0.8; stroke-linecap: square"/>
     </g>
     <g id="line2d_34">
      <g>
       <use xlink:href="#m186fb2860d" x="90" y="105.482054" style="stroke: #000000; stroke-width: 0.8"/>
      </g>
     </g>
     <g id="text_6">
      <!-- 0.75 -->
      <g transform="translate(60.734375 109.281273) scale(0.1 -0.1)">
       <defs>
        <path id="DejaVuSans-37" d="M 525 4666 
L 3525 4666 
L 3525 4397 
L 1831 0 
L 1172 0 
L 2766 4134 
L 525 4134 
L 525 4666 
z
" transform="scale(0.015625)"/>
       </defs>
       <use xlink:href="#DejaVuSans-30"/>
       <use xlink:href="#DejaVuSans-2e" transform="translate(63.623047 0)"/>
       <use xlink:href="#DejaVuSans-37" transform="translate(95.410156 0)"/>
       <use xlink:href="#DejaVuSans-35" transform="translate(159.033203 0)"/>
      </g>
     </g>
    </g>
    <g id="ytick_3">
     <g id="line2d_35">
      <path d="M 90 82.753801 
L 648 82.753801 
" clip-path="url(#p9c4452672c)" style="fill: none; stroke: #b0b0b0; stroke-width: 0.8; stroke-linecap: square"/>
     </g>
     <g id="line2d_36">
      <g>
       <use xlink:href="#m186fb2860d" x="90" y="82.753801" style="stroke: #000000; stroke-width: 0.8"/>
      </g>
     </g>
     <g id="text_7">
      <!-- 1.00 -->
      <g transform="translate(60.734375 86.55302) scale(0.1 -0.1)">
       <use xlink:href="#DejaVuSans-31"/>
       <use xlink:href="#DejaVuSans-2e" transform="translate(63.623047 0)"/>
       <use xlink:href="#DejaVuSans-30" transform="translate(95.410156 0)"/>
       <use xlink:href="#DejaVuSans-30" transform="translate(159.033203 0)"/>
      </g>
     </g>
    </g>
    <g id="ytick_4">
     <g id="line2d_37">
      <path d="M 90 60.025548 
L 648 60.025548 
" clip-path="url(#p9c4452672c)" style="fill: none; stroke: #b0b0b0; stroke-width: 0.8; stroke-linecap: square"/>
     </g>
     <g id="line2d_38">
      <g>
       <use xlink:href="#m186fb2860d" x="90" y="60.025548" style="stroke: #000000; stroke-width: 0.8"/>
      </g>
     </g>
     <g id="text_8">
      <!-- 1.25 -->
      <g transform="translate(60.734375 63.824766) scale(0.1 -0.1)">
       <use xlink:href="#DejaVuSans-31"/>
       <use xlink:href="#DejaVuSans-2e" transform="translate(63.623047 0)"/>
       <use xlink:href="#DejaVuSans-32" transform="translate(95.410156 0)"/>
       <use xlink:href="#DejaVuSans-35" transform="translate(159.033203 0)"/>
      </g>
     </g>
    </g>
    <g id="ytick_5">
     <g id="line2d_39">
      <path d="M 90 37.297294 
L 648 37.297294 
" clip-path="url(#p9c4452672c)" style="fill: none; stroke: #b0b0b0; stroke-width: 0.8; stroke-linecap: square"/>
     </g>
     <g id="line2d_40">
      <g>
       <use xlink:href="#m186fb2860d" x="90" y="37.297294" style="stroke: #000000; stroke-width: 0.8"/>
      </g>
     </g>
     <g id="text_9">
      <!-- 1.50 -->
      <g transform="translate(60.734375 41.096513) scale(0.1 -0.1)">
       <use xlink:href="#DejaVuSans-31"/>
       <use xlink:href="#DejaVuSans-2e" transform="translate(63.623047 0)"/>
       <use xlink:href="#DejaVuSans-35" transform="translate(95.410156 0)"/>
       <use xlink:href="#DejaVuSans-30" transform="translate(159.033203 0)"/>
      </g>
     </g>
    </g>
    <g id="text_10">
     <!-- Encode time (ratio) -->
     <g transform="translate(54.654687 136.437406) rotate(-90) scale(0.1 -0.1)">
      <defs>
       <path id="DejaVuSans-45" d="M 628 4666 
L 3578 4666 
L 3578 4134 
L 1259 4134 
L 1259 2753 
L 3481 2753 
L 3481 2222 
L 1259 2222 
L 1259 531 
L 3634 531 
L 3634 0 
L 628 0 
L 628 4666 
z
" transform="scale(0.015625)"/>
       <path id="DejaVuSans-6e" d="M 3513 2113 
L 3513 0 
L 2938 0 
L 2938 2094 
Q 2938 2591 2744 2837 
Q 2550 3084 2163 3084 
Q 1697 3084 1428 2787 
Q 1159 2491 1159 1978 
L 1159 0 
L 581 0 
L 581 3500 
L 1159 3500 
L 1159 2956 
Q 1366 3272 1645 3428 
Q 1925 3584 2291 3584 
Q 2894 3584 3203 3211 
Q 3513 2838 3513 2113 
z
" transform="scale(0.015625)"/>
       <path id="DejaVuSans-63" d="M 3122 3366 
L 3122 2828 
Q 2878 2963 2633 3030 
Q 2388 3097 2138 3097 
Q 1578 3097 1268 2742 
Q 959 2388 959 1747 
Q 959 1106 1268 751 
Q 1578 397 2138 397 
Q 2388 397 2633 464 
Q 2878 531 3122 666 
L 3122 134 
Q 2881 22 2623 -34 
Q 2366 -91 2075 -91 
Q 1284 -91 818 406 
Q 353 903 353 1747 
Q 353 2603 823 3093 
Q 1294 3584 2113 3584 
Q 2378 3584 2631 3529 
Q 2884 3475 3122 3366 
z
" transform="scale(0.015625)"/>
       <path id="DejaVuSans-6f" d="M 1959 3097 
Q 1497 3097 1228 2736 
Q 959 2375 959 1747 
Q 959 1119 1226 758 
Q 1494 397 1959 397 
Q 2419 397 2687 759 
Q 2956 1122 2956 1747 
Q 2956 2369 2687 2733 
Q 2419 3097 1959 3097 
z
M 1959 3584 
Q 2709 3584 3137 3096 
Q 3566 2609 3566 1747 
Q 3566 888 3137 398 
Q 2709 -91 1959 -91 
Q 1206 -91 779 398 
Q 353 888 353 1747 
Q 353 2609 779 3096 
Q 1206 3584 1959 3584 
z
" transform="scale(0.015625)"/>
       <path id="DejaVuSans-64" d="M 2906 2969 
L 2906 4863 
L 3481 4863 
L 3481 0 
L 2906 0 
L 2906 525 
Q 2725 213 2448 61 
Q 2172 -91 1784 -91 
Q 1150 -91 751 415 
Q 353 922 353 1747 
Q 353 2572 751 3078 
Q 1150 3584 1784 3584 
Q 2172 3584 2448 3432 
Q 2725 3281 2906 2969 
z
M 947 1747 
Q 947 1113 1208 752 
Q 1469 391 1925 391 
Q 2381 391 2643 752 
Q 2906 1113 2906 1747 
Q 2906 2381 2643 2742 
Q 2381 3103 1925 3103 
Q 1469 3103 1208 2742 
Q 947 2381 947 1747 
z
" transform="scale(0.015625)"/>
       <path id="DejaVuSans-74" d="M 1172 4494 
L 1172 3500 
L 2356 3500 
L 2356 3053 
L 1172 3053 
L 1172 1153 
Q 1172 725 1289 603 
Q 1406 481 1766 481 
L 2356 481 
L 2356 0 
L 1766 0 
Q 1100 0 847 248 
Q 594 497 594 1153 
L 594 3053 
L 172 3053 
L 172 3500 
L 594 3500 
L 594 4494 
L 1172 4494 
z
" transform="scale(0.015625)"/>
       <path id="DejaVuSans-6d" d="M 3328 2828 
Q 3544 3216 3844 3400 
Q 4144 3584 4550 3584 
Q 5097 3584 5394 3201 
Q 5691 2819 5691 2113 
L 5691 0 
L 5113 0 
L 5113 2094 
Q 5113 2597 4934 2840 
Q 4756 3084 4391 3084 
Q 3944 3084 3684 2787 
Q 3425 2491 3425 1978 
L 3425 0 
L 2847 0 
L 2847 2094 
Q 2847 2600 2669 2842 
Q 2491 3084 2119 3084 
Q 1678 3084 1418 2786 
Q 1159 2488 1159 1978 
L 1159 0 
L 581 0 
L 581 3500 
L 1159 3500 
L 1159 2956 
Q 1356 3278 1631 3431 
Q 1906 3584 2284 3584 
Q 2666 3584 2933 3390 
Q 3200 3197 3328 2828 
z
" transform="scale(0.015625)"/>
       <path id="DejaVuSans-72" d="M 2631 2963 
Q 2534 3019 2420 3045 
Q 2306 3072 2169 3072 
Q 1681 3072 1420 2755 
Q 1159 2438 1159 1844 
L 1159 0 
L 581 0 
L 581 3500 
L 1159 3500 
L 1159 2956 
Q 1341 3275 1631 3429 
Q 1922 3584 2338 3584 
Q 2397 3584 2469 3576 
Q 2541 3569 2628 3553 
L 2631 2963 
z
" transform="scale(0.015625)"/>
       <path id="DejaVuSans-61" d="M 2194 1759 
Q 1497 1759 1228 1600 
Q 959 1441 959 1056 
Q 959 750 1161 570 
Q 1363 391 1709 391 
Q 2188 391 2477 730 
Q 2766 1069 2766 1631 
L 2766 1759 
L 2194 1759 
z
M 3341 1997 
L 3341 0 
L 2766 0 
L 2766 531 
Q 2569 213 2275 61 
Q 1981 -91 1556 -91 
Q 1019 -91 701 211 
Q 384 513 384 1019 
Q 384 1609 779 1909 
Q 1175 2209 1959 2209 
L 2766 2209 
L 2766 2266 
Q 2766 2663 2505 2880 
Q 2244 3097 1772 3097 
Q 1472 3097 1187 3025 
Q 903 2953 641 2809 
L 641 3341 
Q 956 3463 1253 3523 
Q 1550 3584 1831 3584 
Q 2591 3584 2966 3190 
Q 3341 2797 3341 1997 
z
" transform="scale(0.015625)"/>
      </defs>
      <use xlink:href="#DejaVuSans-45"/>
      <use xlink:href="#DejaVuSans-6e" transform="translate(63.183594 0)"/>
      <use xlink:href="#DejaVuSans-63" transform="translate(126.5625 0)"/>
      <use xlink:href="#DejaVuSans-6f" transform="translate(181.542969 0)"/>
      <use xlink:href="#DejaVuSans-64" transform="translate(242.724609 0)"/>
      <use xlink:href="#DejaVuSans-65" transform="translate(306.201172 0)"/>
      <use xlink:href="#DejaVuSans-20" transform="translate(367.724609 0)"/>
      <use xlink:href="#DejaVuSans-74" transform="translate(399.511719 0)"/>
      <use xlink:href="#DejaVuSans-69" transform="translate(438.720703 0)"/>
      <use xlink:href="#DejaVuSans-6d" transform="translate(466.503906 0)"/>
      <use xlink:href="#DejaVuSans-65" transform="translate(563.916016 0)"/>
      <use xlink:href="#DejaVuSans-20" transform="translate(625.439453 0)"/>
      <use xlink:href="#DejaVuSans-28" transform="translate(657.226562 0)"/>
      <use xlink:href="#DejaVuSans-72" transform="translate(696.240234 0)"/>
      <use xlink:href="#DejaVuSans-61" transform="translate(737.353516 0)"/>
      <use xlink:href="#DejaVuSans-74" transform="translate(798.632812 0)"/>
      <use xlink:href="#DejaVuSans-69" transform="translate(837.841797 0)"/>
      <use xlink:href="#DejaVuSans-6f" transform="translate(865.625 0)"/>
      <use xlink:href="#DejaVuSans-29" transform="translate(926.806641 0)"/>
     </g>
    </g>
   </g>
   <g id="line2d_41">
    <path d="M 115.363636 82.753801 
L 125.293172 82.753801 
L 135.224169 82.753801 
L 145.15264 82.753801 
L 155.077552 82.753801 
L 164.998156 82.753801 
L 174.916324 82.753801 
L 184.830331 82.753801 
L 194.741239 82.753801 
L 204.647421 82.753801 
L 214.54926 82.753801 
L 224.446666 82.753801 
L 234.339827 82.753801 
L 244.229245 82.753801 
L 254.114098 82.753801 
L 263.994106 82.753801 
L 273.869057 82.753801 
L 283.739435 82.753801 
L 293.60461 82.753801 
L 303.465292 82.753801 
L 313.32069 82.753801 
L 323.17107 82.753801 
L 333.016436 82.753801 
L 342.856771 82.753801 
L 352.692013 82.753801 
L 362.522702 82.753801 
L 381.088042 82.753801 
L 399.625657 82.753801 
L 418.209883 82.753801 
L 436.794108 82.753801 
L 455.378334 82.753801 
L 473.962559 82.753801 
L 492.546785 82.753801 
L 511.13101 82.753801 
L 529.715236 82.753801 
L 548.299462 82.753801 
L 566.883687 82.753801 
L 585.467913 82.753801 
L 604.052138 82.753801 
L 622.636364 82.753801 
" clip-path="url(#p9c4452672c)" style="fill: none; stroke: #1f77b4; stroke-width: 1.5; stroke-linecap: square"/>
   </g>
   <g id="line2d_42">
    <path d="M 115.363636 102.721437 
L 125.293172 101.625906 
L 135.224169 97.197562 
L 145.15264 99.960651 
L 155.077552 97.194726 
L 164.998156 99.393305 
L 174.916324 103.209139 
L 184.830331 98.664782 
L 194.741239 99.828037 
L 204.647421 98.52696 
L 214.54926 88.456056 
L 224.446666 98.589319 
L 234.339827 102.643166 
L 244.229245 99.76251 
L 254.114098 96.504384 
L 263.994106 95.808901 
L 273.869057 95.2387 
L 283.739435 102.456704 
L 293.60461 97.94002 
L 303.465292 97.885667 
L 313.32069 94.215575 
L 323.17107 94.398992 
L 333.016436 93.967211 
L 342.856771 96.067896 
L 352.692013 98.197311 
L 362.522702 97.560098 
L 381.088042 96.028368 
L 399.625657 105.984993 
L 418.209883 107.088183 
L 436.794108 100.388621 
L 455.378334 97.793153 
L 473.962559 105.369033 
L 492.546785 97.806655 
L 511.13101 98.609008 
L 529.715236 106.414338 
L 548.299462 99.078425 
L 566.883687 98.566842 
L 585.467913 105.500165 
L 604.052138 98.258859 
L 622.636364 96.19147 
" clip-path="url(#p9c4452672c)" style="fill: none; stroke: #ff7f0e; stroke-width: 1.5; stroke-linecap: square"/>
   </g>
   <g id="line2d_43">
    <path d="M 115.363636 78.246206 
L 125.293172 91.095923 
L 135.224169 92.340089 
L 145.15264 91.079793 
L 155.077552 86.089539 
L 164.998156 97.097185 
L 174.916324 108.100178 
L 184.830331 90.962313 
L 194.741239 104.372477 
L 204.647421 94.695257 
L 214.54926 105.945603 
L 224.446666 115.385584 
L 234.339827 117.890539 
L 244.229245 114.320641 
L 254.114098 119.876769 
L 263.994106 109.277805 
L 273.869057 110.770641 
L 283.739435 119.98273 
L 293.60461 111.055364 
L 303.465292 115.783298 
L 313.32069 112.004676 
L 323.17107 115.461739 
L 333.016436 116.443917 
L 342.856771 119.162092 
L 352.692013 116.993282 
L 362.522702 121.341555 
L 381.088042 116.89829 
L 399.625657 129.471733 
L 418.209883 131.4389 
L 436.794108 132.201171 
L 455.378334 126.491105 
L 473.962559 130.801893 
L 492.546785 130.683178 
L 511.13101 130.497492 
L 529.715236 132.575188 
L 548.299462 133.33404 
L 566.883687 113.197913 
L 585.467913 117.79613 
L 604.052138 115.372159 
L 622.636364 103.041794 
" clip-path="url(#p9c4452672c)" style="fill: none; stroke: #2ca02c; stroke-width: 1.5; stroke-linecap: square"/>
   </g>
   <g id="line2d_44">
    <path d="M 115.363636 40.609636 
L 125.293172 45.2857 
L 135.224169 48.446512 
L 145.15264 59.544716 
L 155.077552 66.401225 
L 164.998156 65.821271 
L 174.916324 73.169183 
L 184.830331 78.939966 
L 194.741239 86.133196 
L 204.647421 85.815212 
L 214.54926 79.303814 
L 224.446666 102.584874 
L 234.339827 102.22362 
L 244.229245 107.078688 
L 254.114098 105.523627 
L 263.994106 97.932735 
L 273.869057 96.893098 
L 283.739435 110.086218 
L 293.60461 103.651914 
L 303.465292 101.956281 
L 313.32069 109.895525 
L 323.17107 103.737074 
L 333.016436 114.403996 
L 342.856771 111.839907 
L 352.692013 112.545752 
L 362.522702 120.288502 
L 381.088042 117.011399 
L 399.625657 123.802455 
L 418.209883 129.081839 
L 436.794108 125.834638 
L 455.378334 125.163381 
L 473.962559 129.879197 
L 492.546785 127.457951 
L 511.13101 118.441776 
L 529.715236 132.216369 
L 548.299462 116.446781 
L 566.883687 114.593686 
L 585.467913 120.075491 
L 604.052138 106.064394 
L 622.636364 97.954023 
" clip-path="url(#p9c4452672c)" style="fill: none; stroke: #d62728; stroke-width: 1.5; stroke-linecap: square"/>
   </g>
   <g id="line2d_45">
    <path d="M 115.363636 45.50298 
L 125.293172 70.458898 
L 135.224169 56.106687 
L 145.15264 61.937115 
L 155.077552 74.852418 
L 164.998156 75.944301 
L 174.916324 90.58499 
L 184.830331 92.458907 
L 194.741239 96.522382 
L 204.647421 102.954353 
L 214.54926 107.809672 
L 224.446666 109.920275 
L 234.339827 117.766029 
L 244.229245 112.814382 
L 254.114098 112.666648 
L 263.994106 116.573801 
L 273.869057 120.858438 
L 283.739435 130.554887 
L 293.60461 115.154818 
L 303.465292 123.631933 
L 313.32069 116.559587 
L 323.17107 125.265688 
L 333.016436 119.849871 
L 342.856771 123.174003 
L 352.692013 120.571315 
L 362.522702 126.349332 
L 381.088042 119.704344 
L 399.625657 135.202799 
L 418.209883 128.178381 
L 436.794108 135.682364 
L 455.378334 126.452283 
L 473.962559 128.023799 
L 492.546785 127.449032 
L 511.13101 128.030573 
L 529.715236 108.74508 
L 548.299462 120.534756 
L 566.883687 112.469521 
L 585.467913 96.933135 
L 604.052138 90.447489 
L 622.636364 84.596994 
" clip-path="url(#p9c4452672c)" style="fill: none; stroke: #9467bd; stroke-width: 1.5; stroke-linecap: square"/>
   </g>
   <g id="line2d_46">
    <path d="M 115.363636 95.132341 
L 125.293172 91.471158 
L 135.224169 87.625311 
L 145.15264 78.503349 
L 155.077552 87.917105 
L 164.998156 82.135477 
L 174.916324 95.234184 
L 184.830331 94.331554 
L 194.741239 91.71703 
L 204.647421 88.226023 
L 214.54926 90.363085 
L 224.446666 85.146199 
L 234.339827 94.608477 
L 244.229245 95.061357 
L 254.114098 90.380993 
L 263.994106 91.805 
L 273.869057 84.141663 
L 283.739435 95.546978 
L 293.60461 88.730806 
L 303.465292 90.36703 
L 313.32069 88.061945 
L 323.17107 88.585645 
L 333.016436 88.406601 
L 342.856771 92.562425 
L 352.692013 88.999652 
L 362.522702 88.899195 
L 381.088042 88.984035 
L 399.625657 104.364106 
L 418.209883 105.878753 
L 436.794108 91.559009 
L 455.378334 88.418622 
L 473.962559 94.095373 
L 492.546785 86.085458 
L 511.13101 80.253758 
L 529.715236 85.875017 
L 548.299462 82.462327 
L 566.883687 76.511496 
L 585.467913 87.401997 
L 604.052138 77.295432 
L 622.636364 76.300776 
" clip-path="url(#p9c4452672c)" style="fill: none; stroke: #8c564b; stroke-width: 1.5; stroke-linecap: square"/>
   </g>
   <g id="patch_3">
    <path d="M 90 140.436 
L 90 35.856 
" style="fill: none; stroke: #000000; stroke-width: 0.8; stroke-linejoin: miter; stroke-linecap: square"/>
   </g>
   <g id="patch_4">
    <path d="M 648 140.436 
L 648 35.856 
" style="fill: none; stroke: #000000; stroke-width: 0.8; stroke-linejoin: miter; stroke-linecap: square"/>
   </g>
   <g id="patch_5">
    <path d="M 90 140.436 
L 648 140.436 
" style="fill: none; stroke: #000000; stroke-width: 0.8; stroke-linejoin: miter; stroke-linecap: square"/>
   </g>
   <g id="patch_6">
    <path d="M 90 35.856 
L 648 35.856 
" style="fill: none; stroke: #000000; stroke-width: 0.8; stroke-linejoin: miter; stroke-linecap: square"/>
   </g>
   <g id="legend_1">
    <g id="patch_7">
     <path d="M 161.690625 33.47185 
L 576.309375 33.47185 
Q 578.309375 33.47185 578.309375 31.47185 
L 578.309375 3.1156 
Q 578.309375 1.1156 576.309375 1.1156 
L 161.690625 1.1156 
Q 159.690625 1.1156 159.690625 3.1156 
L 159.690625 31.47185 
Q 159.690625 33.47185 161.690625 33.47185 
z
" style="fill: #ffffff; opacity: 0.8; stroke: #cccccc; stroke-linejoin: miter"/>
    </g>
    <g id="line2d_47">
     <path d="M 163.690625 9.214038 
L 173.690625 9.214038 
L 183.690625 9.214038 
" style="fill: none; stroke: #1f77b4; stroke-width: 1.5; stroke-linecap: square"/>
    </g>
    <g id="text_11">
     <!-- JSON -->
     <g transform="translate(191.690625 12.714038) scale(0.1 -0.1)">
      <use xlink:href="#DejaVuSans-4a"/>
      <use xlink:href="#DejaVuSans-53" transform="translate(29.492188 0)"/>
      <use xlink:href="#DejaVuSans-4f" transform="translate(92.96875 0)"/>
      <use xlink:href="#DejaVuSans-4e" transform="translate(171.679688 0)"/>
     </g>
    </g>
    <g id="line2d_48">
     <path d="M 163.690625 23.892163 
L 173.690625 23.892163 
L 183.690625 23.892163 
" style="fill: none; stroke: #ff7f0e; stroke-width: 1.5; stroke-linecap: square"/>
    </g>
    <g id="text_12">
     <!-- JSON (unmapped) -->
     <g transform="translate(191.690625 27.392163) scale(0.1 -0.1)">
      <defs>
       <path id="DejaVuSans-75" d="M 544 1381 
L 544 3500 
L 1119 3500 
L 1119 1403 
Q 1119 906 1312 657 
Q 1506 409 1894 409 
Q 2359 409 2629 706 
Q 2900 1003 2900 1516 
L 2900 3500 
L 3475 3500 
L 3475 0 
L 2900 0 
L 2900 538 
Q 2691 219 2414 64 
Q 2138 -91 1772 -91 
Q 1169 -91 856 284 
Q 544 659 544 1381 
z
M 1991 3584 
L 1991 3584 
z
" transform="scale(0.015625)"/>
       <path id="DejaVuSans-70" d="M 1159 525 
L 1159 -1331 
L 581 -1331 
L 581 3500 
L 1159 3500 
L 1159 2969 
Q 1341 3281 1617 3432 
Q 1894 3584 2278 3584 
Q 2916 3584 3314 3078 
Q 3713 2572 3713 1747 
Q 3713 922 3314 415 
Q 2916 -91 2278 -91 
Q 1894 -91 1617 61 
Q 1341 213 1159 525 
z
M 3116 1747 
Q 3116 2381 2855 2742 
Q 2594 3103 2138 3103 
Q 1681 3103 1420 2742 
Q 1159 2381 1159 1747 
Q 1159 1113 1420 752 
Q 1681 391 2138 391 
Q 2594 391 2855 752 
Q 3116 1113 3116 1747 
z
" transform="scale(0.015625)"/>
      </defs>
      <use xlink:href="#DejaVuSans-4a"/>
      <use xlink:href="#DejaVuSans-53" transform="translate(29.492188 0)"/>
      <use xlink:href="#DejaVuSans-4f" transform="translate(92.96875 0)"/>
      <use xlink:href="#DejaVuSans-4e" transform="translate(171.679688 0)"/>
      <use xlink:href="#DejaVuSans-20" transform="translate(246.484375 0)"/>
      <use xlink:href="#DejaVuSans-28" transform="translate(278.271484 0)"/>
      <use xlink:href="#DejaVuSans-75" transform="translate(317.285156 0)"/>
      <use xlink:href="#DejaVuSans-6e" transform="translate(380.664062 0)"/>
      <use xlink:href="#DejaVuSans-6d" transform="translate(444.042969 0)"/>
      <use xlink:href="#DejaVuSans-61" transform="translate(541.455078 0)"/>
      <use xlink:href="#DejaVuSans-70" transform="translate(602.734375 0)"/>
      <use xlink:href="#DejaVuSans-70" transform="translate(666.210938 0)"/>
      <use xlink:href="#DejaVuSans-65" transform="translate(729.6875 0)"/>
      <use xlink:href="#DejaVuSans-64" transform="translate(791.210938 0)"/>
      <use xlink:href="#DejaVuSans-29" transform="translate(854.6875 0)"/>
     </g>
    </g>
    <g id="line2d_49">
     <path d="M 301.065625 9.214038 
L 311.065625 9.214038 
L 321.065625 9.214038 
" style="fill: none; stroke: #2ca02c; stroke-width: 1.5; stroke-linecap: square"/>
    </g>
    <g id="text_13">
     <!-- JSBIN -->
     <g transform="translate(329.065625 12.714038) scale(0.1 -0.1)">
      <defs>
       <path id="DejaVuSans-49" d="M 628 4666 
L 1259 4666 
L 1259 0 
L 628 0 
L 628 4666 
z
" transform="scale(0.015625)"/>
      </defs>
      <use xlink:href="#DejaVuSans-4a"/>
      <use xlink:href="#DejaVuSans-53" transform="translate(29.492188 0)"/>
      <use xlink:href="#DejaVuSans-42" transform="translate(92.96875 0)"/>
      <use xlink:href="#DejaVuSans-49" transform="translate(161.572266 0)"/>
      <use xlink:href="#DejaVuSans-4e" transform="translate(191.064453 0)"/>
     </g>
    </g>
    <g id="line2d_50">
     <path d="M 301.065625 23.892163 
L 311.065625 23.892163 
L 321.065625 23.892163 
" style="fill: none; stroke: #d62728; stroke-width: 1.5; stroke-linecap: square"/>
    </g>
    <g id="text_14">
     <!-- JSBIN (optional) -->
     <g transform="translate(329.065625 27.392163) scale(0.1 -0.1)">
      <defs>
       <path id="DejaVuSans-6c" d="M 603 4863 
L 1178 4863 
L 1178 0 
L 603 0 
L 603 4863 
z
" transform="scale(0.015625)"/>
      </defs>
      <use xlink:href="#DejaVuSans-4a"/>
      <use xlink:href="#DejaVuSans-53" transform="translate(29.492188 0)"/>
      <use xlink:href="#DejaVuSans-42" transform="translate(92.96875 0)"/>
      <use xlink:href="#DejaVuSans-49" transform="translate(161.572266 0)"/>
      <use xlink:href="#DejaVuSans-4e" transform="translate(191.064453 0)"/>
      <use xlink:href="#DejaVuSans-20" transform="translate(265.869141 0)"/>
      <use xlink:href="#DejaVuSans-28" transform="translate(297.65625 0)"/>
      <use xlink:href="#DejaVuSans-6f" transform="translate(336.669922 0)"/>
      <use xlink:href="#DejaVuSans-70" transform="translate(397.851562 0)"/>
      <use xlink:href="#DejaVuSans-74" transform="translate(461.328125 0)"/>
      <use xlink:href="#DejaVuSans-69" transform="translate(500.537109 0)"/>
      <use xlink:href="#DejaVuSans-6f" transform="translate(528.320312 0)"/>
      <use xlink:href="#DejaVuSans-6e" transform="translate(589.501953 0)"/>
      <use xlink:href="#DejaVuSans-61" transform="translate(652.880859 0)"/>
      <use xlink:href="#DejaVuSans-6c" transform="translate(714.160156 0)"/>
      <use xlink:href="#DejaVuSans-29" transform="translate(741.943359 0)"/>
     </g>
    </g>
    <g id="line2d_51">
     <path d="M 427.165625 9.214038 
L 437.165625 9.214038 
L 447.165625 9.214038 
" style="fill: none; stroke: #9467bd; stroke-width: 1.5; stroke-linecap: square"/>
    </g>
    <g id="text_15">
     <!-- JSBIN (unmapped) -->
     <g transform="translate(455.165625 12.714038) scale(0.1 -0.1)">
      <use xlink:href="#DejaVuSans-4a"/>
      <use xlink:href="#DejaVuSans-53" transform="translate(29.492188 0)"/>
      <use xlink:href="#DejaVuSans-42" transform="translate(92.96875 0)"/>
      <use xlink:href="#DejaVuSans-49" transform="translate(161.572266 0)"/>
      <use xlink:href="#DejaVuSans-4e" transform="translate(191.064453 0)"/>
      <use xlink:href="#DejaVuSans-20" transform="translate(265.869141 0)"/>
      <use xlink:href="#DejaVuSans-28" transform="translate(297.65625 0)"/>
      <use xlink:href="#DejaVuSans-75" transform="translate(336.669922 0)"/>
      <use xlink:href="#DejaVuSans-6e" transform="translate(400.048828 0)"/>
      <use xlink:href="#DejaVuSans-6d" transform="translate(463.427734 0)"/>
      <use xlink:href="#DejaVuSans-61" transform="translate(560.839844 0)"/>
      <use xlink:href="#DejaVuSans-70" transform="translate(622.119141 0)"/>
      <use xlink:href="#DejaVuSans-70" transform="translate(685.595703 0)"/>
      <use xlink:href="#DejaVuSans-65" transform="translate(749.072266 0)"/>
      <use xlink:href="#DejaVuSans-64" transform="translate(810.595703 0)"/>
      <use xlink:href="#DejaVuSans-29" transform="translate(874.072266 0)"/>
     </g>
    </g>
    <g id="line2d_52">
     <path d="M 427.165625 23.892163 
L 437.165625 23.892163 
L 447.165625 23.892163 
" style="fill: none; stroke: #8c564b; stroke-width: 1.5; stroke-linecap: square"/>
    </g>
    <g id="text_16">
     <!-- JSBIN JSON (unmapped) -->
     <g transform="translate(455.165625 27.392163) scale(0.1 -0.1)">
      <use xlink:href="#DejaVuSans-4a"/>
      <use xlink:href="#DejaVuSans-53" transform="translate(29.492188 0)"/>
      <use xlink:href="#DejaVuSans-42" transform="translate(92.96875 0)"/>
      <use xlink:href="#DejaVuSans-49" transform="translate(161.572266 0)"/>
      <use xlink:href="#DejaVuSans-4e" transform="translate(191.064453 0)"/>
      <use xlink:href="#DejaVuSans-20" transform="translate(265.869141 0)"/>
      <use xlink:href="#DejaVuSans-4a" transform="translate(297.65625 0)"/>
      <use xlink:href="#DejaVuSans-53" transform="translate(327.148438 0)"/>
      <use xlink:href="#DejaVuSans-4f" transform="translate(390.625 0)"/>
      <use xlink:href="#DejaVuSans-4e" transform="translate(469.335938 0)"/>
      <use xlink:href="#DejaVuSans-20" transform="translate(544.140625 0)"/>
      <use xlink:href="#DejaVuSans-28" transform="translate(575.927734 0)"/>
      <use xlink:href="#DejaVuSans-75" transform="translate(614.941406 0)"/>
      <use xlink:href="#DejaVuSans-6e" transform="translate(678.320312 0)"/>
      <use xlink:href="#DejaVuSans-6d" transform="translate(741.699219 0)"/>
      <use xlink:href="#DejaVuSans-61" transform="translate(839.111328 0)"/>
      <use xlink:href="#DejaVuSans-70" transform="translate(900.390625 0)"/>
      <use xlink:href="#DejaVuSans-70" transform="translate(963.867188 0)"/>
      <use xlink:href="#DejaVuSans-65" transform="translate(1027.34375 0)"/>
      <use xlink:href="#DejaVuSans-64" transform="translate(1088.867188 0)"/>
      <use xlink:href="#DejaVuSans-29" transform="translate(1152.34375 0)"/>
     </g>
    </g>
   </g>
  </g>
  <g id="axes_2">
   <g id="patch_8">
    <path d="M 90 265.932 
L 648 265.932 
L 648 161.352 
L 90 161.352 
z
" style="fill: #ffffff"/>
   </g>
   <g id="matplotlib.axis_3">
    <g id="xtick_28">
     <g id="line2d_53">
      <path d="M 166.951075 265.932 
L 166.951075 161.352 
" clip-path="url(#pb51712f0dd)" style="fill: none; stroke: #b0b0b0; stroke-width: 0.8; stroke-linecap: square"/>
     </g>
     <g id="line2d_54">
      <g>
       <use xlink:href="#m2370fab9c7" x="166.951075" y="265.932" style="stroke: #000000; stroke-width: 0.8"/>
      </g>
     </g>
     <g id="text_17">
      <!-- $\mathdefault{10^{0}}$ -->
      <g transform="translate(158.151075 280.530438) scale(0.1 -0.1)">
       <use xlink:href="#DejaVuSans-31" transform="translate(0 0.765625)"/>
       <use xlink:href="#DejaVuSans-30" transform="translate(63.623047 0.765625)"/>
       <use xlink:href="#DejaVuSans-30" transform="translate(128.203125 39.046875) scale(0.7)"/>
      </g>
     </g>
    </g>
    <g id="xtick_29">
     <g id="line2d_55">
      <path d="M 358.718932 265.932 
L 358.718932 161.352 
" clip-path="url(#pb51712f0dd)" style="fill: none; stroke: #b0b0b0; stroke-width: 0.8; stroke-linecap: square"/>
     </g>
     <g id="line2d_56">
      <g>
       <use xlink:href="#m2370fab9c7" x="358.718932" y="265.932" style="stroke: #000000; stroke-width: 0.8"/>
      </g>
     </g>
     <g id="text_18">
      <!-- $\mathdefault{10^{1}}$ -->
      <g transform="translate(349.918932 280.530438) scale(0.1 -0.1)">
       <use xlink:href="#DejaVuSans-31" transform="translate(0 0.684375)"/>
       <use xlink:href="#DejaVuSans-30" transform="translate(63.623047 0.684375)"/>
       <use xlink:href="#DejaVuSans-31" transform="translate(128.203125 38.965625) scale(0.7)"/>
      </g>
     </g>
    </g>
    <g id="xtick_30">
     <g id="line2d_57">
      <path d="M 550.486789 265.932 
L 550.486789 161.352 
" clip-path="url(#pb51712f0dd)" style="fill: none; stroke: #b0b0b0; stroke-width: 0.8; stroke-linecap: square"/>
     </g>
     <g id="line2d_58">
      <g>
       <use xlink:href="#m2370fab9c7" x="550.486789" y="265.932" style="stroke: #000000; stroke-width: 0.8"/>
      </g>
     </g>
     <g id="text_19">
      <!-- $\mathdefault{10^{2}}$ -->
      <g transform="translate(541.686789 280.530438) scale(0.1 -0.1)">
       <use xlink:href="#DejaVuSans-31" transform="translate(0 0.765625)"/>
       <use xlink:href="#DejaVuSans-30" transform="translate(63.623047 0.765625)"/>
       <use xlink:href="#DejaVuSans-32" transform="translate(128.203125 39.046875) scale(0.7)"/>
      </g>
     </g>
    </g>
    <g id="xtick_31">
     <g id="line2d_59">
      <g>
       <use xlink:href="#me0eac49cb7" x="90.638972" y="265.932" style="stroke: #000000; stroke-width: 0.6"/>
      </g>
     </g>
    </g>
    <g id="xtick_32">
     <g id="line2d_60">
      <g>
       <use xlink:href="#me0eac49cb7" x="109.223198" y="265.932" style="stroke: #000000; stroke-width: 0.6"/>
      </g>
     </g>
    </g>
    <g id="xtick_33">
     <g id="line2d_61">
      <g>
       <use xlink:href="#me0eac49cb7" x="124.407616" y="265.932" style="stroke: #000000; stroke-width: 0.6"/>
      </g>
     </g>
    </g>
    <g id="xtick_34">
     <g id="line2d_62">
      <g>
       <use xlink:href="#me0eac49cb7" x="137.245858" y="265.932" style="stroke: #000000; stroke-width: 0.6"/>
      </g>
     </g>
    </g>
    <g id="xtick_35">
     <g id="line2d_63">
      <g>
       <use xlink:href="#me0eac49cb7" x="148.36685" y="265.932" style="stroke: #000000; stroke-width: 0.6"/>
      </g>
     </g>
    </g>
    <g id="xtick_36">
     <g id="line2d_64">
      <g>
       <use xlink:href="#me0eac49cb7" x="158.176259" y="265.932" style="stroke: #000000; stroke-width: 0.6"/>
      </g>
     </g>
    </g>
    <g id="xtick_37">
     <g id="line2d_65">
      <g>
       <use xlink:href="#me0eac49cb7" x="224.678952" y="265.932" style="stroke: #000000; stroke-width: 0.6"/>
      </g>
     </g>
    </g>
    <g id="xtick_38">
     <g id="line2d_66">
      <g>
       <use xlink:href="#me0eac49cb7" x="258.447596" y="265.932" style="stroke: #000000; stroke-width: 0.6"/>
      </g>
     </g>
    </g>
    <g id="xtick_39">
     <g id="line2d_67">
      <g>
       <use xlink:href="#me0eac49cb7" x="282.406829" y="265.932" style="stroke: #000000; stroke-width: 0.6"/>
      </g>
     </g>
    </g>
    <g id="xtick_40">
     <g id="line2d_68">
      <g>
       <use xlink:href="#me0eac49cb7" x="300.991055" y="265.932" style="stroke: #000000; stroke-width: 0.6"/>
      </g>
     </g>
    </g>
    <g id="xtick_41">
     <g id="line2d_69">
      <g>
       <use xlink:href="#me0eac49cb7" x="316.175473" y="265.932" style="stroke: #000000; stroke-width: 0.6"/>
      </g>
     </g>
    </g>
    <g id="xtick_42">
     <g id="line2d_70">
      <g>
       <use xlink:href="#me0eac49cb7" x="329.013715" y="265.932" style="stroke: #000000; stroke-width: 0.6"/>
      </g>
     </g>
    </g>
    <g id="xtick_43">
     <g id="line2d_71">
      <g>
       <use xlink:href="#me0eac49cb7" x="340.134707" y="265.932" style="stroke: #000000; stroke-width: 0.6"/>
      </g>
     </g>
    </g>
    <g id="xtick_44">
     <g id="line2d_72">
      <g>
       <use xlink:href="#me0eac49cb7" x="349.944116" y="265.932" style="stroke: #000000; stroke-width: 0.6"/>
      </g>
     </g>
    </g>
    <g id="xtick_45">
     <g id="line2d_73">
      <g>
       <use xlink:href="#me0eac49cb7" x="416.446809" y="265.932" style="stroke: #000000; stroke-width: 0.6"/>
      </g>
     </g>
    </g>
    <g id="xtick_46">
     <g id="line2d_74">
      <g>
       <use xlink:href="#me0eac49cb7" x="450.215453" y="265.932" style="stroke: #000000; stroke-width: 0.6"/>
      </g>
     </g>
    </g>
    <g id="xtick_47">
     <g id="line2d_75">
      <g>
       <use xlink:href="#me0eac49cb7" x="474.174687" y="265.932" style="stroke: #000000; stroke-width: 0.6"/>
      </g>
     </g>
    </g>
    <g id="xtick_48">
     <g id="line2d_76">
      <g>
       <use xlink:href="#me0eac49cb7" x="492.758912" y="265.932" style="stroke: #000000; stroke-width: 0.6"/>
      </g>
     </g>
    </g>
    <g id="xtick_49">
     <g id="line2d_77">
      <g>
       <use xlink:href="#me0eac49cb7" x="507.94333" y="265.932" style="stroke: #000000; stroke-width: 0.6"/>
      </g>
     </g>
    </g>
    <g id="xtick_50">
     <g id="line2d_78">
      <g>
       <use xlink:href="#me0eac49cb7" x="520.781572" y="265.932" style="stroke: #000000; stroke-width: 0.6"/>
      </g>
     </g>
    </g>
    <g id="xtick_51">
     <g id="line2d_79">
      <g>
       <use xlink:href="#me0eac49cb7" x="531.902564" y="265.932" style="stroke: #000000; stroke-width: 0.6"/>
      </g>
     </g>
    </g>
    <g id="xtick_52">
     <g id="line2d_80">
      <g>
       <use xlink:href="#me0eac49cb7" x="541.711973" y="265.932" style="stroke: #000000; stroke-width: 0.6"/>
      </g>
     </g>
    </g>
    <g id="xtick_53">
     <g id="line2d_81">
      <g>
       <use xlink:href="#me0eac49cb7" x="608.214667" y="265.932" style="stroke: #000000; stroke-width: 0.6"/>
      </g>
     </g>
    </g>
    <g id="xtick_54">
     <g id="line2d_82">
      <g>
       <use xlink:href="#me0eac49cb7" x="641.98331" y="265.932" style="stroke: #000000; stroke-width: 0.6"/>
      </g>
     </g>
    </g>
    <g id="text_20">
     <!-- JSON size (MB) -->
     <g transform="translate(332.155469 294.208563) scale(0.1 -0.1)">
      <use xlink:href="#DejaVuSans-4a"/>
      <use xlink:href="#DejaVuSans-53" transform="translate(29.492188 0)"/>
      <use xlink:href="#DejaVuSans-4f" transform="translate(92.96875 0)"/>
      <use xlink:href="#DejaVuSans-4e" transform="translate(171.679688 0)"/>
      <use xlink:href="#DejaVuSans-20" transform="translate(246.484375 0)"/>
      <use xlink:href="#DejaVuSans-73" transform="translate(278.271484 0)"/>
      <use xlink:href="#DejaVuSans-69" transform="translate(330.371094 0)"/>
      <use xlink:href="#DejaVuSans-7a" transform="translate(358.154297 0)"/>
      <use xlink:href="#DejaVuSans-65" transform="translate(410.644531 0)"/>
      <use xlink:href="#DejaVuSans-20" transform="translate(472.167969 0)"/>
      <use xlink:href="#DejaVuSans-28" transform="translate(503.955078 0)"/>
      <use xlink:href="#DejaVuSans-4d" transform="translate(542.96875 0)"/>
      <use xlink:href="#DejaVuSans-42" transform="translate(629.248047 0)"/>
      <use xlink:href="#DejaVuSans-29" transform="translate(697.851562 0)"/>
     </g>
    </g>
   </g>
   <g id="matplotlib.axis_4">
    <g id="ytick_6">
     <g id="line2d_83">
      <path d="M 90 256.579214 
L 648 256.579214 
" clip-path="url(#pb51712f0dd)" style="fill: none; stroke: #b0b0b0; stroke-width: 0.8; stroke-linecap: square"/>
     </g>
     <g id="line2d_84">
      <g>
       <use xlink:href="#m186fb2860d" x="90" y="256.579214" style="stroke: #000000; stroke-width: 0.8"/>
      </g>
     </g>
     <g id="text_21">
      <!-- 0.25 -->
      <g transform="translate(60.734375 260.378433) scale(0.1 -0.1)">
       <use xlink:href="#DejaVuSans-30"/>
       <use xlink:href="#DejaVuSans-2e" transform="translate(63.623047 0)"/>
       <use xlink:href="#DejaVuSans-32" transform="translate(95.410156 0)"/>
       <use xlink:href="#DejaVuSans-35" transform="translate(159.033203 0)"/>
      </g>
     </g>
    </g>
    <g id="ytick_7">
     <g id="line2d_85">
      <path d="M 90 232.207481 
L 648 232.207481 
" clip-path="url(#pb51712f0dd)" style="fill: none; stroke: #b0b0b0; stroke-width: 0.8; stroke-linecap: square"/>
     </g>
     <g id="line2d_86">
      <g>
       <use xlink:href="#m186fb2860d" x="90" y="232.207481" style="stroke: #000000; stroke-width: 0.8"/>
      </g>
     </g>
     <g id="text_22">
      <!-- 0.50 -->
      <g transform="translate(60.734375 236.0067) scale(0.1 -0.1)">
       <use xlink:href="#DejaVuSans-30"/>
       <use xlink:href="#DejaVuSans-2e" transform="translate(63.623047 0)"/>
       <use xlink:href="#DejaVuSans-35" transform="translate(95.410156 0)"/>
       <use xlink:href="#DejaVuSans-30" transform="translate(159.033203 0)"/>
      </g>
     </g>
    </g>
    <g id="ytick_8">
     <g id="line2d_87">
      <path d="M 90 207.835748 
L 648 207.835748 
" clip-path="url(#pb51712f0dd)" style="fill: none; stroke: #b0b0b0; stroke-width: 0.8; stroke-linecap: square"/>
     </g>
     <g id="line2d_88">
      <g>
       <use xlink:href="#m186fb2860d" x="90" y="207.835748" style="stroke: #000000; stroke-width: 0.8"/>
      </g>
     </g>
     <g id="text_23">
      <!-- 0.75 -->
      <g transform="translate(60.734375 211.634966) scale(0.1 -0.1)">
       <use xlink:href="#DejaVuSans-30"/>
       <use xlink:href="#DejaVuSans-2e" transform="translate(63.623047 0)"/>
       <use xlink:href="#DejaVuSans-37" transform="translate(95.410156 0)"/>
       <use xlink:href="#DejaVuSans-35" transform="translate(159.033203 0)"/>
      </g>
     </g>
    </g>
    <g id="ytick_9">
     <g id="line2d_89">
      <path d="M 90 183.464014 
L 648 183.464014 
" clip-path="url(#pb51712f0dd)" style="fill: none; stroke: #b0b0b0; stroke-width: 0.8; stroke-linecap: square"/>
     </g>
     <g id="line2d_90">
      <g>
       <use xlink:href="#m186fb2860d" x="90" y="183.464014" style="stroke: #000000; stroke-width: 0.8"/>
      </g>
     </g>
     <g id="text_24">
      <!-- 1.00 -->
      <g transform="translate(60.734375 187.263233) scale(0.1 -0.1)">
       <use xlink:href="#DejaVuSans-31"/>
       <use xlink:href="#DejaVuSans-2e" transform="translate(63.623047 0)"/>
       <use xlink:href="#DejaVuSans-30" transform="translate(95.410156 0)"/>
       <use xlink:href="#DejaVuSans-30" transform="translate(159.033203 0)"/>
      </g>
     </g>
    </g>
    <g id="text_25">
     <!-- Decode time (ratio) -->
     <g transform="translate(54.654687 262.531844) rotate(-90) scale(0.1 -0.1)">
      <defs>
       <path id="DejaVuSans-44" d="M 1259 4147 
L 1259 519 
L 2022 519 
Q 2988 519 3436 956 
Q 3884 1394 3884 2338 
Q 3884 3275 3436 3711 
Q 2988 4147 2022 4147 
L 1259 4147 
z
M 628 4666 
L 1925 4666 
Q 3281 4666 3915 4102 
Q 4550 3538 4550 2338 
Q 4550 1131 3912 565 
Q 3275 0 1925 0 
L 628 0 
L 628 4666 
z
" transform="scale(0.015625)"/>
      </defs>
      <use xlink:href="#DejaVuSans-44"/>
      <use xlink:href="#DejaVuSans-65" transform="translate(77.001953 0)"/>
      <use xlink:href="#DejaVuSans-63" transform="translate(138.525391 0)"/>
      <use xlink:href="#DejaVuSans-6f" transform="translate(193.505859 0)"/>
      <use xlink:href="#DejaVuSans-64" transform="translate(254.6875 0)"/>
      <use xlink:href="#DejaVuSans-65" transform="translate(318.164062 0)"/>
      <use xlink:href="#DejaVuSans-20" transform="translate(379.6875 0)"/>
      <use xlink:href="#DejaVuSans-74" transform="translate(411.474609 0)"/>
      <use xlink:href="#DejaVuSans-69" transform="translate(450.683594 0)"/>
      <use xlink:href="#DejaVuSans-6d" transform="translate(478.466797 0)"/>
      <use xlink:href="#DejaVuSans-65" transform="translate(575.878906 0)"/>
      <use xlink:href="#DejaVuSans-20" transform="translate(637.402344 0)"/>
      <use xlink:href="#DejaVuSans-28" transform="translate(669.189453 0)"/>
      <use xlink:href="#DejaVuSans-72" transform="translate(708.203125 0)"/>
      <use xlink:href="#DejaVuSans-61" transform="translate(749.316406 0)"/>
      <use xlink:href="#DejaVuSans-74" transform="translate(810.595703 0)"/>
      <use xlink:href="#DejaVuSans-69" transform="translate(849.804688 0)"/>
      <use xlink:href="#DejaVuSans-6f" transform="translate(877.587891 0)"/>
      <use xlink:href="#DejaVuSans-29" transform="translate(938.769531 0)"/>
     </g>
    </g>
   </g>
   <g id="line2d_91">
    <path d="M 115.363636 183.464014 
L 125.293172 183.464014 
L 135.224169 183.464014 
L 145.15264 183.464014 
L 155.077552 183.464014 
L 164.998156 183.464014 
L 174.916324 183.464014 
L 184.830331 183.464014 
L 194.741239 183.464014 
L 204.647421 183.464014 
L 214.54926 183.464014 
L 224.446666 183.464014 
L 234.339827 183.464014 
L 244.229245 183.464014 
L 254.114098 183.464014 
L 263.994106 183.464014 
L 273.869057 183.464014 
L 283.739435 183.464014 
L 293.60461 183.464014 
L 303.465292 183.464014 
L 313.32069 183.464014 
L 323.17107 183.464014 
L 333.016436 183.464014 
L 342.856771 183.464014 
L 352.692013 183.464014 
L 362.522702 183.464014 
L 381.088042 183.464014 
L 399.625657 183.464014 
L 418.209883 183.464014 
L 436.794108 183.464014 
L 455.378334 183.464014 
L 473.962559 183.464014 
L 492.546785 183.464014 
L 511.13101 183.464014 
L 529.715236 183.464014 
L 548.299462 183.464014 
L 566.883687 183.464014 
L 585.467913 183.464014 
L 604.052138 183.464014 
L 622.636364 183.464014 
" clip-path="url(#pb51712f0dd)" style="fill: none; stroke: #1f77b4; stroke-width: 1.5; stroke-linecap: square"/>
   </g>
   <g id="line2d_92">
    <path d="M 115.363636 210.818697 
L 125.293172 206.715948 
L 135.224169 208.718987 
L 145.15264 212.65562 
L 155.077552 209.973238 
L 164.998156 208.71209 
L 174.916324 209.612615 
L 184.830331 209.620089 
L 194.741239 203.885153 
L 204.647421 207.941322 
L 214.54926 210.195817 
L 224.446666 208.915244 
L 234.339827 212.032756 
L 244.229245 207.658965 
L 254.114098 208.517722 
L 263.994106 206.409765 
L 273.869057 206.391218 
L 283.739435 208.049665 
L 293.60461 208.077112 
L 303.465292 208.366497 
L 313.32069 209.26458 
L 323.17107 204.731959 
L 333.016436 210.13116 
L 342.856771 188.475014 
L 352.692013 182.062569 
L 362.522702 208.561781 
L 381.088042 208.405289 
L 399.625657 208.810371 
L 418.209883 195.913547 
L 436.794108 210.38394 
L 455.378334 207.316884 
L 473.962559 199.67519 
L 492.546785 200.349516 
L 511.13101 203.079645 
L 529.715236 201.806773 
L 548.299462 202.487491 
L 566.883687 198.047563 
L 585.467913 200.810221 
L 604.052138 200.582382 
L 622.636364 203.154719 
" clip-path="url(#pb51712f0dd)" style="fill: none; stroke: #ff7f0e; stroke-width: 1.5; stroke-linecap: square"/>
   </g>
   <g id="line2d_93">
    <path d="M 115.363636 207.492337 
L 125.293172 199.986621 
L 135.224169 199.7218 
L 145.15264 216.065743 
L 155.077552 217.881264 
L 164.998156 226.01151 
L 174.916324 225.594773 
L 184.830331 231.219576 
L 194.741239 215.871025 
L 204.647421 230.709634 
L 214.54926 230.438052 
L 224.446666 239.503028 
L 234.339827 244.296295 
L 244.229245 248.256198 
L 254.114098 239.888741 
L 263.994106 250.562713 
L 273.869057 252.386567 
L 283.739435 254.521155 
L 293.60461 255.773344 
L 303.465292 252.226779 
L 313.32069 255.323456 
L 323.17107 259.070572 
L 333.016436 259.437722 
L 342.856771 261.178364 
L 352.692013 260.300187 
L 362.522702 248.289628 
L 381.088042 251.247798 
L 399.625657 251.891648 
L 418.209883 248.207967 
L 436.794108 255.213197 
L 455.378334 250.618919 
L 473.962559 244.481934 
L 492.546785 235.333497 
L 511.13101 226.730451 
L 529.715236 218.568041 
L 548.299462 212.333002 
L 566.883687 213.698134 
L 585.467913 216.397596 
L 604.052138 223.613334 
L 622.636364 234.626682 
" clip-path="url(#pb51712f0dd)" style="fill: none; stroke: #2ca02c; stroke-width: 1.5; stroke-linecap: square"/>
   </g>
   <g id="line2d_94">
    <path d="M 115.363636 191.46795 
L 125.293172 181.887763 
L 135.224169 182.513837 
L 145.15264 195.321336 
L 155.077552 198.244088 
L 164.998156 191.047955 
L 174.916324 209.340577 
L 184.830331 219.423901 
L 194.741239 223.743647 
L 204.647421 230.746842 
L 214.54926 221.182936 
L 224.446666 236.985004 
L 234.339827 235.084267 
L 244.229245 240.198457 
L 254.114098 235.890056 
L 263.994106 244.782403 
L 273.869057 239.170023 
L 283.739435 249.370767 
L 293.60461 246.027673 
L 303.465292 250.381967 
L 313.32069 251.85468 
L 323.17107 252.211294 
L 333.016436 249.523488 
L 342.856771 255.168221 
L 352.692013 254.660376 
L 362.522702 241.266662 
L 381.088042 243.313828 
L 399.625657 249.269019 
L 418.209883 249.165536 
L 436.794108 249.335748 
L 455.378334 238.737699 
L 473.962559 242.833748 
L 492.546785 237.667603 
L 511.13101 226.216703 
L 529.715236 206.030066 
L 548.299462 212.530421 
L 566.883687 214.256163 
L 585.467913 219.559431 
L 604.052138 223.790675 
L 622.636364 227.718619 
" clip-path="url(#pb51712f0dd)" style="fill: none; stroke: #d62728; stroke-width: 1.5; stroke-linecap: square"/>
   </g>
   <g id="line2d_95">
    <path d="M 115.363636 193.381563 
L 125.293172 189.600292 
L 135.224169 206.315358 
L 145.15264 200.641163 
L 155.077552 220.884892 
L 164.998156 222.031777 
L 174.916324 231.3043 
L 184.830331 230.336466 
L 194.741239 234.622938 
L 204.647421 233.640072 
L 214.54926 236.595383 
L 224.446666 235.113301 
L 234.339827 243.714933 
L 244.229245 242.726229 
L 254.114098 240.362929 
L 263.994106 245.328892 
L 273.869057 239.667882 
L 283.739435 248.463161 
L 293.60461 249.749382 
L 303.465292 248.115155 
L 313.32069 250.34817 
L 323.17107 250.321478 
L 333.016436 251.573505 
L 342.856771 220.099772 
L 352.692013 225.633685 
L 362.522702 243.933413 
L 381.088042 240.767501 
L 399.625657 237.095615 
L 418.209883 237.183777 
L 436.794108 238.85803 
L 455.378334 240.728242 
L 473.962559 235.158073 
L 492.546785 235.897707 
L 511.13101 242.221247 
L 529.715236 242.421277 
L 548.299462 240.077322 
L 566.883687 241.933895 
L 585.467913 240.346296 
L 604.052138 243.262007 
L 622.636364 244.38059 
" clip-path="url(#pb51712f0dd)" style="fill: none; stroke: #9467bd; stroke-width: 1.5; stroke-linecap: square"/>
   </g>
   <g id="line2d_96">
    <path d="M 115.363636 194.227518 
L 125.293172 193.97791 
L 135.224169 182.665524 
L 145.15264 189.87851 
L 155.077552 192.810153 
L 164.998156 193.185029 
L 174.916324 197.114236 
L 184.830331 193.525612 
L 194.741239 194.650422 
L 204.647421 188.184042 
L 214.54926 195.177082 
L 224.446666 186.797843 
L 234.339827 196.763696 
L 244.229245 194.677992 
L 254.114098 194.071571 
L 263.994106 192.325516 
L 273.869057 190.522464 
L 283.739435 192.662462 
L 293.60461 194.787658 
L 303.465292 188.506849 
L 313.32069 191.450243 
L 323.17107 188.838959 
L 333.016436 197.109383 
L 342.856771 178.616012 
L 352.692013 166.105636 
L 362.522702 197.675539 
L 381.088042 197.282672 
L 399.625657 199.014783 
L 418.209883 181.451292 
L 436.794108 198.726623 
L 455.378334 194.812614 
L 473.962559 184.239546 
L 492.546785 187.979802 
L 511.13101 192.416872 
L 529.715236 189.430903 
L 548.299462 190.22547 
L 566.883687 190.21372 
L 585.467913 186.843487 
L 604.052138 191.247573 
L 622.636364 177.963738 
" clip-path="url(#pb51712f0dd)" style="fill: none; stroke: #8c564b; stroke-width: 1.5; stroke-linecap: square"/>
   </g>
   <g id="patch_9">
    <path d="M 90 265.932 
L 90 161.352 
" style="fill: none; stroke: #000000; stroke-width: 0.8; stroke-linejoin: miter; stroke-linecap: square"/>
   </g>
   <g id="patch_10">
    <path d="M 648 265.932 
L 648 161.352 
" style="fill: none; stroke: #000000; stroke-width: 0.8; stroke-linejoin: miter; stroke-linecap: square"/>
   </g>
   <g id="patch_11">
    <path d="M 90 265.932 
L 648 265.932 
" style="fill: none; stroke: #000000; stroke-width: 0.8; stroke-linejoin: miter; stroke-linecap: square"/>
   </g>
   <g id="patch_12">
    <path d="M 90 161.352 
L 648 161.352 
" style="fill: none; stroke: #000000; stroke-width: 0.8; stroke-linejoin: miter; stroke-linecap: square"/>
   </g>
  </g>
 </g>
 <defs>
  <clipPath id="p9c4452672c">
   <rect x="90" y="35.856" width="558" height="104.58"/>
  </clipPath>
  <clipPath id="pb51712f0dd">
   <rect x="90" y="161.352" width="558" height="104.58"/>
  </clipPath>
 </defs>
</svg>
