<?xml version="1.0" encoding="utf-8" standalone="no"?>
<!DOCTYPE svg PUBLIC "-//W3C//DTD SVG 1.1//EN"
  "http://www.w3.org/Graphics/SVG/1.1/DTD/svg11.dtd">
<!-- Created with matplotlib (https://matplotlib.org/) -->
<svg height="298.8pt" version="1.1" viewBox="0 0 720 298.8" width="720pt" xmlns="http://www.w3.org/2000/svg" xmlns:xlink="http://www.w3.org/1999/xlink">
 <defs>
  <style type="text/css">
*{stroke-linecap:butt;stroke-linejoin:round;white-space:pre;}
  </style>
 </defs>
 <g id="figure_1">
  <g id="patch_1">
   <path d="M 0 298.8 
L 720 298.8 
L 720 0 
L 0 0 
z
" style="fill:#ffffff;"/>
  </g>
  <g id="axes_1">
   <g id="patch_2">
    <path d="M 90 140.436 
L 648 140.436 
L 648 35.856 
L 90 35.856 
z
" style="fill:#ffffff;"/>
   </g>
   <g id="matplotlib.axis_1">
    <g id="xtick_1">
     <g id="line2d_1">
      <path clip-path="url(#pdd533a0518)" d="M 166.951075 140.436 
L 166.951075 35.856 
" style="fill:none;stroke:#b0b0b0;stroke-linecap:square;stroke-width:0.8;"/>
     </g>
     <g id="line2d_2">
      <defs>
       <path d="M 0 0 
L 0 3.5 
" id="m41b2fd942a" style="stroke:#000000;stroke-width:0.8;"/>
      </defs>
      <g>
       <use style="stroke:#000000;stroke-width:0.8;" x="166.951075" xlink:href="#m41b2fd942a" y="140.436"/>
      </g>
     </g>
     <g id="text_1">
      <!-- $\mathdefault{10^{0}}$ -->
      <defs>
       <path d="M 12.40625 8.296875 
L 28.515625 8.296875 
L 28.515625 63.921875 
L 10.984375 60.40625 
L 10.984375 69.390625 
L 28.421875 72.90625 
L 38.28125 72.90625 
L 38.28125 8.296875 
L 54.390625 8.296875 
L 54.390625 0 
L 12.40625 0 
z
" id="DejaVuSans-49"/>
       <path d="M 31.78125 66.40625 
Q 24.171875 66.40625 20.328125 58.90625 
Q 16.5 51.421875 16.5 36.375 
Q 16.5 21.390625 20.328125 13.890625 
Q 24.171875 6.390625 31.78125 6.390625 
Q 39.453125 6.390625 43.28125 13.890625 
Q 47.125 21.390625 47.125 36.375 
Q 47.125 51.421875 43.28125 58.90625 
Q 39.453125 66.40625 31.78125 66.40625 
z
M 31.78125 74.21875 
Q 44.046875 74.21875 50.515625 64.515625 
Q 56.984375 54.828125 56.984375 36.375 
Q 56.984375 17.96875 50.515625 8.265625 
Q 44.046875 -1.421875 31.78125 -1.421875 
Q 19.53125 -1.421875 13.0625 8.265625 
Q 6.59375 17.96875 6.59375 36.375 
Q 6.59375 54.828125 13.0625 64.515625 
Q 19.53125 74.21875 31.78125 74.21875 
z
" id="DejaVuSans-48"/>
      </defs>
      <g transform="translate(158.151075 155.034437)scale(0.1 -0.1)">
       <use transform="translate(0 0.765625)" xlink:href="#DejaVuSans-49"/>
       <use transform="translate(63.623047 0.765625)" xlink:href="#DejaVuSans-48"/>
       <use transform="translate(128.203125 39.046875)scale(0.7)" xlink:href="#DejaVuSans-48"/>
      </g>
     </g>
    </g>
    <g id="xtick_2">
     <g id="line2d_3">
      <path clip-path="url(#pdd533a0518)" d="M 358.718932 140.436 
L 358.718932 35.856 
" style="fill:none;stroke:#b0b0b0;stroke-linecap:square;stroke-width:0.8;"/>
     </g>
     <g id="line2d_4">
      <g>
       <use style="stroke:#000000;stroke-width:0.8;" x="358.718932" xlink:href="#m41b2fd942a" y="140.436"/>
      </g>
     </g>
     <g id="text_2">
      <!-- $\mathdefault{10^{1}}$ -->
      <g transform="translate(349.918932 155.034437)scale(0.1 -0.1)">
       <use transform="translate(0 0.684375)" xlink:href="#DejaVuSans-49"/>
       <use transform="translate(63.623047 0.684375)" xlink:href="#DejaVuSans-48"/>
       <use transform="translate(128.203125 38.965625)scale(0.7)" xlink:href="#DejaVuSans-49"/>
      </g>
     </g>
    </g>
    <g id="xtick_3">
     <g id="line2d_5">
      <path clip-path="url(#pdd533a0518)" d="M 550.486789 140.436 
L 550.486789 35.856 
" style="fill:none;stroke:#b0b0b0;stroke-linecap:square;stroke-width:0.8;"/>
     </g>
     <g id="line2d_6">
      <g>
       <use style="stroke:#000000;stroke-width:0.8;" x="550.486789" xlink:href="#m41b2fd942a" y="140.436"/>
      </g>
     </g>
     <g id="text_3">
      <!-- $\mathdefault{10^{2}}$ -->
      <defs>
       <path d="M 19.1875 8.296875 
L 53.609375 8.296875 
L 53.609375 0 
L 7.328125 0 
L 7.328125 8.296875 
Q 12.9375 14.109375 22.625 23.890625 
Q 32.328125 33.6875 34.8125 36.53125 
Q 39.546875 41.84375 41.421875 45.53125 
Q 43.3125 49.21875 43.3125 52.78125 
Q 43.3125 58.59375 39.234375 62.25 
Q 35.15625 65.921875 28.609375 65.921875 
Q 23.96875 65.921875 18.8125 64.3125 
Q 13.671875 62.703125 7.8125 59.421875 
L 7.8125 69.390625 
Q 13.765625 71.78125 18.9375 73 
Q 24.125 74.21875 28.421875 74.21875 
Q 39.75 74.21875 46.484375 68.546875 
Q 53.21875 62.890625 53.21875 53.421875 
Q 53.21875 48.921875 51.53125 44.890625 
Q 49.859375 40.875 45.40625 35.40625 
Q 44.1875 33.984375 37.640625 27.21875 
Q 31.109375 20.453125 19.1875 8.296875 
z
" id="DejaVuSans-50"/>
      </defs>
      <g transform="translate(541.686789 155.034437)scale(0.1 -0.1)">
       <use transform="translate(0 0.765625)" xlink:href="#DejaVuSans-49"/>
       <use transform="translate(63.623047 0.765625)" xlink:href="#DejaVuSans-48"/>
       <use transform="translate(128.203125 39.046875)scale(0.7)" xlink:href="#DejaVuSans-50"/>
      </g>
     </g>
    </g>
    <g id="xtick_4">
     <g id="line2d_7">
      <defs>
       <path d="M 0 0 
L 0 2 
" id="mc8185de8d6" style="stroke:#000000;stroke-width:0.6;"/>
      </defs>
      <g>
       <use style="stroke:#000000;stroke-width:0.6;" x="90.638972" xlink:href="#mc8185de8d6" y="140.436"/>
      </g>
     </g>
    </g>
    <g id="xtick_5">
     <g id="line2d_8">
      <g>
       <use style="stroke:#000000;stroke-width:0.6;" x="109.223198" xlink:href="#mc8185de8d6" y="140.436"/>
      </g>
     </g>
    </g>
    <g id="xtick_6">
     <g id="line2d_9">
      <g>
       <use style="stroke:#000000;stroke-width:0.6;" x="124.407616" xlink:href="#mc8185de8d6" y="140.436"/>
      </g>
     </g>
    </g>
    <g id="xtick_7">
     <g id="line2d_10">
      <g>
       <use style="stroke:#000000;stroke-width:0.6;" x="137.245858" xlink:href="#mc8185de8d6" y="140.436"/>
      </g>
     </g>
    </g>
    <g id="xtick_8">
     <g id="line2d_11">
      <g>
       <use style="stroke:#000000;stroke-width:0.6;" x="148.36685" xlink:href="#mc8185de8d6" y="140.436"/>
      </g>
     </g>
    </g>
    <g id="xtick_9">
     <g id="line2d_12">
      <g>
       <use style="stroke:#000000;stroke-width:0.6;" x="158.176259" xlink:href="#mc8185de8d6" y="140.436"/>
      </g>
     </g>
    </g>
    <g id="xtick_10">
     <g id="line2d_13">
      <g>
       <use style="stroke:#000000;stroke-width:0.6;" x="224.678952" xlink:href="#mc8185de8d6" y="140.436"/>
      </g>
     </g>
    </g>
    <g id="xtick_11">
     <g id="line2d_14">
      <g>
       <use style="stroke:#000000;stroke-width:0.6;" x="258.447596" xlink:href="#mc8185de8d6" y="140.436"/>
      </g>
     </g>
    </g>
    <g id="xtick_12">
     <g id="line2d_15">
      <g>
       <use style="stroke:#000000;stroke-width:0.6;" x="282.406829" xlink:href="#mc8185de8d6" y="140.436"/>
      </g>
     </g>
    </g>
    <g id="xtick_13">
     <g id="line2d_16">
      <g>
       <use style="stroke:#000000;stroke-width:0.6;" x="300.991055" xlink:href="#mc8185de8d6" y="140.436"/>
      </g>
     </g>
    </g>
    <g id="xtick_14">
     <g id="line2d_17">
      <g>
       <use style="stroke:#000000;stroke-width:0.6;" x="316.175473" xlink:href="#mc8185de8d6" y="140.436"/>
      </g>
     </g>
    </g>
    <g id="xtick_15">
     <g id="line2d_18">
      <g>
       <use style="stroke:#000000;stroke-width:0.6;" x="329.013715" xlink:href="#mc8185de8d6" y="140.436"/>
      </g>
     </g>
    </g>
    <g id="xtick_16">
     <g id="line2d_19">
      <g>
       <use style="stroke:#000000;stroke-width:0.6;" x="340.134707" xlink:href="#mc8185de8d6" y="140.436"/>
      </g>
     </g>
    </g>
    <g id="xtick_17">
     <g id="line2d_20">
      <g>
       <use style="stroke:#000000;stroke-width:0.6;" x="349.944116" xlink:href="#mc8185de8d6" y="140.436"/>
      </g>
     </g>
    </g>
    <g id="xtick_18">
     <g id="line2d_21">
      <g>
       <use style="stroke:#000000;stroke-width:0.6;" x="416.446809" xlink:href="#mc8185de8d6" y="140.436"/>
      </g>
     </g>
    </g>
    <g id="xtick_19">
     <g id="line2d_22">
      <g>
       <use style="stroke:#000000;stroke-width:0.6;" x="450.215453" xlink:href="#mc8185de8d6" y="140.436"/>
      </g>
     </g>
    </g>
    <g id="xtick_20">
     <g id="line2d_23">
      <g>
       <use style="stroke:#000000;stroke-width:0.6;" x="474.174687" xlink:href="#mc8185de8d6" y="140.436"/>
      </g>
     </g>
    </g>
    <g id="xtick_21">
     <g id="line2d_24">
      <g>
       <use style="stroke:#000000;stroke-width:0.6;" x="492.758912" xlink:href="#mc8185de8d6" y="140.436"/>
      </g>
     </g>
    </g>
    <g id="xtick_22">
     <g id="line2d_25">
      <g>
       <use style="stroke:#000000;stroke-width:0.6;" x="507.94333" xlink:href="#mc8185de8d6" y="140.436"/>
      </g>
     </g>
    </g>
    <g id="xtick_23">
     <g id="line2d_26">
      <g>
       <use style="stroke:#000000;stroke-width:0.6;" x="520.781572" xlink:href="#mc8185de8d6" y="140.436"/>
      </g>
     </g>
    </g>
    <g id="xtick_24">
     <g id="line2d_27">
      <g>
       <use style="stroke:#000000;stroke-width:0.6;" x="531.902564" xlink:href="#mc8185de8d6" y="140.436"/>
      </g>
     </g>
    </g>
    <g id="xtick_25">
     <g id="line2d_28">
      <g>
       <use style="stroke:#000000;stroke-width:0.6;" x="541.711973" xlink:href="#mc8185de8d6" y="140.436"/>
      </g>
     </g>
    </g>
    <g id="xtick_26">
     <g id="line2d_29">
      <g>
       <use style="stroke:#000000;stroke-width:0.6;" x="608.214667" xlink:href="#mc8185de8d6" y="140.436"/>
      </g>
     </g>
    </g>
    <g id="xtick_27">
     <g id="line2d_30">
      <g>
       <use style="stroke:#000000;stroke-width:0.6;" x="641.98331" xlink:href="#mc8185de8d6" y="140.436"/>
      </g>
     </g>
    </g>
    <g id="text_4">
     <!-- JSON size (MB) -->
     <defs>
      <path d="M 9.8125 72.90625 
L 19.671875 72.90625 
L 19.671875 5.078125 
Q 19.671875 -8.109375 14.671875 -14.0625 
Q 9.671875 -20.015625 -1.421875 -20.015625 
L -5.171875 -20.015625 
L -5.171875 -11.71875 
L -2.09375 -11.71875 
Q 4.4375 -11.71875 7.125 -8.046875 
Q 9.8125 -4.390625 9.8125 5.078125 
z
" id="DejaVuSans-74"/>
      <path d="M 53.515625 70.515625 
L 53.515625 60.890625 
Q 47.90625 63.578125 42.921875 64.890625 
Q 37.9375 66.21875 33.296875 66.21875 
Q 25.25 66.21875 20.875 63.09375 
Q 16.5 59.96875 16.5 54.203125 
Q 16.5 49.359375 19.40625 46.890625 
Q 22.3125 44.4375 30.421875 42.921875 
L 36.375 41.703125 
Q 47.40625 39.59375 52.65625 34.296875 
Q 57.90625 29 57.90625 20.125 
Q 57.90625 9.515625 50.796875 4.046875 
Q 43.703125 -1.421875 29.984375 -1.421875 
Q 24.8125 -1.421875 18.96875 -0.25 
Q 13.140625 0.921875 6.890625 3.21875 
L 6.890625 13.375 
Q 12.890625 10.015625 18.65625 8.296875 
Q 24.421875 6.59375 29.984375 6.59375 
Q 38.421875 6.59375 43.015625 9.90625 
Q 47.609375 13.234375 47.609375 19.390625 
Q 47.609375 24.75 44.3125 27.78125 
Q 41.015625 30.8125 33.5 32.328125 
L 27.484375 33.5 
Q 16.453125 35.6875 11.515625 40.375 
Q 6.59375 45.0625 6.59375 53.421875 
Q 6.59375 63.09375 13.40625 68.65625 
Q 20.21875 74.21875 32.171875 74.21875 
Q 37.3125 74.21875 42.625 73.28125 
Q 47.953125 72.359375 53.515625 70.515625 
z
" id="DejaVuSans-83"/>
      <path d="M 39.40625 66.21875 
Q 28.65625 66.21875 22.328125 58.203125 
Q 16.015625 50.203125 16.015625 36.375 
Q 16.015625 22.609375 22.328125 14.59375 
Q 28.65625 6.59375 39.40625 6.59375 
Q 50.140625 6.59375 56.421875 14.59375 
Q 62.703125 22.609375 62.703125 36.375 
Q 62.703125 50.203125 56.421875 58.203125 
Q 50.140625 66.21875 39.40625 66.21875 
z
M 39.40625 74.21875 
Q 54.734375 74.21875 63.90625 63.9375 
Q 73.09375 53.65625 73.09375 36.375 
Q 73.09375 19.140625 63.90625 8.859375 
Q 54.734375 -1.421875 39.40625 -1.421875 
Q 24.03125 -1.421875 14.8125 8.828125 
Q 5.609375 19.09375 5.609375 36.375 
Q 5.609375 53.65625 14.8125 63.9375 
Q 24.03125 74.21875 39.40625 74.21875 
z
" id="DejaVuSans-79"/>
      <path d="M 9.8125 72.90625 
L 23.09375 72.90625 
L 55.421875 11.921875 
L 55.421875 72.90625 
L 64.984375 72.90625 
L 64.984375 0 
L 51.703125 0 
L 19.390625 60.984375 
L 19.390625 0 
L 9.8125 0 
z
" id="DejaVuSans-78"/>
      <path id="DejaVuSans-32"/>
      <path d="M 44.28125 53.078125 
L 44.28125 44.578125 
Q 40.484375 46.53125 36.375 47.5 
Q 32.28125 48.484375 27.875 48.484375 
Q 21.1875 48.484375 17.84375 46.4375 
Q 14.5 44.390625 14.5 40.28125 
Q 14.5 37.15625 16.890625 35.375 
Q 19.28125 33.59375 26.515625 31.984375 
L 29.59375 31.296875 
Q 39.15625 29.25 43.1875 25.515625 
Q 47.21875 21.78125 47.21875 15.09375 
Q 47.21875 7.46875 41.1875 3.015625 
Q 35.15625 -1.421875 24.609375 -1.421875 
Q 20.21875 -1.421875 15.453125 -0.5625 
Q 10.6875 0.296875 5.421875 2 
L 5.421875 11.28125 
Q 10.40625 8.6875 15.234375 7.390625 
Q 20.0625 6.109375 24.8125 6.109375 
Q 31.15625 6.109375 34.5625 8.28125 
Q 37.984375 10.453125 37.984375 14.40625 
Q 37.984375 18.0625 35.515625 20.015625 
Q 33.0625 21.96875 24.703125 23.78125 
L 21.578125 24.515625 
Q 13.234375 26.265625 9.515625 29.90625 
Q 5.8125 33.546875 5.8125 39.890625 
Q 5.8125 47.609375 11.28125 51.796875 
Q 16.75 56 26.8125 56 
Q 31.78125 56 36.171875 55.265625 
Q 40.578125 54.546875 44.28125 53.078125 
z
" id="DejaVuSans-115"/>
      <path d="M 9.421875 54.6875 
L 18.40625 54.6875 
L 18.40625 0 
L 9.421875 0 
z
M 9.421875 75.984375 
L 18.40625 75.984375 
L 18.40625 64.59375 
L 9.421875 64.59375 
z
" id="DejaVuSans-105"/>
      <path d="M 5.515625 54.6875 
L 48.1875 54.6875 
L 48.1875 46.484375 
L 14.40625 7.171875 
L 48.1875 7.171875 
L 48.1875 0 
L 4.296875 0 
L 4.296875 8.203125 
L 38.09375 47.515625 
L 5.515625 47.515625 
z
" id="DejaVuSans-122"/>
      <path d="M 56.203125 29.59375 
L 56.203125 25.203125 
L 14.890625 25.203125 
Q 15.484375 15.921875 20.484375 11.0625 
Q 25.484375 6.203125 34.421875 6.203125 
Q 39.59375 6.203125 44.453125 7.46875 
Q 49.3125 8.734375 54.109375 11.28125 
L 54.109375 2.78125 
Q 49.265625 0.734375 44.1875 -0.34375 
Q 39.109375 -1.421875 33.890625 -1.421875 
Q 20.796875 -1.421875 13.15625 6.1875 
Q 5.515625 13.8125 5.515625 26.8125 
Q 5.515625 40.234375 12.765625 48.109375 
Q 20.015625 56 32.328125 56 
Q 43.359375 56 49.78125 48.890625 
Q 56.203125 41.796875 56.203125 29.59375 
z
M 47.21875 32.234375 
Q 47.125 39.59375 43.09375 43.984375 
Q 39.0625 48.390625 32.421875 48.390625 
Q 24.90625 48.390625 20.390625 44.140625 
Q 15.875 39.890625 15.1875 32.171875 
z
" id="DejaVuSans-101"/>
      <path d="M 31 75.875 
Q 24.46875 64.65625 21.28125 53.65625 
Q 18.109375 42.671875 18.109375 31.390625 
Q 18.109375 20.125 21.3125 9.0625 
Q 24.515625 -2 31 -13.1875 
L 23.1875 -13.1875 
Q 15.875 -1.703125 12.234375 9.375 
Q 8.59375 20.453125 8.59375 31.390625 
Q 8.59375 42.28125 12.203125 53.3125 
Q 15.828125 64.359375 23.1875 75.875 
z
" id="DejaVuSans-40"/>
      <path d="M 9.8125 72.90625 
L 24.515625 72.90625 
L 43.109375 23.296875 
L 61.8125 72.90625 
L 76.515625 72.90625 
L 76.515625 0 
L 66.890625 0 
L 66.890625 64.015625 
L 48.09375 14.015625 
L 38.1875 14.015625 
L 19.390625 64.015625 
L 19.390625 0 
L 9.8125 0 
z
" id="DejaVuSans-77"/>
      <path d="M 19.671875 34.8125 
L 19.671875 8.109375 
L 35.5 8.109375 
Q 43.453125 8.109375 47.28125 11.40625 
Q 51.125 14.703125 51.125 21.484375 
Q 51.125 28.328125 47.28125 31.5625 
Q 43.453125 34.8125 35.5 34.8125 
z
M 19.671875 64.796875 
L 19.671875 42.828125 
L 34.28125 42.828125 
Q 41.5 42.828125 45.03125 45.53125 
Q 48.578125 48.25 48.578125 53.8125 
Q 48.578125 59.328125 45.03125 62.0625 
Q 41.5 64.796875 34.28125 64.796875 
z
M 9.8125 72.90625 
L 35.015625 72.90625 
Q 46.296875 72.90625 52.390625 68.21875 
Q 58.5 63.53125 58.5 54.890625 
Q 58.5 48.1875 55.375 44.234375 
Q 52.25 40.28125 46.1875 39.3125 
Q 53.46875 37.75 57.5 32.78125 
Q 61.53125 27.828125 61.53125 20.40625 
Q 61.53125 10.640625 54.890625 5.3125 
Q 48.25 0 35.984375 0 
L 9.8125 0 
z
" id="DejaVuSans-66"/>
      <path d="M 8.015625 75.875 
L 15.828125 75.875 
Q 23.140625 64.359375 26.78125 53.3125 
Q 30.421875 42.28125 30.421875 31.390625 
Q 30.421875 20.453125 26.78125 9.375 
Q 23.140625 -1.703125 15.828125 -13.1875 
L 8.015625 -13.1875 
Q 14.5 -2 17.703125 9.0625 
Q 20.90625 20.125 20.90625 31.390625 
Q 20.90625 42.671875 17.703125 53.65625 
Q 14.5 64.65625 8.015625 75.875 
z
" id="DejaVuSans-41"/>
     </defs>
     <g transform="translate(332.155469 168.712562)scale(0.1 -0.1)">
      <use xlink:href="#DejaVuSans-74"/>
      <use x="29.492188" xlink:href="#DejaVuSans-83"/>
      <use x="92.96875" xlink:href="#DejaVuSans-79"/>
      <use x="171.679688" xlink:href="#DejaVuSans-78"/>
      <use x="246.484375" xlink:href="#DejaVuSans-32"/>
      <use x="278.271484" xlink:href="#DejaVuSans-115"/>
      <use x="330.371094" xlink:href="#DejaVuSans-105"/>
      <use x="358.154297" xlink:href="#DejaVuSans-122"/>
      <use x="410.644531" xlink:href="#DejaVuSans-101"/>
      <use x="472.167969" xlink:href="#DejaVuSans-32"/>
      <use x="503.955078" xlink:href="#DejaVuSans-40"/>
      <use x="542.96875" xlink:href="#DejaVuSans-77"/>
      <use x="629.248047" xlink:href="#DejaVuSans-66"/>
      <use x="697.851562" xlink:href="#DejaVuSans-41"/>
     </g>
    </g>
   </g>
   <g id="matplotlib.axis_2">
    <g id="ytick_1">
     <g id="line2d_31">
      <path clip-path="url(#pdd533a0518)" d="M 90 140.128639 
L 648 140.128639 
" style="fill:none;stroke:#b0b0b0;stroke-linecap:square;stroke-width:0.8;"/>
     </g>
     <g id="line2d_32">
      <defs>
       <path d="M 0 0 
L -3.5 0 
" id="m3d82ac2081" style="stroke:#000000;stroke-width:0.8;"/>
      </defs>
      <g>
       <use style="stroke:#000000;stroke-width:0.8;" x="90" xlink:href="#m3d82ac2081" y="140.128639"/>
      </g>
     </g>
     <g id="text_5">
      <!-- 0.25 -->
      <defs>
       <path d="M 10.6875 12.40625 
L 21 12.40625 
L 21 0 
L 10.6875 0 
z
" id="DejaVuSans-46"/>
       <path d="M 10.796875 72.90625 
L 49.515625 72.90625 
L 49.515625 64.59375 
L 19.828125 64.59375 
L 19.828125 46.734375 
Q 21.96875 47.46875 24.109375 47.828125 
Q 26.265625 48.1875 28.421875 48.1875 
Q 40.625 48.1875 47.75 41.5 
Q 54.890625 34.8125 54.890625 23.390625 
Q 54.890625 11.625 47.5625 5.09375 
Q 40.234375 -1.421875 26.90625 -1.421875 
Q 22.3125 -1.421875 17.546875 -0.640625 
Q 12.796875 0.140625 7.71875 1.703125 
L 7.71875 11.625 
Q 12.109375 9.234375 16.796875 8.0625 
Q 21.484375 6.890625 26.703125 6.890625 
Q 35.15625 6.890625 40.078125 11.328125 
Q 45.015625 15.765625 45.015625 23.390625 
Q 45.015625 31 40.078125 35.4375 
Q 35.15625 39.890625 26.703125 39.890625 
Q 22.75 39.890625 18.8125 39.015625 
Q 14.890625 38.140625 10.796875 36.28125 
z
" id="DejaVuSans-53"/>
      </defs>
      <g transform="translate(60.734375 143.927858)scale(0.1 -0.1)">
       <use xlink:href="#DejaVuSans-48"/>
       <use x="63.623047" xlink:href="#DejaVuSans-46"/>
       <use x="95.410156" xlink:href="#DejaVuSans-50"/>
       <use x="159.033203" xlink:href="#DejaVuSans-53"/>
      </g>
     </g>
    </g>
    <g id="ytick_2">
     <g id="line2d_33">
      <path clip-path="url(#pdd533a0518)" d="M 90 119.004606 
L 648 119.004606 
" style="fill:none;stroke:#b0b0b0;stroke-linecap:square;stroke-width:0.8;"/>
     </g>
     <g id="line2d_34">
      <g>
       <use style="stroke:#000000;stroke-width:0.8;" x="90" xlink:href="#m3d82ac2081" y="119.004606"/>
      </g>
     </g>
     <g id="text_6">
      <!-- 0.50 -->
      <g transform="translate(60.734375 122.803825)scale(0.1 -0.1)">
       <use xlink:href="#DejaVuSans-48"/>
       <use x="63.623047" xlink:href="#DejaVuSans-46"/>
       <use x="95.410156" xlink:href="#DejaVuSans-53"/>
       <use x="159.033203" xlink:href="#DejaVuSans-48"/>
      </g>
     </g>
    </g>
    <g id="ytick_3">
     <g id="line2d_35">
      <path clip-path="url(#pdd533a0518)" d="M 90 97.880573 
L 648 97.880573 
" style="fill:none;stroke:#b0b0b0;stroke-linecap:square;stroke-width:0.8;"/>
     </g>
     <g id="line2d_36">
      <g>
       <use style="stroke:#000000;stroke-width:0.8;" x="90" xlink:href="#m3d82ac2081" y="97.880573"/>
      </g>
     </g>
     <g id="text_7">
      <!-- 0.75 -->
      <defs>
       <path d="M 8.203125 72.90625 
L 55.078125 72.90625 
L 55.078125 68.703125 
L 28.609375 0 
L 18.3125 0 
L 43.21875 64.59375 
L 8.203125 64.59375 
z
" id="DejaVuSans-55"/>
      </defs>
      <g transform="translate(60.734375 101.679792)scale(0.1 -0.1)">
       <use xlink:href="#DejaVuSans-48"/>
       <use x="63.623047" xlink:href="#DejaVuSans-46"/>
       <use x="95.410156" xlink:href="#DejaVuSans-55"/>
       <use x="159.033203" xlink:href="#DejaVuSans-53"/>
      </g>
     </g>
    </g>
    <g id="ytick_4">
     <g id="line2d_37">
      <path clip-path="url(#pdd533a0518)" d="M 90 76.75654 
L 648 76.75654 
" style="fill:none;stroke:#b0b0b0;stroke-linecap:square;stroke-width:0.8;"/>
     </g>
     <g id="line2d_38">
      <g>
       <use style="stroke:#000000;stroke-width:0.8;" x="90" xlink:href="#m3d82ac2081" y="76.75654"/>
      </g>
     </g>
     <g id="text_8">
      <!-- 1.00 -->
      <g transform="translate(60.734375 80.555759)scale(0.1 -0.1)">
       <use xlink:href="#DejaVuSans-49"/>
       <use x="63.623047" xlink:href="#DejaVuSans-46"/>
       <use x="95.410156" xlink:href="#DejaVuSans-48"/>
       <use x="159.033203" xlink:href="#DejaVuSans-48"/>
      </g>
     </g>
    </g>
    <g id="ytick_5">
     <g id="line2d_39">
      <path clip-path="url(#pdd533a0518)" d="M 90 55.632507 
L 648 55.632507 
" style="fill:none;stroke:#b0b0b0;stroke-linecap:square;stroke-width:0.8;"/>
     </g>
     <g id="line2d_40">
      <g>
       <use style="stroke:#000000;stroke-width:0.8;" x="90" xlink:href="#m3d82ac2081" y="55.632507"/>
      </g>
     </g>
     <g id="text_9">
      <!-- 1.25 -->
      <g transform="translate(60.734375 59.431726)scale(0.1 -0.1)">
       <use xlink:href="#DejaVuSans-49"/>
       <use x="63.623047" xlink:href="#DejaVuSans-46"/>
       <use x="95.410156" xlink:href="#DejaVuSans-50"/>
       <use x="159.033203" xlink:href="#DejaVuSans-53"/>
      </g>
     </g>
    </g>
    <g id="text_10">
     <!-- Encode time (ratio) -->
     <defs>
      <path d="M 9.8125 72.90625 
L 55.90625 72.90625 
L 55.90625 64.59375 
L 19.671875 64.59375 
L 19.671875 43.015625 
L 54.390625 43.015625 
L 54.390625 34.71875 
L 19.671875 34.71875 
L 19.671875 8.296875 
L 56.78125 8.296875 
L 56.78125 0 
L 9.8125 0 
z
" id="DejaVuSans-69"/>
      <path d="M 54.890625 33.015625 
L 54.890625 0 
L 45.90625 0 
L 45.90625 32.71875 
Q 45.90625 40.484375 42.875 44.328125 
Q 39.84375 48.1875 33.796875 48.1875 
Q 26.515625 48.1875 22.3125 43.546875 
Q 18.109375 38.921875 18.109375 30.90625 
L 18.109375 0 
L 9.078125 0 
L 9.078125 54.6875 
L 18.109375 54.6875 
L 18.109375 46.1875 
Q 21.34375 51.125 25.703125 53.5625 
Q 30.078125 56 35.796875 56 
Q 45.21875 56 50.046875 50.171875 
Q 54.890625 44.34375 54.890625 33.015625 
z
" id="DejaVuSans-110"/>
      <path d="M 48.78125 52.59375 
L 48.78125 44.1875 
Q 44.96875 46.296875 41.140625 47.34375 
Q 37.3125 48.390625 33.40625 48.390625 
Q 24.65625 48.390625 19.8125 42.84375 
Q 14.984375 37.3125 14.984375 27.296875 
Q 14.984375 17.28125 19.8125 11.734375 
Q 24.65625 6.203125 33.40625 6.203125 
Q 37.3125 6.203125 41.140625 7.25 
Q 44.96875 8.296875 48.78125 10.40625 
L 48.78125 2.09375 
Q 45.015625 0.34375 40.984375 -0.53125 
Q 36.96875 -1.421875 32.421875 -1.421875 
Q 20.0625 -1.421875 12.78125 6.34375 
Q 5.515625 14.109375 5.515625 27.296875 
Q 5.515625 40.671875 12.859375 48.328125 
Q 20.21875 56 33.015625 56 
Q 37.15625 56 41.109375 55.140625 
Q 45.0625 54.296875 48.78125 52.59375 
z
" id="DejaVuSans-99"/>
      <path d="M 30.609375 48.390625 
Q 23.390625 48.390625 19.1875 42.75 
Q 14.984375 37.109375 14.984375 27.296875 
Q 14.984375 17.484375 19.15625 11.84375 
Q 23.34375 6.203125 30.609375 6.203125 
Q 37.796875 6.203125 41.984375 11.859375 
Q 46.1875 17.53125 46.1875 27.296875 
Q 46.1875 37.015625 41.984375 42.703125 
Q 37.796875 48.390625 30.609375 48.390625 
z
M 30.609375 56 
Q 42.328125 56 49.015625 48.375 
Q 55.71875 40.765625 55.71875 27.296875 
Q 55.71875 13.875 49.015625 6.21875 
Q 42.328125 -1.421875 30.609375 -1.421875 
Q 18.84375 -1.421875 12.171875 6.21875 
Q 5.515625 13.875 5.515625 27.296875 
Q 5.515625 40.765625 12.171875 48.375 
Q 18.84375 56 30.609375 56 
z
" id="DejaVuSans-111"/>
      <path d="M 45.40625 46.390625 
L 45.40625 75.984375 
L 54.390625 75.984375 
L 54.390625 0 
L 45.40625 0 
L 45.40625 8.203125 
Q 42.578125 3.328125 38.25 0.953125 
Q 33.9375 -1.421875 27.875 -1.421875 
Q 17.96875 -1.421875 11.734375 6.484375 
Q 5.515625 14.40625 5.515625 27.296875 
Q 5.515625 40.1875 11.734375 48.09375 
Q 17.96875 56 27.875 56 
Q 33.9375 56 38.25 53.625 
Q 42.578125 51.265625 45.40625 46.390625 
z
M 14.796875 27.296875 
Q 14.796875 17.390625 18.875 11.75 
Q 22.953125 6.109375 30.078125 6.109375 
Q 37.203125 6.109375 41.296875 11.75 
Q 45.40625 17.390625 45.40625 27.296875 
Q 45.40625 37.203125 41.296875 42.84375 
Q 37.203125 48.484375 30.078125 48.484375 
Q 22.953125 48.484375 18.875 42.84375 
Q 14.796875 37.203125 14.796875 27.296875 
z
" id="DejaVuSans-100"/>
      <path d="M 18.3125 70.21875 
L 18.3125 54.6875 
L 36.8125 54.6875 
L 36.8125 47.703125 
L 18.3125 47.703125 
L 18.3125 18.015625 
Q 18.3125 11.328125 20.140625 9.421875 
Q 21.96875 7.515625 27.59375 7.515625 
L 36.8125 7.515625 
L 36.8125 0 
L 27.59375 0 
Q 17.1875 0 13.234375 3.875 
Q 9.28125 7.765625 9.28125 18.015625 
L 9.28125 47.703125 
L 2.6875 47.703125 
L 2.6875 54.6875 
L 9.28125 54.6875 
L 9.28125 70.21875 
z
" id="DejaVuSans-116"/>
      <path d="M 52 44.1875 
Q 55.375 50.25 60.0625 53.125 
Q 64.75 56 71.09375 56 
Q 79.640625 56 84.28125 50.015625 
Q 88.921875 44.046875 88.921875 33.015625 
L 88.921875 0 
L 79.890625 0 
L 79.890625 32.71875 
Q 79.890625 40.578125 77.09375 44.375 
Q 74.3125 48.1875 68.609375 48.1875 
Q 61.625 48.1875 57.5625 43.546875 
Q 53.515625 38.921875 53.515625 30.90625 
L 53.515625 0 
L 44.484375 0 
L 44.484375 32.71875 
Q 44.484375 40.625 41.703125 44.40625 
Q 38.921875 48.1875 33.109375 48.1875 
Q 26.21875 48.1875 22.15625 43.53125 
Q 18.109375 38.875 18.109375 30.90625 
L 18.109375 0 
L 9.078125 0 
L 9.078125 54.6875 
L 18.109375 54.6875 
L 18.109375 46.1875 
Q 21.1875 51.21875 25.484375 53.609375 
Q 29.78125 56 35.6875 56 
Q 41.65625 56 45.828125 52.96875 
Q 50 49.953125 52 44.1875 
z
" id="DejaVuSans-109"/>
      <path d="M 41.109375 46.296875 
Q 39.59375 47.171875 37.8125 47.578125 
Q 36.03125 48 33.890625 48 
Q 26.265625 48 22.1875 43.046875 
Q 18.109375 38.09375 18.109375 28.8125 
L 18.109375 0 
L 9.078125 0 
L 9.078125 54.6875 
L 18.109375 54.6875 
L 18.109375 46.1875 
Q 20.953125 51.171875 25.484375 53.578125 
Q 30.03125 56 36.53125 56 
Q 37.453125 56 38.578125 55.875 
Q 39.703125 55.765625 41.0625 55.515625 
z
" id="DejaVuSans-114"/>
      <path d="M 34.28125 27.484375 
Q 23.390625 27.484375 19.1875 25 
Q 14.984375 22.515625 14.984375 16.5 
Q 14.984375 11.71875 18.140625 8.90625 
Q 21.296875 6.109375 26.703125 6.109375 
Q 34.1875 6.109375 38.703125 11.40625 
Q 43.21875 16.703125 43.21875 25.484375 
L 43.21875 27.484375 
z
M 52.203125 31.203125 
L 52.203125 0 
L 43.21875 0 
L 43.21875 8.296875 
Q 40.140625 3.328125 35.546875 0.953125 
Q 30.953125 -1.421875 24.3125 -1.421875 
Q 15.921875 -1.421875 10.953125 3.296875 
Q 6 8.015625 6 15.921875 
Q 6 25.140625 12.171875 29.828125 
Q 18.359375 34.515625 30.609375 34.515625 
L 43.21875 34.515625 
L 43.21875 35.40625 
Q 43.21875 41.609375 39.140625 45 
Q 35.0625 48.390625 27.6875 48.390625 
Q 23 48.390625 18.546875 47.265625 
Q 14.109375 46.140625 10.015625 43.890625 
L 10.015625 52.203125 
Q 14.9375 54.109375 19.578125 55.046875 
Q 24.21875 56 28.609375 56 
Q 40.484375 56 46.34375 49.84375 
Q 52.203125 43.703125 52.203125 31.203125 
z
" id="DejaVuSans-97"/>
     </defs>
     <g transform="translate(54.654687 136.437406)rotate(-90)scale(0.1 -0.1)">
      <use xlink:href="#DejaVuSans-69"/>
      <use x="63.183594" xlink:href="#DejaVuSans-110"/>
      <use x="126.5625" xlink:href="#DejaVuSans-99"/>
      <use x="181.542969" xlink:href="#DejaVuSans-111"/>
      <use x="242.724609" xlink:href="#DejaVuSans-100"/>
      <use x="306.201172" xlink:href="#DejaVuSans-101"/>
      <use x="367.724609" xlink:href="#DejaVuSans-32"/>
      <use x="399.511719" xlink:href="#DejaVuSans-116"/>
      <use x="438.720703" xlink:href="#DejaVuSans-105"/>
      <use x="466.503906" xlink:href="#DejaVuSans-109"/>
      <use x="563.916016" xlink:href="#DejaVuSans-101"/>
      <use x="625.439453" xlink:href="#DejaVuSans-32"/>
      <use x="657.226562" xlink:href="#DejaVuSans-40"/>
      <use x="696.240234" xlink:href="#DejaVuSans-114"/>
      <use x="737.353516" xlink:href="#DejaVuSans-97"/>
      <use x="798.632812" xlink:href="#DejaVuSans-116"/>
      <use x="837.841797" xlink:href="#DejaVuSans-105"/>
      <use x="865.625" xlink:href="#DejaVuSans-111"/>
      <use x="926.806641" xlink:href="#DejaVuSans-41"/>
     </g>
    </g>
   </g>
   <g id="line2d_41">
    <path clip-path="url(#pdd533a0518)" d="M 115.363636 76.75654 
L 125.293172 76.75654 
L 135.224169 76.75654 
L 145.15264 76.75654 
L 155.077552 76.75654 
L 164.998156 76.75654 
L 174.916324 76.75654 
L 184.830331 76.75654 
L 194.741239 76.75654 
L 204.647421 76.75654 
L 214.54926 76.75654 
L 224.446666 76.75654 
L 234.339827 76.75654 
L 244.229245 76.75654 
L 254.114098 76.75654 
L 263.994106 76.75654 
L 273.869057 76.75654 
L 283.739435 76.75654 
L 293.60461 76.75654 
L 303.465292 76.75654 
L 313.32069 76.75654 
L 323.17107 76.75654 
L 333.016436 76.75654 
L 342.856771 76.75654 
L 352.692013 76.75654 
L 362.522702 76.75654 
L 381.088042 76.75654 
L 399.625657 76.75654 
L 418.209883 76.75654 
L 436.794108 76.75654 
L 455.378334 76.75654 
L 473.962559 76.75654 
L 492.546785 76.75654 
L 511.13101 76.75654 
L 529.715236 76.75654 
L 548.299462 76.75654 
L 566.883687 76.75654 
L 585.467913 76.75654 
L 604.052138 76.75654 
L 622.636364 76.75654 
" style="fill:none;stroke:#1f77b4;stroke-linecap:square;stroke-width:1.5;"/>
   </g>
   <g id="line2d_42">
    <path clip-path="url(#pdd533a0518)" d="M 115.363636 98.468604 
L 125.293172 104.918048 
L 135.224169 106.691013 
L 145.15264 84.255752 
L 155.077552 93.868501 
L 164.998156 90.190508 
L 174.916324 98.89156 
L 184.830331 85.532374 
L 194.741239 88.348522 
L 204.647421 97.508324 
L 214.54926 110.845591 
L 224.446666 97.266972 
L 234.339827 93.946741 
L 244.229245 78.234906 
L 254.114098 84.369878 
L 263.994106 97.355444 
L 273.869057 98.32065 
L 283.739435 95.222818 
L 293.60461 92.819376 
L 303.465292 97.088362 
L 313.32069 98.693252 
L 323.17107 92.837886 
L 333.016436 92.495946 
L 342.856771 97.904227 
L 352.692013 96.842113 
L 362.522702 96.061489 
L 381.088042 105.194911 
L 399.625657 99.591729 
L 418.209883 102.385566 
L 436.794108 96.193399 
L 455.378334 100.700171 
L 473.962559 92.430707 
L 492.546785 96.601322 
L 511.13101 96.047208 
L 529.715236 97.182979 
L 548.299462 95.176662 
L 566.883687 94.388268 
L 585.467913 89.167957 
L 604.052138 96.354095 
L 622.636364 93.634641 
" style="fill:none;stroke:#ff7f0e;stroke-linecap:square;stroke-width:1.5;"/>
   </g>
   <g id="line2d_43">
    <path clip-path="url(#pdd533a0518)" d="M 115.363636 59.342085 
L 125.293172 121.770495 
L 135.224169 75.609941 
L 145.15264 123.406667 
L 155.077552 78.022229 
L 164.998156 124.363573 
L 174.916324 112.729839 
L 184.830331 106.93426 
L 194.741239 116.11791 
L 204.647421 114.513543 
L 214.54926 99.865035 
L 224.446666 111.315057 
L 234.339827 100.914023 
L 244.229245 109.245279 
L 254.114098 94.388674 
L 263.994106 83.293311 
L 273.869057 81.219425 
L 283.739435 96.246913 
L 293.60461 109.245967 
L 303.465292 107.385912 
L 313.32069 111.165901 
L 323.17107 109.689467 
L 333.016436 101.752573 
L 342.856771 113.31975 
L 352.692013 114.946322 
L 362.522702 101.369206 
L 381.088042 120.81016 
L 399.625657 108.837539 
L 418.209883 121.767607 
L 436.794108 113.289193 
L 455.378334 116.862899 
L 473.962559 117.787767 
L 492.546785 98.088809 
L 511.13101 108.077973 
L 529.715236 117.7084 
L 548.299462 105.666024 
L 566.883687 105.81924 
L 585.467913 103.209656 
L 604.052138 96.198174 
L 622.636364 109.347079 
" style="fill:none;stroke:#2ca02c;stroke-linecap:square;stroke-width:1.5;"/>
   </g>
   <g id="line2d_44">
    <path clip-path="url(#pdd533a0518)" d="M 115.363636 117.711838 
L 125.293172 72.936776 
L 135.224169 84.485524 
L 145.15264 120.481814 
L 155.077552 119.573135 
L 164.998156 93.828807 
L 174.916324 119.281235 
L 184.830331 117.108545 
L 194.741239 109.910598 
L 204.647421 113.3572 
L 214.54926 99.819164 
L 224.446666 108.414809 
L 234.339827 94.84887 
L 244.229245 110.077779 
L 254.114098 76.416931 
L 263.994106 78.557379 
L 273.869057 103.386411 
L 283.739435 108.159227 
L 293.60461 94.044137 
L 303.465292 103.859237 
L 313.32069 107.67593 
L 323.17107 100.325933 
L 333.016436 97.705955 
L 342.856771 110.230982 
L 352.692013 112.999805 
L 362.522702 111.294985 
L 381.088042 111.424739 
L 399.625657 110.636193 
L 418.209883 112.807222 
L 436.794108 112.139729 
L 455.378334 116.693735 
L 473.962559 113.957417 
L 492.546785 100.414528 
L 511.13101 106.956321 
L 529.715236 115.230708 
L 548.299462 102.568921 
L 566.883687 102.809867 
L 585.467913 103.37588 
L 604.052138 96.888188 
L 622.636364 107.202948 
" style="fill:none;stroke:#d62728;stroke-linecap:square;stroke-width:1.5;"/>
   </g>
   <g id="line2d_45">
    <path clip-path="url(#pdd533a0518)" d="M 115.363636 128.47798 
L 125.293172 130.312587 
L 135.224169 135.682364 
L 145.15264 131.661269 
L 155.077552 75.038995 
L 164.998156 104.80846 
L 174.916324 126.185451 
L 184.830331 124.273302 
L 194.741239 91.175925 
L 204.647421 120.315858 
L 214.54926 132.383138 
L 224.446666 121.608771 
L 234.339827 109.515148 
L 244.229245 122.443045 
L 254.114098 106.629032 
L 263.994106 107.298604 
L 273.869057 117.854116 
L 283.739435 111.041752 
L 293.60461 117.787681 
L 303.465292 112.794883 
L 313.32069 119.228661 
L 323.17107 114.47747 
L 333.016436 117.964818 
L 342.856771 118.555814 
L 352.692013 117.48775 
L 362.522702 89.33641 
L 381.088042 123.731185 
L 399.625657 115.423012 
L 418.209883 121.563058 
L 436.794108 98.871832 
L 455.378334 120.454237 
L 473.962559 118.595897 
L 492.546785 108.512736 
L 511.13101 106.958981 
L 529.715236 118.972496 
L 548.299462 105.150118 
L 566.883687 104.583378 
L 585.467913 105.186631 
L 604.052138 99.355023 
L 622.636364 96.144261 
" style="fill:none;stroke:#9467bd;stroke-linecap:square;stroke-width:1.5;"/>
   </g>
   <g id="line2d_46">
    <path clip-path="url(#pdd533a0518)" d="M 115.363636 86.643815 
L 125.293172 95.432115 
L 135.224169 95.134094 
L 145.15264 87.89393 
L 155.077552 86.15232 
L 164.998156 92.319741 
L 174.916324 87.951174 
L 184.830331 86.743741 
L 194.741239 84.667633 
L 204.647421 40.609636 
L 214.54926 105.570668 
L 224.446666 87.229756 
L 234.339827 62.918445 
L 244.229245 101.947686 
L 254.114098 87.112434 
L 263.994106 84.667952 
L 273.869057 90.866592 
L 283.739435 87.175994 
L 293.60461 88.65108 
L 303.465292 89.951079 
L 313.32069 88.434703 
L 323.17107 87.012138 
L 333.016436 84.062634 
L 342.856771 89.939303 
L 352.692013 89.162796 
L 362.522702 88.987832 
L 381.088042 88.339363 
L 399.625657 88.14328 
L 418.209883 95.393552 
L 436.794108 92.037273 
L 455.378334 88.14398 
L 473.962559 89.41629 
L 492.546785 89.800832 
L 511.13101 89.126617 
L 529.715236 88.906086 
L 548.299462 86.335009 
L 566.883687 89.979293 
L 585.467913 83.536379 
L 604.052138 88.88343 
L 622.636364 87.461354 
" style="fill:none;stroke:#8c564b;stroke-linecap:square;stroke-width:1.5;"/>
   </g>
   <g id="patch_3">
    <path d="M 90 140.436 
L 90 35.856 
" style="fill:none;stroke:#000000;stroke-linecap:square;stroke-linejoin:miter;stroke-width:0.8;"/>
   </g>
   <g id="patch_4">
    <path d="M 648 140.436 
L 648 35.856 
" style="fill:none;stroke:#000000;stroke-linecap:square;stroke-linejoin:miter;stroke-width:0.8;"/>
   </g>
   <g id="patch_5">
    <path d="M 90 140.436 
L 648 140.436 
" style="fill:none;stroke:#000000;stroke-linecap:square;stroke-linejoin:miter;stroke-width:0.8;"/>
   </g>
   <g id="patch_6">
    <path d="M 90 35.856 
L 648 35.856 
" style="fill:none;stroke:#000000;stroke-linecap:square;stroke-linejoin:miter;stroke-width:0.8;"/>
   </g>
   <g id="legend_1">
    <g id="patch_7">
     <path d="M 161.690625 33.47185 
L 576.309375 33.47185 
Q 578.309375 33.47185 578.309375 31.47185 
L 578.309375 3.1156 
Q 578.309375 1.1156 576.309375 1.1156 
L 161.690625 1.1156 
Q 159.690625 1.1156 159.690625 3.1156 
L 159.690625 31.47185 
Q 159.690625 33.47185 161.690625 33.47185 
z
" style="fill:#ffffff;opacity:0.8;stroke:#cccccc;stroke-linejoin:miter;"/>
    </g>
    <g id="line2d_47">
     <path d="M 163.690625 9.214038 
L 183.690625 9.214038 
" style="fill:none;stroke:#1f77b4;stroke-linecap:square;stroke-width:1.5;"/>
    </g>
    <g id="line2d_48"/>
    <g id="text_11">
     <!-- JSON -->
     <g transform="translate(191.690625 12.714038)scale(0.1 -0.1)">
      <use xlink:href="#DejaVuSans-74"/>
      <use x="29.492188" xlink:href="#DejaVuSans-83"/>
      <use x="92.96875" xlink:href="#DejaVuSans-79"/>
      <use x="171.679688" xlink:href="#DejaVuSans-78"/>
     </g>
    </g>
    <g id="line2d_49">
     <path d="M 163.690625 23.892163 
L 183.690625 23.892163 
" style="fill:none;stroke:#ff7f0e;stroke-linecap:square;stroke-width:1.5;"/>
    </g>
    <g id="line2d_50"/>
    <g id="text_12">
     <!-- JSON (unmapped) -->
     <defs>
      <path d="M 8.5 21.578125 
L 8.5 54.6875 
L 17.484375 54.6875 
L 17.484375 21.921875 
Q 17.484375 14.15625 20.5 10.265625 
Q 23.53125 6.390625 29.59375 6.390625 
Q 36.859375 6.390625 41.078125 11.03125 
Q 45.3125 15.671875 45.3125 23.6875 
L 45.3125 54.6875 
L 54.296875 54.6875 
L 54.296875 0 
L 45.3125 0 
L 45.3125 8.40625 
Q 42.046875 3.421875 37.71875 1 
Q 33.40625 -1.421875 27.6875 -1.421875 
Q 18.265625 -1.421875 13.375 4.4375 
Q 8.5 10.296875 8.5 21.578125 
z
M 31.109375 56 
z
" id="DejaVuSans-117"/>
      <path d="M 18.109375 8.203125 
L 18.109375 -20.796875 
L 9.078125 -20.796875 
L 9.078125 54.6875 
L 18.109375 54.6875 
L 18.109375 46.390625 
Q 20.953125 51.265625 25.265625 53.625 
Q 29.59375 56 35.59375 56 
Q 45.5625 56 51.78125 48.09375 
Q 58.015625 40.1875 58.015625 27.296875 
Q 58.015625 14.40625 51.78125 6.484375 
Q 45.5625 -1.421875 35.59375 -1.421875 
Q 29.59375 -1.421875 25.265625 0.953125 
Q 20.953125 3.328125 18.109375 8.203125 
z
M 48.6875 27.296875 
Q 48.6875 37.203125 44.609375 42.84375 
Q 40.53125 48.484375 33.40625 48.484375 
Q 26.265625 48.484375 22.1875 42.84375 
Q 18.109375 37.203125 18.109375 27.296875 
Q 18.109375 17.390625 22.1875 11.75 
Q 26.265625 6.109375 33.40625 6.109375 
Q 40.53125 6.109375 44.609375 11.75 
Q 48.6875 17.390625 48.6875 27.296875 
z
" id="DejaVuSans-112"/>
     </defs>
     <g transform="translate(191.690625 27.392163)scale(0.1 -0.1)">
      <use xlink:href="#DejaVuSans-74"/>
      <use x="29.492188" xlink:href="#DejaVuSans-83"/>
      <use x="92.96875" xlink:href="#DejaVuSans-79"/>
      <use x="171.679688" xlink:href="#DejaVuSans-78"/>
      <use x="246.484375" xlink:href="#DejaVuSans-32"/>
      <use x="278.271484" xlink:href="#DejaVuSans-40"/>
      <use x="317.285156" xlink:href="#DejaVuSans-117"/>
      <use x="380.664062" xlink:href="#DejaVuSans-110"/>
      <use x="444.042969" xlink:href="#DejaVuSans-109"/>
      <use x="541.455078" xlink:href="#DejaVuSans-97"/>
      <use x="602.734375" xlink:href="#DejaVuSans-112"/>
      <use x="666.210938" xlink:href="#DejaVuSans-112"/>
      <use x="729.6875" xlink:href="#DejaVuSans-101"/>
      <use x="791.210938" xlink:href="#DejaVuSans-100"/>
      <use x="854.6875" xlink:href="#DejaVuSans-41"/>
     </g>
    </g>
    <g id="line2d_51">
     <path d="M 301.065625 9.214038 
L 321.065625 9.214038 
" style="fill:none;stroke:#2ca02c;stroke-linecap:square;stroke-width:1.5;"/>
    </g>
    <g id="line2d_52"/>
    <g id="text_13">
     <!-- JSBIN -->
     <defs>
      <path d="M 9.8125 72.90625 
L 19.671875 72.90625 
L 19.671875 0 
L 9.8125 0 
z
" id="DejaVuSans-73"/>
     </defs>
     <g transform="translate(329.065625 12.714038)scale(0.1 -0.1)">
      <use xlink:href="#DejaVuSans-74"/>
      <use x="29.492188" xlink:href="#DejaVuSans-83"/>
      <use x="92.96875" xlink:href="#DejaVuSans-66"/>
      <use x="161.572266" xlink:href="#DejaVuSans-73"/>
      <use x="191.064453" xlink:href="#DejaVuSans-78"/>
     </g>
    </g>
    <g id="line2d_53">
     <path d="M 301.065625 23.892163 
L 321.065625 23.892163 
" style="fill:none;stroke:#d62728;stroke-linecap:square;stroke-width:1.5;"/>
    </g>
    <g id="line2d_54"/>
    <g id="text_14">
     <!-- JSBIN (optional) -->
     <defs>
      <path d="M 9.421875 75.984375 
L 18.40625 75.984375 
L 18.40625 0 
L 9.421875 0 
z
" id="DejaVuSans-108"/>
     </defs>
     <g transform="translate(329.065625 27.392163)scale(0.1 -0.1)">
      <use xlink:href="#DejaVuSans-74"/>
      <use x="29.492188" xlink:href="#DejaVuSans-83"/>
      <use x="92.96875" xlink:href="#DejaVuSans-66"/>
      <use x="161.572266" xlink:href="#DejaVuSans-73"/>
      <use x="191.064453" xlink:href="#DejaVuSans-78"/>
      <use x="265.869141" xlink:href="#DejaVuSans-32"/>
      <use x="297.65625" xlink:href="#DejaVuSans-40"/>
      <use x="336.669922" xlink:href="#DejaVuSans-111"/>
      <use x="397.851562" xlink:href="#DejaVuSans-112"/>
      <use x="461.328125" xlink:href="#DejaVuSans-116"/>
      <use x="500.537109" xlink:href="#DejaVuSans-105"/>
      <use x="528.320312" xlink:href="#DejaVuSans-111"/>
      <use x="589.501953" xlink:href="#DejaVuSans-110"/>
      <use x="652.880859" xlink:href="#DejaVuSans-97"/>
      <use x="714.160156" xlink:href="#DejaVuSans-108"/>
      <use x="741.943359" xlink:href="#DejaVuSans-41"/>
     </g>
    </g>
    <g id="line2d_55">
     <path d="M 427.165625 9.214038 
L 447.165625 9.214038 
" style="fill:none;stroke:#9467bd;stroke-linecap:square;stroke-width:1.5;"/>
    </g>
    <g id="line2d_56"/>
    <g id="text_15">
     <!-- JSBIN (unmapped) -->
     <g transform="translate(455.165625 12.714038)scale(0.1 -0.1)">
      <use xlink:href="#DejaVuSans-74"/>
      <use x="29.492188" xlink:href="#DejaVuSans-83"/>
      <use x="92.96875" xlink:href="#DejaVuSans-66"/>
      <use x="161.572266" xlink:href="#DejaVuSans-73"/>
      <use x="191.064453" xlink:href="#DejaVuSans-78"/>
      <use x="265.869141" xlink:href="#DejaVuSans-32"/>
      <use x="297.65625" xlink:href="#DejaVuSans-40"/>
      <use x="336.669922" xlink:href="#DejaVuSans-117"/>
      <use x="400.048828" xlink:href="#DejaVuSans-110"/>
      <use x="463.427734" xlink:href="#DejaVuSans-109"/>
      <use x="560.839844" xlink:href="#DejaVuSans-97"/>
      <use x="622.119141" xlink:href="#DejaVuSans-112"/>
      <use x="685.595703" xlink:href="#DejaVuSans-112"/>
      <use x="749.072266" xlink:href="#DejaVuSans-101"/>
      <use x="810.595703" xlink:href="#DejaVuSans-100"/>
      <use x="874.072266" xlink:href="#DejaVuSans-41"/>
     </g>
    </g>
    <g id="line2d_57">
     <path d="M 427.165625 23.892163 
L 447.165625 23.892163 
" style="fill:none;stroke:#8c564b;stroke-linecap:square;stroke-width:1.5;"/>
    </g>
    <g id="line2d_58"/>
    <g id="text_16">
     <!-- JSBIN JSON (unmapped) -->
     <g transform="translate(455.165625 27.392163)scale(0.1 -0.1)">
      <use xlink:href="#DejaVuSans-74"/>
      <use x="29.492188" xlink:href="#DejaVuSans-83"/>
      <use x="92.96875" xlink:href="#DejaVuSans-66"/>
      <use x="161.572266" xlink:href="#DejaVuSans-73"/>
      <use x="191.064453" xlink:href="#DejaVuSans-78"/>
      <use x="265.869141" xlink:href="#DejaVuSans-32"/>
      <use x="297.65625" xlink:href="#DejaVuSans-74"/>
      <use x="327.148438" xlink:href="#DejaVuSans-83"/>
      <use x="390.625" xlink:href="#DejaVuSans-79"/>
      <use x="469.335938" xlink:href="#DejaVuSans-78"/>
      <use x="544.140625" xlink:href="#DejaVuSans-32"/>
      <use x="575.927734" xlink:href="#DejaVuSans-40"/>
      <use x="614.941406" xlink:href="#DejaVuSans-117"/>
      <use x="678.320312" xlink:href="#DejaVuSans-110"/>
      <use x="741.699219" xlink:href="#DejaVuSans-109"/>
      <use x="839.111328" xlink:href="#DejaVuSans-97"/>
      <use x="900.390625" xlink:href="#DejaVuSans-112"/>
      <use x="963.867188" xlink:href="#DejaVuSans-112"/>
      <use x="1027.34375" xlink:href="#DejaVuSans-101"/>
      <use x="1088.867188" xlink:href="#DejaVuSans-100"/>
      <use x="1152.34375" xlink:href="#DejaVuSans-41"/>
     </g>
    </g>
   </g>
  </g>
  <g id="axes_2">
   <g id="patch_8">
    <path d="M 90 265.932 
L 648 265.932 
L 648 161.352 
L 90 161.352 
z
" style="fill:#ffffff;"/>
   </g>
   <g id="matplotlib.axis_3">
    <g id="xtick_28">
     <g id="line2d_59">
      <path clip-path="url(#pe50552b9cc)" d="M 166.951075 265.932 
L 166.951075 161.352 
" style="fill:none;stroke:#b0b0b0;stroke-linecap:square;stroke-width:0.8;"/>
     </g>
     <g id="line2d_60">
      <g>
       <use style="stroke:#000000;stroke-width:0.8;" x="166.951075" xlink:href="#m41b2fd942a" y="265.932"/>
      </g>
     </g>
     <g id="text_17">
      <!-- $\mathdefault{10^{0}}$ -->
      <g transform="translate(158.151075 280.530438)scale(0.1 -0.1)">
       <use transform="translate(0 0.765625)" xlink:href="#DejaVuSans-49"/>
       <use transform="translate(63.623047 0.765625)" xlink:href="#DejaVuSans-48"/>
       <use transform="translate(128.203125 39.046875)scale(0.7)" xlink:href="#DejaVuSans-48"/>
      </g>
     </g>
    </g>
    <g id="xtick_29">
     <g id="line2d_61">
      <path clip-path="url(#pe50552b9cc)" d="M 358.718932 265.932 
L 358.718932 161.352 
" style="fill:none;stroke:#b0b0b0;stroke-linecap:square;stroke-width:0.8;"/>
     </g>
     <g id="line2d_62">
      <g>
       <use style="stroke:#000000;stroke-width:0.8;" x="358.718932" xlink:href="#m41b2fd942a" y="265.932"/>
      </g>
     </g>
     <g id="text_18">
      <!-- $\mathdefault{10^{1}}$ -->
      <g transform="translate(349.918932 280.530438)scale(0.1 -0.1)">
       <use transform="translate(0 0.684375)" xlink:href="#DejaVuSans-49"/>
       <use transform="translate(63.623047 0.684375)" xlink:href="#DejaVuSans-48"/>
       <use transform="translate(128.203125 38.965625)scale(0.7)" xlink:href="#DejaVuSans-49"/>
      </g>
     </g>
    </g>
    <g id="xtick_30">
     <g id="line2d_63">
      <path clip-path="url(#pe50552b9cc)" d="M 550.486789 265.932 
L 550.486789 161.352 
" style="fill:none;stroke:#b0b0b0;stroke-linecap:square;stroke-width:0.8;"/>
     </g>
     <g id="line2d_64">
      <g>
       <use style="stroke:#000000;stroke-width:0.8;" x="550.486789" xlink:href="#m41b2fd942a" y="265.932"/>
      </g>
     </g>
     <g id="text_19">
      <!-- $\mathdefault{10^{2}}$ -->
      <g transform="translate(541.686789 280.530438)scale(0.1 -0.1)">
       <use transform="translate(0 0.765625)" xlink:href="#DejaVuSans-49"/>
       <use transform="translate(63.623047 0.765625)" xlink:href="#DejaVuSans-48"/>
       <use transform="translate(128.203125 39.046875)scale(0.7)" xlink:href="#DejaVuSans-50"/>
      </g>
     </g>
    </g>
    <g id="xtick_31">
     <g id="line2d_65">
      <g>
       <use style="stroke:#000000;stroke-width:0.6;" x="90.638972" xlink:href="#mc8185de8d6" y="265.932"/>
      </g>
     </g>
    </g>
    <g id="xtick_32">
     <g id="line2d_66">
      <g>
       <use style="stroke:#000000;stroke-width:0.6;" x="109.223198" xlink:href="#mc8185de8d6" y="265.932"/>
      </g>
     </g>
    </g>
    <g id="xtick_33">
     <g id="line2d_67">
      <g>
       <use style="stroke:#000000;stroke-width:0.6;" x="124.407616" xlink:href="#mc8185de8d6" y="265.932"/>
      </g>
     </g>
    </g>
    <g id="xtick_34">
     <g id="line2d_68">
      <g>
       <use style="stroke:#000000;stroke-width:0.6;" x="137.245858" xlink:href="#mc8185de8d6" y="265.932"/>
      </g>
     </g>
    </g>
    <g id="xtick_35">
     <g id="line2d_69">
      <g>
       <use style="stroke:#000000;stroke-width:0.6;" x="148.36685" xlink:href="#mc8185de8d6" y="265.932"/>
      </g>
     </g>
    </g>
    <g id="xtick_36">
     <g id="line2d_70">
      <g>
       <use style="stroke:#000000;stroke-width:0.6;" x="158.176259" xlink:href="#mc8185de8d6" y="265.932"/>
      </g>
     </g>
    </g>
    <g id="xtick_37">
     <g id="line2d_71">
      <g>
       <use style="stroke:#000000;stroke-width:0.6;" x="224.678952" xlink:href="#mc8185de8d6" y="265.932"/>
      </g>
     </g>
    </g>
    <g id="xtick_38">
     <g id="line2d_72">
      <g>
       <use style="stroke:#000000;stroke-width:0.6;" x="258.447596" xlink:href="#mc8185de8d6" y="265.932"/>
      </g>
     </g>
    </g>
    <g id="xtick_39">
     <g id="line2d_73">
      <g>
       <use style="stroke:#000000;stroke-width:0.6;" x="282.406829" xlink:href="#mc8185de8d6" y="265.932"/>
      </g>
     </g>
    </g>
    <g id="xtick_40">
     <g id="line2d_74">
      <g>
       <use style="stroke:#000000;stroke-width:0.6;" x="300.991055" xlink:href="#mc8185de8d6" y="265.932"/>
      </g>
     </g>
    </g>
    <g id="xtick_41">
     <g id="line2d_75">
      <g>
       <use style="stroke:#000000;stroke-width:0.6;" x="316.175473" xlink:href="#mc8185de8d6" y="265.932"/>
      </g>
     </g>
    </g>
    <g id="xtick_42">
     <g id="line2d_76">
      <g>
       <use style="stroke:#000000;stroke-width:0.6;" x="329.013715" xlink:href="#mc8185de8d6" y="265.932"/>
      </g>
     </g>
    </g>
    <g id="xtick_43">
     <g id="line2d_77">
      <g>
       <use style="stroke:#000000;stroke-width:0.6;" x="340.134707" xlink:href="#mc8185de8d6" y="265.932"/>
      </g>
     </g>
    </g>
    <g id="xtick_44">
     <g id="line2d_78">
      <g>
       <use style="stroke:#000000;stroke-width:0.6;" x="349.944116" xlink:href="#mc8185de8d6" y="265.932"/>
      </g>
     </g>
    </g>
    <g id="xtick_45">
     <g id="line2d_79">
      <g>
       <use style="stroke:#000000;stroke-width:0.6;" x="416.446809" xlink:href="#mc8185de8d6" y="265.932"/>
      </g>
     </g>
    </g>
    <g id="xtick_46">
     <g id="line2d_80">
      <g>
       <use style="stroke:#000000;stroke-width:0.6;" x="450.215453" xlink:href="#mc8185de8d6" y="265.932"/>
      </g>
     </g>
    </g>
    <g id="xtick_47">
     <g id="line2d_81">
      <g>
       <use style="stroke:#000000;stroke-width:0.6;" x="474.174687" xlink:href="#mc8185de8d6" y="265.932"/>
      </g>
     </g>
    </g>
    <g id="xtick_48">
     <g id="line2d_82">
      <g>
       <use style="stroke:#000000;stroke-width:0.6;" x="492.758912" xlink:href="#mc8185de8d6" y="265.932"/>
      </g>
     </g>
    </g>
    <g id="xtick_49">
     <g id="line2d_83">
      <g>
       <use style="stroke:#000000;stroke-width:0.6;" x="507.94333" xlink:href="#mc8185de8d6" y="265.932"/>
      </g>
     </g>
    </g>
    <g id="xtick_50">
     <g id="line2d_84">
      <g>
       <use style="stroke:#000000;stroke-width:0.6;" x="520.781572" xlink:href="#mc8185de8d6" y="265.932"/>
      </g>
     </g>
    </g>
    <g id="xtick_51">
     <g id="line2d_85">
      <g>
       <use style="stroke:#000000;stroke-width:0.6;" x="531.902564" xlink:href="#mc8185de8d6" y="265.932"/>
      </g>
     </g>
    </g>
    <g id="xtick_52">
     <g id="line2d_86">
      <g>
       <use style="stroke:#000000;stroke-width:0.6;" x="541.711973" xlink:href="#mc8185de8d6" y="265.932"/>
      </g>
     </g>
    </g>
    <g id="xtick_53">
     <g id="line2d_87">
      <g>
       <use style="stroke:#000000;stroke-width:0.6;" x="608.214667" xlink:href="#mc8185de8d6" y="265.932"/>
      </g>
     </g>
    </g>
    <g id="xtick_54">
     <g id="line2d_88">
      <g>
       <use style="stroke:#000000;stroke-width:0.6;" x="641.98331" xlink:href="#mc8185de8d6" y="265.932"/>
      </g>
     </g>
    </g>
    <g id="text_20">
     <!-- JSON size (MB) -->
     <g transform="translate(332.155469 294.208563)scale(0.1 -0.1)">
      <use xlink:href="#DejaVuSans-74"/>
      <use x="29.492188" xlink:href="#DejaVuSans-83"/>
      <use x="92.96875" xlink:href="#DejaVuSans-79"/>
      <use x="171.679688" xlink:href="#DejaVuSans-78"/>
      <use x="246.484375" xlink:href="#DejaVuSans-32"/>
      <use x="278.271484" xlink:href="#DejaVuSans-115"/>
      <use x="330.371094" xlink:href="#DejaVuSans-105"/>
      <use x="358.154297" xlink:href="#DejaVuSans-122"/>
      <use x="410.644531" xlink:href="#DejaVuSans-101"/>
      <use x="472.167969" xlink:href="#DejaVuSans-32"/>
      <use x="503.955078" xlink:href="#DejaVuSans-40"/>
      <use x="542.96875" xlink:href="#DejaVuSans-77"/>
      <use x="629.248047" xlink:href="#DejaVuSans-66"/>
      <use x="697.851562" xlink:href="#DejaVuSans-41"/>
     </g>
    </g>
   </g>
   <g id="matplotlib.axis_4">
    <g id="ytick_6">
     <g id="line2d_89">
      <path clip-path="url(#pe50552b9cc)" d="M 90 264.566128 
L 648 264.566128 
" style="fill:none;stroke:#b0b0b0;stroke-linecap:square;stroke-width:0.8;"/>
     </g>
     <g id="line2d_90">
      <g>
       <use style="stroke:#000000;stroke-width:0.8;" x="90" xlink:href="#m3d82ac2081" y="264.566128"/>
      </g>
     </g>
     <g id="text_21">
      <!-- 0.00 -->
      <g transform="translate(60.734375 268.365346)scale(0.1 -0.1)">
       <use xlink:href="#DejaVuSans-48"/>
       <use x="63.623047" xlink:href="#DejaVuSans-46"/>
       <use x="95.410156" xlink:href="#DejaVuSans-48"/>
       <use x="159.033203" xlink:href="#DejaVuSans-48"/>
      </g>
     </g>
    </g>
    <g id="ytick_7">
     <g id="line2d_91">
      <path clip-path="url(#pe50552b9cc)" d="M 90 242.571588 
L 648 242.571588 
" style="fill:none;stroke:#b0b0b0;stroke-linecap:square;stroke-width:0.8;"/>
     </g>
     <g id="line2d_92">
      <g>
       <use style="stroke:#000000;stroke-width:0.8;" x="90" xlink:href="#m3d82ac2081" y="242.571588"/>
      </g>
     </g>
     <g id="text_22">
      <!-- 0.25 -->
      <g transform="translate(60.734375 246.370807)scale(0.1 -0.1)">
       <use xlink:href="#DejaVuSans-48"/>
       <use x="63.623047" xlink:href="#DejaVuSans-46"/>
       <use x="95.410156" xlink:href="#DejaVuSans-50"/>
       <use x="159.033203" xlink:href="#DejaVuSans-53"/>
      </g>
     </g>
    </g>
    <g id="ytick_8">
     <g id="line2d_93">
      <path clip-path="url(#pe50552b9cc)" d="M 90 220.577049 
L 648 220.577049 
" style="fill:none;stroke:#b0b0b0;stroke-linecap:square;stroke-width:0.8;"/>
     </g>
     <g id="line2d_94">
      <g>
       <use style="stroke:#000000;stroke-width:0.8;" x="90" xlink:href="#m3d82ac2081" y="220.577049"/>
      </g>
     </g>
     <g id="text_23">
      <!-- 0.50 -->
      <g transform="translate(60.734375 224.376268)scale(0.1 -0.1)">
       <use xlink:href="#DejaVuSans-48"/>
       <use x="63.623047" xlink:href="#DejaVuSans-46"/>
       <use x="95.410156" xlink:href="#DejaVuSans-53"/>
       <use x="159.033203" xlink:href="#DejaVuSans-48"/>
      </g>
     </g>
    </g>
    <g id="ytick_9">
     <g id="line2d_95">
      <path clip-path="url(#pe50552b9cc)" d="M 90 198.58251 
L 648 198.58251 
" style="fill:none;stroke:#b0b0b0;stroke-linecap:square;stroke-width:0.8;"/>
     </g>
     <g id="line2d_96">
      <g>
       <use style="stroke:#000000;stroke-width:0.8;" x="90" xlink:href="#m3d82ac2081" y="198.58251"/>
      </g>
     </g>
     <g id="text_24">
      <!-- 0.75 -->
      <g transform="translate(60.734375 202.381729)scale(0.1 -0.1)">
       <use xlink:href="#DejaVuSans-48"/>
       <use x="63.623047" xlink:href="#DejaVuSans-46"/>
       <use x="95.410156" xlink:href="#DejaVuSans-55"/>
       <use x="159.033203" xlink:href="#DejaVuSans-53"/>
      </g>
     </g>
    </g>
    <g id="ytick_10">
     <g id="line2d_97">
      <path clip-path="url(#pe50552b9cc)" d="M 90 176.587971 
L 648 176.587971 
" style="fill:none;stroke:#b0b0b0;stroke-linecap:square;stroke-width:0.8;"/>
     </g>
     <g id="line2d_98">
      <g>
       <use style="stroke:#000000;stroke-width:0.8;" x="90" xlink:href="#m3d82ac2081" y="176.587971"/>
      </g>
     </g>
     <g id="text_25">
      <!-- 1.00 -->
      <g transform="translate(60.734375 180.387189)scale(0.1 -0.1)">
       <use xlink:href="#DejaVuSans-49"/>
       <use x="63.623047" xlink:href="#DejaVuSans-46"/>
       <use x="95.410156" xlink:href="#DejaVuSans-48"/>
       <use x="159.033203" xlink:href="#DejaVuSans-48"/>
      </g>
     </g>
    </g>
    <g id="text_26">
     <!-- Decode time (ratio) -->
     <defs>
      <path d="M 19.671875 64.796875 
L 19.671875 8.109375 
L 31.59375 8.109375 
Q 46.6875 8.109375 53.6875 14.9375 
Q 60.6875 21.78125 60.6875 36.53125 
Q 60.6875 51.171875 53.6875 57.984375 
Q 46.6875 64.796875 31.59375 64.796875 
z
M 9.8125 72.90625 
L 30.078125 72.90625 
Q 51.265625 72.90625 61.171875 64.09375 
Q 71.09375 55.28125 71.09375 36.53125 
Q 71.09375 17.671875 61.125 8.828125 
Q 51.171875 0 30.078125 0 
L 9.8125 0 
z
" id="DejaVuSans-68"/>
     </defs>
     <g transform="translate(54.654687 262.531844)rotate(-90)scale(0.1 -0.1)">
      <use xlink:href="#DejaVuSans-68"/>
      <use x="77.001953" xlink:href="#DejaVuSans-101"/>
      <use x="138.525391" xlink:href="#DejaVuSans-99"/>
      <use x="193.505859" xlink:href="#DejaVuSans-111"/>
      <use x="254.6875" xlink:href="#DejaVuSans-100"/>
      <use x="318.164062" xlink:href="#DejaVuSans-101"/>
      <use x="379.6875" xlink:href="#DejaVuSans-32"/>
      <use x="411.474609" xlink:href="#DejaVuSans-116"/>
      <use x="450.683594" xlink:href="#DejaVuSans-105"/>
      <use x="478.466797" xlink:href="#DejaVuSans-109"/>
      <use x="575.878906" xlink:href="#DejaVuSans-101"/>
      <use x="637.402344" xlink:href="#DejaVuSans-32"/>
      <use x="669.189453" xlink:href="#DejaVuSans-40"/>
      <use x="708.203125" xlink:href="#DejaVuSans-114"/>
      <use x="749.316406" xlink:href="#DejaVuSans-97"/>
      <use x="810.595703" xlink:href="#DejaVuSans-116"/>
      <use x="849.804688" xlink:href="#DejaVuSans-105"/>
      <use x="877.587891" xlink:href="#DejaVuSans-111"/>
      <use x="938.769531" xlink:href="#DejaVuSans-41"/>
     </g>
    </g>
   </g>
   <g id="line2d_99">
    <path clip-path="url(#pe50552b9cc)" d="M 115.363636 176.587971 
L 125.293172 176.587971 
L 135.224169 176.587971 
L 145.15264 176.587971 
L 155.077552 176.587971 
L 164.998156 176.587971 
L 174.916324 176.587971 
L 184.830331 176.587971 
L 194.741239 176.587971 
L 204.647421 176.587971 
L 214.54926 176.587971 
L 224.446666 176.587971 
L 234.339827 176.587971 
L 244.229245 176.587971 
L 254.114098 176.587971 
L 263.994106 176.587971 
L 273.869057 176.587971 
L 283.739435 176.587971 
L 293.60461 176.587971 
L 303.465292 176.587971 
L 313.32069 176.587971 
L 323.17107 176.587971 
L 333.016436 176.587971 
L 342.856771 176.587971 
L 352.692013 176.587971 
L 362.522702 176.587971 
L 381.088042 176.587971 
L 399.625657 176.587971 
L 418.209883 176.587971 
L 436.794108 176.587971 
L 455.378334 176.587971 
L 473.962559 176.587971 
L 492.546785 176.587971 
L 511.13101 176.587971 
L 529.715236 176.587971 
L 548.299462 176.587971 
L 566.883687 176.587971 
L 585.467913 176.587971 
L 604.052138 176.587971 
L 622.636364 176.587971 
" style="fill:none;stroke:#1f77b4;stroke-linecap:square;stroke-width:1.5;"/>
   </g>
   <g id="line2d_100">
    <path clip-path="url(#pe50552b9cc)" d="M 115.363636 195.582365 
L 125.293172 188.453122 
L 135.224169 227.242725 
L 145.15264 196.428857 
L 155.077552 201.033613 
L 164.998156 202.621446 
L 174.916324 191.165972 
L 184.830331 199.156541 
L 194.741239 217.154897 
L 204.647421 169.855912 
L 214.54926 169.72025 
L 224.446666 189.257051 
L 234.339827 194.763248 
L 244.229245 190.633576 
L 254.114098 199.887843 
L 263.994106 192.063703 
L 273.869057 199.629305 
L 283.739435 188.599545 
L 293.60461 195.739028 
L 303.465292 192.189403 
L 313.32069 199.411163 
L 323.17107 196.863142 
L 333.016436 192.546873 
L 342.856771 196.160722 
L 352.692013 185.662639 
L 362.522702 195.087418 
L 381.088042 212.821979 
L 399.625657 199.114767 
L 418.209883 196.604334 
L 436.794108 195.387026 
L 455.378334 203.371675 
L 473.962559 192.847388 
L 492.546785 194.412257 
L 511.13101 203.529249 
L 529.715236 192.804098 
L 548.299462 207.982808 
L 566.883687 192.613956 
L 585.467913 191.677638 
L 604.052138 207.286497 
L 622.636364 191.393843 
" style="fill:none;stroke:#ff7f0e;stroke-linecap:square;stroke-width:1.5;"/>
   </g>
   <g id="line2d_101">
    <path clip-path="url(#pe50552b9cc)" d="M 115.363636 258.28887 
L 125.293172 258.52497 
L 135.224169 261.178364 
L 145.15264 258.800829 
L 155.077552 219.622794 
L 164.998156 190.475144 
L 174.916324 256.995846 
L 184.830331 257.462389 
L 194.741239 259.842032 
L 204.647421 220.467878 
L 214.54926 257.759465 
L 224.446666 245.212908 
L 234.339827 241.437724 
L 244.229245 235.817179 
L 254.114098 242.300626 
L 263.994106 259.553041 
L 273.869057 251.968867 
L 283.739435 259.56527 
L 293.60461 257.899194 
L 303.465292 249.953674 
L 313.32069 258.858466 
L 323.17107 254.357724 
L 333.016436 240.475432 
L 342.856771 258.675208 
L 352.692013 249.095127 
L 362.522702 236.599755 
L 381.088042 249.21814 
L 399.625657 241.115034 
L 418.209883 236.417894 
L 436.794108 212.36782 
L 455.378334 242.219201 
L 473.962559 238.424975 
L 492.546785 234.100226 
L 511.13101 233.579302 
L 529.715236 220.854529 
L 548.299462 222.611393 
L 566.883687 202.499963 
L 585.467913 188.563957 
L 604.052138 192.093758 
L 622.636364 175.183507 
" style="fill:none;stroke:#2ca02c;stroke-linecap:square;stroke-width:1.5;"/>
   </g>
   <g id="line2d_102">
    <path clip-path="url(#pe50552b9cc)" d="M 115.363636 254.159704 
L 125.293172 246.902008 
L 135.224169 256.037007 
L 145.15264 250.776234 
L 155.077552 203.900558 
L 164.998156 214.057087 
L 174.916324 254.727573 
L 184.830331 254.63031 
L 194.741239 258.038171 
L 204.647421 192.1421 
L 214.54926 255.034239 
L 224.446666 245.92549 
L 234.339827 257.113201 
L 244.229245 255.582462 
L 254.114098 252.405779 
L 263.994106 255.115469 
L 273.869057 245.603894 
L 283.739435 255.309708 
L 293.60461 254.453936 
L 303.465292 246.875687 
L 313.32069 255.859825 
L 323.17107 251.353259 
L 333.016436 247.841955 
L 342.856771 252.127327 
L 352.692013 255.565525 
L 362.522702 186.166863 
L 381.088042 249.587199 
L 399.625657 239.00947 
L 418.209883 242.115725 
L 436.794108 238.972598 
L 455.378334 238.590227 
L 473.962559 238.775894 
L 492.546785 235.343297 
L 511.13101 234.122251 
L 529.715236 218.800103 
L 548.299462 222.854008 
L 566.883687 200.279192 
L 585.467913 190.158325 
L 604.052138 192.200184 
L 622.636364 176.980107 
" style="fill:none;stroke:#d62728;stroke-linecap:square;stroke-width:1.5;"/>
   </g>
   <g id="line2d_103">
    <path clip-path="url(#pe50552b9cc)" d="M 115.363636 253.933919 
L 125.293172 253.548687 
L 135.224169 257.715543 
L 145.15264 250.429242 
L 155.077552 216.228338 
L 164.998156 252.458854 
L 174.916324 222.044954 
L 184.830331 215.144079 
L 194.741239 255.664445 
L 204.647421 252.930986 
L 214.54926 166.105636 
L 224.446666 242.981203 
L 234.339827 254.795743 
L 244.229245 236.284288 
L 254.114098 253.230621 
L 263.994106 238.694184 
L 273.869057 254.135177 
L 283.739435 254.058011 
L 293.60461 241.325593 
L 303.465292 254.219401 
L 313.32069 248.215201 
L 323.17107 245.885047 
L 333.016436 230.919285 
L 342.856771 235.664621 
L 352.692013 232.884713 
L 362.522702 236.999732 
L 381.088042 246.902669 
L 399.625657 234.732734 
L 418.209883 241.530233 
L 436.794108 238.924489 
L 455.378334 240.966391 
L 473.962559 235.731424 
L 492.546785 230.477272 
L 511.13101 230.127872 
L 529.715236 218.635519 
L 548.299462 223.068078 
L 566.883687 201.477675 
L 585.467913 188.201901 
L 604.052138 192.678844 
L 622.636364 174.945579 
" style="fill:none;stroke:#9467bd;stroke-linecap:square;stroke-width:1.5;"/>
   </g>
   <g id="line2d_104">
    <path clip-path="url(#pe50552b9cc)" d="M 115.363636 197.629615 
L 125.293172 199.736444 
L 135.224169 227.360093 
L 145.15264 198.122219 
L 155.077552 196.261881 
L 164.998156 199.186851 
L 174.916324 194.249881 
L 184.830331 199.147929 
L 194.741239 215.563351 
L 204.647421 187.550165 
L 214.54926 173.22115 
L 224.446666 190.602312 
L 234.339827 203.30223 
L 244.229245 198.298897 
L 254.114098 201.181497 
L 263.994106 197.473885 
L 273.869057 198.893168 
L 283.739435 198.490027 
L 293.60461 196.151394 
L 303.465292 190.537804 
L 313.32069 199.002766 
L 323.17107 196.426128 
L 333.016436 191.399235 
L 342.856771 197.516505 
L 352.692013 186.84686 
L 362.522702 190.981051 
L 381.088042 211.487894 
L 399.625657 198.994124 
L 418.209883 196.036476 
L 436.794108 175.097349 
L 455.378334 206.967226 
L 473.962559 181.199341 
L 492.546785 180.945648 
L 511.13101 189.196255 
L 529.715236 194.411858 
L 548.299462 196.241425 
L 566.883687 179.597565 
L 585.467913 179.388068 
L 604.052138 198.755496 
L 622.636364 191.562798 
" style="fill:none;stroke:#8c564b;stroke-linecap:square;stroke-width:1.5;"/>
   </g>
   <g id="patch_9">
    <path d="M 90 265.932 
L 90 161.352 
" style="fill:none;stroke:#000000;stroke-linecap:square;stroke-linejoin:miter;stroke-width:0.8;"/>
   </g>
   <g id="patch_10">
    <path d="M 648 265.932 
L 648 161.352 
" style="fill:none;stroke:#000000;stroke-linecap:square;stroke-linejoin:miter;stroke-width:0.8;"/>
   </g>
   <g id="patch_11">
    <path d="M 90 265.932 
L 648 265.932 
" style="fill:none;stroke:#000000;stroke-linecap:square;stroke-linejoin:miter;stroke-width:0.8;"/>
   </g>
   <g id="patch_12">
    <path d="M 90 161.352 
L 648 161.352 
" style="fill:none;stroke:#000000;stroke-linecap:square;stroke-linejoin:miter;stroke-width:0.8;"/>
   </g>
  </g>
 </g>
 <defs>
  <clipPath id="pdd533a0518">
   <rect height="104.58" width="558" x="90" y="35.856"/>
  </clipPath>
  <clipPath id="pe50552b9cc">
   <rect height="104.58" width="558" x="90" y="161.352"/>
  </clipPath>
 </defs>
</svg>
