<?xml version="1.0" encoding="utf-8" standalone="no"?>
<!DOCTYPE svg PUBLIC "-//W3C//DTD SVG 1.1//EN"
  "http://www.w3.org/Graphics/SVG/1.1/DTD/svg11.dtd">
<!-- Created with matplotlib (https://matplotlib.org/) -->
<svg height="298.8pt" version="1.1" viewBox="0 0 720 298.8" width="720pt" xmlns="http://www.w3.org/2000/svg" xmlns:xlink="http://www.w3.org/1999/xlink">
 <metadata>
  <rdf:RDF xmlns:cc="http://creativecommons.org/ns#" xmlns:dc="http://purl.org/dc/elements/1.1/" xmlns:rdf="http://www.w3.org/1999/02/22-rdf-syntax-ns#">
   <cc:Work>
    <dc:type rdf:resource="http://purl.org/dc/dcmitype/StillImage"/>
    <dc:date>2020-10-05T09:50:13.896821</dc:date>
    <dc:format>image/svg+xml</dc:format>
    <dc:creator>
     <cc:Agent>
      <dc:title>Matplotlib v3.3.2, https://matplotlib.org/</dc:title>
     </cc:Agent>
    </dc:creator>
   </cc:Work>
  </rdf:RDF>
 </metadata>
 <defs>
  <style type="text/css">*{stroke-linecap:butt;stroke-linejoin:round;}</style>
 </defs>
 <g id="figure_1">
  <g id="patch_1">
   <path d="M 0 298.8 
L 720 298.8 
L 720 0 
L 0 0 
z
" style="fill:#ffffff;"/>
  </g>
  <g id="axes_1">
   <g id="patch_2">
    <path d="M 90 140.436 
L 648 140.436 
L 648 35.856 
L 90 35.856 
z
" style="fill:#ffffff;"/>
   </g>
   <g id="matplotlib.axis_1">
    <g id="xtick_1">
     <g id="line2d_1">
      <path clip-path="url(#p248f65d684)" d="M 166.951075 140.436 
L 166.951075 35.856 
" style="fill:none;stroke:#b0b0b0;stroke-linecap:square;stroke-width:0.8;"/>
     </g>
     <g id="line2d_2">
      <defs>
       <path d="M 0 0 
L 0 3.5 
" id="m79e9b785f1" style="stroke:#000000;stroke-width:0.8;"/>
      </defs>
      <g>
       <use style="stroke:#000000;stroke-width:0.8;" x="166.951075" xlink:href="#m79e9b785f1" y="140.436"/>
      </g>
     </g>
     <g id="text_1">
      <!-- $\mathdefault{10^{0}}$ -->
      <g transform="translate(158.151075 155.034437)scale(0.1 -0.1)">
       <defs>
        <path d="M 12.40625 8.296875 
L 28.515625 8.296875 
L 28.515625 63.921875 
L 10.984375 60.40625 
L 10.984375 69.390625 
L 28.421875 72.90625 
L 38.28125 72.90625 
L 38.28125 8.296875 
L 54.390625 8.296875 
L 54.390625 0 
L 12.40625 0 
z
" id="DejaVuSans-49"/>
        <path d="M 31.78125 66.40625 
Q 24.171875 66.40625 20.328125 58.90625 
Q 16.5 51.421875 16.5 36.375 
Q 16.5 21.390625 20.328125 13.890625 
Q 24.171875 6.390625 31.78125 6.390625 
Q 39.453125 6.390625 43.28125 13.890625 
Q 47.125 21.390625 47.125 36.375 
Q 47.125 51.421875 43.28125 58.90625 
Q 39.453125 66.40625 31.78125 66.40625 
z
M 31.78125 74.21875 
Q 44.046875 74.21875 50.515625 64.515625 
Q 56.984375 54.828125 56.984375 36.375 
Q 56.984375 17.96875 50.515625 8.265625 
Q 44.046875 -1.421875 31.78125 -1.421875 
Q 19.53125 -1.421875 13.0625 8.265625 
Q 6.59375 17.96875 6.59375 36.375 
Q 6.59375 54.828125 13.0625 64.515625 
Q 19.53125 74.21875 31.78125 74.21875 
z
" id="DejaVuSans-48"/>
       </defs>
       <use transform="translate(0 0.765625)" xlink:href="#DejaVuSans-49"/>
       <use transform="translate(63.623047 0.765625)" xlink:href="#DejaVuSans-48"/>
       <use transform="translate(128.203125 39.046875)scale(0.7)" xlink:href="#DejaVuSans-48"/>
      </g>
     </g>
    </g>
    <g id="xtick_2">
     <g id="line2d_3">
      <path clip-path="url(#p248f65d684)" d="M 358.718932 140.436 
L 358.718932 35.856 
" style="fill:none;stroke:#b0b0b0;stroke-linecap:square;stroke-width:0.8;"/>
     </g>
     <g id="line2d_4">
      <g>
       <use style="stroke:#000000;stroke-width:0.8;" x="358.718932" xlink:href="#m79e9b785f1" y="140.436"/>
      </g>
     </g>
     <g id="text_2">
      <!-- $\mathdefault{10^{1}}$ -->
      <g transform="translate(349.918932 155.034437)scale(0.1 -0.1)">
       <use transform="translate(0 0.684375)" xlink:href="#DejaVuSans-49"/>
       <use transform="translate(63.623047 0.684375)" xlink:href="#DejaVuSans-48"/>
       <use transform="translate(128.203125 38.965625)scale(0.7)" xlink:href="#DejaVuSans-49"/>
      </g>
     </g>
    </g>
    <g id="xtick_3">
     <g id="line2d_5">
      <path clip-path="url(#p248f65d684)" d="M 550.486789 140.436 
L 550.486789 35.856 
" style="fill:none;stroke:#b0b0b0;stroke-linecap:square;stroke-width:0.8;"/>
     </g>
     <g id="line2d_6">
      <g>
       <use style="stroke:#000000;stroke-width:0.8;" x="550.486789" xlink:href="#m79e9b785f1" y="140.436"/>
      </g>
     </g>
     <g id="text_3">
      <!-- $\mathdefault{10^{2}}$ -->
      <g transform="translate(541.686789 155.034437)scale(0.1 -0.1)">
       <defs>
        <path d="M 19.1875 8.296875 
L 53.609375 8.296875 
L 53.609375 0 
L 7.328125 0 
L 7.328125 8.296875 
Q 12.9375 14.109375 22.625 23.890625 
Q 32.328125 33.6875 34.8125 36.53125 
Q 39.546875 41.84375 41.421875 45.53125 
Q 43.3125 49.21875 43.3125 52.78125 
Q 43.3125 58.59375 39.234375 62.25 
Q 35.15625 65.921875 28.609375 65.921875 
Q 23.96875 65.921875 18.8125 64.3125 
Q 13.671875 62.703125 7.8125 59.421875 
L 7.8125 69.390625 
Q 13.765625 71.78125 18.9375 73 
Q 24.125 74.21875 28.421875 74.21875 
Q 39.75 74.21875 46.484375 68.546875 
Q 53.21875 62.890625 53.21875 53.421875 
Q 53.21875 48.921875 51.53125 44.890625 
Q 49.859375 40.875 45.40625 35.40625 
Q 44.1875 33.984375 37.640625 27.21875 
Q 31.109375 20.453125 19.1875 8.296875 
z
" id="DejaVuSans-50"/>
       </defs>
       <use transform="translate(0 0.765625)" xlink:href="#DejaVuSans-49"/>
       <use transform="translate(63.623047 0.765625)" xlink:href="#DejaVuSans-48"/>
       <use transform="translate(128.203125 39.046875)scale(0.7)" xlink:href="#DejaVuSans-50"/>
      </g>
     </g>
    </g>
    <g id="xtick_4">
     <g id="line2d_7">
      <defs>
       <path d="M 0 0 
L 0 2 
" id="m9b39acda4b" style="stroke:#000000;stroke-width:0.6;"/>
      </defs>
      <g>
       <use style="stroke:#000000;stroke-width:0.6;" x="90.638972" xlink:href="#m9b39acda4b" y="140.436"/>
      </g>
     </g>
    </g>
    <g id="xtick_5">
     <g id="line2d_8">
      <g>
       <use style="stroke:#000000;stroke-width:0.6;" x="109.223198" xlink:href="#m9b39acda4b" y="140.436"/>
      </g>
     </g>
    </g>
    <g id="xtick_6">
     <g id="line2d_9">
      <g>
       <use style="stroke:#000000;stroke-width:0.6;" x="124.407616" xlink:href="#m9b39acda4b" y="140.436"/>
      </g>
     </g>
    </g>
    <g id="xtick_7">
     <g id="line2d_10">
      <g>
       <use style="stroke:#000000;stroke-width:0.6;" x="137.245858" xlink:href="#m9b39acda4b" y="140.436"/>
      </g>
     </g>
    </g>
    <g id="xtick_8">
     <g id="line2d_11">
      <g>
       <use style="stroke:#000000;stroke-width:0.6;" x="148.36685" xlink:href="#m9b39acda4b" y="140.436"/>
      </g>
     </g>
    </g>
    <g id="xtick_9">
     <g id="line2d_12">
      <g>
       <use style="stroke:#000000;stroke-width:0.6;" x="158.176259" xlink:href="#m9b39acda4b" y="140.436"/>
      </g>
     </g>
    </g>
    <g id="xtick_10">
     <g id="line2d_13">
      <g>
       <use style="stroke:#000000;stroke-width:0.6;" x="224.678952" xlink:href="#m9b39acda4b" y="140.436"/>
      </g>
     </g>
    </g>
    <g id="xtick_11">
     <g id="line2d_14">
      <g>
       <use style="stroke:#000000;stroke-width:0.6;" x="258.447596" xlink:href="#m9b39acda4b" y="140.436"/>
      </g>
     </g>
    </g>
    <g id="xtick_12">
     <g id="line2d_15">
      <g>
       <use style="stroke:#000000;stroke-width:0.6;" x="282.406829" xlink:href="#m9b39acda4b" y="140.436"/>
      </g>
     </g>
    </g>
    <g id="xtick_13">
     <g id="line2d_16">
      <g>
       <use style="stroke:#000000;stroke-width:0.6;" x="300.991055" xlink:href="#m9b39acda4b" y="140.436"/>
      </g>
     </g>
    </g>
    <g id="xtick_14">
     <g id="line2d_17">
      <g>
       <use style="stroke:#000000;stroke-width:0.6;" x="316.175473" xlink:href="#m9b39acda4b" y="140.436"/>
      </g>
     </g>
    </g>
    <g id="xtick_15">
     <g id="line2d_18">
      <g>
       <use style="stroke:#000000;stroke-width:0.6;" x="329.013715" xlink:href="#m9b39acda4b" y="140.436"/>
      </g>
     </g>
    </g>
    <g id="xtick_16">
     <g id="line2d_19">
      <g>
       <use style="stroke:#000000;stroke-width:0.6;" x="340.134707" xlink:href="#m9b39acda4b" y="140.436"/>
      </g>
     </g>
    </g>
    <g id="xtick_17">
     <g id="line2d_20">
      <g>
       <use style="stroke:#000000;stroke-width:0.6;" x="349.944116" xlink:href="#m9b39acda4b" y="140.436"/>
      </g>
     </g>
    </g>
    <g id="xtick_18">
     <g id="line2d_21">
      <g>
       <use style="stroke:#000000;stroke-width:0.6;" x="416.446809" xlink:href="#m9b39acda4b" y="140.436"/>
      </g>
     </g>
    </g>
    <g id="xtick_19">
     <g id="line2d_22">
      <g>
       <use style="stroke:#000000;stroke-width:0.6;" x="450.215453" xlink:href="#m9b39acda4b" y="140.436"/>
      </g>
     </g>
    </g>
    <g id="xtick_20">
     <g id="line2d_23">
      <g>
       <use style="stroke:#000000;stroke-width:0.6;" x="474.174687" xlink:href="#m9b39acda4b" y="140.436"/>
      </g>
     </g>
    </g>
    <g id="xtick_21">
     <g id="line2d_24">
      <g>
       <use style="stroke:#000000;stroke-width:0.6;" x="492.758912" xlink:href="#m9b39acda4b" y="140.436"/>
      </g>
     </g>
    </g>
    <g id="xtick_22">
     <g id="line2d_25">
      <g>
       <use style="stroke:#000000;stroke-width:0.6;" x="507.94333" xlink:href="#m9b39acda4b" y="140.436"/>
      </g>
     </g>
    </g>
    <g id="xtick_23">
     <g id="line2d_26">
      <g>
       <use style="stroke:#000000;stroke-width:0.6;" x="520.781572" xlink:href="#m9b39acda4b" y="140.436"/>
      </g>
     </g>
    </g>
    <g id="xtick_24">
     <g id="line2d_27">
      <g>
       <use style="stroke:#000000;stroke-width:0.6;" x="531.902564" xlink:href="#m9b39acda4b" y="140.436"/>
      </g>
     </g>
    </g>
    <g id="xtick_25">
     <g id="line2d_28">
      <g>
       <use style="stroke:#000000;stroke-width:0.6;" x="541.711973" xlink:href="#m9b39acda4b" y="140.436"/>
      </g>
     </g>
    </g>
    <g id="xtick_26">
     <g id="line2d_29">
      <g>
       <use style="stroke:#000000;stroke-width:0.6;" x="608.214667" xlink:href="#m9b39acda4b" y="140.436"/>
      </g>
     </g>
    </g>
    <g id="xtick_27">
     <g id="line2d_30">
      <g>
       <use style="stroke:#000000;stroke-width:0.6;" x="641.98331" xlink:href="#m9b39acda4b" y="140.436"/>
      </g>
     </g>
    </g>
    <g id="text_4">
     <!-- JSON size (MB) -->
     <g transform="translate(332.155469 168.712562)scale(0.1 -0.1)">
      <defs>
       <path d="M 9.8125 72.90625 
L 19.671875 72.90625 
L 19.671875 5.078125 
Q 19.671875 -8.109375 14.671875 -14.0625 
Q 9.671875 -20.015625 -1.421875 -20.015625 
L -5.171875 -20.015625 
L -5.171875 -11.71875 
L -2.09375 -11.71875 
Q 4.4375 -11.71875 7.125 -8.046875 
Q 9.8125 -4.390625 9.8125 5.078125 
z
" id="DejaVuSans-74"/>
       <path d="M 53.515625 70.515625 
L 53.515625 60.890625 
Q 47.90625 63.578125 42.921875 64.890625 
Q 37.9375 66.21875 33.296875 66.21875 
Q 25.25 66.21875 20.875 63.09375 
Q 16.5 59.96875 16.5 54.203125 
Q 16.5 49.359375 19.40625 46.890625 
Q 22.3125 44.4375 30.421875 42.921875 
L 36.375 41.703125 
Q 47.40625 39.59375 52.65625 34.296875 
Q 57.90625 29 57.90625 20.125 
Q 57.90625 9.515625 50.796875 4.046875 
Q 43.703125 -1.421875 29.984375 -1.421875 
Q 24.8125 -1.421875 18.96875 -0.25 
Q 13.140625 0.921875 6.890625 3.21875 
L 6.890625 13.375 
Q 12.890625 10.015625 18.65625 8.296875 
Q 24.421875 6.59375 29.984375 6.59375 
Q 38.421875 6.59375 43.015625 9.90625 
Q 47.609375 13.234375 47.609375 19.390625 
Q 47.609375 24.75 44.3125 27.78125 
Q 41.015625 30.8125 33.5 32.328125 
L 27.484375 33.5 
Q 16.453125 35.6875 11.515625 40.375 
Q 6.59375 45.0625 6.59375 53.421875 
Q 6.59375 63.09375 13.40625 68.65625 
Q 20.21875 74.21875 32.171875 74.21875 
Q 37.3125 74.21875 42.625 73.28125 
Q 47.953125 72.359375 53.515625 70.515625 
z
" id="DejaVuSans-83"/>
       <path d="M 39.40625 66.21875 
Q 28.65625 66.21875 22.328125 58.203125 
Q 16.015625 50.203125 16.015625 36.375 
Q 16.015625 22.609375 22.328125 14.59375 
Q 28.65625 6.59375 39.40625 6.59375 
Q 50.140625 6.59375 56.421875 14.59375 
Q 62.703125 22.609375 62.703125 36.375 
Q 62.703125 50.203125 56.421875 58.203125 
Q 50.140625 66.21875 39.40625 66.21875 
z
M 39.40625 74.21875 
Q 54.734375 74.21875 63.90625 63.9375 
Q 73.09375 53.65625 73.09375 36.375 
Q 73.09375 19.140625 63.90625 8.859375 
Q 54.734375 -1.421875 39.40625 -1.421875 
Q 24.03125 -1.421875 14.8125 8.828125 
Q 5.609375 19.09375 5.609375 36.375 
Q 5.609375 53.65625 14.8125 63.9375 
Q 24.03125 74.21875 39.40625 74.21875 
z
" id="DejaVuSans-79"/>
       <path d="M 9.8125 72.90625 
L 23.09375 72.90625 
L 55.421875 11.921875 
L 55.421875 72.90625 
L 64.984375 72.90625 
L 64.984375 0 
L 51.703125 0 
L 19.390625 60.984375 
L 19.390625 0 
L 9.8125 0 
z
" id="DejaVuSans-78"/>
       <path id="DejaVuSans-32"/>
       <path d="M 44.28125 53.078125 
L 44.28125 44.578125 
Q 40.484375 46.53125 36.375 47.5 
Q 32.28125 48.484375 27.875 48.484375 
Q 21.1875 48.484375 17.84375 46.4375 
Q 14.5 44.390625 14.5 40.28125 
Q 14.5 37.15625 16.890625 35.375 
Q 19.28125 33.59375 26.515625 31.984375 
L 29.59375 31.296875 
Q 39.15625 29.25 43.1875 25.515625 
Q 47.21875 21.78125 47.21875 15.09375 
Q 47.21875 7.46875 41.1875 3.015625 
Q 35.15625 -1.421875 24.609375 -1.421875 
Q 20.21875 -1.421875 15.453125 -0.5625 
Q 10.6875 0.296875 5.421875 2 
L 5.421875 11.28125 
Q 10.40625 8.6875 15.234375 7.390625 
Q 20.0625 6.109375 24.8125 6.109375 
Q 31.15625 6.109375 34.5625 8.28125 
Q 37.984375 10.453125 37.984375 14.40625 
Q 37.984375 18.0625 35.515625 20.015625 
Q 33.0625 21.96875 24.703125 23.78125 
L 21.578125 24.515625 
Q 13.234375 26.265625 9.515625 29.90625 
Q 5.8125 33.546875 5.8125 39.890625 
Q 5.8125 47.609375 11.28125 51.796875 
Q 16.75 56 26.8125 56 
Q 31.78125 56 36.171875 55.265625 
Q 40.578125 54.546875 44.28125 53.078125 
z
" id="DejaVuSans-115"/>
       <path d="M 9.421875 54.6875 
L 18.40625 54.6875 
L 18.40625 0 
L 9.421875 0 
z
M 9.421875 75.984375 
L 18.40625 75.984375 
L 18.40625 64.59375 
L 9.421875 64.59375 
z
" id="DejaVuSans-105"/>
       <path d="M 5.515625 54.6875 
L 48.1875 54.6875 
L 48.1875 46.484375 
L 14.40625 7.171875 
L 48.1875 7.171875 
L 48.1875 0 
L 4.296875 0 
L 4.296875 8.203125 
L 38.09375 47.515625 
L 5.515625 47.515625 
z
" id="DejaVuSans-122"/>
       <path d="M 56.203125 29.59375 
L 56.203125 25.203125 
L 14.890625 25.203125 
Q 15.484375 15.921875 20.484375 11.0625 
Q 25.484375 6.203125 34.421875 6.203125 
Q 39.59375 6.203125 44.453125 7.46875 
Q 49.3125 8.734375 54.109375 11.28125 
L 54.109375 2.78125 
Q 49.265625 0.734375 44.1875 -0.34375 
Q 39.109375 -1.421875 33.890625 -1.421875 
Q 20.796875 -1.421875 13.15625 6.1875 
Q 5.515625 13.8125 5.515625 26.8125 
Q 5.515625 40.234375 12.765625 48.109375 
Q 20.015625 56 32.328125 56 
Q 43.359375 56 49.78125 48.890625 
Q 56.203125 41.796875 56.203125 29.59375 
z
M 47.21875 32.234375 
Q 47.125 39.59375 43.09375 43.984375 
Q 39.0625 48.390625 32.421875 48.390625 
Q 24.90625 48.390625 20.390625 44.140625 
Q 15.875 39.890625 15.1875 32.171875 
z
" id="DejaVuSans-101"/>
       <path d="M 31 75.875 
Q 24.46875 64.65625 21.28125 53.65625 
Q 18.109375 42.671875 18.109375 31.390625 
Q 18.109375 20.125 21.3125 9.0625 
Q 24.515625 -2 31 -13.1875 
L 23.1875 -13.1875 
Q 15.875 -1.703125 12.234375 9.375 
Q 8.59375 20.453125 8.59375 31.390625 
Q 8.59375 42.28125 12.203125 53.3125 
Q 15.828125 64.359375 23.1875 75.875 
z
" id="DejaVuSans-40"/>
       <path d="M 9.8125 72.90625 
L 24.515625 72.90625 
L 43.109375 23.296875 
L 61.8125 72.90625 
L 76.515625 72.90625 
L 76.515625 0 
L 66.890625 0 
L 66.890625 64.015625 
L 48.09375 14.015625 
L 38.1875 14.015625 
L 19.390625 64.015625 
L 19.390625 0 
L 9.8125 0 
z
" id="DejaVuSans-77"/>
       <path d="M 19.671875 34.8125 
L 19.671875 8.109375 
L 35.5 8.109375 
Q 43.453125 8.109375 47.28125 11.40625 
Q 51.125 14.703125 51.125 21.484375 
Q 51.125 28.328125 47.28125 31.5625 
Q 43.453125 34.8125 35.5 34.8125 
z
M 19.671875 64.796875 
L 19.671875 42.828125 
L 34.28125 42.828125 
Q 41.5 42.828125 45.03125 45.53125 
Q 48.578125 48.25 48.578125 53.8125 
Q 48.578125 59.328125 45.03125 62.0625 
Q 41.5 64.796875 34.28125 64.796875 
z
M 9.8125 72.90625 
L 35.015625 72.90625 
Q 46.296875 72.90625 52.390625 68.21875 
Q 58.5 63.53125 58.5 54.890625 
Q 58.5 48.1875 55.375 44.234375 
Q 52.25 40.28125 46.1875 39.3125 
Q 53.46875 37.75 57.5 32.78125 
Q 61.53125 27.828125 61.53125 20.40625 
Q 61.53125 10.640625 54.890625 5.3125 
Q 48.25 0 35.984375 0 
L 9.8125 0 
z
" id="DejaVuSans-66"/>
       <path d="M 8.015625 75.875 
L 15.828125 75.875 
Q 23.140625 64.359375 26.78125 53.3125 
Q 30.421875 42.28125 30.421875 31.390625 
Q 30.421875 20.453125 26.78125 9.375 
Q 23.140625 -1.703125 15.828125 -13.1875 
L 8.015625 -13.1875 
Q 14.5 -2 17.703125 9.0625 
Q 20.90625 20.125 20.90625 31.390625 
Q 20.90625 42.671875 17.703125 53.65625 
Q 14.5 64.65625 8.015625 75.875 
z
" id="DejaVuSans-41"/>
      </defs>
      <use xlink:href="#DejaVuSans-74"/>
      <use x="29.492188" xlink:href="#DejaVuSans-83"/>
      <use x="92.96875" xlink:href="#DejaVuSans-79"/>
      <use x="171.679688" xlink:href="#DejaVuSans-78"/>
      <use x="246.484375" xlink:href="#DejaVuSans-32"/>
      <use x="278.271484" xlink:href="#DejaVuSans-115"/>
      <use x="330.371094" xlink:href="#DejaVuSans-105"/>
      <use x="358.154297" xlink:href="#DejaVuSans-122"/>
      <use x="410.644531" xlink:href="#DejaVuSans-101"/>
      <use x="472.167969" xlink:href="#DejaVuSans-32"/>
      <use x="503.955078" xlink:href="#DejaVuSans-40"/>
      <use x="542.96875" xlink:href="#DejaVuSans-77"/>
      <use x="629.248047" xlink:href="#DejaVuSans-66"/>
      <use x="697.851562" xlink:href="#DejaVuSans-41"/>
     </g>
    </g>
   </g>
   <g id="matplotlib.axis_2">
    <g id="ytick_1">
     <g id="line2d_31">
      <path clip-path="url(#p248f65d684)" d="M 90 111.735779 
L 648 111.735779 
" style="fill:none;stroke:#b0b0b0;stroke-linecap:square;stroke-width:0.8;"/>
     </g>
     <g id="line2d_32">
      <defs>
       <path d="M 0 0 
L -3.5 0 
" id="m0db9534a00" style="stroke:#000000;stroke-width:0.8;"/>
      </defs>
      <g>
       <use style="stroke:#000000;stroke-width:0.8;" x="90" xlink:href="#m0db9534a00" y="111.735779"/>
      </g>
     </g>
     <g id="text_5">
      <!-- 1 -->
      <g transform="translate(76.6375 115.534998)scale(0.1 -0.1)">
       <use xlink:href="#DejaVuSans-49"/>
      </g>
     </g>
    </g>
    <g id="ytick_2">
     <g id="line2d_33">
      <path clip-path="url(#p248f65d684)" d="M 90 76.662576 
L 648 76.662576 
" style="fill:none;stroke:#b0b0b0;stroke-linecap:square;stroke-width:0.8;"/>
     </g>
     <g id="line2d_34">
      <g>
       <use style="stroke:#000000;stroke-width:0.8;" x="90" xlink:href="#m0db9534a00" y="76.662576"/>
      </g>
     </g>
     <g id="text_6">
      <!-- 2 -->
      <g transform="translate(76.6375 80.461795)scale(0.1 -0.1)">
       <use xlink:href="#DejaVuSans-50"/>
      </g>
     </g>
    </g>
    <g id="ytick_3">
     <g id="line2d_35">
      <path clip-path="url(#p248f65d684)" d="M 90 41.589373 
L 648 41.589373 
" style="fill:none;stroke:#b0b0b0;stroke-linecap:square;stroke-width:0.8;"/>
     </g>
     <g id="line2d_36">
      <g>
       <use style="stroke:#000000;stroke-width:0.8;" x="90" xlink:href="#m0db9534a00" y="41.589373"/>
      </g>
     </g>
     <g id="text_7">
      <!-- 3 -->
      <g transform="translate(76.6375 45.388591)scale(0.1 -0.1)">
       <defs>
        <path d="M 40.578125 39.3125 
Q 47.65625 37.796875 51.625 33 
Q 55.609375 28.21875 55.609375 21.1875 
Q 55.609375 10.40625 48.1875 4.484375 
Q 40.765625 -1.421875 27.09375 -1.421875 
Q 22.515625 -1.421875 17.65625 -0.515625 
Q 12.796875 0.390625 7.625 2.203125 
L 7.625 11.71875 
Q 11.71875 9.328125 16.59375 8.109375 
Q 21.484375 6.890625 26.8125 6.890625 
Q 36.078125 6.890625 40.9375 10.546875 
Q 45.796875 14.203125 45.796875 21.1875 
Q 45.796875 27.640625 41.28125 31.265625 
Q 36.765625 34.90625 28.71875 34.90625 
L 20.21875 34.90625 
L 20.21875 43.015625 
L 29.109375 43.015625 
Q 36.375 43.015625 40.234375 45.921875 
Q 44.09375 48.828125 44.09375 54.296875 
Q 44.09375 59.90625 40.109375 62.90625 
Q 36.140625 65.921875 28.71875 65.921875 
Q 24.65625 65.921875 20.015625 65.03125 
Q 15.375 64.15625 9.8125 62.3125 
L 9.8125 71.09375 
Q 15.4375 72.65625 20.34375 73.4375 
Q 25.25 74.21875 29.59375 74.21875 
Q 40.828125 74.21875 47.359375 69.109375 
Q 53.90625 64.015625 53.90625 55.328125 
Q 53.90625 49.265625 50.4375 45.09375 
Q 46.96875 40.921875 40.578125 39.3125 
z
" id="DejaVuSans-51"/>
       </defs>
       <use xlink:href="#DejaVuSans-51"/>
      </g>
     </g>
    </g>
    <g id="text_8">
     <!-- Encode time (ratio) -->
     <g transform="translate(70.557812 136.437406)rotate(-90)scale(0.1 -0.1)">
      <defs>
       <path d="M 9.8125 72.90625 
L 55.90625 72.90625 
L 55.90625 64.59375 
L 19.671875 64.59375 
L 19.671875 43.015625 
L 54.390625 43.015625 
L 54.390625 34.71875 
L 19.671875 34.71875 
L 19.671875 8.296875 
L 56.78125 8.296875 
L 56.78125 0 
L 9.8125 0 
z
" id="DejaVuSans-69"/>
       <path d="M 54.890625 33.015625 
L 54.890625 0 
L 45.90625 0 
L 45.90625 32.71875 
Q 45.90625 40.484375 42.875 44.328125 
Q 39.84375 48.1875 33.796875 48.1875 
Q 26.515625 48.1875 22.3125 43.546875 
Q 18.109375 38.921875 18.109375 30.90625 
L 18.109375 0 
L 9.078125 0 
L 9.078125 54.6875 
L 18.109375 54.6875 
L 18.109375 46.1875 
Q 21.34375 51.125 25.703125 53.5625 
Q 30.078125 56 35.796875 56 
Q 45.21875 56 50.046875 50.171875 
Q 54.890625 44.34375 54.890625 33.015625 
z
" id="DejaVuSans-110"/>
       <path d="M 48.78125 52.59375 
L 48.78125 44.1875 
Q 44.96875 46.296875 41.140625 47.34375 
Q 37.3125 48.390625 33.40625 48.390625 
Q 24.65625 48.390625 19.8125 42.84375 
Q 14.984375 37.3125 14.984375 27.296875 
Q 14.984375 17.28125 19.8125 11.734375 
Q 24.65625 6.203125 33.40625 6.203125 
Q 37.3125 6.203125 41.140625 7.25 
Q 44.96875 8.296875 48.78125 10.40625 
L 48.78125 2.09375 
Q 45.015625 0.34375 40.984375 -0.53125 
Q 36.96875 -1.421875 32.421875 -1.421875 
Q 20.0625 -1.421875 12.78125 6.34375 
Q 5.515625 14.109375 5.515625 27.296875 
Q 5.515625 40.671875 12.859375 48.328125 
Q 20.21875 56 33.015625 56 
Q 37.15625 56 41.109375 55.140625 
Q 45.0625 54.296875 48.78125 52.59375 
z
" id="DejaVuSans-99"/>
       <path d="M 30.609375 48.390625 
Q 23.390625 48.390625 19.1875 42.75 
Q 14.984375 37.109375 14.984375 27.296875 
Q 14.984375 17.484375 19.15625 11.84375 
Q 23.34375 6.203125 30.609375 6.203125 
Q 37.796875 6.203125 41.984375 11.859375 
Q 46.1875 17.53125 46.1875 27.296875 
Q 46.1875 37.015625 41.984375 42.703125 
Q 37.796875 48.390625 30.609375 48.390625 
z
M 30.609375 56 
Q 42.328125 56 49.015625 48.375 
Q 55.71875 40.765625 55.71875 27.296875 
Q 55.71875 13.875 49.015625 6.21875 
Q 42.328125 -1.421875 30.609375 -1.421875 
Q 18.84375 -1.421875 12.171875 6.21875 
Q 5.515625 13.875 5.515625 27.296875 
Q 5.515625 40.765625 12.171875 48.375 
Q 18.84375 56 30.609375 56 
z
" id="DejaVuSans-111"/>
       <path d="M 45.40625 46.390625 
L 45.40625 75.984375 
L 54.390625 75.984375 
L 54.390625 0 
L 45.40625 0 
L 45.40625 8.203125 
Q 42.578125 3.328125 38.25 0.953125 
Q 33.9375 -1.421875 27.875 -1.421875 
Q 17.96875 -1.421875 11.734375 6.484375 
Q 5.515625 14.40625 5.515625 27.296875 
Q 5.515625 40.1875 11.734375 48.09375 
Q 17.96875 56 27.875 56 
Q 33.9375 56 38.25 53.625 
Q 42.578125 51.265625 45.40625 46.390625 
z
M 14.796875 27.296875 
Q 14.796875 17.390625 18.875 11.75 
Q 22.953125 6.109375 30.078125 6.109375 
Q 37.203125 6.109375 41.296875 11.75 
Q 45.40625 17.390625 45.40625 27.296875 
Q 45.40625 37.203125 41.296875 42.84375 
Q 37.203125 48.484375 30.078125 48.484375 
Q 22.953125 48.484375 18.875 42.84375 
Q 14.796875 37.203125 14.796875 27.296875 
z
" id="DejaVuSans-100"/>
       <path d="M 18.3125 70.21875 
L 18.3125 54.6875 
L 36.8125 54.6875 
L 36.8125 47.703125 
L 18.3125 47.703125 
L 18.3125 18.015625 
Q 18.3125 11.328125 20.140625 9.421875 
Q 21.96875 7.515625 27.59375 7.515625 
L 36.8125 7.515625 
L 36.8125 0 
L 27.59375 0 
Q 17.1875 0 13.234375 3.875 
Q 9.28125 7.765625 9.28125 18.015625 
L 9.28125 47.703125 
L 2.6875 47.703125 
L 2.6875 54.6875 
L 9.28125 54.6875 
L 9.28125 70.21875 
z
" id="DejaVuSans-116"/>
       <path d="M 52 44.1875 
Q 55.375 50.25 60.0625 53.125 
Q 64.75 56 71.09375 56 
Q 79.640625 56 84.28125 50.015625 
Q 88.921875 44.046875 88.921875 33.015625 
L 88.921875 0 
L 79.890625 0 
L 79.890625 32.71875 
Q 79.890625 40.578125 77.09375 44.375 
Q 74.3125 48.1875 68.609375 48.1875 
Q 61.625 48.1875 57.5625 43.546875 
Q 53.515625 38.921875 53.515625 30.90625 
L 53.515625 0 
L 44.484375 0 
L 44.484375 32.71875 
Q 44.484375 40.625 41.703125 44.40625 
Q 38.921875 48.1875 33.109375 48.1875 
Q 26.21875 48.1875 22.15625 43.53125 
Q 18.109375 38.875 18.109375 30.90625 
L 18.109375 0 
L 9.078125 0 
L 9.078125 54.6875 
L 18.109375 54.6875 
L 18.109375 46.1875 
Q 21.1875 51.21875 25.484375 53.609375 
Q 29.78125 56 35.6875 56 
Q 41.65625 56 45.828125 52.96875 
Q 50 49.953125 52 44.1875 
z
" id="DejaVuSans-109"/>
       <path d="M 41.109375 46.296875 
Q 39.59375 47.171875 37.8125 47.578125 
Q 36.03125 48 33.890625 48 
Q 26.265625 48 22.1875 43.046875 
Q 18.109375 38.09375 18.109375 28.8125 
L 18.109375 0 
L 9.078125 0 
L 9.078125 54.6875 
L 18.109375 54.6875 
L 18.109375 46.1875 
Q 20.953125 51.171875 25.484375 53.578125 
Q 30.03125 56 36.53125 56 
Q 37.453125 56 38.578125 55.875 
Q 39.703125 55.765625 41.0625 55.515625 
z
" id="DejaVuSans-114"/>
       <path d="M 34.28125 27.484375 
Q 23.390625 27.484375 19.1875 25 
Q 14.984375 22.515625 14.984375 16.5 
Q 14.984375 11.71875 18.140625 8.90625 
Q 21.296875 6.109375 26.703125 6.109375 
Q 34.1875 6.109375 38.703125 11.40625 
Q 43.21875 16.703125 43.21875 25.484375 
L 43.21875 27.484375 
z
M 52.203125 31.203125 
L 52.203125 0 
L 43.21875 0 
L 43.21875 8.296875 
Q 40.140625 3.328125 35.546875 0.953125 
Q 30.953125 -1.421875 24.3125 -1.421875 
Q 15.921875 -1.421875 10.953125 3.296875 
Q 6 8.015625 6 15.921875 
Q 6 25.140625 12.171875 29.828125 
Q 18.359375 34.515625 30.609375 34.515625 
L 43.21875 34.515625 
L 43.21875 35.40625 
Q 43.21875 41.609375 39.140625 45 
Q 35.0625 48.390625 27.6875 48.390625 
Q 23 48.390625 18.546875 47.265625 
Q 14.109375 46.140625 10.015625 43.890625 
L 10.015625 52.203125 
Q 14.9375 54.109375 19.578125 55.046875 
Q 24.21875 56 28.609375 56 
Q 40.484375 56 46.34375 49.84375 
Q 52.203125 43.703125 52.203125 31.203125 
z
" id="DejaVuSans-97"/>
      </defs>
      <use xlink:href="#DejaVuSans-69"/>
      <use x="63.183594" xlink:href="#DejaVuSans-110"/>
      <use x="126.5625" xlink:href="#DejaVuSans-99"/>
      <use x="181.542969" xlink:href="#DejaVuSans-111"/>
      <use x="242.724609" xlink:href="#DejaVuSans-100"/>
      <use x="306.201172" xlink:href="#DejaVuSans-101"/>
      <use x="367.724609" xlink:href="#DejaVuSans-32"/>
      <use x="399.511719" xlink:href="#DejaVuSans-116"/>
      <use x="438.720703" xlink:href="#DejaVuSans-105"/>
      <use x="466.503906" xlink:href="#DejaVuSans-109"/>
      <use x="563.916016" xlink:href="#DejaVuSans-101"/>
      <use x="625.439453" xlink:href="#DejaVuSans-32"/>
      <use x="657.226562" xlink:href="#DejaVuSans-40"/>
      <use x="696.240234" xlink:href="#DejaVuSans-114"/>
      <use x="737.353516" xlink:href="#DejaVuSans-97"/>
      <use x="798.632812" xlink:href="#DejaVuSans-116"/>
      <use x="837.841797" xlink:href="#DejaVuSans-105"/>
      <use x="865.625" xlink:href="#DejaVuSans-111"/>
      <use x="926.806641" xlink:href="#DejaVuSans-41"/>
     </g>
    </g>
   </g>
   <g id="line2d_37">
    <path clip-path="url(#p248f65d684)" d="M 115.363636 121.465773 
L 125.293172 120.858249 
L 135.224169 125.588045 
L 145.15264 124.436263 
L 155.077552 118.251836 
L 164.998156 123.957792 
L 174.916324 121.52807 
L 184.830331 123.93513 
L 194.741239 120.455008 
L 204.647421 119.967167 
L 214.54926 131.521408 
L 224.446666 126.846387 
L 234.339827 120.603764 
L 244.229245 120.950341 
L 254.114098 121.939361 
L 263.994106 120.01737 
L 273.869057 117.305748 
L 283.739435 112.786236 
L 293.60461 120.9441 
L 303.465292 118.839866 
L 313.32069 109.617882 
L 323.17107 114.662321 
L 333.016436 107.669615 
L 342.856771 111.394489 
L 352.692013 109.698532 
L 362.522702 115.777122 
L 381.088042 107.957373 
L 399.625657 110.482711 
L 418.209883 109.650109 
L 436.794108 112.860626 
L 455.378334 100.340289 
L 473.962559 99.793009 
L 492.546785 106.319691 
L 511.13101 88.38172 
L 529.715236 98.632687 
L 548.299462 97.5571 
L 566.883687 67.392338 
L 585.467913 84.680138 
L 604.052138 86.938953 
L 622.636364 40.609636 
" style="fill:none;stroke:#1f77b4;stroke-linecap:square;stroke-width:1.5;"/>
   </g>
   <g id="line2d_38">
    <path clip-path="url(#p248f65d684)" d="M 115.363636 131.084306 
L 125.293172 130.790054 
L 135.224169 130.924746 
L 145.15264 131.872448 
L 155.077552 131.49813 
L 164.998156 132.806976 
L 174.916324 131.547852 
L 184.830331 133.323294 
L 194.741239 131.771866 
L 204.647421 123.497335 
L 214.54926 134.760384 
L 224.446666 131.555893 
L 234.339827 131.646751 
L 244.229245 131.324981 
L 254.114098 132.491641 
L 263.994106 130.989669 
L 273.869057 130.614723 
L 283.739435 126.403151 
L 293.60461 132.266415 
L 303.465292 131.774995 
L 313.32069 126.934059 
L 323.17107 130.833336 
L 333.016436 128.278232 
L 342.856771 132.552031 
L 352.692013 131.475451 
L 362.522702 131.471697 
L 381.088042 127.388582 
L 399.625657 126.166372 
L 418.209883 131.699288 
L 436.794108 122.982613 
L 455.378334 131.234754 
L 473.962559 125.066941 
L 492.546785 131.611093 
L 511.13101 126.845727 
L 529.715236 123.804596 
L 548.299462 126.717585 
L 566.883687 127.887843 
L 585.467913 125.666481 
L 604.052138 121.370418 
L 622.636364 123.867226 
" style="fill:none;stroke:#ff7f0e;stroke-linecap:square;stroke-width:1.5;"/>
   </g>
   <g id="line2d_39">
    <path clip-path="url(#p248f65d684)" d="M 115.363636 111.735779 
L 125.293172 111.735779 
L 135.224169 111.735779 
L 145.15264 111.735779 
L 155.077552 111.735779 
L 164.998156 111.735779 
L 174.916324 111.735779 
L 184.830331 111.735779 
L 194.741239 111.735779 
L 204.647421 111.735779 
L 214.54926 111.735779 
L 224.446666 111.735779 
L 234.339827 111.735779 
L 244.229245 111.735779 
L 254.114098 111.735779 
L 263.994106 111.735779 
L 273.869057 111.735779 
L 283.739435 111.735779 
L 293.60461 111.735779 
L 303.465292 111.735779 
L 313.32069 111.735779 
L 323.17107 111.735779 
L 333.016436 111.735779 
L 342.856771 111.735779 
L 352.692013 111.735779 
L 362.522702 111.735779 
L 381.088042 111.735779 
L 399.625657 111.735779 
L 418.209883 111.735779 
L 436.794108 111.735779 
L 455.378334 111.735779 
L 473.962559 111.735779 
L 492.546785 111.735779 
L 511.13101 111.735779 
L 529.715236 111.735779 
L 548.299462 111.735779 
L 566.883687 111.735779 
L 585.467913 111.735779 
L 604.052138 111.735779 
L 622.636364 111.735779 
" style="fill:none;stroke:#2ca02c;stroke-linecap:square;stroke-width:1.5;"/>
   </g>
   <g id="line2d_40">
    <path clip-path="url(#p248f65d684)" d="M 115.363636 117.198061 
L 125.293172 119.285243 
L 135.224169 119.398421 
L 145.15264 119.959089 
L 155.077552 118.225344 
L 164.998156 118.237582 
L 174.916324 118.799071 
L 184.830331 122.04406 
L 194.741239 117.549532 
L 204.647421 119.222569 
L 214.54926 131.370044 
L 224.446666 126.303751 
L 234.339827 118.627062 
L 244.229245 119.37108 
L 254.114098 102.647791 
L 263.994106 120.479087 
L 273.869057 119.445367 
L 283.739435 116.868563 
L 293.60461 120.772174 
L 303.465292 118.895878 
L 313.32069 118.603748 
L 323.17107 107.474662 
L 333.016436 116.999641 
L 342.856771 117.223632 
L 352.692013 117.865089 
L 362.522702 117.89667 
L 381.088042 119.137044 
L 399.625657 103.79303 
L 418.209883 112.625916 
L 436.794108 115.781517 
L 455.378334 116.296735 
L 473.962559 114.315135 
L 492.546785 116.016813 
L 511.13101 118.521808 
L 529.715236 115.144319 
L 548.299462 115.296667 
L 566.883687 112.97695 
L 585.467913 116.915895 
L 604.052138 117.028553 
L 622.636364 118.203047 
" style="fill:none;stroke:#d62728;stroke-linecap:square;stroke-width:1.5;"/>
   </g>
   <g id="line2d_41">
    <path clip-path="url(#p248f65d684)" d="M 115.363636 117.313479 
L 125.293172 118.007436 
L 135.224169 123.215234 
L 145.15264 123.94299 
L 155.077552 125.79414 
L 164.998156 125.542598 
L 174.916324 108.455572 
L 184.830331 126.11576 
L 194.741239 122.096542 
L 204.647421 116.234123 
L 214.54926 132.497201 
L 224.446666 128.633238 
L 234.339827 117.506626 
L 244.229245 117.196945 
L 254.114098 116.957416 
L 263.994106 117.632572 
L 273.869057 117.243952 
L 283.739435 116.015017 
L 293.60461 125.184645 
L 303.465292 119.971641 
L 313.32069 120.97318 
L 323.17107 122.185639 
L 333.016436 122.861585 
L 342.856771 125.725759 
L 352.692013 123.909215 
L 362.522702 122.294922 
L 381.088042 123.594648 
L 399.625657 122.838229 
L 418.209883 122.215798 
L 436.794108 123.340126 
L 455.378334 113.451911 
L 473.962559 123.597124 
L 492.546785 117.355516 
L 511.13101 119.084941 
L 529.715236 125.149189 
L 548.299462 115.746532 
L 566.883687 111.308911 
L 585.467913 121.360353 
L 604.052138 121.026434 
L 622.636364 115.846074 
" style="fill:none;stroke:#9467bd;stroke-linecap:square;stroke-width:1.5;"/>
   </g>
   <g id="line2d_42">
    <path clip-path="url(#p248f65d684)" d="M 115.363636 121.876426 
L 125.293172 121.689102 
L 135.224169 121.571897 
L 145.15264 124.234236 
L 155.077552 125.240346 
L 164.998156 125.094692 
L 174.916324 111.788603 
L 184.830331 125.863752 
L 194.741239 121.291395 
L 204.647421 117.277165 
L 214.54926 131.805633 
L 224.446666 128.49739 
L 234.339827 116.563613 
L 244.229245 115.211298 
L 254.114098 115.861124 
L 263.994106 117.173823 
L 273.869057 115.239619 
L 283.739435 115.11027 
L 293.60461 124.780985 
L 303.465292 118.301553 
L 313.32069 119.202187 
L 323.17107 121.886022 
L 333.016436 122.013651 
L 342.856771 125.565043 
L 352.692013 123.081185 
L 362.522702 121.674291 
L 381.088042 122.797067 
L 399.625657 122.598664 
L 418.209883 123.444279 
L 436.794108 123.682238 
L 455.378334 115.117958 
L 473.962559 123.552181 
L 492.546785 118.759381 
L 511.13101 126.128246 
L 529.715236 115.526438 
L 548.299462 111.931098 
L 566.883687 120.447258 
L 585.467913 120.193689 
L 604.052138 113.788602 
L 622.636364 115.336736 
" style="fill:none;stroke:#8c564b;stroke-linecap:square;stroke-width:1.5;"/>
   </g>
   <g id="line2d_43">
    <path clip-path="url(#p248f65d684)" d="M 115.363636 129.454194 
L 125.293172 118.948929 
L 135.224169 129.410767 
L 145.15264 132.592379 
L 155.077552 115.35109 
L 164.998156 131.584609 
L 174.916324 119.672462 
L 184.830331 130.151667 
L 194.741239 120.464974 
L 204.647421 127.635955 
L 214.54926 135.682364 
L 224.446666 127.592006 
L 234.339827 125.065661 
L 244.229245 104.883981 
L 254.114098 123.831178 
L 263.994106 122.524091 
L 273.869057 121.304488 
L 283.739435 123.485259 
L 293.60461 124.274061 
L 303.465292 121.313407 
L 313.32069 124.001685 
L 323.17107 116.34962 
L 333.016436 124.868587 
L 342.856771 124.423707 
L 352.692013 124.572812 
L 362.522702 124.013691 
L 381.088042 112.919121 
L 399.625657 122.993565 
L 418.209883 123.488455 
L 436.794108 125.88786 
L 455.378334 123.73761 
L 473.962559 115.555398 
L 492.546785 125.269132 
L 511.13101 116.800544 
L 529.715236 117.890841 
L 548.299462 108.280308 
L 566.883687 116.69916 
L 585.467913 109.762419 
L 604.052138 108.448987 
L 622.636364 109.454347 
" style="fill:none;stroke:#e377c2;stroke-linecap:square;stroke-width:1.5;"/>
   </g>
   <g id="line2d_44">
    <path clip-path="url(#p248f65d684)" d="M 115.363636 95.001322 
L 125.293172 111.298773 
L 135.224169 106.344919 
L 145.15264 101.731999 
L 155.077552 106.864712 
L 164.998156 104.200554 
L 174.916324 96.533622 
L 184.830331 113.218644 
L 194.741239 109.661081 
L 204.647421 113.617606 
L 214.54926 127.669791 
L 224.446666 118.690935 
L 234.339827 103.822575 
L 244.229245 106.194062 
L 254.114098 109.250207 
L 263.994106 113.7401 
L 273.869057 105.57268 
L 283.739435 106.269598 
L 293.60461 115.345662 
L 303.465292 105.974433 
L 313.32069 114.863158 
L 323.17107 115.007989 
L 333.016436 112.004066 
L 342.856771 118.485666 
L 352.692013 110.818379 
L 362.522702 104.167022 
L 381.088042 108.736648 
L 399.625657 110.25373 
L 418.209883 111.475726 
L 436.794108 111.655485 
L 455.378334 108.186726 
L 473.962559 107.958541 
L 492.546785 111.942031 
L 511.13101 109.635776 
L 529.715236 110.459464 
L 548.299462 110.589096 
L 566.883687 113.908726 
L 585.467913 110.495388 
L 604.052138 112.034609 
L 622.636364 109.728359 
" style="fill:none;stroke:#7f7f7f;stroke-linecap:square;stroke-width:1.5;"/>
   </g>
   <g id="patch_3">
    <path d="M 90 140.436 
L 90 35.856 
" style="fill:none;stroke:#000000;stroke-linecap:square;stroke-linejoin:miter;stroke-width:0.8;"/>
   </g>
   <g id="patch_4">
    <path d="M 648 140.436 
L 648 35.856 
" style="fill:none;stroke:#000000;stroke-linecap:square;stroke-linejoin:miter;stroke-width:0.8;"/>
   </g>
   <g id="patch_5">
    <path d="M 90 140.436 
L 648 140.436 
" style="fill:none;stroke:#000000;stroke-linecap:square;stroke-linejoin:miter;stroke-width:0.8;"/>
   </g>
   <g id="patch_6">
    <path d="M 90 35.856 
L 648 35.856 
" style="fill:none;stroke:#000000;stroke-linecap:square;stroke-linejoin:miter;stroke-width:0.8;"/>
   </g>
   <g id="legend_1">
    <g id="patch_7">
     <path d="M 116.099219 33.47185 
L 621.900781 33.47185 
Q 623.900781 33.47185 623.900781 31.47185 
L 623.900781 3.1156 
Q 623.900781 1.1156 621.900781 1.1156 
L 116.099219 1.1156 
Q 114.099219 1.1156 114.099219 3.1156 
L 114.099219 31.47185 
Q 114.099219 33.47185 116.099219 33.47185 
z
" style="fill:#ffffff;opacity:0.8;stroke:#cccccc;stroke-linejoin:miter;"/>
    </g>
    <g id="line2d_45">
     <path d="M 118.099219 9.214038 
L 138.099219 9.214038 
" style="fill:none;stroke:#1f77b4;stroke-linecap:square;stroke-width:1.5;"/>
    </g>
    <g id="line2d_46"/>
    <g id="text_9">
     <!-- V8 -->
     <g transform="translate(146.099219 12.714038)scale(0.1 -0.1)">
      <defs>
       <path d="M 28.609375 0 
L 0.78125 72.90625 
L 11.078125 72.90625 
L 34.1875 11.53125 
L 57.328125 72.90625 
L 67.578125 72.90625 
L 39.796875 0 
z
" id="DejaVuSans-86"/>
       <path d="M 31.78125 34.625 
Q 24.75 34.625 20.71875 30.859375 
Q 16.703125 27.09375 16.703125 20.515625 
Q 16.703125 13.921875 20.71875 10.15625 
Q 24.75 6.390625 31.78125 6.390625 
Q 38.8125 6.390625 42.859375 10.171875 
Q 46.921875 13.96875 46.921875 20.515625 
Q 46.921875 27.09375 42.890625 30.859375 
Q 38.875 34.625 31.78125 34.625 
z
M 21.921875 38.8125 
Q 15.578125 40.375 12.03125 44.71875 
Q 8.5 49.078125 8.5 55.328125 
Q 8.5 64.0625 14.71875 69.140625 
Q 20.953125 74.21875 31.78125 74.21875 
Q 42.671875 74.21875 48.875 69.140625 
Q 55.078125 64.0625 55.078125 55.328125 
Q 55.078125 49.078125 51.53125 44.71875 
Q 48 40.375 41.703125 38.8125 
Q 48.828125 37.15625 52.796875 32.3125 
Q 56.78125 27.484375 56.78125 20.515625 
Q 56.78125 9.90625 50.3125 4.234375 
Q 43.84375 -1.421875 31.78125 -1.421875 
Q 19.734375 -1.421875 13.25 4.234375 
Q 6.78125 9.90625 6.78125 20.515625 
Q 6.78125 27.484375 10.78125 32.3125 
Q 14.796875 37.15625 21.921875 38.8125 
z
M 18.3125 54.390625 
Q 18.3125 48.734375 21.84375 45.5625 
Q 25.390625 42.390625 31.78125 42.390625 
Q 38.140625 42.390625 41.71875 45.5625 
Q 45.3125 48.734375 45.3125 54.390625 
Q 45.3125 60.0625 41.71875 63.234375 
Q 38.140625 66.40625 31.78125 66.40625 
Q 25.390625 66.40625 21.84375 63.234375 
Q 18.3125 60.0625 18.3125 54.390625 
z
" id="DejaVuSans-56"/>
      </defs>
      <use xlink:href="#DejaVuSans-86"/>
      <use x="68.408203" xlink:href="#DejaVuSans-56"/>
     </g>
    </g>
    <g id="line2d_47">
     <path d="M 118.099219 23.892163 
L 138.099219 23.892163 
" style="fill:none;stroke:#ff7f0e;stroke-linecap:square;stroke-width:1.5;"/>
    </g>
    <g id="line2d_48"/>
    <g id="text_10">
     <!-- MsgPack -->
     <g transform="translate(146.099219 27.392163)scale(0.1 -0.1)">
      <defs>
       <path d="M 45.40625 27.984375 
Q 45.40625 37.75 41.375 43.109375 
Q 37.359375 48.484375 30.078125 48.484375 
Q 22.859375 48.484375 18.828125 43.109375 
Q 14.796875 37.75 14.796875 27.984375 
Q 14.796875 18.265625 18.828125 12.890625 
Q 22.859375 7.515625 30.078125 7.515625 
Q 37.359375 7.515625 41.375 12.890625 
Q 45.40625 18.265625 45.40625 27.984375 
z
M 54.390625 6.78125 
Q 54.390625 -7.171875 48.1875 -13.984375 
Q 42 -20.796875 29.203125 -20.796875 
Q 24.46875 -20.796875 20.265625 -20.09375 
Q 16.0625 -19.390625 12.109375 -17.921875 
L 12.109375 -9.1875 
Q 16.0625 -11.328125 19.921875 -12.34375 
Q 23.78125 -13.375 27.78125 -13.375 
Q 36.625 -13.375 41.015625 -8.765625 
Q 45.40625 -4.15625 45.40625 5.171875 
L 45.40625 9.625 
Q 42.625 4.78125 38.28125 2.390625 
Q 33.9375 0 27.875 0 
Q 17.828125 0 11.671875 7.65625 
Q 5.515625 15.328125 5.515625 27.984375 
Q 5.515625 40.671875 11.671875 48.328125 
Q 17.828125 56 27.875 56 
Q 33.9375 56 38.28125 53.609375 
Q 42.625 51.21875 45.40625 46.390625 
L 45.40625 54.6875 
L 54.390625 54.6875 
z
" id="DejaVuSans-103"/>
       <path d="M 19.671875 64.796875 
L 19.671875 37.40625 
L 32.078125 37.40625 
Q 38.96875 37.40625 42.71875 40.96875 
Q 46.484375 44.53125 46.484375 51.125 
Q 46.484375 57.671875 42.71875 61.234375 
Q 38.96875 64.796875 32.078125 64.796875 
z
M 9.8125 72.90625 
L 32.078125 72.90625 
Q 44.34375 72.90625 50.609375 67.359375 
Q 56.890625 61.8125 56.890625 51.125 
Q 56.890625 40.328125 50.609375 34.8125 
Q 44.34375 29.296875 32.078125 29.296875 
L 19.671875 29.296875 
L 19.671875 0 
L 9.8125 0 
z
" id="DejaVuSans-80"/>
       <path d="M 9.078125 75.984375 
L 18.109375 75.984375 
L 18.109375 31.109375 
L 44.921875 54.6875 
L 56.390625 54.6875 
L 27.390625 29.109375 
L 57.625 0 
L 45.90625 0 
L 18.109375 26.703125 
L 18.109375 0 
L 9.078125 0 
z
" id="DejaVuSans-107"/>
      </defs>
      <use xlink:href="#DejaVuSans-77"/>
      <use x="86.279297" xlink:href="#DejaVuSans-115"/>
      <use x="138.378906" xlink:href="#DejaVuSans-103"/>
      <use x="201.855469" xlink:href="#DejaVuSans-80"/>
      <use x="257.658203" xlink:href="#DejaVuSans-97"/>
      <use x="318.9375" xlink:href="#DejaVuSans-99"/>
      <use x="373.917969" xlink:href="#DejaVuSans-107"/>
     </g>
    </g>
    <g id="line2d_49">
     <path d="M 209.282031 9.214038 
L 229.282031 9.214038 
" style="fill:none;stroke:#2ca02c;stroke-linecap:square;stroke-width:1.5;"/>
    </g>
    <g id="line2d_50"/>
    <g id="text_11">
     <!-- JSON -->
     <g transform="translate(237.282031 12.714038)scale(0.1 -0.1)">
      <use xlink:href="#DejaVuSans-74"/>
      <use x="29.492188" xlink:href="#DejaVuSans-83"/>
      <use x="92.96875" xlink:href="#DejaVuSans-79"/>
      <use x="171.679688" xlink:href="#DejaVuSans-78"/>
     </g>
    </g>
    <g id="line2d_51">
     <path d="M 209.282031 23.892163 
L 229.282031 23.892163 
" style="fill:none;stroke:#d62728;stroke-linecap:square;stroke-width:1.5;"/>
    </g>
    <g id="line2d_52"/>
    <g id="text_12">
     <!-- JSON (unmapped) -->
     <g transform="translate(237.282031 27.392163)scale(0.1 -0.1)">
      <defs>
       <path d="M 8.5 21.578125 
L 8.5 54.6875 
L 17.484375 54.6875 
L 17.484375 21.921875 
Q 17.484375 14.15625 20.5 10.265625 
Q 23.53125 6.390625 29.59375 6.390625 
Q 36.859375 6.390625 41.078125 11.03125 
Q 45.3125 15.671875 45.3125 23.6875 
L 45.3125 54.6875 
L 54.296875 54.6875 
L 54.296875 0 
L 45.3125 0 
L 45.3125 8.40625 
Q 42.046875 3.421875 37.71875 1 
Q 33.40625 -1.421875 27.6875 -1.421875 
Q 18.265625 -1.421875 13.375 4.4375 
Q 8.5 10.296875 8.5 21.578125 
z
M 31.109375 56 
z
" id="DejaVuSans-117"/>
       <path d="M 18.109375 8.203125 
L 18.109375 -20.796875 
L 9.078125 -20.796875 
L 9.078125 54.6875 
L 18.109375 54.6875 
L 18.109375 46.390625 
Q 20.953125 51.265625 25.265625 53.625 
Q 29.59375 56 35.59375 56 
Q 45.5625 56 51.78125 48.09375 
Q 58.015625 40.1875 58.015625 27.296875 
Q 58.015625 14.40625 51.78125 6.484375 
Q 45.5625 -1.421875 35.59375 -1.421875 
Q 29.59375 -1.421875 25.265625 0.953125 
Q 20.953125 3.328125 18.109375 8.203125 
z
M 48.6875 27.296875 
Q 48.6875 37.203125 44.609375 42.84375 
Q 40.53125 48.484375 33.40625 48.484375 
Q 26.265625 48.484375 22.1875 42.84375 
Q 18.109375 37.203125 18.109375 27.296875 
Q 18.109375 17.390625 22.1875 11.75 
Q 26.265625 6.109375 33.40625 6.109375 
Q 40.53125 6.109375 44.609375 11.75 
Q 48.6875 17.390625 48.6875 27.296875 
z
" id="DejaVuSans-112"/>
      </defs>
      <use xlink:href="#DejaVuSans-74"/>
      <use x="29.492188" xlink:href="#DejaVuSans-83"/>
      <use x="92.96875" xlink:href="#DejaVuSans-79"/>
      <use x="171.679688" xlink:href="#DejaVuSans-78"/>
      <use x="246.484375" xlink:href="#DejaVuSans-32"/>
      <use x="278.271484" xlink:href="#DejaVuSans-40"/>
      <use x="317.285156" xlink:href="#DejaVuSans-117"/>
      <use x="380.664062" xlink:href="#DejaVuSans-110"/>
      <use x="444.042969" xlink:href="#DejaVuSans-109"/>
      <use x="541.455078" xlink:href="#DejaVuSans-97"/>
      <use x="602.734375" xlink:href="#DejaVuSans-112"/>
      <use x="666.210938" xlink:href="#DejaVuSans-112"/>
      <use x="729.6875" xlink:href="#DejaVuSans-101"/>
      <use x="791.210938" xlink:href="#DejaVuSans-100"/>
      <use x="854.6875" xlink:href="#DejaVuSans-41"/>
     </g>
    </g>
    <g id="line2d_53">
     <path d="M 346.657031 9.214038 
L 366.657031 9.214038 
" style="fill:none;stroke:#9467bd;stroke-linecap:square;stroke-width:1.5;"/>
    </g>
    <g id="line2d_54"/>
    <g id="text_13">
     <!-- JSBIN -->
     <g transform="translate(374.657031 12.714038)scale(0.1 -0.1)">
      <defs>
       <path d="M 9.8125 72.90625 
L 19.671875 72.90625 
L 19.671875 0 
L 9.8125 0 
z
" id="DejaVuSans-73"/>
      </defs>
      <use xlink:href="#DejaVuSans-74"/>
      <use x="29.492188" xlink:href="#DejaVuSans-83"/>
      <use x="92.96875" xlink:href="#DejaVuSans-66"/>
      <use x="161.572266" xlink:href="#DejaVuSans-73"/>
      <use x="191.064453" xlink:href="#DejaVuSans-78"/>
     </g>
    </g>
    <g id="line2d_55">
     <path d="M 346.657031 23.892163 
L 366.657031 23.892163 
" style="fill:none;stroke:#8c564b;stroke-linecap:square;stroke-width:1.5;"/>
    </g>
    <g id="line2d_56"/>
    <g id="text_14">
     <!-- JSBIN (optional) -->
     <g transform="translate(374.657031 27.392163)scale(0.1 -0.1)">
      <defs>
       <path d="M 9.421875 75.984375 
L 18.40625 75.984375 
L 18.40625 0 
L 9.421875 0 
z
" id="DejaVuSans-108"/>
      </defs>
      <use xlink:href="#DejaVuSans-74"/>
      <use x="29.492188" xlink:href="#DejaVuSans-83"/>
      <use x="92.96875" xlink:href="#DejaVuSans-66"/>
      <use x="161.572266" xlink:href="#DejaVuSans-73"/>
      <use x="191.064453" xlink:href="#DejaVuSans-78"/>
      <use x="265.869141" xlink:href="#DejaVuSans-32"/>
      <use x="297.65625" xlink:href="#DejaVuSans-40"/>
      <use x="336.669922" xlink:href="#DejaVuSans-111"/>
      <use x="397.851562" xlink:href="#DejaVuSans-112"/>
      <use x="461.328125" xlink:href="#DejaVuSans-116"/>
      <use x="500.537109" xlink:href="#DejaVuSans-105"/>
      <use x="528.320312" xlink:href="#DejaVuSans-111"/>
      <use x="589.501953" xlink:href="#DejaVuSans-110"/>
      <use x="652.880859" xlink:href="#DejaVuSans-97"/>
      <use x="714.160156" xlink:href="#DejaVuSans-108"/>
      <use x="741.943359" xlink:href="#DejaVuSans-41"/>
     </g>
    </g>
    <g id="line2d_57">
     <path d="M 472.757031 9.214038 
L 492.757031 9.214038 
" style="fill:none;stroke:#e377c2;stroke-linecap:square;stroke-width:1.5;"/>
    </g>
    <g id="line2d_58"/>
    <g id="text_15">
     <!-- JSBIN (unmapped) -->
     <g transform="translate(500.757031 12.714038)scale(0.1 -0.1)">
      <use xlink:href="#DejaVuSans-74"/>
      <use x="29.492188" xlink:href="#DejaVuSans-83"/>
      <use x="92.96875" xlink:href="#DejaVuSans-66"/>
      <use x="161.572266" xlink:href="#DejaVuSans-73"/>
      <use x="191.064453" xlink:href="#DejaVuSans-78"/>
      <use x="265.869141" xlink:href="#DejaVuSans-32"/>
      <use x="297.65625" xlink:href="#DejaVuSans-40"/>
      <use x="336.669922" xlink:href="#DejaVuSans-117"/>
      <use x="400.048828" xlink:href="#DejaVuSans-110"/>
      <use x="463.427734" xlink:href="#DejaVuSans-109"/>
      <use x="560.839844" xlink:href="#DejaVuSans-97"/>
      <use x="622.119141" xlink:href="#DejaVuSans-112"/>
      <use x="685.595703" xlink:href="#DejaVuSans-112"/>
      <use x="749.072266" xlink:href="#DejaVuSans-101"/>
      <use x="810.595703" xlink:href="#DejaVuSans-100"/>
      <use x="874.072266" xlink:href="#DejaVuSans-41"/>
     </g>
    </g>
    <g id="line2d_59">
     <path d="M 472.757031 23.892163 
L 492.757031 23.892163 
" style="fill:none;stroke:#7f7f7f;stroke-linecap:square;stroke-width:1.5;"/>
    </g>
    <g id="line2d_60"/>
    <g id="text_16">
     <!-- JSBIN JSON (unmapped) -->
     <g transform="translate(500.757031 27.392163)scale(0.1 -0.1)">
      <use xlink:href="#DejaVuSans-74"/>
      <use x="29.492188" xlink:href="#DejaVuSans-83"/>
      <use x="92.96875" xlink:href="#DejaVuSans-66"/>
      <use x="161.572266" xlink:href="#DejaVuSans-73"/>
      <use x="191.064453" xlink:href="#DejaVuSans-78"/>
      <use x="265.869141" xlink:href="#DejaVuSans-32"/>
      <use x="297.65625" xlink:href="#DejaVuSans-74"/>
      <use x="327.148438" xlink:href="#DejaVuSans-83"/>
      <use x="390.625" xlink:href="#DejaVuSans-79"/>
      <use x="469.335938" xlink:href="#DejaVuSans-78"/>
      <use x="544.140625" xlink:href="#DejaVuSans-32"/>
      <use x="575.927734" xlink:href="#DejaVuSans-40"/>
      <use x="614.941406" xlink:href="#DejaVuSans-117"/>
      <use x="678.320312" xlink:href="#DejaVuSans-110"/>
      <use x="741.699219" xlink:href="#DejaVuSans-109"/>
      <use x="839.111328" xlink:href="#DejaVuSans-97"/>
      <use x="900.390625" xlink:href="#DejaVuSans-112"/>
      <use x="963.867188" xlink:href="#DejaVuSans-112"/>
      <use x="1027.34375" xlink:href="#DejaVuSans-101"/>
      <use x="1088.867188" xlink:href="#DejaVuSans-100"/>
      <use x="1152.34375" xlink:href="#DejaVuSans-41"/>
     </g>
    </g>
   </g>
  </g>
  <g id="axes_2">
   <g id="patch_8">
    <path d="M 90 265.932 
L 648 265.932 
L 648 161.352 
L 90 161.352 
z
" style="fill:#ffffff;"/>
   </g>
   <g id="matplotlib.axis_3">
    <g id="xtick_28">
     <g id="line2d_61">
      <path clip-path="url(#peddda2045c)" d="M 166.951075 265.932 
L 166.951075 161.352 
" style="fill:none;stroke:#b0b0b0;stroke-linecap:square;stroke-width:0.8;"/>
     </g>
     <g id="line2d_62">
      <g>
       <use style="stroke:#000000;stroke-width:0.8;" x="166.951075" xlink:href="#m79e9b785f1" y="265.932"/>
      </g>
     </g>
     <g id="text_17">
      <!-- $\mathdefault{10^{0}}$ -->
      <g transform="translate(158.151075 280.530438)scale(0.1 -0.1)">
       <use transform="translate(0 0.765625)" xlink:href="#DejaVuSans-49"/>
       <use transform="translate(63.623047 0.765625)" xlink:href="#DejaVuSans-48"/>
       <use transform="translate(128.203125 39.046875)scale(0.7)" xlink:href="#DejaVuSans-48"/>
      </g>
     </g>
    </g>
    <g id="xtick_29">
     <g id="line2d_63">
      <path clip-path="url(#peddda2045c)" d="M 358.718932 265.932 
L 358.718932 161.352 
" style="fill:none;stroke:#b0b0b0;stroke-linecap:square;stroke-width:0.8;"/>
     </g>
     <g id="line2d_64">
      <g>
       <use style="stroke:#000000;stroke-width:0.8;" x="358.718932" xlink:href="#m79e9b785f1" y="265.932"/>
      </g>
     </g>
     <g id="text_18">
      <!-- $\mathdefault{10^{1}}$ -->
      <g transform="translate(349.918932 280.530438)scale(0.1 -0.1)">
       <use transform="translate(0 0.684375)" xlink:href="#DejaVuSans-49"/>
       <use transform="translate(63.623047 0.684375)" xlink:href="#DejaVuSans-48"/>
       <use transform="translate(128.203125 38.965625)scale(0.7)" xlink:href="#DejaVuSans-49"/>
      </g>
     </g>
    </g>
    <g id="xtick_30">
     <g id="line2d_65">
      <path clip-path="url(#peddda2045c)" d="M 550.486789 265.932 
L 550.486789 161.352 
" style="fill:none;stroke:#b0b0b0;stroke-linecap:square;stroke-width:0.8;"/>
     </g>
     <g id="line2d_66">
      <g>
       <use style="stroke:#000000;stroke-width:0.8;" x="550.486789" xlink:href="#m79e9b785f1" y="265.932"/>
      </g>
     </g>
     <g id="text_19">
      <!-- $\mathdefault{10^{2}}$ -->
      <g transform="translate(541.686789 280.530438)scale(0.1 -0.1)">
       <use transform="translate(0 0.765625)" xlink:href="#DejaVuSans-49"/>
       <use transform="translate(63.623047 0.765625)" xlink:href="#DejaVuSans-48"/>
       <use transform="translate(128.203125 39.046875)scale(0.7)" xlink:href="#DejaVuSans-50"/>
      </g>
     </g>
    </g>
    <g id="xtick_31">
     <g id="line2d_67">
      <g>
       <use style="stroke:#000000;stroke-width:0.6;" x="90.638972" xlink:href="#m9b39acda4b" y="265.932"/>
      </g>
     </g>
    </g>
    <g id="xtick_32">
     <g id="line2d_68">
      <g>
       <use style="stroke:#000000;stroke-width:0.6;" x="109.223198" xlink:href="#m9b39acda4b" y="265.932"/>
      </g>
     </g>
    </g>
    <g id="xtick_33">
     <g id="line2d_69">
      <g>
       <use style="stroke:#000000;stroke-width:0.6;" x="124.407616" xlink:href="#m9b39acda4b" y="265.932"/>
      </g>
     </g>
    </g>
    <g id="xtick_34">
     <g id="line2d_70">
      <g>
       <use style="stroke:#000000;stroke-width:0.6;" x="137.245858" xlink:href="#m9b39acda4b" y="265.932"/>
      </g>
     </g>
    </g>
    <g id="xtick_35">
     <g id="line2d_71">
      <g>
       <use style="stroke:#000000;stroke-width:0.6;" x="148.36685" xlink:href="#m9b39acda4b" y="265.932"/>
      </g>
     </g>
    </g>
    <g id="xtick_36">
     <g id="line2d_72">
      <g>
       <use style="stroke:#000000;stroke-width:0.6;" x="158.176259" xlink:href="#m9b39acda4b" y="265.932"/>
      </g>
     </g>
    </g>
    <g id="xtick_37">
     <g id="line2d_73">
      <g>
       <use style="stroke:#000000;stroke-width:0.6;" x="224.678952" xlink:href="#m9b39acda4b" y="265.932"/>
      </g>
     </g>
    </g>
    <g id="xtick_38">
     <g id="line2d_74">
      <g>
       <use style="stroke:#000000;stroke-width:0.6;" x="258.447596" xlink:href="#m9b39acda4b" y="265.932"/>
      </g>
     </g>
    </g>
    <g id="xtick_39">
     <g id="line2d_75">
      <g>
       <use style="stroke:#000000;stroke-width:0.6;" x="282.406829" xlink:href="#m9b39acda4b" y="265.932"/>
      </g>
     </g>
    </g>
    <g id="xtick_40">
     <g id="line2d_76">
      <g>
       <use style="stroke:#000000;stroke-width:0.6;" x="300.991055" xlink:href="#m9b39acda4b" y="265.932"/>
      </g>
     </g>
    </g>
    <g id="xtick_41">
     <g id="line2d_77">
      <g>
       <use style="stroke:#000000;stroke-width:0.6;" x="316.175473" xlink:href="#m9b39acda4b" y="265.932"/>
      </g>
     </g>
    </g>
    <g id="xtick_42">
     <g id="line2d_78">
      <g>
       <use style="stroke:#000000;stroke-width:0.6;" x="329.013715" xlink:href="#m9b39acda4b" y="265.932"/>
      </g>
     </g>
    </g>
    <g id="xtick_43">
     <g id="line2d_79">
      <g>
       <use style="stroke:#000000;stroke-width:0.6;" x="340.134707" xlink:href="#m9b39acda4b" y="265.932"/>
      </g>
     </g>
    </g>
    <g id="xtick_44">
     <g id="line2d_80">
      <g>
       <use style="stroke:#000000;stroke-width:0.6;" x="349.944116" xlink:href="#m9b39acda4b" y="265.932"/>
      </g>
     </g>
    </g>
    <g id="xtick_45">
     <g id="line2d_81">
      <g>
       <use style="stroke:#000000;stroke-width:0.6;" x="416.446809" xlink:href="#m9b39acda4b" y="265.932"/>
      </g>
     </g>
    </g>
    <g id="xtick_46">
     <g id="line2d_82">
      <g>
       <use style="stroke:#000000;stroke-width:0.6;" x="450.215453" xlink:href="#m9b39acda4b" y="265.932"/>
      </g>
     </g>
    </g>
    <g id="xtick_47">
     <g id="line2d_83">
      <g>
       <use style="stroke:#000000;stroke-width:0.6;" x="474.174687" xlink:href="#m9b39acda4b" y="265.932"/>
      </g>
     </g>
    </g>
    <g id="xtick_48">
     <g id="line2d_84">
      <g>
       <use style="stroke:#000000;stroke-width:0.6;" x="492.758912" xlink:href="#m9b39acda4b" y="265.932"/>
      </g>
     </g>
    </g>
    <g id="xtick_49">
     <g id="line2d_85">
      <g>
       <use style="stroke:#000000;stroke-width:0.6;" x="507.94333" xlink:href="#m9b39acda4b" y="265.932"/>
      </g>
     </g>
    </g>
    <g id="xtick_50">
     <g id="line2d_86">
      <g>
       <use style="stroke:#000000;stroke-width:0.6;" x="520.781572" xlink:href="#m9b39acda4b" y="265.932"/>
      </g>
     </g>
    </g>
    <g id="xtick_51">
     <g id="line2d_87">
      <g>
       <use style="stroke:#000000;stroke-width:0.6;" x="531.902564" xlink:href="#m9b39acda4b" y="265.932"/>
      </g>
     </g>
    </g>
    <g id="xtick_52">
     <g id="line2d_88">
      <g>
       <use style="stroke:#000000;stroke-width:0.6;" x="541.711973" xlink:href="#m9b39acda4b" y="265.932"/>
      </g>
     </g>
    </g>
    <g id="xtick_53">
     <g id="line2d_89">
      <g>
       <use style="stroke:#000000;stroke-width:0.6;" x="608.214667" xlink:href="#m9b39acda4b" y="265.932"/>
      </g>
     </g>
    </g>
    <g id="xtick_54">
     <g id="line2d_90">
      <g>
       <use style="stroke:#000000;stroke-width:0.6;" x="641.98331" xlink:href="#m9b39acda4b" y="265.932"/>
      </g>
     </g>
    </g>
    <g id="text_20">
     <!-- JSON size (MB) -->
     <g transform="translate(332.155469 294.208563)scale(0.1 -0.1)">
      <use xlink:href="#DejaVuSans-74"/>
      <use x="29.492188" xlink:href="#DejaVuSans-83"/>
      <use x="92.96875" xlink:href="#DejaVuSans-79"/>
      <use x="171.679688" xlink:href="#DejaVuSans-78"/>
      <use x="246.484375" xlink:href="#DejaVuSans-32"/>
      <use x="278.271484" xlink:href="#DejaVuSans-115"/>
      <use x="330.371094" xlink:href="#DejaVuSans-105"/>
      <use x="358.154297" xlink:href="#DejaVuSans-122"/>
      <use x="410.644531" xlink:href="#DejaVuSans-101"/>
      <use x="472.167969" xlink:href="#DejaVuSans-32"/>
      <use x="503.955078" xlink:href="#DejaVuSans-40"/>
      <use x="542.96875" xlink:href="#DejaVuSans-77"/>
      <use x="629.248047" xlink:href="#DejaVuSans-66"/>
      <use x="697.851562" xlink:href="#DejaVuSans-41"/>
     </g>
    </g>
   </g>
   <g id="matplotlib.axis_4">
    <g id="ytick_4">
     <g id="line2d_91">
      <path clip-path="url(#peddda2045c)" d="M 90 264.639265 
L 648 264.639265 
" style="fill:none;stroke:#b0b0b0;stroke-linecap:square;stroke-width:0.8;"/>
     </g>
     <g id="line2d_92">
      <g>
       <use style="stroke:#000000;stroke-width:0.8;" x="90" xlink:href="#m0db9534a00" y="264.639265"/>
      </g>
     </g>
     <g id="text_21">
      <!-- 0.0 -->
      <g transform="translate(67.096875 268.438483)scale(0.1 -0.1)">
       <defs>
        <path d="M 10.6875 12.40625 
L 21 12.40625 
L 21 0 
L 10.6875 0 
z
" id="DejaVuSans-46"/>
       </defs>
       <use xlink:href="#DejaVuSans-48"/>
       <use x="63.623047" xlink:href="#DejaVuSans-46"/>
       <use x="95.410156" xlink:href="#DejaVuSans-48"/>
      </g>
     </g>
    </g>
    <g id="ytick_5">
     <g id="line2d_93">
      <path clip-path="url(#peddda2045c)" d="M 90 243.546784 
L 648 243.546784 
" style="fill:none;stroke:#b0b0b0;stroke-linecap:square;stroke-width:0.8;"/>
     </g>
     <g id="line2d_94">
      <g>
       <use style="stroke:#000000;stroke-width:0.8;" x="90" xlink:href="#m0db9534a00" y="243.546784"/>
      </g>
     </g>
     <g id="text_22">
      <!-- 0.5 -->
      <g transform="translate(67.096875 247.346002)scale(0.1 -0.1)">
       <defs>
        <path d="M 10.796875 72.90625 
L 49.515625 72.90625 
L 49.515625 64.59375 
L 19.828125 64.59375 
L 19.828125 46.734375 
Q 21.96875 47.46875 24.109375 47.828125 
Q 26.265625 48.1875 28.421875 48.1875 
Q 40.625 48.1875 47.75 41.5 
Q 54.890625 34.8125 54.890625 23.390625 
Q 54.890625 11.625 47.5625 5.09375 
Q 40.234375 -1.421875 26.90625 -1.421875 
Q 22.3125 -1.421875 17.546875 -0.640625 
Q 12.796875 0.140625 7.71875 1.703125 
L 7.71875 11.625 
Q 12.109375 9.234375 16.796875 8.0625 
Q 21.484375 6.890625 26.703125 6.890625 
Q 35.15625 6.890625 40.078125 11.328125 
Q 45.015625 15.765625 45.015625 23.390625 
Q 45.015625 31 40.078125 35.4375 
Q 35.15625 39.890625 26.703125 39.890625 
Q 22.75 39.890625 18.8125 39.015625 
Q 14.890625 38.140625 10.796875 36.28125 
z
" id="DejaVuSans-53"/>
       </defs>
       <use xlink:href="#DejaVuSans-48"/>
       <use x="63.623047" xlink:href="#DejaVuSans-46"/>
       <use x="95.410156" xlink:href="#DejaVuSans-53"/>
      </g>
     </g>
    </g>
    <g id="ytick_6">
     <g id="line2d_95">
      <path clip-path="url(#peddda2045c)" d="M 90 222.454303 
L 648 222.454303 
" style="fill:none;stroke:#b0b0b0;stroke-linecap:square;stroke-width:0.8;"/>
     </g>
     <g id="line2d_96">
      <g>
       <use style="stroke:#000000;stroke-width:0.8;" x="90" xlink:href="#m0db9534a00" y="222.454303"/>
      </g>
     </g>
     <g id="text_23">
      <!-- 1.0 -->
      <g transform="translate(67.096875 226.253522)scale(0.1 -0.1)">
       <use xlink:href="#DejaVuSans-49"/>
       <use x="63.623047" xlink:href="#DejaVuSans-46"/>
       <use x="95.410156" xlink:href="#DejaVuSans-48"/>
      </g>
     </g>
    </g>
    <g id="ytick_7">
     <g id="line2d_97">
      <path clip-path="url(#peddda2045c)" d="M 90 201.361822 
L 648 201.361822 
" style="fill:none;stroke:#b0b0b0;stroke-linecap:square;stroke-width:0.8;"/>
     </g>
     <g id="line2d_98">
      <g>
       <use style="stroke:#000000;stroke-width:0.8;" x="90" xlink:href="#m0db9534a00" y="201.361822"/>
      </g>
     </g>
     <g id="text_24">
      <!-- 1.5 -->
      <g transform="translate(67.096875 205.161041)scale(0.1 -0.1)">
       <use xlink:href="#DejaVuSans-49"/>
       <use x="63.623047" xlink:href="#DejaVuSans-46"/>
       <use x="95.410156" xlink:href="#DejaVuSans-53"/>
      </g>
     </g>
    </g>
    <g id="ytick_8">
     <g id="line2d_99">
      <path clip-path="url(#peddda2045c)" d="M 90 180.269341 
L 648 180.269341 
" style="fill:none;stroke:#b0b0b0;stroke-linecap:square;stroke-width:0.8;"/>
     </g>
     <g id="line2d_100">
      <g>
       <use style="stroke:#000000;stroke-width:0.8;" x="90" xlink:href="#m0db9534a00" y="180.269341"/>
      </g>
     </g>
     <g id="text_25">
      <!-- 2.0 -->
      <g transform="translate(67.096875 184.06856)scale(0.1 -0.1)">
       <use xlink:href="#DejaVuSans-50"/>
       <use x="63.623047" xlink:href="#DejaVuSans-46"/>
       <use x="95.410156" xlink:href="#DejaVuSans-48"/>
      </g>
     </g>
    </g>
    <g id="text_26">
     <!-- Decode time (ratio) -->
     <g transform="translate(61.017187 262.531844)rotate(-90)scale(0.1 -0.1)">
      <defs>
       <path d="M 19.671875 64.796875 
L 19.671875 8.109375 
L 31.59375 8.109375 
Q 46.6875 8.109375 53.6875 14.9375 
Q 60.6875 21.78125 60.6875 36.53125 
Q 60.6875 51.171875 53.6875 57.984375 
Q 46.6875 64.796875 31.59375 64.796875 
z
M 9.8125 72.90625 
L 30.078125 72.90625 
Q 51.265625 72.90625 61.171875 64.09375 
Q 71.09375 55.28125 71.09375 36.53125 
Q 71.09375 17.671875 61.125 8.828125 
Q 51.171875 0 30.078125 0 
L 9.8125 0 
z
" id="DejaVuSans-68"/>
      </defs>
      <use xlink:href="#DejaVuSans-68"/>
      <use x="77.001953" xlink:href="#DejaVuSans-101"/>
      <use x="138.525391" xlink:href="#DejaVuSans-99"/>
      <use x="193.505859" xlink:href="#DejaVuSans-111"/>
      <use x="254.6875" xlink:href="#DejaVuSans-100"/>
      <use x="318.164062" xlink:href="#DejaVuSans-101"/>
      <use x="379.6875" xlink:href="#DejaVuSans-32"/>
      <use x="411.474609" xlink:href="#DejaVuSans-116"/>
      <use x="450.683594" xlink:href="#DejaVuSans-105"/>
      <use x="478.466797" xlink:href="#DejaVuSans-109"/>
      <use x="575.878906" xlink:href="#DejaVuSans-101"/>
      <use x="637.402344" xlink:href="#DejaVuSans-32"/>
      <use x="669.189453" xlink:href="#DejaVuSans-40"/>
      <use x="708.203125" xlink:href="#DejaVuSans-114"/>
      <use x="749.316406" xlink:href="#DejaVuSans-97"/>
      <use x="810.595703" xlink:href="#DejaVuSans-116"/>
      <use x="849.804688" xlink:href="#DejaVuSans-105"/>
      <use x="877.587891" xlink:href="#DejaVuSans-111"/>
      <use x="938.769531" xlink:href="#DejaVuSans-41"/>
     </g>
    </g>
   </g>
   <g id="line2d_101">
    <path clip-path="url(#peddda2045c)" d="M 115.363636 224.61752 
L 125.293172 224.096069 
L 135.224169 229.288165 
L 145.15264 230.382701 
L 155.077552 230.343117 
L 164.998156 229.974554 
L 174.916324 227.327936 
L 184.830331 230.901716 
L 194.741239 199.549687 
L 204.647421 228.470963 
L 214.54926 236.173403 
L 224.446666 229.037917 
L 234.339827 228.770161 
L 244.229245 208.385522 
L 254.114098 228.679732 
L 263.994106 228.08582 
L 273.869057 216.250253 
L 283.739435 214.077288 
L 293.60461 226.221544 
L 303.465292 219.857932 
L 313.32069 209.784177 
L 323.17107 226.486201 
L 333.016436 216.311466 
L 342.856771 220.414554 
L 352.692013 215.293495 
L 362.522702 222.404743 
L 381.088042 224.891363 
L 399.625657 216.178675 
L 418.209883 223.171482 
L 436.794108 216.966924 
L 455.378334 191.418165 
L 473.962559 216.85742 
L 492.546785 216.496913 
L 511.13101 210.722642 
L 529.715236 220.589543 
L 548.299462 191.913821 
L 566.883687 207.213503 
L 585.467913 190.379175 
L 604.052138 209.901068 
L 622.636364 187.985656 
" style="fill:none;stroke:#1f77b4;stroke-linecap:square;stroke-width:1.5;"/>
   </g>
   <g id="line2d_102">
    <path clip-path="url(#peddda2045c)" d="M 115.363636 242.73676 
L 125.293172 242.392687 
L 135.224169 242.373511 
L 145.15264 244.554907 
L 155.077552 244.088069 
L 164.998156 243.858812 
L 174.916324 243.239093 
L 184.830331 244.817579 
L 194.741239 223.295328 
L 204.647421 168.582761 
L 214.54926 247.540042 
L 224.446666 243.139163 
L 234.339827 226.593257 
L 244.229245 242.931926 
L 254.114098 231.937638 
L 263.994106 228.13162 
L 273.869057 206.277838 
L 283.739435 227.716777 
L 293.60461 242.021179 
L 303.465292 243.947443 
L 313.32069 226.385207 
L 323.17107 238.33662 
L 333.016436 228.078913 
L 342.856771 239.89915 
L 352.692013 231.542672 
L 362.522702 235.038862 
L 381.088042 237.782703 
L 399.625657 238.533125 
L 418.209883 238.124787 
L 436.794108 239.65982 
L 455.378334 239.150934 
L 473.962559 234.468232 
L 492.546785 237.514777 
L 511.13101 246.637764 
L 529.715236 240.331165 
L 548.299462 240.030042 
L 566.883687 246.370656 
L 585.467913 235.311858 
L 604.052138 238.346444 
L 622.636364 231.184873 
" style="fill:none;stroke:#ff7f0e;stroke-linecap:square;stroke-width:1.5;"/>
   </g>
   <g id="line2d_103">
    <path clip-path="url(#peddda2045c)" d="M 115.363636 222.454303 
L 125.293172 222.454303 
L 135.224169 222.454303 
L 145.15264 222.454303 
L 155.077552 222.454303 
L 164.998156 222.454303 
L 174.916324 222.454303 
L 184.830331 222.454303 
L 194.741239 222.454303 
L 204.647421 222.454303 
L 214.54926 222.454303 
L 224.446666 222.454303 
L 234.339827 222.454303 
L 244.229245 222.454303 
L 254.114098 222.454303 
L 263.994106 222.454303 
L 273.869057 222.454303 
L 283.739435 222.454303 
L 293.60461 222.454303 
L 303.465292 222.454303 
L 313.32069 222.454303 
L 323.17107 222.454303 
L 333.016436 222.454303 
L 342.856771 222.454303 
L 352.692013 222.454303 
L 362.522702 222.454303 
L 381.088042 222.454303 
L 399.625657 222.454303 
L 418.209883 222.454303 
L 436.794108 222.454303 
L 455.378334 222.454303 
L 473.962559 222.454303 
L 492.546785 222.454303 
L 511.13101 222.454303 
L 529.715236 222.454303 
L 548.299462 222.454303 
L 566.883687 222.454303 
L 585.467913 222.454303 
L 604.052138 222.454303 
L 622.636364 222.454303 
" style="fill:none;stroke:#2ca02c;stroke-linecap:square;stroke-width:1.5;"/>
   </g>
   <g id="line2d_104">
    <path clip-path="url(#peddda2045c)" d="M 115.363636 229.210313 
L 125.293172 232.00007 
L 135.224169 231.678712 
L 145.15264 233.408175 
L 155.077552 232.892167 
L 164.998156 231.874177 
L 174.916324 230.68545 
L 184.830331 233.44621 
L 194.741239 232.207883 
L 204.647421 230.211474 
L 214.54926 238.886027 
L 224.446666 232.240825 
L 234.339827 233.070927 
L 244.229245 232.746713 
L 254.114098 229.69358 
L 263.994106 230.971922 
L 273.869057 224.726583 
L 283.739435 231.364315 
L 293.60461 230.563812 
L 303.465292 230.648677 
L 313.32069 227.61977 
L 323.17107 230.439137 
L 333.016436 230.612398 
L 342.856771 231.301402 
L 352.692013 226.02242 
L 362.522702 231.180603 
L 381.088042 229.599821 
L 399.625657 224.774664 
L 418.209883 224.713854 
L 436.794108 221.562735 
L 455.378334 227.329617 
L 473.962559 216.274324 
L 492.546785 226.689187 
L 511.13101 239.485366 
L 529.715236 228.666353 
L 548.299462 224.966414 
L 566.883687 222.969839 
L 585.467913 228.603714 
L 604.052138 230.013371 
L 622.636364 229.559464 
" style="fill:none;stroke:#d62728;stroke-linecap:square;stroke-width:1.5;"/>
   </g>
   <g id="line2d_105">
    <path clip-path="url(#peddda2045c)" d="M 115.363636 259.234361 
L 125.293172 259.042059 
L 135.224169 260.495502 
L 145.15264 260.540837 
L 155.077552 251.816495 
L 164.998156 254.547416 
L 174.916324 260.258273 
L 184.830331 260.426882 
L 194.741239 253.589611 
L 204.647421 228.910624 
L 214.54926 261.06543 
L 224.446666 260.16142 
L 234.339827 260.358348 
L 244.229245 260.305151 
L 254.114098 259.894236 
L 263.994106 260.366347 
L 273.869057 252.443589 
L 283.739435 260.499762 
L 293.60461 261.178364 
L 303.465292 260.649723 
L 313.32069 256.505377 
L 323.17107 261.070771 
L 333.016436 260.644342 
L 342.856771 257.599023 
L 352.692013 247.282416 
L 362.522702 261.057012 
L 381.088042 227.887572 
L 399.625657 251.545586 
L 418.209883 252.161596 
L 436.794108 250.900447 
L 455.378334 254.875245 
L 473.962559 252.906431 
L 492.546785 253.746286 
L 511.13101 255.474241 
L 529.715236 252.57776 
L 548.299462 253.393258 
L 566.883687 256.629236 
L 585.467913 253.711709 
L 604.052138 256.567299 
L 622.636364 254.507042 
" style="fill:none;stroke:#9467bd;stroke-linecap:square;stroke-width:1.5;"/>
   </g>
   <g id="line2d_106">
    <path clip-path="url(#peddda2045c)" d="M 115.363636 258.900067 
L 125.293172 258.30835 
L 135.224169 258.696759 
L 145.15264 259.170822 
L 155.077552 250.576454 
L 164.998156 253.115024 
L 174.916324 258.965561 
L 184.830331 258.835663 
L 194.741239 259.14781 
L 204.647421 232.051912 
L 214.54926 260.082742 
L 224.446666 258.896093 
L 234.339827 259.286483 
L 244.229245 259.130073 
L 254.114098 259.239466 
L 263.994106 258.402072 
L 273.869057 251.757489 
L 283.739435 259.160211 
L 293.60461 260.218454 
L 303.465292 259.1711 
L 313.32069 253.258002 
L 323.17107 259.865561 
L 333.016436 259.55748 
L 342.856771 256.756019 
L 352.692013 245.945782 
L 362.522702 259.986367 
L 381.088042 240.987741 
L 399.625657 250.55306 
L 418.209883 251.288285 
L 436.794108 250.380297 
L 455.378334 250.130529 
L 473.962559 250.647002 
L 492.546785 249.810574 
L 511.13101 255.439302 
L 529.715236 251.367252 
L 548.299462 251.816089 
L 566.883687 254.731343 
L 585.467913 252.799828 
L 604.052138 254.933137 
L 622.636364 252.851147 
" style="fill:none;stroke:#8c564b;stroke-linecap:square;stroke-width:1.5;"/>
   </g>
   <g id="line2d_107">
    <path clip-path="url(#peddda2045c)" d="M 115.363636 238.594553 
L 125.293172 252.340827 
L 135.224169 255.392867 
L 145.15264 256.987613 
L 155.077552 238.217219 
L 164.998156 256.290478 
L 174.916324 256.398237 
L 184.830331 256.632106 
L 194.741239 256.311304 
L 204.647421 256.193174 
L 214.54926 258.074365 
L 224.446666 225.790285 
L 234.339827 256.739777 
L 244.229245 256.09655 
L 254.114098 256.475903 
L 263.994106 256.362661 
L 273.869057 245.281008 
L 283.739435 256.509585 
L 293.60461 251.132443 
L 303.465292 255.494352 
L 313.32069 256.314549 
L 323.17107 256.833824 
L 333.016436 246.312681 
L 342.856771 238.448187 
L 352.692013 244.690363 
L 362.522702 247.512409 
L 381.088042 249.589908 
L 399.625657 245.871676 
L 418.209883 243.684212 
L 436.794108 246.000105 
L 455.378334 248.359044 
L 473.962559 249.206183 
L 492.546785 248.889176 
L 511.13101 253.866906 
L 529.715236 249.868947 
L 548.299462 249.241722 
L 566.883687 251.620705 
L 585.467913 247.281356 
L 604.052138 252.578786 
L 622.636364 248.154385 
" style="fill:none;stroke:#e377c2;stroke-linecap:square;stroke-width:1.5;"/>
   </g>
   <g id="line2d_108">
    <path clip-path="url(#peddda2045c)" d="M 115.363636 212.292516 
L 125.293172 221.513688 
L 135.224169 204.575732 
L 145.15264 221.613985 
L 155.077552 224.152679 
L 164.998156 221.810746 
L 174.916324 217.139612 
L 184.830331 223.140122 
L 194.741239 206.235962 
L 204.647421 229.018101 
L 214.54926 234.017541 
L 224.446666 166.105636 
L 234.339827 217.733642 
L 244.229245 214.368504 
L 254.114098 224.18465 
L 263.994106 217.456304 
L 273.869057 213.973651 
L 283.739435 226.712518 
L 293.60461 232.752551 
L 303.465292 212.467526 
L 313.32069 220.925616 
L 323.17107 229.796072 
L 333.016436 221.647872 
L 342.856771 226.919249 
L 352.692013 218.090114 
L 362.522702 222.295874 
L 381.088042 226.971365 
L 399.625657 226.915285 
L 418.209883 227.234265 
L 436.794108 212.987517 
L 455.378334 225.313381 
L 473.962559 210.72503 
L 492.546785 200.456252 
L 511.13101 229.731586 
L 529.715236 214.977714 
L 548.299462 216.65793 
L 566.883687 227.322504 
L 585.467913 216.254023 
L 604.052138 228.694103 
L 622.636364 215.920851 
" style="fill:none;stroke:#7f7f7f;stroke-linecap:square;stroke-width:1.5;"/>
   </g>
   <g id="patch_9">
    <path d="M 90 265.932 
L 90 161.352 
" style="fill:none;stroke:#000000;stroke-linecap:square;stroke-linejoin:miter;stroke-width:0.8;"/>
   </g>
   <g id="patch_10">
    <path d="M 648 265.932 
L 648 161.352 
" style="fill:none;stroke:#000000;stroke-linecap:square;stroke-linejoin:miter;stroke-width:0.8;"/>
   </g>
   <g id="patch_11">
    <path d="M 90 265.932 
L 648 265.932 
" style="fill:none;stroke:#000000;stroke-linecap:square;stroke-linejoin:miter;stroke-width:0.8;"/>
   </g>
   <g id="patch_12">
    <path d="M 90 161.352 
L 648 161.352 
" style="fill:none;stroke:#000000;stroke-linecap:square;stroke-linejoin:miter;stroke-width:0.8;"/>
   </g>
  </g>
 </g>
 <defs>
  <clipPath id="p248f65d684">
   <rect height="104.58" width="558" x="90" y="35.856"/>
  </clipPath>
  <clipPath id="peddda2045c">
   <rect height="104.58" width="558" x="90" y="161.352"/>
  </clipPath>
 </defs>
</svg>
