<?xml version="1.0" encoding="utf-8" standalone="no"?>
<!DOCTYPE svg PUBLIC "-//W3C//DTD SVG 1.1//EN"
  "http://www.w3.org/Graphics/SVG/1.1/DTD/svg11.dtd">
<svg xmlns:xlink="http://www.w3.org/1999/xlink" width="720pt" height="298.8pt" viewBox="0 0 720 298.8" xmlns="http://www.w3.org/2000/svg" version="1.1">
 <metadata>
  <rdf:RDF xmlns:dc="http://purl.org/dc/elements/1.1/" xmlns:cc="http://creativecommons.org/ns#" xmlns:rdf="http://www.w3.org/1999/02/22-rdf-syntax-ns#">
   <cc:Work>
    <dc:type rdf:resource="http://purl.org/dc/dcmitype/StillImage"/>
    <dc:date>2026-02-08T02:02:31.236271</dc:date>
    <dc:format>image/svg+xml</dc:format>
    <dc:creator>
     <cc:Agent>
      <dc:title>Matplotlib v3.10.7, https://matplotlib.org/</dc:title>
     </cc:Agent>
    </dc:creator>
   </cc:Work>
  </rdf:RDF>
 </metadata>
 <defs>
  <style type="text/css">*{stroke-linejoin: round; stroke-linecap: butt}</style>
 </defs>
 <g id="figure_1">
  <g id="patch_1">
   <path d="M 0 298.8 
L 720 298.8 
L 720 0 
L 0 0 
z
" style="fill: #ffffff"/>
  </g>
  <g id="axes_1">
   <g id="patch_2">
    <path d="M 90 140.436 
L 648 140.436 
L 648 35.856 
L 90 35.856 
z
" style="fill: #ffffff"/>
   </g>
   <g id="matplotlib.axis_1">
    <g id="xtick_1">
     <g id="line2d_1">
      <path d="M 166.951075 140.436 
L 166.951075 35.856 
" clip-path="url(#p0c86757404)" style="fill: none; stroke: #b0b0b0; stroke-width: 0.8; stroke-linecap: square"/>
     </g>
     <g id="line2d_2">
      <defs>
       <path id="m053657eedd" d="M 0 0 
L 0 3.5 
" style="stroke: #000000; stroke-width: 0.8"/>
      </defs>
      <g>
       <use xlink:href="#m053657eedd" x="166.951075" y="140.436" style="stroke: #000000; stroke-width: 0.8"/>
      </g>
     </g>
     <g id="text_1">
      <!-- $\mathdefault{10^{0}}$ -->
      <g transform="translate(158.151075 155.034437) scale(0.1 -0.1)">
       <defs>
        <path id="DejaVuSans-31" d="M 794 531 
L 1825 531 
L 1825 4091 
L 703 3866 
L 703 4441 
L 1819 4666 
L 2450 4666 
L 2450 531 
L 3481 531 
L 3481 0 
L 794 0 
L 794 531 
z
" transform="scale(0.015625)"/>
        <path id="DejaVuSans-30" d="M 2034 4250 
Q 1547 4250 1301 3770 
Q 1056 3291 1056 2328 
Q 1056 1369 1301 889 
Q 1547 409 2034 409 
Q 2525 409 2770 889 
Q 3016 1369 3016 2328 
Q 3016 3291 2770 3770 
Q 2525 4250 2034 4250 
z
M 2034 4750 
Q 2819 4750 3233 4129 
Q 3647 3509 3647 2328 
Q 3647 1150 3233 529 
Q 2819 -91 2034 -91 
Q 1250 -91 836 529 
Q 422 1150 422 2328 
Q 422 3509 836 4129 
Q 1250 4750 2034 4750 
z
" transform="scale(0.015625)"/>
       </defs>
       <use xlink:href="#DejaVuSans-31" transform="translate(0 0.765625)"/>
       <use xlink:href="#DejaVuSans-30" transform="translate(63.623047 0.765625)"/>
       <use xlink:href="#DejaVuSans-30" transform="translate(128.203125 39.046875) scale(0.7)"/>
      </g>
     </g>
    </g>
    <g id="xtick_2">
     <g id="line2d_3">
      <path d="M 358.718932 140.436 
L 358.718932 35.856 
" clip-path="url(#p0c86757404)" style="fill: none; stroke: #b0b0b0; stroke-width: 0.8; stroke-linecap: square"/>
     </g>
     <g id="line2d_4">
      <g>
       <use xlink:href="#m053657eedd" x="358.718932" y="140.436" style="stroke: #000000; stroke-width: 0.8"/>
      </g>
     </g>
     <g id="text_2">
      <!-- $\mathdefault{10^{1}}$ -->
      <g transform="translate(349.918932 155.034437) scale(0.1 -0.1)">
       <use xlink:href="#DejaVuSans-31" transform="translate(0 0.684375)"/>
       <use xlink:href="#DejaVuSans-30" transform="translate(63.623047 0.684375)"/>
       <use xlink:href="#DejaVuSans-31" transform="translate(128.203125 38.965625) scale(0.7)"/>
      </g>
     </g>
    </g>
    <g id="xtick_3">
     <g id="line2d_5">
      <path d="M 550.486789 140.436 
L 550.486789 35.856 
" clip-path="url(#p0c86757404)" style="fill: none; stroke: #b0b0b0; stroke-width: 0.8; stroke-linecap: square"/>
     </g>
     <g id="line2d_6">
      <g>
       <use xlink:href="#m053657eedd" x="550.486789" y="140.436" style="stroke: #000000; stroke-width: 0.8"/>
      </g>
     </g>
     <g id="text_3">
      <!-- $\mathdefault{10^{2}}$ -->
      <g transform="translate(541.686789 155.034437) scale(0.1 -0.1)">
       <defs>
        <path id="DejaVuSans-32" d="M 1228 531 
L 3431 531 
L 3431 0 
L 469 0 
L 469 531 
Q 828 903 1448 1529 
Q 2069 2156 2228 2338 
Q 2531 2678 2651 2914 
Q 2772 3150 2772 3378 
Q 2772 3750 2511 3984 
Q 2250 4219 1831 4219 
Q 1534 4219 1204 4116 
Q 875 4013 500 3803 
L 500 4441 
Q 881 4594 1212 4672 
Q 1544 4750 1819 4750 
Q 2544 4750 2975 4387 
Q 3406 4025 3406 3419 
Q 3406 3131 3298 2873 
Q 3191 2616 2906 2266 
Q 2828 2175 2409 1742 
Q 1991 1309 1228 531 
z
" transform="scale(0.015625)"/>
       </defs>
       <use xlink:href="#DejaVuSans-31" transform="translate(0 0.765625)"/>
       <use xlink:href="#DejaVuSans-30" transform="translate(63.623047 0.765625)"/>
       <use xlink:href="#DejaVuSans-32" transform="translate(128.203125 39.046875) scale(0.7)"/>
      </g>
     </g>
    </g>
    <g id="xtick_4">
     <g id="line2d_7">
      <defs>
       <path id="m2fab788e4a" d="M 0 0 
L 0 2 
" style="stroke: #000000; stroke-width: 0.6"/>
      </defs>
      <g>
       <use xlink:href="#m2fab788e4a" x="90.638972" y="140.436" style="stroke: #000000; stroke-width: 0.6"/>
      </g>
     </g>
    </g>
    <g id="xtick_5">
     <g id="line2d_8">
      <g>
       <use xlink:href="#m2fab788e4a" x="109.223198" y="140.436" style="stroke: #000000; stroke-width: 0.6"/>
      </g>
     </g>
    </g>
    <g id="xtick_6">
     <g id="line2d_9">
      <g>
       <use xlink:href="#m2fab788e4a" x="124.407616" y="140.436" style="stroke: #000000; stroke-width: 0.6"/>
      </g>
     </g>
    </g>
    <g id="xtick_7">
     <g id="line2d_10">
      <g>
       <use xlink:href="#m2fab788e4a" x="137.245858" y="140.436" style="stroke: #000000; stroke-width: 0.6"/>
      </g>
     </g>
    </g>
    <g id="xtick_8">
     <g id="line2d_11">
      <g>
       <use xlink:href="#m2fab788e4a" x="148.36685" y="140.436" style="stroke: #000000; stroke-width: 0.6"/>
      </g>
     </g>
    </g>
    <g id="xtick_9">
     <g id="line2d_12">
      <g>
       <use xlink:href="#m2fab788e4a" x="158.176259" y="140.436" style="stroke: #000000; stroke-width: 0.6"/>
      </g>
     </g>
    </g>
    <g id="xtick_10">
     <g id="line2d_13">
      <g>
       <use xlink:href="#m2fab788e4a" x="224.678952" y="140.436" style="stroke: #000000; stroke-width: 0.6"/>
      </g>
     </g>
    </g>
    <g id="xtick_11">
     <g id="line2d_14">
      <g>
       <use xlink:href="#m2fab788e4a" x="258.447596" y="140.436" style="stroke: #000000; stroke-width: 0.6"/>
      </g>
     </g>
    </g>
    <g id="xtick_12">
     <g id="line2d_15">
      <g>
       <use xlink:href="#m2fab788e4a" x="282.406829" y="140.436" style="stroke: #000000; stroke-width: 0.6"/>
      </g>
     </g>
    </g>
    <g id="xtick_13">
     <g id="line2d_16">
      <g>
       <use xlink:href="#m2fab788e4a" x="300.991055" y="140.436" style="stroke: #000000; stroke-width: 0.6"/>
      </g>
     </g>
    </g>
    <g id="xtick_14">
     <g id="line2d_17">
      <g>
       <use xlink:href="#m2fab788e4a" x="316.175473" y="140.436" style="stroke: #000000; stroke-width: 0.6"/>
      </g>
     </g>
    </g>
    <g id="xtick_15">
     <g id="line2d_18">
      <g>
       <use xlink:href="#m2fab788e4a" x="329.013715" y="140.436" style="stroke: #000000; stroke-width: 0.6"/>
      </g>
     </g>
    </g>
    <g id="xtick_16">
     <g id="line2d_19">
      <g>
       <use xlink:href="#m2fab788e4a" x="340.134707" y="140.436" style="stroke: #000000; stroke-width: 0.6"/>
      </g>
     </g>
    </g>
    <g id="xtick_17">
     <g id="line2d_20">
      <g>
       <use xlink:href="#m2fab788e4a" x="349.944116" y="140.436" style="stroke: #000000; stroke-width: 0.6"/>
      </g>
     </g>
    </g>
    <g id="xtick_18">
     <g id="line2d_21">
      <g>
       <use xlink:href="#m2fab788e4a" x="416.446809" y="140.436" style="stroke: #000000; stroke-width: 0.6"/>
      </g>
     </g>
    </g>
    <g id="xtick_19">
     <g id="line2d_22">
      <g>
       <use xlink:href="#m2fab788e4a" x="450.215453" y="140.436" style="stroke: #000000; stroke-width: 0.6"/>
      </g>
     </g>
    </g>
    <g id="xtick_20">
     <g id="line2d_23">
      <g>
       <use xlink:href="#m2fab788e4a" x="474.174687" y="140.436" style="stroke: #000000; stroke-width: 0.6"/>
      </g>
     </g>
    </g>
    <g id="xtick_21">
     <g id="line2d_24">
      <g>
       <use xlink:href="#m2fab788e4a" x="492.758912" y="140.436" style="stroke: #000000; stroke-width: 0.6"/>
      </g>
     </g>
    </g>
    <g id="xtick_22">
     <g id="line2d_25">
      <g>
       <use xlink:href="#m2fab788e4a" x="507.94333" y="140.436" style="stroke: #000000; stroke-width: 0.6"/>
      </g>
     </g>
    </g>
    <g id="xtick_23">
     <g id="line2d_26">
      <g>
       <use xlink:href="#m2fab788e4a" x="520.781572" y="140.436" style="stroke: #000000; stroke-width: 0.6"/>
      </g>
     </g>
    </g>
    <g id="xtick_24">
     <g id="line2d_27">
      <g>
       <use xlink:href="#m2fab788e4a" x="531.902564" y="140.436" style="stroke: #000000; stroke-width: 0.6"/>
      </g>
     </g>
    </g>
    <g id="xtick_25">
     <g id="line2d_28">
      <g>
       <use xlink:href="#m2fab788e4a" x="541.711973" y="140.436" style="stroke: #000000; stroke-width: 0.6"/>
      </g>
     </g>
    </g>
    <g id="xtick_26">
     <g id="line2d_29">
      <g>
       <use xlink:href="#m2fab788e4a" x="608.214667" y="140.436" style="stroke: #000000; stroke-width: 0.6"/>
      </g>
     </g>
    </g>
    <g id="xtick_27">
     <g id="line2d_30">
      <g>
       <use xlink:href="#m2fab788e4a" x="641.98331" y="140.436" style="stroke: #000000; stroke-width: 0.6"/>
      </g>
     </g>
    </g>
    <g id="text_4">
     <!-- JSON size (MB) -->
     <g transform="translate(332.155469 168.712562) scale(0.1 -0.1)">
      <defs>
       <path id="DejaVuSans-4a" d="M 628 4666 
L 1259 4666 
L 1259 325 
Q 1259 -519 939 -900 
Q 619 -1281 -91 -1281 
L -331 -1281 
L -331 -750 
L -134 -750 
Q 284 -750 456 -515 
Q 628 -281 628 325 
L 628 4666 
z
" transform="scale(0.015625)"/>
       <path id="DejaVuSans-53" d="M 3425 4513 
L 3425 3897 
Q 3066 4069 2747 4153 
Q 2428 4238 2131 4238 
Q 1616 4238 1336 4038 
Q 1056 3838 1056 3469 
Q 1056 3159 1242 3001 
Q 1428 2844 1947 2747 
L 2328 2669 
Q 3034 2534 3370 2195 
Q 3706 1856 3706 1288 
Q 3706 609 3251 259 
Q 2797 -91 1919 -91 
Q 1588 -91 1214 -16 
Q 841 59 441 206 
L 441 856 
Q 825 641 1194 531 
Q 1563 422 1919 422 
Q 2459 422 2753 634 
Q 3047 847 3047 1241 
Q 3047 1584 2836 1778 
Q 2625 1972 2144 2069 
L 1759 2144 
Q 1053 2284 737 2584 
Q 422 2884 422 3419 
Q 422 4038 858 4394 
Q 1294 4750 2059 4750 
Q 2388 4750 2728 4690 
Q 3069 4631 3425 4513 
z
" transform="scale(0.015625)"/>
       <path id="DejaVuSans-4f" d="M 2522 4238 
Q 1834 4238 1429 3725 
Q 1025 3213 1025 2328 
Q 1025 1447 1429 934 
Q 1834 422 2522 422 
Q 3209 422 3611 934 
Q 4013 1447 4013 2328 
Q 4013 3213 3611 3725 
Q 3209 4238 2522 4238 
z
M 2522 4750 
Q 3503 4750 4090 4092 
Q 4678 3434 4678 2328 
Q 4678 1225 4090 567 
Q 3503 -91 2522 -91 
Q 1538 -91 948 565 
Q 359 1222 359 2328 
Q 359 3434 948 4092 
Q 1538 4750 2522 4750 
z
" transform="scale(0.015625)"/>
       <path id="DejaVuSans-4e" d="M 628 4666 
L 1478 4666 
L 3547 763 
L 3547 4666 
L 4159 4666 
L 4159 0 
L 3309 0 
L 1241 3903 
L 1241 0 
L 628 0 
L 628 4666 
z
" transform="scale(0.015625)"/>
       <path id="DejaVuSans-20" transform="scale(0.015625)"/>
       <path id="DejaVuSans-73" d="M 2834 3397 
L 2834 2853 
Q 2591 2978 2328 3040 
Q 2066 3103 1784 3103 
Q 1356 3103 1142 2972 
Q 928 2841 928 2578 
Q 928 2378 1081 2264 
Q 1234 2150 1697 2047 
L 1894 2003 
Q 2506 1872 2764 1633 
Q 3022 1394 3022 966 
Q 3022 478 2636 193 
Q 2250 -91 1575 -91 
Q 1294 -91 989 -36 
Q 684 19 347 128 
L 347 722 
Q 666 556 975 473 
Q 1284 391 1588 391 
Q 1994 391 2212 530 
Q 2431 669 2431 922 
Q 2431 1156 2273 1281 
Q 2116 1406 1581 1522 
L 1381 1569 
Q 847 1681 609 1914 
Q 372 2147 372 2553 
Q 372 3047 722 3315 
Q 1072 3584 1716 3584 
Q 2034 3584 2315 3537 
Q 2597 3491 2834 3397 
z
" transform="scale(0.015625)"/>
       <path id="DejaVuSans-69" d="M 603 3500 
L 1178 3500 
L 1178 0 
L 603 0 
L 603 3500 
z
M 603 4863 
L 1178 4863 
L 1178 4134 
L 603 4134 
L 603 4863 
z
" transform="scale(0.015625)"/>
       <path id="DejaVuSans-7a" d="M 353 3500 
L 3084 3500 
L 3084 2975 
L 922 459 
L 3084 459 
L 3084 0 
L 275 0 
L 275 525 
L 2438 3041 
L 353 3041 
L 353 3500 
z
" transform="scale(0.015625)"/>
       <path id="DejaVuSans-65" d="M 3597 1894 
L 3597 1613 
L 953 1613 
Q 991 1019 1311 708 
Q 1631 397 2203 397 
Q 2534 397 2845 478 
Q 3156 559 3463 722 
L 3463 178 
Q 3153 47 2828 -22 
Q 2503 -91 2169 -91 
Q 1331 -91 842 396 
Q 353 884 353 1716 
Q 353 2575 817 3079 
Q 1281 3584 2069 3584 
Q 2775 3584 3186 3129 
Q 3597 2675 3597 1894 
z
M 3022 2063 
Q 3016 2534 2758 2815 
Q 2500 3097 2075 3097 
Q 1594 3097 1305 2825 
Q 1016 2553 972 2059 
L 3022 2063 
z
" transform="scale(0.015625)"/>
       <path id="DejaVuSans-28" d="M 1984 4856 
Q 1566 4138 1362 3434 
Q 1159 2731 1159 2009 
Q 1159 1288 1364 580 
Q 1569 -128 1984 -844 
L 1484 -844 
Q 1016 -109 783 600 
Q 550 1309 550 2009 
Q 550 2706 781 3412 
Q 1013 4119 1484 4856 
L 1984 4856 
z
" transform="scale(0.015625)"/>
       <path id="DejaVuSans-4d" d="M 628 4666 
L 1569 4666 
L 2759 1491 
L 3956 4666 
L 4897 4666 
L 4897 0 
L 4281 0 
L 4281 4097 
L 3078 897 
L 2444 897 
L 1241 4097 
L 1241 0 
L 628 0 
L 628 4666 
z
" transform="scale(0.015625)"/>
       <path id="DejaVuSans-42" d="M 1259 2228 
L 1259 519 
L 2272 519 
Q 2781 519 3026 730 
Q 3272 941 3272 1375 
Q 3272 1813 3026 2020 
Q 2781 2228 2272 2228 
L 1259 2228 
z
M 1259 4147 
L 1259 2741 
L 2194 2741 
Q 2656 2741 2882 2914 
Q 3109 3088 3109 3444 
Q 3109 3797 2882 3972 
Q 2656 4147 2194 4147 
L 1259 4147 
z
M 628 4666 
L 2241 4666 
Q 2963 4666 3353 4366 
Q 3744 4066 3744 3513 
Q 3744 3084 3544 2831 
Q 3344 2578 2956 2516 
Q 3422 2416 3680 2098 
Q 3938 1781 3938 1306 
Q 3938 681 3513 340 
Q 3088 0 2303 0 
L 628 0 
L 628 4666 
z
" transform="scale(0.015625)"/>
       <path id="DejaVuSans-29" d="M 513 4856 
L 1013 4856 
Q 1481 4119 1714 3412 
Q 1947 2706 1947 2009 
Q 1947 1309 1714 600 
Q 1481 -109 1013 -844 
L 513 -844 
Q 928 -128 1133 580 
Q 1338 1288 1338 2009 
Q 1338 2731 1133 3434 
Q 928 4138 513 4856 
z
" transform="scale(0.015625)"/>
      </defs>
      <use xlink:href="#DejaVuSans-4a"/>
      <use xlink:href="#DejaVuSans-53" transform="translate(29.492188 0)"/>
      <use xlink:href="#DejaVuSans-4f" transform="translate(92.96875 0)"/>
      <use xlink:href="#DejaVuSans-4e" transform="translate(171.679688 0)"/>
      <use xlink:href="#DejaVuSans-20" transform="translate(246.484375 0)"/>
      <use xlink:href="#DejaVuSans-73" transform="translate(278.271484 0)"/>
      <use xlink:href="#DejaVuSans-69" transform="translate(330.371094 0)"/>
      <use xlink:href="#DejaVuSans-7a" transform="translate(358.154297 0)"/>
      <use xlink:href="#DejaVuSans-65" transform="translate(410.644531 0)"/>
      <use xlink:href="#DejaVuSans-20" transform="translate(472.167969 0)"/>
      <use xlink:href="#DejaVuSans-28" transform="translate(503.955078 0)"/>
      <use xlink:href="#DejaVuSans-4d" transform="translate(542.96875 0)"/>
      <use xlink:href="#DejaVuSans-42" transform="translate(629.248047 0)"/>
      <use xlink:href="#DejaVuSans-29" transform="translate(697.851562 0)"/>
     </g>
    </g>
   </g>
   <g id="matplotlib.axis_2">
    <g id="ytick_1">
     <g id="line2d_31">
      <path d="M 90 118.658206 
L 648 118.658206 
" clip-path="url(#p0c86757404)" style="fill: none; stroke: #b0b0b0; stroke-width: 0.8; stroke-linecap: square"/>
     </g>
     <g id="line2d_32">
      <defs>
       <path id="mf529ce4d1b" d="M 0 0 
L -3.5 0 
" style="stroke: #000000; stroke-width: 0.8"/>
      </defs>
      <g>
       <use xlink:href="#mf529ce4d1b" x="90" y="118.658206" style="stroke: #000000; stroke-width: 0.8"/>
      </g>
     </g>
     <g id="text_5">
      <!-- 0.25 -->
      <g transform="translate(60.734375 122.457425) scale(0.1 -0.1)">
       <defs>
        <path id="DejaVuSans-2e" d="M 684 794 
L 1344 794 
L 1344 0 
L 684 0 
L 684 794 
z
" transform="scale(0.015625)"/>
        <path id="DejaVuSans-35" d="M 691 4666 
L 3169 4666 
L 3169 4134 
L 1269 4134 
L 1269 2991 
Q 1406 3038 1543 3061 
Q 1681 3084 1819 3084 
Q 2600 3084 3056 2656 
Q 3513 2228 3513 1497 
Q 3513 744 3044 326 
Q 2575 -91 1722 -91 
Q 1428 -91 1123 -41 
Q 819 9 494 109 
L 494 744 
Q 775 591 1075 516 
Q 1375 441 1709 441 
Q 2250 441 2565 725 
Q 2881 1009 2881 1497 
Q 2881 1984 2565 2268 
Q 2250 2553 1709 2553 
Q 1456 2553 1204 2497 
Q 953 2441 691 2322 
L 691 4666 
z
" transform="scale(0.015625)"/>
       </defs>
       <use xlink:href="#DejaVuSans-30"/>
       <use xlink:href="#DejaVuSans-2e" transform="translate(63.623047 0)"/>
       <use xlink:href="#DejaVuSans-32" transform="translate(95.410156 0)"/>
       <use xlink:href="#DejaVuSans-35" transform="translate(159.033203 0)"/>
      </g>
     </g>
    </g>
    <g id="ytick_2">
     <g id="line2d_33">
      <path d="M 90 92.642016 
L 648 92.642016 
" clip-path="url(#p0c86757404)" style="fill: none; stroke: #b0b0b0; stroke-width: 0.8; stroke-linecap: square"/>
     </g>
     <g id="line2d_34">
      <g>
       <use xlink:href="#mf529ce4d1b" x="90" y="92.642016" style="stroke: #000000; stroke-width: 0.8"/>
      </g>
     </g>
     <g id="text_6">
      <!-- 0.50 -->
      <g transform="translate(60.734375 96.441235) scale(0.1 -0.1)">
       <use xlink:href="#DejaVuSans-30"/>
       <use xlink:href="#DejaVuSans-2e" transform="translate(63.623047 0)"/>
       <use xlink:href="#DejaVuSans-35" transform="translate(95.410156 0)"/>
       <use xlink:href="#DejaVuSans-30" transform="translate(159.033203 0)"/>
      </g>
     </g>
    </g>
    <g id="ytick_3">
     <g id="line2d_35">
      <path d="M 90 66.625826 
L 648 66.625826 
" clip-path="url(#p0c86757404)" style="fill: none; stroke: #b0b0b0; stroke-width: 0.8; stroke-linecap: square"/>
     </g>
     <g id="line2d_36">
      <g>
       <use xlink:href="#mf529ce4d1b" x="90" y="66.625826" style="stroke: #000000; stroke-width: 0.8"/>
      </g>
     </g>
     <g id="text_7">
      <!-- 0.75 -->
      <g transform="translate(60.734375 70.425045) scale(0.1 -0.1)">
       <defs>
        <path id="DejaVuSans-37" d="M 525 4666 
L 3525 4666 
L 3525 4397 
L 1831 0 
L 1172 0 
L 2766 4134 
L 525 4134 
L 525 4666 
z
" transform="scale(0.015625)"/>
       </defs>
       <use xlink:href="#DejaVuSans-30"/>
       <use xlink:href="#DejaVuSans-2e" transform="translate(63.623047 0)"/>
       <use xlink:href="#DejaVuSans-37" transform="translate(95.410156 0)"/>
       <use xlink:href="#DejaVuSans-35" transform="translate(159.033203 0)"/>
      </g>
     </g>
    </g>
    <g id="ytick_4">
     <g id="line2d_37">
      <path d="M 90 40.609636 
L 648 40.609636 
" clip-path="url(#p0c86757404)" style="fill: none; stroke: #b0b0b0; stroke-width: 0.8; stroke-linecap: square"/>
     </g>
     <g id="line2d_38">
      <g>
       <use xlink:href="#mf529ce4d1b" x="90" y="40.609636" style="stroke: #000000; stroke-width: 0.8"/>
      </g>
     </g>
     <g id="text_8">
      <!-- 1.00 -->
      <g transform="translate(60.734375 44.408855) scale(0.1 -0.1)">
       <use xlink:href="#DejaVuSans-31"/>
       <use xlink:href="#DejaVuSans-2e" transform="translate(63.623047 0)"/>
       <use xlink:href="#DejaVuSans-30" transform="translate(95.410156 0)"/>
       <use xlink:href="#DejaVuSans-30" transform="translate(159.033203 0)"/>
      </g>
     </g>
    </g>
    <g id="text_9">
     <!-- Encode time (ratio) -->
     <g transform="translate(54.654687 136.437406) rotate(-90) scale(0.1 -0.1)">
      <defs>
       <path id="DejaVuSans-45" d="M 628 4666 
L 3578 4666 
L 3578 4134 
L 1259 4134 
L 1259 2753 
L 3481 2753 
L 3481 2222 
L 1259 2222 
L 1259 531 
L 3634 531 
L 3634 0 
L 628 0 
L 628 4666 
z
" transform="scale(0.015625)"/>
       <path id="DejaVuSans-6e" d="M 3513 2113 
L 3513 0 
L 2938 0 
L 2938 2094 
Q 2938 2591 2744 2837 
Q 2550 3084 2163 3084 
Q 1697 3084 1428 2787 
Q 1159 2491 1159 1978 
L 1159 0 
L 581 0 
L 581 3500 
L 1159 3500 
L 1159 2956 
Q 1366 3272 1645 3428 
Q 1925 3584 2291 3584 
Q 2894 3584 3203 3211 
Q 3513 2838 3513 2113 
z
" transform="scale(0.015625)"/>
       <path id="DejaVuSans-63" d="M 3122 3366 
L 3122 2828 
Q 2878 2963 2633 3030 
Q 2388 3097 2138 3097 
Q 1578 3097 1268 2742 
Q 959 2388 959 1747 
Q 959 1106 1268 751 
Q 1578 397 2138 397 
Q 2388 397 2633 464 
Q 2878 531 3122 666 
L 3122 134 
Q 2881 22 2623 -34 
Q 2366 -91 2075 -91 
Q 1284 -91 818 406 
Q 353 903 353 1747 
Q 353 2603 823 3093 
Q 1294 3584 2113 3584 
Q 2378 3584 2631 3529 
Q 2884 3475 3122 3366 
z
" transform="scale(0.015625)"/>
       <path id="DejaVuSans-6f" d="M 1959 3097 
Q 1497 3097 1228 2736 
Q 959 2375 959 1747 
Q 959 1119 1226 758 
Q 1494 397 1959 397 
Q 2419 397 2687 759 
Q 2956 1122 2956 1747 
Q 2956 2369 2687 2733 
Q 2419 3097 1959 3097 
z
M 1959 3584 
Q 2709 3584 3137 3096 
Q 3566 2609 3566 1747 
Q 3566 888 3137 398 
Q 2709 -91 1959 -91 
Q 1206 -91 779 398 
Q 353 888 353 1747 
Q 353 2609 779 3096 
Q 1206 3584 1959 3584 
z
" transform="scale(0.015625)"/>
       <path id="DejaVuSans-64" d="M 2906 2969 
L 2906 4863 
L 3481 4863 
L 3481 0 
L 2906 0 
L 2906 525 
Q 2725 213 2448 61 
Q 2172 -91 1784 -91 
Q 1150 -91 751 415 
Q 353 922 353 1747 
Q 353 2572 751 3078 
Q 1150 3584 1784 3584 
Q 2172 3584 2448 3432 
Q 2725 3281 2906 2969 
z
M 947 1747 
Q 947 1113 1208 752 
Q 1469 391 1925 391 
Q 2381 391 2643 752 
Q 2906 1113 2906 1747 
Q 2906 2381 2643 2742 
Q 2381 3103 1925 3103 
Q 1469 3103 1208 2742 
Q 947 2381 947 1747 
z
" transform="scale(0.015625)"/>
       <path id="DejaVuSans-74" d="M 1172 4494 
L 1172 3500 
L 2356 3500 
L 2356 3053 
L 1172 3053 
L 1172 1153 
Q 1172 725 1289 603 
Q 1406 481 1766 481 
L 2356 481 
L 2356 0 
L 1766 0 
Q 1100 0 847 248 
Q 594 497 594 1153 
L 594 3053 
L 172 3053 
L 172 3500 
L 594 3500 
L 594 4494 
L 1172 4494 
z
" transform="scale(0.015625)"/>
       <path id="DejaVuSans-6d" d="M 3328 2828 
Q 3544 3216 3844 3400 
Q 4144 3584 4550 3584 
Q 5097 3584 5394 3201 
Q 5691 2819 5691 2113 
L 5691 0 
L 5113 0 
L 5113 2094 
Q 5113 2597 4934 2840 
Q 4756 3084 4391 3084 
Q 3944 3084 3684 2787 
Q 3425 2491 3425 1978 
L 3425 0 
L 2847 0 
L 2847 2094 
Q 2847 2600 2669 2842 
Q 2491 3084 2119 3084 
Q 1678 3084 1418 2786 
Q 1159 2488 1159 1978 
L 1159 0 
L 581 0 
L 581 3500 
L 1159 3500 
L 1159 2956 
Q 1356 3278 1631 3431 
Q 1906 3584 2284 3584 
Q 2666 3584 2933 3390 
Q 3200 3197 3328 2828 
z
" transform="scale(0.015625)"/>
       <path id="DejaVuSans-72" d="M 2631 2963 
Q 2534 3019 2420 3045 
Q 2306 3072 2169 3072 
Q 1681 3072 1420 2755 
Q 1159 2438 1159 1844 
L 1159 0 
L 581 0 
L 581 3500 
L 1159 3500 
L 1159 2956 
Q 1341 3275 1631 3429 
Q 1922 3584 2338 3584 
Q 2397 3584 2469 3576 
Q 2541 3569 2628 3553 
L 2631 2963 
z
" transform="scale(0.015625)"/>
       <path id="DejaVuSans-61" d="M 2194 1759 
Q 1497 1759 1228 1600 
Q 959 1441 959 1056 
Q 959 750 1161 570 
Q 1363 391 1709 391 
Q 2188 391 2477 730 
Q 2766 1069 2766 1631 
L 2766 1759 
L 2194 1759 
z
M 3341 1997 
L 3341 0 
L 2766 0 
L 2766 531 
Q 2569 213 2275 61 
Q 1981 -91 1556 -91 
Q 1019 -91 701 211 
Q 384 513 384 1019 
Q 384 1609 779 1909 
Q 1175 2209 1959 2209 
L 2766 2209 
L 2766 2266 
Q 2766 2663 2505 2880 
Q 2244 3097 1772 3097 
Q 1472 3097 1187 3025 
Q 903 2953 641 2809 
L 641 3341 
Q 956 3463 1253 3523 
Q 1550 3584 1831 3584 
Q 2591 3584 2966 3190 
Q 3341 2797 3341 1997 
z
" transform="scale(0.015625)"/>
      </defs>
      <use xlink:href="#DejaVuSans-45"/>
      <use xlink:href="#DejaVuSans-6e" transform="translate(63.183594 0)"/>
      <use xlink:href="#DejaVuSans-63" transform="translate(126.5625 0)"/>
      <use xlink:href="#DejaVuSans-6f" transform="translate(181.542969 0)"/>
      <use xlink:href="#DejaVuSans-64" transform="translate(242.724609 0)"/>
      <use xlink:href="#DejaVuSans-65" transform="translate(306.201172 0)"/>
      <use xlink:href="#DejaVuSans-20" transform="translate(367.724609 0)"/>
      <use xlink:href="#DejaVuSans-74" transform="translate(399.511719 0)"/>
      <use xlink:href="#DejaVuSans-69" transform="translate(438.720703 0)"/>
      <use xlink:href="#DejaVuSans-6d" transform="translate(466.503906 0)"/>
      <use xlink:href="#DejaVuSans-65" transform="translate(563.916016 0)"/>
      <use xlink:href="#DejaVuSans-20" transform="translate(625.439453 0)"/>
      <use xlink:href="#DejaVuSans-28" transform="translate(657.226562 0)"/>
      <use xlink:href="#DejaVuSans-72" transform="translate(696.240234 0)"/>
      <use xlink:href="#DejaVuSans-61" transform="translate(737.353516 0)"/>
      <use xlink:href="#DejaVuSans-74" transform="translate(798.632812 0)"/>
      <use xlink:href="#DejaVuSans-69" transform="translate(837.841797 0)"/>
      <use xlink:href="#DejaVuSans-6f" transform="translate(865.625 0)"/>
      <use xlink:href="#DejaVuSans-29" transform="translate(926.806641 0)"/>
     </g>
    </g>
   </g>
   <g id="line2d_39">
    <path d="M 115.363636 40.609636 
L 125.293172 40.609636 
L 135.224169 40.609636 
L 145.15264 40.609636 
L 155.077552 40.609636 
L 164.998156 40.609636 
L 174.916324 40.609636 
L 184.830331 40.609636 
L 194.741239 40.609636 
L 204.647421 40.609636 
L 214.54926 40.609636 
L 224.446666 40.609636 
L 234.339827 40.609636 
L 244.229245 40.609636 
L 254.114098 40.609636 
L 263.994106 40.609636 
L 273.869057 40.609636 
L 283.739435 40.609636 
L 293.60461 40.609636 
L 303.465292 40.609636 
L 313.32069 40.609636 
L 323.17107 40.609636 
L 333.016436 40.609636 
L 342.856771 40.609636 
L 352.692013 40.609636 
L 362.522702 40.609636 
L 381.088042 40.609636 
L 399.625657 40.609636 
L 418.209883 40.609636 
L 436.794108 40.609636 
L 455.378334 40.609636 
L 473.962559 40.609636 
L 492.546785 40.609636 
L 511.13101 40.609636 
L 529.715236 40.609636 
L 548.299462 40.609636 
L 566.883687 40.609636 
L 585.467913 40.609636 
L 604.052138 40.609636 
L 622.636364 40.609636 
" clip-path="url(#p0c86757404)" style="fill: none; stroke: #1f77b4; stroke-width: 1.5; stroke-linecap: square"/>
   </g>
   <g id="line2d_40">
    <path d="M 115.363636 63.46585 
L 125.293172 62.211836 
L 135.224169 57.142875 
L 145.15264 60.305681 
L 155.077552 57.139629 
L 164.998156 59.656261 
L 174.916324 64.024105 
L 184.830331 58.822348 
L 194.741239 60.153882 
L 204.647421 58.664588 
L 214.54926 47.136797 
L 224.446666 58.735968 
L 234.339827 63.376257 
L 244.229245 60.078876 
L 254.114098 56.349419 
L 263.994106 55.553326 
L 273.869057 54.900639 
L 283.739435 63.16282 
L 293.60461 57.99274 
L 303.465292 57.930523 
L 313.32069 53.729505 
L 323.17107 53.939456 
L 333.016436 53.445211 
L 342.856771 55.849788 
L 352.692013 58.287251 
L 362.522702 57.557857 
L 381.088042 55.804542 
L 399.625657 67.201522 
L 418.209883 68.464303 
L 436.794108 60.795562 
L 455.378334 57.824626 
L 473.962559 66.496456 
L 492.546785 57.840081 
L 511.13101 58.758506 
L 529.715236 67.692978 
L 548.299462 59.29583 
L 566.883687 58.710239 
L 585.467913 66.646557 
L 604.052138 58.357703 
L 622.636364 55.991239 
" clip-path="url(#p0c86757404)" style="fill: none; stroke: #ff7f0e; stroke-width: 1.5; stroke-linecap: square"/>
   </g>
   <g id="line2d_41">
    <path d="M 115.363636 132.752555 
L 125.293172 129.296478 
L 135.224169 129.491803 
L 145.15264 131.021848 
L 155.077552 131.811423 
L 164.998156 128.603799 
L 174.916324 131.564931 
L 184.830331 131.994186 
L 194.741239 132.429447 
L 204.647421 131.75272 
L 214.54926 132.159595 
L 224.446666 132.16907 
L 234.339827 133.477829 
L 244.229245 133.487122 
L 254.114098 132.751721 
L 263.994106 131.808058 
L 273.869057 133.072331 
L 283.739435 133.512929 
L 293.60461 132.762894 
L 303.465292 130.996173 
L 313.32069 132.789325 
L 323.17107 133.226204 
L 333.016436 132.926772 
L 342.856771 133.109041 
L 352.692013 133.034602 
L 362.522702 133.250532 
L 381.088042 132.923881 
L 399.625657 134.704516 
L 418.209883 134.634153 
L 436.794108 135.294676 
L 455.378334 134.470501 
L 473.962559 135.585403 
L 492.546785 135.324075 
L 511.13101 135.490603 
L 529.715236 135.682364 
L 548.299462 133.191084 
L 566.883687 132.70156 
L 585.467913 133.428943 
L 604.052138 132.971971 
L 622.636364 132.285233 
" clip-path="url(#p0c86757404)" style="fill: none; stroke: #2ca02c; stroke-width: 1.5; stroke-linecap: square"/>
   </g>
   <g id="line2d_42">
    <path d="M 115.363636 95.411189 
L 125.293172 92.168341 
L 135.224169 90.719592 
L 145.15264 90.968519 
L 155.077552 94.003806 
L 164.998156 92.049755 
L 174.916324 95.427618 
L 184.830331 96.740989 
L 194.741239 92.924755 
L 204.647421 93.71114 
L 214.54926 94.133253 
L 224.446666 93.717395 
L 234.339827 95.297109 
L 244.229245 94.506839 
L 254.114098 93.900714 
L 263.994106 94.918114 
L 273.869057 91.564823 
L 283.739435 94.198739 
L 293.60461 94.757619 
L 303.465292 94.251763 
L 313.32069 92.143862 
L 323.17107 93.614634 
L 333.016436 94.252798 
L 342.856771 96.029742 
L 352.692013 94.734069 
L 362.522702 96.536142 
L 381.088042 94.061969 
L 399.625657 100.884025 
L 418.209883 101.257471 
L 436.794108 103.21521 
L 455.378334 100.699447 
L 473.962559 105.179037 
L 492.546785 104.136239 
L 511.13101 103.502384 
L 529.715236 106.430536 
L 548.299462 102.894001 
L 566.883687 100.131643 
L 585.467913 104.578917 
L 604.052138 101.244599 
L 622.636364 100.663944 
" clip-path="url(#p0c86757404)" style="fill: none; stroke: #d62728; stroke-width: 1.5; stroke-linecap: square"/>
   </g>
   <g id="line2d_43">
    <path d="M 115.363636 119.355498 
L 125.293172 120.822487 
L 135.224169 119.75465 
L 145.15264 119.181914 
L 155.077552 118.773254 
L 164.998156 118.358066 
L 174.916324 121.935663 
L 184.830331 120.056178 
L 194.741239 119.469959 
L 204.647421 118.862349 
L 214.54926 120.300576 
L 224.446666 118.200455 
L 234.339827 120.984475 
L 244.229245 119.054298 
L 254.114098 119.114367 
L 263.994106 118.594329 
L 273.869057 118.629356 
L 283.739435 121.15573 
L 293.60461 117.760749 
L 303.465292 117.510728 
L 313.32069 114.993541 
L 323.17107 117.656646 
L 333.016436 117.193121 
L 342.856771 118.849068 
L 352.692013 118.509096 
L 362.522702 120.030899 
L 381.088042 116.341635 
L 399.625657 120.83015 
L 418.209883 120.669071 
L 436.794108 122.079942 
L 455.378334 121.029564 
L 473.962559 122.638866 
L 492.546785 122.937568 
L 511.13101 114.156143 
L 529.715236 116.804095 
L 548.299462 116.93758 
L 566.883687 114.489715 
L 585.467913 115.530284 
" clip-path="url(#p0c86757404)" style="fill: none; stroke: #9467bd; stroke-width: 1.5; stroke-linecap: square"/>
   </g>
   <g id="patch_3">
    <path d="M 90 140.436 
L 90 35.856 
" style="fill: none; stroke: #000000; stroke-width: 0.8; stroke-linejoin: miter; stroke-linecap: square"/>
   </g>
   <g id="patch_4">
    <path d="M 648 140.436 
L 648 35.856 
" style="fill: none; stroke: #000000; stroke-width: 0.8; stroke-linejoin: miter; stroke-linecap: square"/>
   </g>
   <g id="patch_5">
    <path d="M 90 140.436 
L 648 140.436 
" style="fill: none; stroke: #000000; stroke-width: 0.8; stroke-linejoin: miter; stroke-linecap: square"/>
   </g>
   <g id="patch_6">
    <path d="M 90 35.856 
L 648 35.856 
" style="fill: none; stroke: #000000; stroke-width: 0.8; stroke-linejoin: miter; stroke-linecap: square"/>
   </g>
   <g id="legend_1">
    <g id="patch_7">
     <path d="M 148.274219 33.47185 
L 589.725781 33.47185 
Q 591.725781 33.47185 591.725781 31.47185 
L 591.725781 3.1156 
Q 591.725781 1.1156 589.725781 1.1156 
L 148.274219 1.1156 
Q 146.274219 1.1156 146.274219 3.1156 
L 146.274219 31.47185 
Q 146.274219 33.47185 148.274219 33.47185 
z
" style="fill: #ffffff; opacity: 0.8; stroke: #cccccc; stroke-linejoin: miter"/>
    </g>
    <g id="line2d_44">
     <path d="M 150.274219 9.214038 
L 160.274219 9.214038 
L 170.274219 9.214038 
" style="fill: none; stroke: #1f77b4; stroke-width: 1.5; stroke-linecap: square"/>
    </g>
    <g id="text_10">
     <!-- JSON -->
     <g transform="translate(178.274219 12.714038) scale(0.1 -0.1)">
      <use xlink:href="#DejaVuSans-4a"/>
      <use xlink:href="#DejaVuSans-53" transform="translate(29.492188 0)"/>
      <use xlink:href="#DejaVuSans-4f" transform="translate(92.96875 0)"/>
      <use xlink:href="#DejaVuSans-4e" transform="translate(171.679688 0)"/>
     </g>
    </g>
    <g id="line2d_45">
     <path d="M 150.274219 23.892163 
L 160.274219 23.892163 
L 170.274219 23.892163 
" style="fill: none; stroke: #ff7f0e; stroke-width: 1.5; stroke-linecap: square"/>
    </g>
    <g id="text_11">
     <!-- JSON (unmapped) -->
     <g transform="translate(178.274219 27.392163) scale(0.1 -0.1)">
      <defs>
       <path id="DejaVuSans-75" d="M 544 1381 
L 544 3500 
L 1119 3500 
L 1119 1403 
Q 1119 906 1312 657 
Q 1506 409 1894 409 
Q 2359 409 2629 706 
Q 2900 1003 2900 1516 
L 2900 3500 
L 3475 3500 
L 3475 0 
L 2900 0 
L 2900 538 
Q 2691 219 2414 64 
Q 2138 -91 1772 -91 
Q 1169 -91 856 284 
Q 544 659 544 1381 
z
M 1991 3584 
L 1991 3584 
z
" transform="scale(0.015625)"/>
       <path id="DejaVuSans-70" d="M 1159 525 
L 1159 -1331 
L 581 -1331 
L 581 3500 
L 1159 3500 
L 1159 2969 
Q 1341 3281 1617 3432 
Q 1894 3584 2278 3584 
Q 2916 3584 3314 3078 
Q 3713 2572 3713 1747 
Q 3713 922 3314 415 
Q 2916 -91 2278 -91 
Q 1894 -91 1617 61 
Q 1341 213 1159 525 
z
M 3116 1747 
Q 3116 2381 2855 2742 
Q 2594 3103 2138 3103 
Q 1681 3103 1420 2742 
Q 1159 2381 1159 1747 
Q 1159 1113 1420 752 
Q 1681 391 2138 391 
Q 2594 391 2855 752 
Q 3116 1113 3116 1747 
z
" transform="scale(0.015625)"/>
      </defs>
      <use xlink:href="#DejaVuSans-4a"/>
      <use xlink:href="#DejaVuSans-53" transform="translate(29.492188 0)"/>
      <use xlink:href="#DejaVuSans-4f" transform="translate(92.96875 0)"/>
      <use xlink:href="#DejaVuSans-4e" transform="translate(171.679688 0)"/>
      <use xlink:href="#DejaVuSans-20" transform="translate(246.484375 0)"/>
      <use xlink:href="#DejaVuSans-28" transform="translate(278.271484 0)"/>
      <use xlink:href="#DejaVuSans-75" transform="translate(317.285156 0)"/>
      <use xlink:href="#DejaVuSans-6e" transform="translate(380.664062 0)"/>
      <use xlink:href="#DejaVuSans-6d" transform="translate(444.042969 0)"/>
      <use xlink:href="#DejaVuSans-61" transform="translate(541.455078 0)"/>
      <use xlink:href="#DejaVuSans-70" transform="translate(602.734375 0)"/>
      <use xlink:href="#DejaVuSans-70" transform="translate(666.210938 0)"/>
      <use xlink:href="#DejaVuSans-65" transform="translate(729.6875 0)"/>
      <use xlink:href="#DejaVuSans-64" transform="translate(791.210938 0)"/>
      <use xlink:href="#DejaVuSans-29" transform="translate(854.6875 0)"/>
     </g>
    </g>
    <g id="line2d_46">
     <path d="M 287.649219 9.214038 
L 297.649219 9.214038 
L 307.649219 9.214038 
" style="fill: none; stroke: #2ca02c; stroke-width: 1.5; stroke-linecap: square"/>
    </g>
    <g id="text_12">
     <!-- AVRO Avsc -->
     <g transform="translate(315.649219 12.714038) scale(0.1 -0.1)">
      <defs>
       <path id="DejaVuSans-41" d="M 2188 4044 
L 1331 1722 
L 3047 1722 
L 2188 4044 
z
M 1831 4666 
L 2547 4666 
L 4325 0 
L 3669 0 
L 3244 1197 
L 1141 1197 
L 716 0 
L 50 0 
L 1831 4666 
z
" transform="scale(0.015625)"/>
       <path id="DejaVuSans-56" d="M 1831 0 
L 50 4666 
L 709 4666 
L 2188 738 
L 3669 4666 
L 4325 4666 
L 2547 0 
L 1831 0 
z
" transform="scale(0.015625)"/>
       <path id="DejaVuSans-52" d="M 2841 2188 
Q 3044 2119 3236 1894 
Q 3428 1669 3622 1275 
L 4263 0 
L 3584 0 
L 2988 1197 
Q 2756 1666 2539 1819 
Q 2322 1972 1947 1972 
L 1259 1972 
L 1259 0 
L 628 0 
L 628 4666 
L 2053 4666 
Q 2853 4666 3247 4331 
Q 3641 3997 3641 3322 
Q 3641 2881 3436 2590 
Q 3231 2300 2841 2188 
z
M 1259 4147 
L 1259 2491 
L 2053 2491 
Q 2509 2491 2742 2702 
Q 2975 2913 2975 3322 
Q 2975 3731 2742 3939 
Q 2509 4147 2053 4147 
L 1259 4147 
z
" transform="scale(0.015625)"/>
       <path id="DejaVuSans-76" d="M 191 3500 
L 800 3500 
L 1894 563 
L 2988 3500 
L 3597 3500 
L 2284 0 
L 1503 0 
L 191 3500 
z
" transform="scale(0.015625)"/>
      </defs>
      <use xlink:href="#DejaVuSans-41"/>
      <use xlink:href="#DejaVuSans-56" transform="translate(62.033203 0)"/>
      <use xlink:href="#DejaVuSans-52" transform="translate(130.441406 0)"/>
      <use xlink:href="#DejaVuSans-4f" transform="translate(199.923828 0)"/>
      <use xlink:href="#DejaVuSans-20" transform="translate(278.634766 0)"/>
      <use xlink:href="#DejaVuSans-41" transform="translate(310.421875 0)"/>
      <use xlink:href="#DejaVuSans-76" transform="translate(372.955078 0)"/>
      <use xlink:href="#DejaVuSans-73" transform="translate(432.134766 0)"/>
      <use xlink:href="#DejaVuSans-63" transform="translate(484.234375 0)"/>
     </g>
    </g>
    <g id="line2d_47">
     <path d="M 287.649219 23.892163 
L 297.649219 23.892163 
L 307.649219 23.892163 
" style="fill: none; stroke: #d62728; stroke-width: 1.5; stroke-linecap: square"/>
    </g>
    <g id="text_13">
     <!-- AVRO Avsc (optional) -->
     <g transform="translate(315.649219 27.392163) scale(0.1 -0.1)">
      <defs>
       <path id="DejaVuSans-6c" d="M 603 4863 
L 1178 4863 
L 1178 0 
L 603 0 
L 603 4863 
z
" transform="scale(0.015625)"/>
      </defs>
      <use xlink:href="#DejaVuSans-41"/>
      <use xlink:href="#DejaVuSans-56" transform="translate(62.033203 0)"/>
      <use xlink:href="#DejaVuSans-52" transform="translate(130.441406 0)"/>
      <use xlink:href="#DejaVuSans-4f" transform="translate(199.923828 0)"/>
      <use xlink:href="#DejaVuSans-20" transform="translate(278.634766 0)"/>
      <use xlink:href="#DejaVuSans-41" transform="translate(310.421875 0)"/>
      <use xlink:href="#DejaVuSans-76" transform="translate(372.955078 0)"/>
      <use xlink:href="#DejaVuSans-73" transform="translate(432.134766 0)"/>
      <use xlink:href="#DejaVuSans-63" transform="translate(484.234375 0)"/>
      <use xlink:href="#DejaVuSans-20" transform="translate(539.214844 0)"/>
      <use xlink:href="#DejaVuSans-28" transform="translate(571.001953 0)"/>
      <use xlink:href="#DejaVuSans-6f" transform="translate(610.015625 0)"/>
      <use xlink:href="#DejaVuSans-70" transform="translate(671.197266 0)"/>
      <use xlink:href="#DejaVuSans-74" transform="translate(734.673828 0)"/>
      <use xlink:href="#DejaVuSans-69" transform="translate(773.882812 0)"/>
      <use xlink:href="#DejaVuSans-6f" transform="translate(801.666016 0)"/>
      <use xlink:href="#DejaVuSans-6e" transform="translate(862.847656 0)"/>
      <use xlink:href="#DejaVuSans-61" transform="translate(926.226562 0)"/>
      <use xlink:href="#DejaVuSans-6c" transform="translate(987.505859 0)"/>
      <use xlink:href="#DejaVuSans-29" transform="translate(1015.289062 0)"/>
     </g>
    </g>
    <g id="line2d_48">
     <path d="M 441.080469 9.214038 
L 451.080469 9.214038 
L 461.080469 9.214038 
" style="fill: none; stroke: #9467bd; stroke-width: 1.5; stroke-linecap: square"/>
    </g>
    <g id="text_14">
     <!-- AVRO Avsc (unmapped) -->
     <g transform="translate(469.080469 12.714038) scale(0.1 -0.1)">
      <use xlink:href="#DejaVuSans-41"/>
      <use xlink:href="#DejaVuSans-56" transform="translate(62.033203 0)"/>
      <use xlink:href="#DejaVuSans-52" transform="translate(130.441406 0)"/>
      <use xlink:href="#DejaVuSans-4f" transform="translate(199.923828 0)"/>
      <use xlink:href="#DejaVuSans-20" transform="translate(278.634766 0)"/>
      <use xlink:href="#DejaVuSans-41" transform="translate(310.421875 0)"/>
      <use xlink:href="#DejaVuSans-76" transform="translate(372.955078 0)"/>
      <use xlink:href="#DejaVuSans-73" transform="translate(432.134766 0)"/>
      <use xlink:href="#DejaVuSans-63" transform="translate(484.234375 0)"/>
      <use xlink:href="#DejaVuSans-20" transform="translate(539.214844 0)"/>
      <use xlink:href="#DejaVuSans-28" transform="translate(571.001953 0)"/>
      <use xlink:href="#DejaVuSans-75" transform="translate(610.015625 0)"/>
      <use xlink:href="#DejaVuSans-6e" transform="translate(673.394531 0)"/>
      <use xlink:href="#DejaVuSans-6d" transform="translate(736.773438 0)"/>
      <use xlink:href="#DejaVuSans-61" transform="translate(834.185547 0)"/>
      <use xlink:href="#DejaVuSans-70" transform="translate(895.464844 0)"/>
      <use xlink:href="#DejaVuSans-70" transform="translate(958.941406 0)"/>
      <use xlink:href="#DejaVuSans-65" transform="translate(1022.417969 0)"/>
      <use xlink:href="#DejaVuSans-64" transform="translate(1083.941406 0)"/>
      <use xlink:href="#DejaVuSans-29" transform="translate(1147.417969 0)"/>
     </g>
    </g>
   </g>
  </g>
  <g id="axes_2">
   <g id="patch_8">
    <path d="M 90 265.932 
L 648 265.932 
L 648 161.352 
L 90 161.352 
z
" style="fill: #ffffff"/>
   </g>
   <g id="matplotlib.axis_3">
    <g id="xtick_28">
     <g id="line2d_49">
      <path d="M 166.951075 265.932 
L 166.951075 161.352 
" clip-path="url(#pc3674eb5a3)" style="fill: none; stroke: #b0b0b0; stroke-width: 0.8; stroke-linecap: square"/>
     </g>
     <g id="line2d_50">
      <g>
       <use xlink:href="#m053657eedd" x="166.951075" y="265.932" style="stroke: #000000; stroke-width: 0.8"/>
      </g>
     </g>
     <g id="text_15">
      <!-- $\mathdefault{10^{0}}$ -->
      <g transform="translate(158.151075 280.530438) scale(0.1 -0.1)">
       <use xlink:href="#DejaVuSans-31" transform="translate(0 0.765625)"/>
       <use xlink:href="#DejaVuSans-30" transform="translate(63.623047 0.765625)"/>
       <use xlink:href="#DejaVuSans-30" transform="translate(128.203125 39.046875) scale(0.7)"/>
      </g>
     </g>
    </g>
    <g id="xtick_29">
     <g id="line2d_51">
      <path d="M 358.718932 265.932 
L 358.718932 161.352 
" clip-path="url(#pc3674eb5a3)" style="fill: none; stroke: #b0b0b0; stroke-width: 0.8; stroke-linecap: square"/>
     </g>
     <g id="line2d_52">
      <g>
       <use xlink:href="#m053657eedd" x="358.718932" y="265.932" style="stroke: #000000; stroke-width: 0.8"/>
      </g>
     </g>
     <g id="text_16">
      <!-- $\mathdefault{10^{1}}$ -->
      <g transform="translate(349.918932 280.530438) scale(0.1 -0.1)">
       <use xlink:href="#DejaVuSans-31" transform="translate(0 0.684375)"/>
       <use xlink:href="#DejaVuSans-30" transform="translate(63.623047 0.684375)"/>
       <use xlink:href="#DejaVuSans-31" transform="translate(128.203125 38.965625) scale(0.7)"/>
      </g>
     </g>
    </g>
    <g id="xtick_30">
     <g id="line2d_53">
      <path d="M 550.486789 265.932 
L 550.486789 161.352 
" clip-path="url(#pc3674eb5a3)" style="fill: none; stroke: #b0b0b0; stroke-width: 0.8; stroke-linecap: square"/>
     </g>
     <g id="line2d_54">
      <g>
       <use xlink:href="#m053657eedd" x="550.486789" y="265.932" style="stroke: #000000; stroke-width: 0.8"/>
      </g>
     </g>
     <g id="text_17">
      <!-- $\mathdefault{10^{2}}$ -->
      <g transform="translate(541.686789 280.530438) scale(0.1 -0.1)">
       <use xlink:href="#DejaVuSans-31" transform="translate(0 0.765625)"/>
       <use xlink:href="#DejaVuSans-30" transform="translate(63.623047 0.765625)"/>
       <use xlink:href="#DejaVuSans-32" transform="translate(128.203125 39.046875) scale(0.7)"/>
      </g>
     </g>
    </g>
    <g id="xtick_31">
     <g id="line2d_55">
      <g>
       <use xlink:href="#m2fab788e4a" x="90.638972" y="265.932" style="stroke: #000000; stroke-width: 0.6"/>
      </g>
     </g>
    </g>
    <g id="xtick_32">
     <g id="line2d_56">
      <g>
       <use xlink:href="#m2fab788e4a" x="109.223198" y="265.932" style="stroke: #000000; stroke-width: 0.6"/>
      </g>
     </g>
    </g>
    <g id="xtick_33">
     <g id="line2d_57">
      <g>
       <use xlink:href="#m2fab788e4a" x="124.407616" y="265.932" style="stroke: #000000; stroke-width: 0.6"/>
      </g>
     </g>
    </g>
    <g id="xtick_34">
     <g id="line2d_58">
      <g>
       <use xlink:href="#m2fab788e4a" x="137.245858" y="265.932" style="stroke: #000000; stroke-width: 0.6"/>
      </g>
     </g>
    </g>
    <g id="xtick_35">
     <g id="line2d_59">
      <g>
       <use xlink:href="#m2fab788e4a" x="148.36685" y="265.932" style="stroke: #000000; stroke-width: 0.6"/>
      </g>
     </g>
    </g>
    <g id="xtick_36">
     <g id="line2d_60">
      <g>
       <use xlink:href="#m2fab788e4a" x="158.176259" y="265.932" style="stroke: #000000; stroke-width: 0.6"/>
      </g>
     </g>
    </g>
    <g id="xtick_37">
     <g id="line2d_61">
      <g>
       <use xlink:href="#m2fab788e4a" x="224.678952" y="265.932" style="stroke: #000000; stroke-width: 0.6"/>
      </g>
     </g>
    </g>
    <g id="xtick_38">
     <g id="line2d_62">
      <g>
       <use xlink:href="#m2fab788e4a" x="258.447596" y="265.932" style="stroke: #000000; stroke-width: 0.6"/>
      </g>
     </g>
    </g>
    <g id="xtick_39">
     <g id="line2d_63">
      <g>
       <use xlink:href="#m2fab788e4a" x="282.406829" y="265.932" style="stroke: #000000; stroke-width: 0.6"/>
      </g>
     </g>
    </g>
    <g id="xtick_40">
     <g id="line2d_64">
      <g>
       <use xlink:href="#m2fab788e4a" x="300.991055" y="265.932" style="stroke: #000000; stroke-width: 0.6"/>
      </g>
     </g>
    </g>
    <g id="xtick_41">
     <g id="line2d_65">
      <g>
       <use xlink:href="#m2fab788e4a" x="316.175473" y="265.932" style="stroke: #000000; stroke-width: 0.6"/>
      </g>
     </g>
    </g>
    <g id="xtick_42">
     <g id="line2d_66">
      <g>
       <use xlink:href="#m2fab788e4a" x="329.013715" y="265.932" style="stroke: #000000; stroke-width: 0.6"/>
      </g>
     </g>
    </g>
    <g id="xtick_43">
     <g id="line2d_67">
      <g>
       <use xlink:href="#m2fab788e4a" x="340.134707" y="265.932" style="stroke: #000000; stroke-width: 0.6"/>
      </g>
     </g>
    </g>
    <g id="xtick_44">
     <g id="line2d_68">
      <g>
       <use xlink:href="#m2fab788e4a" x="349.944116" y="265.932" style="stroke: #000000; stroke-width: 0.6"/>
      </g>
     </g>
    </g>
    <g id="xtick_45">
     <g id="line2d_69">
      <g>
       <use xlink:href="#m2fab788e4a" x="416.446809" y="265.932" style="stroke: #000000; stroke-width: 0.6"/>
      </g>
     </g>
    </g>
    <g id="xtick_46">
     <g id="line2d_70">
      <g>
       <use xlink:href="#m2fab788e4a" x="450.215453" y="265.932" style="stroke: #000000; stroke-width: 0.6"/>
      </g>
     </g>
    </g>
    <g id="xtick_47">
     <g id="line2d_71">
      <g>
       <use xlink:href="#m2fab788e4a" x="474.174687" y="265.932" style="stroke: #000000; stroke-width: 0.6"/>
      </g>
     </g>
    </g>
    <g id="xtick_48">
     <g id="line2d_72">
      <g>
       <use xlink:href="#m2fab788e4a" x="492.758912" y="265.932" style="stroke: #000000; stroke-width: 0.6"/>
      </g>
     </g>
    </g>
    <g id="xtick_49">
     <g id="line2d_73">
      <g>
       <use xlink:href="#m2fab788e4a" x="507.94333" y="265.932" style="stroke: #000000; stroke-width: 0.6"/>
      </g>
     </g>
    </g>
    <g id="xtick_50">
     <g id="line2d_74">
      <g>
       <use xlink:href="#m2fab788e4a" x="520.781572" y="265.932" style="stroke: #000000; stroke-width: 0.6"/>
      </g>
     </g>
    </g>
    <g id="xtick_51">
     <g id="line2d_75">
      <g>
       <use xlink:href="#m2fab788e4a" x="531.902564" y="265.932" style="stroke: #000000; stroke-width: 0.6"/>
      </g>
     </g>
    </g>
    <g id="xtick_52">
     <g id="line2d_76">
      <g>
       <use xlink:href="#m2fab788e4a" x="541.711973" y="265.932" style="stroke: #000000; stroke-width: 0.6"/>
      </g>
     </g>
    </g>
    <g id="xtick_53">
     <g id="line2d_77">
      <g>
       <use xlink:href="#m2fab788e4a" x="608.214667" y="265.932" style="stroke: #000000; stroke-width: 0.6"/>
      </g>
     </g>
    </g>
    <g id="xtick_54">
     <g id="line2d_78">
      <g>
       <use xlink:href="#m2fab788e4a" x="641.98331" y="265.932" style="stroke: #000000; stroke-width: 0.6"/>
      </g>
     </g>
    </g>
    <g id="text_18">
     <!-- JSON size (MB) -->
     <g transform="translate(332.155469 294.208563) scale(0.1 -0.1)">
      <use xlink:href="#DejaVuSans-4a"/>
      <use xlink:href="#DejaVuSans-53" transform="translate(29.492188 0)"/>
      <use xlink:href="#DejaVuSans-4f" transform="translate(92.96875 0)"/>
      <use xlink:href="#DejaVuSans-4e" transform="translate(171.679688 0)"/>
      <use xlink:href="#DejaVuSans-20" transform="translate(246.484375 0)"/>
      <use xlink:href="#DejaVuSans-73" transform="translate(278.271484 0)"/>
      <use xlink:href="#DejaVuSans-69" transform="translate(330.371094 0)"/>
      <use xlink:href="#DejaVuSans-7a" transform="translate(358.154297 0)"/>
      <use xlink:href="#DejaVuSans-65" transform="translate(410.644531 0)"/>
      <use xlink:href="#DejaVuSans-20" transform="translate(472.167969 0)"/>
      <use xlink:href="#DejaVuSans-28" transform="translate(503.955078 0)"/>
      <use xlink:href="#DejaVuSans-4d" transform="translate(542.96875 0)"/>
      <use xlink:href="#DejaVuSans-42" transform="translate(629.248047 0)"/>
      <use xlink:href="#DejaVuSans-29" transform="translate(697.851562 0)"/>
     </g>
    </g>
   </g>
   <g id="matplotlib.axis_4">
    <g id="ytick_5">
     <g id="line2d_79">
      <path d="M 90 243.527208 
L 648 243.527208 
" clip-path="url(#pc3674eb5a3)" style="fill: none; stroke: #b0b0b0; stroke-width: 0.8; stroke-linecap: square"/>
     </g>
     <g id="line2d_80">
      <g>
       <use xlink:href="#mf529ce4d1b" x="90" y="243.527208" style="stroke: #000000; stroke-width: 0.8"/>
      </g>
     </g>
     <g id="text_19">
      <!-- 0.5 -->
      <g transform="translate(67.096875 247.326426) scale(0.1 -0.1)">
       <use xlink:href="#DejaVuSans-30"/>
       <use xlink:href="#DejaVuSans-2e" transform="translate(63.623047 0)"/>
       <use xlink:href="#DejaVuSans-35" transform="translate(95.410156 0)"/>
      </g>
     </g>
    </g>
    <g id="ytick_6">
     <g id="line2d_81">
      <path d="M 90 218.022071 
L 648 218.022071 
" clip-path="url(#pc3674eb5a3)" style="fill: none; stroke: #b0b0b0; stroke-width: 0.8; stroke-linecap: square"/>
     </g>
     <g id="line2d_82">
      <g>
       <use xlink:href="#mf529ce4d1b" x="90" y="218.022071" style="stroke: #000000; stroke-width: 0.8"/>
      </g>
     </g>
     <g id="text_20">
      <!-- 1.0 -->
      <g transform="translate(67.096875 221.82129) scale(0.1 -0.1)">
       <use xlink:href="#DejaVuSans-31"/>
       <use xlink:href="#DejaVuSans-2e" transform="translate(63.623047 0)"/>
       <use xlink:href="#DejaVuSans-30" transform="translate(95.410156 0)"/>
      </g>
     </g>
    </g>
    <g id="ytick_7">
     <g id="line2d_83">
      <path d="M 90 192.516935 
L 648 192.516935 
" clip-path="url(#pc3674eb5a3)" style="fill: none; stroke: #b0b0b0; stroke-width: 0.8; stroke-linecap: square"/>
     </g>
     <g id="line2d_84">
      <g>
       <use xlink:href="#mf529ce4d1b" x="90" y="192.516935" style="stroke: #000000; stroke-width: 0.8"/>
      </g>
     </g>
     <g id="text_21">
      <!-- 1.5 -->
      <g transform="translate(67.096875 196.316154) scale(0.1 -0.1)">
       <use xlink:href="#DejaVuSans-31"/>
       <use xlink:href="#DejaVuSans-2e" transform="translate(63.623047 0)"/>
       <use xlink:href="#DejaVuSans-35" transform="translate(95.410156 0)"/>
      </g>
     </g>
    </g>
    <g id="ytick_8">
     <g id="line2d_85">
      <path d="M 90 167.011799 
L 648 167.011799 
" clip-path="url(#pc3674eb5a3)" style="fill: none; stroke: #b0b0b0; stroke-width: 0.8; stroke-linecap: square"/>
     </g>
     <g id="line2d_86">
      <g>
       <use xlink:href="#mf529ce4d1b" x="90" y="167.011799" style="stroke: #000000; stroke-width: 0.8"/>
      </g>
     </g>
     <g id="text_22">
      <!-- 2.0 -->
      <g transform="translate(67.096875 170.811017) scale(0.1 -0.1)">
       <use xlink:href="#DejaVuSans-32"/>
       <use xlink:href="#DejaVuSans-2e" transform="translate(63.623047 0)"/>
       <use xlink:href="#DejaVuSans-30" transform="translate(95.410156 0)"/>
      </g>
     </g>
    </g>
    <g id="text_23">
     <!-- Decode time (ratio) -->
     <g transform="translate(61.017187 262.531844) rotate(-90) scale(0.1 -0.1)">
      <defs>
       <path id="DejaVuSans-44" d="M 1259 4147 
L 1259 519 
L 2022 519 
Q 2988 519 3436 956 
Q 3884 1394 3884 2338 
Q 3884 3275 3436 3711 
Q 2988 4147 2022 4147 
L 1259 4147 
z
M 628 4666 
L 1925 4666 
Q 3281 4666 3915 4102 
Q 4550 3538 4550 2338 
Q 4550 1131 3912 565 
Q 3275 0 1925 0 
L 628 0 
L 628 4666 
z
" transform="scale(0.015625)"/>
      </defs>
      <use xlink:href="#DejaVuSans-44"/>
      <use xlink:href="#DejaVuSans-65" transform="translate(77.001953 0)"/>
      <use xlink:href="#DejaVuSans-63" transform="translate(138.525391 0)"/>
      <use xlink:href="#DejaVuSans-6f" transform="translate(193.505859 0)"/>
      <use xlink:href="#DejaVuSans-64" transform="translate(254.6875 0)"/>
      <use xlink:href="#DejaVuSans-65" transform="translate(318.164062 0)"/>
      <use xlink:href="#DejaVuSans-20" transform="translate(379.6875 0)"/>
      <use xlink:href="#DejaVuSans-74" transform="translate(411.474609 0)"/>
      <use xlink:href="#DejaVuSans-69" transform="translate(450.683594 0)"/>
      <use xlink:href="#DejaVuSans-6d" transform="translate(478.466797 0)"/>
      <use xlink:href="#DejaVuSans-65" transform="translate(575.878906 0)"/>
      <use xlink:href="#DejaVuSans-20" transform="translate(637.402344 0)"/>
      <use xlink:href="#DejaVuSans-28" transform="translate(669.189453 0)"/>
      <use xlink:href="#DejaVuSans-72" transform="translate(708.203125 0)"/>
      <use xlink:href="#DejaVuSans-61" transform="translate(749.316406 0)"/>
      <use xlink:href="#DejaVuSans-74" transform="translate(810.595703 0)"/>
      <use xlink:href="#DejaVuSans-69" transform="translate(849.804688 0)"/>
      <use xlink:href="#DejaVuSans-6f" transform="translate(877.587891 0)"/>
      <use xlink:href="#DejaVuSans-29" transform="translate(938.769531 0)"/>
     </g>
    </g>
   </g>
   <g id="line2d_87">
    <path d="M 115.363636 218.022071 
L 125.293172 218.022071 
L 135.224169 218.022071 
L 145.15264 218.022071 
L 155.077552 218.022071 
L 164.998156 218.022071 
L 174.916324 218.022071 
L 184.830331 218.022071 
L 194.741239 218.022071 
L 204.647421 218.022071 
L 214.54926 218.022071 
L 224.446666 218.022071 
L 234.339827 218.022071 
L 244.229245 218.022071 
L 254.114098 218.022071 
L 263.994106 218.022071 
L 273.869057 218.022071 
L 283.739435 218.022071 
L 293.60461 218.022071 
L 303.465292 218.022071 
L 313.32069 218.022071 
L 323.17107 218.022071 
L 333.016436 218.022071 
L 342.856771 218.022071 
L 352.692013 218.022071 
L 362.522702 218.022071 
L 381.088042 218.022071 
L 399.625657 218.022071 
L 418.209883 218.022071 
L 436.794108 218.022071 
L 455.378334 218.022071 
L 473.962559 218.022071 
L 492.546785 218.022071 
L 511.13101 218.022071 
L 529.715236 218.022071 
L 548.299462 218.022071 
L 566.883687 218.022071 
L 585.467913 218.022071 
L 604.052138 218.022071 
L 622.636364 218.022071 
" clip-path="url(#pc3674eb5a3)" style="fill: none; stroke: #1f77b4; stroke-width: 1.5; stroke-linecap: square"/>
   </g>
   <g id="line2d_88">
    <path d="M 115.363636 232.335475 
L 125.293172 230.188702 
L 135.224169 231.236796 
L 145.15264 233.296649 
L 155.077552 231.893086 
L 164.998156 231.233188 
L 174.916324 231.70439 
L 184.830331 231.708301 
L 194.741239 228.707481 
L 204.647421 230.829882 
L 214.54926 232.009551 
L 224.446666 231.339489 
L 234.339827 232.970734 
L 244.229245 230.682138 
L 254.114098 231.131484 
L 263.994106 230.028491 
L 273.869057 230.018786 
L 283.739435 230.886572 
L 293.60461 230.900934 
L 303.465292 231.052355 
L 313.32069 231.522279 
L 323.17107 229.150575 
L 333.016436 231.975719 
L 342.856771 220.644089 
L 352.692013 217.288762 
L 362.522702 231.154538 
L 381.088042 231.072653 
L 399.625657 231.284614 
L 418.209883 224.536319 
L 436.794108 232.107987 
L 455.378334 230.503143 
L 473.962559 226.504608 
L 492.546785 226.857451 
L 511.13101 228.285997 
L 529.715236 227.619964 
L 548.299462 227.976151 
L 566.883687 225.652948 
L 585.467913 227.098516 
L 604.052138 226.979298 
L 622.636364 228.32528 
" clip-path="url(#pc3674eb5a3)" style="fill: none; stroke: #ff7f0e; stroke-width: 1.5; stroke-linecap: square"/>
   </g>
   <g id="line2d_89">
    <path d="M 115.363636 246.843213 
L 125.293172 246.894118 
L 135.224169 248.295419 
L 145.15264 249.068118 
L 155.077552 246.575318 
L 164.998156 248.184571 
L 174.916324 249.133374 
L 184.830331 250.562269 
L 194.741239 248.625458 
L 204.647421 251.195724 
L 214.54926 252.344154 
L 224.446666 252.868198 
L 234.339827 254.267864 
L 244.229245 254.070625 
L 254.114098 254.698709 
L 263.994106 252.138485 
L 273.869057 255.386796 
L 283.739435 256.953213 
L 293.60461 256.526556 
L 303.465292 257.724433 
L 313.32069 261.178364 
L 323.17107 261.168421 
L 333.016436 259.943776 
L 342.856771 253.402771 
L 352.692013 254.6882 
L 362.522702 252.217227 
L 381.088042 253.855005 
L 399.625657 251.804549 
L 418.209883 251.208882 
L 436.794108 252.101935 
L 455.378334 253.289996 
L 473.962559 251.385714 
L 492.546785 252.017706 
L 511.13101 253.076224 
L 529.715236 252.370245 
L 548.299462 251.45614 
L 566.883687 251.663459 
L 585.467913 250.508265 
L 604.052138 252.46218 
L 622.636364 253.826639 
" clip-path="url(#pc3674eb5a3)" style="fill: none; stroke: #2ca02c; stroke-width: 1.5; stroke-linecap: square"/>
   </g>
   <g id="line2d_90">
    <path d="M 115.363636 255.560949 
L 125.293172 253.283955 
L 135.224169 254.967321 
L 145.15264 253.949996 
L 155.077552 243.96476 
L 164.998156 246.536178 
L 174.916324 249.679511 
L 184.830331 248.910373 
L 194.741239 250.294498 
L 204.647421 248.458775 
L 214.54926 249.353666 
L 224.446666 250.627988 
L 234.339827 248.166685 
L 244.229245 250.777538 
L 254.114098 251.673688 
L 263.994106 251.026468 
L 273.869057 252.97235 
L 283.739435 251.874016 
L 293.60461 253.559194 
L 303.465292 253.63812 
L 313.32069 254.266432 
L 323.17107 252.644461 
L 333.016436 254.154356 
L 342.856771 246.634014 
L 352.692013 249.455217 
L 362.522702 249.279171 
L 381.088042 249.248724 
L 399.625657 247.865482 
L 418.209883 245.93276 
L 436.794108 249.015472 
L 455.378334 250.760212 
L 473.962559 248.813207 
L 492.546785 248.861786 
L 511.13101 249.605815 
L 529.715236 249.149976 
L 548.299462 249.330107 
L 566.883687 250.94149 
L 585.467913 249.858813 
L 604.052138 251.198128 
L 622.636364 251.718649 
" clip-path="url(#pc3674eb5a3)" style="fill: none; stroke: #d62728; stroke-width: 1.5; stroke-linecap: square"/>
   </g>
   <g id="line2d_91">
    <path d="M 115.363636 247.836817 
L 125.293172 246.869397 
L 135.224169 248.612501 
L 145.15264 248.71392 
L 155.077552 166.105636 
L 164.998156 245.39457 
L 174.916324 242.938861 
L 184.830331 241.450044 
L 194.741239 246.336177 
L 204.647421 244.916285 
L 214.54926 246.140826 
L 224.446666 245.370316 
L 234.339827 244.901519 
L 244.229245 246.138953 
L 254.114098 244.743836 
L 263.994106 244.456847 
L 273.869057 245.726027 
L 283.739435 245.941609 
L 293.60461 246.010769 
L 303.465292 245.138717 
L 313.32069 236.270566 
L 323.17107 235.917587 
L 333.016436 229.629081 
L 342.856771 229.943305 
L 352.692013 234.872905 
L 362.522702 240.336667 
L 381.088042 239.682495 
L 399.625657 239.189814 
L 418.209883 236.945194 
L 436.794108 241.300961 
L 455.378334 240.247539 
L 473.962559 238.866133 
L 492.546785 238.023764 
L 511.13101 241.198167 
L 529.715236 240.272297 
L 548.299462 241.162334 
L 566.883687 241.70675 
L 585.467913 241.837854 
" clip-path="url(#pc3674eb5a3)" style="fill: none; stroke: #9467bd; stroke-width: 1.5; stroke-linecap: square"/>
   </g>
   <g id="patch_9">
    <path d="M 90 265.932 
L 90 161.352 
" style="fill: none; stroke: #000000; stroke-width: 0.8; stroke-linejoin: miter; stroke-linecap: square"/>
   </g>
   <g id="patch_10">
    <path d="M 648 265.932 
L 648 161.352 
" style="fill: none; stroke: #000000; stroke-width: 0.8; stroke-linejoin: miter; stroke-linecap: square"/>
   </g>
   <g id="patch_11">
    <path d="M 90 265.932 
L 648 265.932 
" style="fill: none; stroke: #000000; stroke-width: 0.8; stroke-linejoin: miter; stroke-linecap: square"/>
   </g>
   <g id="patch_12">
    <path d="M 90 161.352 
L 648 161.352 
" style="fill: none; stroke: #000000; stroke-width: 0.8; stroke-linejoin: miter; stroke-linecap: square"/>
   </g>
  </g>
 </g>
 <defs>
  <clipPath id="p0c86757404">
   <rect x="90" y="35.856" width="558" height="104.58"/>
  </clipPath>
  <clipPath id="pc3674eb5a3">
   <rect x="90" y="161.352" width="558" height="104.58"/>
  </clipPath>
 </defs>
</svg>
